<svg xmlns="http://www.w3.org/2000/svg" width="20" height="20" fill="none" viewBox="0 0 20 20"><g clip-path="url(#clip0_1137_945)"><path fill="#000" d="M18.7521 2.50213H1.25213C1.08536 2.4921 0.918365 2.51757 0.762165 2.57684C0.605965 2.63612 0.464115 2.72785 0.34598 2.84598C0.227845 2.96412 0.136114 3.10597 0.076841 3.26217C0.0175685 3.41837 -0.00789608 3.58537 0.00212847 3.75213V16.2521C-0.00789608 16.4189 0.0175685 16.5859 0.076841 16.7421C0.136114 16.8983 0.227845 17.0401 0.34598 17.1583C0.464115 17.2764 0.605965 17.3681 0.762165 17.4274C0.918365 17.4868 1.08536 17.5121 1.25213 17.5021H18.7521C18.9189 17.5121 19.0859 17.4868 19.2421 17.4274C19.3982 17.3681 19.5401 17.2764 19.6582 17.1583C19.7764 17.0401 19.8681 16.8983 19.9274 16.7421C19.9868 16.5859 20.0121 16.4189 20.0021 16.2521V3.75213C20.0121 3.58537 19.9868 3.41837 19.9274 3.26217C19.8681 3.10597 19.7764 2.96412 19.6582 2.84598C19.5401 2.72785 19.3982 2.63612 19.2421 2.57684C19.0859 2.51757 18.9189 2.4921 18.7521 2.50213ZM17.5021 15.0021H2.50212V5.00213H17.5021V15.0021Z"/><path fill="#000" d="M6.25 13.75L12.5 7.5L16.25 13.75H6.25Z"/><path fill="#000" d="M6.25 10C6.94035 10 7.5 9.44035 7.5 8.75C7.5 8.05965 6.94035 7.5 6.25 7.5C5.55965 7.5 5 8.05965 5 8.75C5 9.44035 5.55965 10 6.25 10Z"/></g><defs><clipPath id="clip0_1137_945"><rect width="20" height="20" fill="#fff"/></clipPath></defs></svg>