<svg width="16" height="16" viewBox="0 0 16 16" fill="none" xmlns="http://www.w3.org/2000/svg">
<g clip-path="url(#clip0_894_762)">
<path d="M15.0017 2.0017H1.0017C0.868289 1.99368 0.734692 2.01405 0.609732 2.06147C0.484772 2.10889 0.371292 2.18228 0.276784 2.27678C0.182276 2.37129 0.108891 2.48477 0.0614728 2.60973C0.0140548 2.73469 -0.00631686 2.86829 0.00170278 3.0017V13.0017C-0.00631686 13.1351 0.0140548 13.2687 0.0614728 13.3937C0.108891 13.5186 0.182276 13.6321 0.276784 13.7266C0.371292 13.8211 0.484772 13.8945 0.609732 13.9419C0.734692 13.9894 0.868289 14.0097 1.0017 14.0017H15.0017C15.1351 14.0097 15.2687 13.9894 15.3937 13.9419C15.5186 13.8945 15.6321 13.8211 15.7266 13.7266C15.8211 13.6321 15.8945 13.5186 15.9419 13.3937C15.9894 13.2687 16.0097 13.1351 16.0017 13.0017V3.0017C16.0097 2.86829 15.9894 2.73469 15.9419 2.60973C15.8945 2.48477 15.8211 2.37129 15.7266 2.27678C15.6321 2.18228 15.5186 2.10889 15.3937 2.06147C15.2687 2.01405 15.1351 1.99368 15.0017 2.0017ZM14.0017 12.0017H2.0017V4.0017H14.0017V12.0017Z" fill="black"/>
<path d="M5 11L10 6L13 11H5Z" fill="black"/>
<path d="M5 8C5.55228 8 6 7.55228 6 7C6 6.44772 5.55228 6 5 6C4.44772 6 4 6.44772 4 7C4 7.55228 4.44772 8 5 8Z" fill="black"/>
</g>
<defs>
<clipPath id="clip0_894_762">
<rect width="16" height="16" fill="white"/>
</clipPath>
</defs>
</svg>
