<svg width="1324" height="572" viewBox="0 0 1324 572" fill="none" xmlns="http://www.w3.org/2000/svg">
<g clip-path="url(#clip0)">
<path d="M3.35778 43.9091H1.77255L-1.50018 46.0824V47.6932L1.69585 45.571H1.77255V57H3.35778V43.9091ZM11.4693 57.179C14.1156 57.2109 15.8414 55.2166 15.8414 52.7812C15.8414 50.25 13.9686 48.4347 11.725 48.4347C10.3762 48.4347 9.21928 49.093 8.50337 50.1733H8.4011C8.40749 46.9837 9.64755 45.1364 11.6738 45.1364C13.0545 45.1364 13.8855 46.0057 14.1795 47.1818H15.7392C15.4196 45.1491 13.8727 43.7301 11.6738 43.7301C8.7271 43.7301 6.91815 46.3381 6.91815 50.9659C6.91815 55.8047 9.32156 57.1534 11.4693 57.179ZM11.4693 55.7727C9.82653 55.7727 8.62482 54.3729 8.63121 52.8068C8.63761 51.2408 9.89684 49.8409 11.5204 49.8409C13.1248 49.8409 14.3074 51.1577 14.3074 52.7812C14.3074 54.4432 13.0737 55.7727 11.4693 55.7727Z" fill="black"/>
<path d="M3.69176 93.9091H2.10653L-1.16619 96.0824V97.6932L2.02983 95.571H2.10653V107H3.69176V93.9091ZM7.45668 107H15.7152V105.594H9.62997V105.491L12.5703 102.347C14.8203 99.9368 15.4851 98.8118 15.4851 97.3608C15.4851 95.3409 13.8487 93.7301 11.5476 93.7301C9.25284 93.7301 7.50781 95.2898 7.50781 97.5909H9.01634C9.01634 96.1016 9.98153 95.1108 11.4964 95.1108C12.9155 95.1108 14.0021 95.9801 14.0021 97.3608C14.0021 98.5689 13.2926 99.4638 11.7777 101.119L7.45668 105.849V107Z" fill="black"/>
<path d="M11.4565 155.179C14.0708 155.179 15.8926 153.651 15.9054 151.523C15.8926 149.867 14.7868 148.461 13.3741 148.199V148.122C14.6014 147.803 15.4068 146.601 15.4196 145.207C15.4068 143.213 13.7321 141.73 11.4565 141.73C9.15536 141.73 7.48065 143.213 7.49343 145.207C7.48065 146.601 8.28604 147.803 9.53888 148.122V148.199C8.10067 148.461 6.99485 149.867 7.00763 151.523C6.99485 153.651 8.81658 155.179 11.4565 155.179ZM11.4565 153.773C9.66033 153.773 8.55451 152.852 8.56729 151.446C8.55451 149.969 9.77539 148.915 11.4565 148.915C13.112 148.915 14.3329 149.969 14.3457 151.446C14.3329 152.852 13.2271 153.773 11.4565 153.773ZM11.4565 147.56C10.0247 147.56 9.01474 146.665 9.02752 145.31C9.01474 143.98 9.98633 143.111 11.4565 143.111C12.9011 143.111 13.8727 143.98 13.8855 145.31C13.8727 146.665 12.8627 147.56 11.4565 147.56Z" fill="black"/>
<path d="M6.49947 202.315H12.6614V205H14.1699V202.315H15.9597V200.909H14.1699V191.909H12.2523L6.49947 201.011V202.315ZM12.6614 200.909H8.21254V200.807L12.5591 193.929H12.6614V200.909Z" fill="black"/>
<path d="M11.375 254.179C14.2642 254.179 15.9261 251.731 15.9261 247.455C15.9261 243.21 14.2386 240.73 11.375 240.73C8.51136 240.73 6.82386 243.21 6.82386 247.455C6.82386 251.731 8.4858 254.179 11.375 254.179ZM11.375 252.773C9.47017 252.773 8.35795 250.862 8.35795 247.455C8.35795 244.054 9.48295 242.111 11.375 242.111C13.267 242.111 14.392 244.054 14.392 247.455C14.392 250.862 13.2798 252.773 11.375 252.773Z" fill="black"/>
<line x1="23.7216" y1="51.1335" x2="645" y2="51.1335" stroke="black" stroke-opacity="0.08"/>
<line x1="23.7216" y1="99.5399" x2="645" y2="99.5399" stroke="black" stroke-opacity="0.08"/>
<line x1="23.7216" y1="149.022" x2="645" y2="149.022" stroke="black" stroke-opacity="0.08"/>
<line x1="23.7216" y1="198.504" x2="645" y2="198.504" stroke="black" stroke-opacity="0.08"/>
<line x1="23.7216" y1="247.986" x2="645" y2="247.986" stroke="black" stroke-opacity="0.08"/>
<path d="M107.1 256.909H105.515L102.242 259.082V260.693L105.438 258.571H105.515V270H107.1V256.909ZM115.135 270.179C118.024 270.179 119.686 267.731 119.686 263.455C119.686 259.21 117.998 256.73 115.135 256.73C112.271 256.73 110.584 259.21 110.584 263.455C110.584 267.731 112.246 270.179 115.135 270.179ZM115.135 268.773C113.23 268.773 112.118 266.862 112.118 263.455C112.118 260.054 113.243 258.111 115.135 258.111C117.027 258.111 118.152 260.054 118.152 263.455C118.152 266.862 117.04 268.773 115.135 268.773ZM127.944 270L129.261 266.293H134.554L135.871 270H137.532L132.726 256.909H131.089L126.282 270H127.944ZM129.76 264.886L131.856 258.98H131.959L134.055 264.886H129.76ZM139.572 256.909V270H141.055V260.054H141.182L145.273 270H146.705L150.796 260.054H150.924V270H152.407V256.909H150.515L146.066 267.776H145.912L141.464 256.909H139.572Z" fill="black"/>
<path d="M239.19 256.909H237.605L234.332 259.082V260.693L237.528 258.571H237.605V270H239.19V256.909ZM242.955 270H251.213V268.594H245.128V268.491L248.068 265.347C250.318 262.937 250.983 261.812 250.983 260.361C250.983 258.341 249.347 256.73 247.046 256.73C244.751 256.73 243.006 258.29 243.006 260.591H244.514C244.514 259.102 245.48 258.111 246.994 258.111C248.414 258.111 249.5 258.98 249.5 260.361C249.5 261.569 248.791 262.464 247.276 264.119L242.955 268.849V270ZM259.146 270H260.731V265.219H263.595C266.644 265.219 268.018 263.365 268.018 261.051C268.018 258.737 266.644 256.909 263.569 256.909H259.146V270ZM260.731 263.812V258.315H263.518C265.646 258.315 266.458 259.479 266.458 261.051C266.458 262.624 265.646 263.812 263.544 263.812H260.731ZM270.572 256.909V270H272.055V260.054H272.182L276.273 270H277.705L281.796 260.054H281.924V270H283.407V256.909H281.515L277.066 267.776H276.912L272.464 256.909H270.572Z" fill="black"/>
<path d="M366.955 270H375.213V268.594H369.128V268.491L372.068 265.347C374.318 262.937 374.983 261.812 374.983 260.361C374.983 258.341 373.347 256.73 371.046 256.73C368.751 256.73 367.006 258.29 367.006 260.591H368.514C368.514 259.102 369.48 258.111 370.994 258.111C372.414 258.111 373.5 258.98 373.5 260.361C373.5 261.569 372.791 262.464 371.276 264.119L366.955 268.849V270ZM383.146 270H384.731V265.219H387.595C390.644 265.219 392.018 263.365 392.018 261.051C392.018 258.737 390.644 256.909 387.569 256.909H383.146V270ZM384.731 263.812V258.315H387.518C389.646 258.315 390.458 259.479 390.458 261.051C390.458 262.624 389.646 263.812 387.544 263.812H384.731ZM394.572 256.909V270H396.055V260.054H396.182L400.273 270H401.705L405.796 260.054H405.924V270H407.407V256.909H405.515L401.066 267.776H400.912L396.464 256.909H394.572Z" fill="black"/>
<path d="M490.998 267.315H497.159V270H498.668V267.315H500.458V265.909H498.668V256.909H496.75L490.998 266.011V267.315ZM497.159 265.909H492.711V265.807L497.057 258.929H497.159V265.909ZM508.146 270H509.731V265.219H512.595C515.644 265.219 517.018 263.365 517.018 261.051C517.018 258.737 515.644 256.909 512.569 256.909H508.146V270ZM509.731 263.812V258.315H512.518C514.646 258.315 515.458 259.479 515.458 261.051C515.458 262.624 514.646 263.812 512.544 263.812H509.731ZM519.572 256.909V270H521.055V260.054H521.182L525.273 270H526.705L530.796 260.054H530.924V270H532.407V256.909H530.515L526.066 267.776H525.912L521.464 256.909H519.572Z" fill="black"/>
<path d="M23.7216 228.666C23.7216 228.666 31.5364 223.919 35.4438 222.912C39.3512 221.904 43.2586 221.784 47.166 222.619C51.0734 223.455 54.9809 225.633 58.8883 227.925C62.7957 230.217 66.7031 233.685 70.6105 236.372C74.5179 239.058 78.4253 242.209 82.3327 244.046C86.2402 245.883 90.1476 247.258 94.055 247.394C97.9624 247.531 101.87 246.492 105.777 244.865C109.685 243.238 113.592 240.268 117.499 237.63C121.407 234.993 125.314 231.467 129.222 229.041C133.129 226.615 137.036 224.166 140.944 223.075C144.851 221.984 148.759 221.746 152.666 222.496C156.574 223.246 160.481 225.33 164.388 227.572C168.296 229.815 172.203 233.256 176.111 235.953C180.018 238.65 183.925 241.853 187.833 243.755C191.74 245.657 195.648 247.14 199.555 247.366C203.462 247.592 207.37 246.667 211.277 245.113C215.185 243.558 219.092 246.126 223 238.039C226.907 229.952 230.814 216.203 234.722 196.59C238.629 176.977 242.537 126.713 246.444 120.36C250.351 114.008 254.259 140.664 258.166 158.475C262.074 176.287 265.981 214.385 269.888 227.228C273.796 240.07 277.703 232.828 281.611 235.533C285.518 238.237 289.426 241.489 293.333 243.454C297.24 245.42 301.148 247.008 305.055 247.324C308.963 247.64 312.87 246.829 316.777 245.349C320.685 243.869 324.592 241.034 328.5 238.444C332.407 235.854 336.314 232.308 340.222 229.807C344.129 227.307 348.037 224.692 351.944 223.44C355.852 222.187 359.759 221.715 363.666 222.29C367.574 222.865 371.481 224.754 375.389 226.891C379.296 229.028 383.203 232.403 387.111 235.111C391.018 237.82 394.926 241.118 398.833 243.144C402.74 245.17 406.648 246.863 410.555 247.268C414.463 247.673 418.37 246.977 422.278 245.573C426.185 244.169 430.092 241.407 434 238.845C437.907 236.282 441.815 232.733 445.722 230.199C449.629 227.665 453.537 224.973 457.444 223.641C461.352 222.309 465.259 221.72 469.166 222.207C473.074 222.694 476.981 232.95 480.889 226.563C484.796 220.176 488.704 193.116 492.611 183.885C496.518 174.655 500.426 169.063 504.333 171.18C508.241 173.298 512.148 184.156 516.055 196.59C519.963 209.025 523.87 239.856 527.778 245.785C531.685 251.714 535.592 234.696 539.5 232.164C543.407 229.633 547.315 231.981 551.222 230.596C555.13 229.21 559.037 225.263 562.944 223.854C566.852 222.444 570.759 221.74 574.667 222.138C578.574 222.537 582.481 224.222 586.389 226.244C590.296 228.265 594.204 231.56 598.111 234.268C602.018 236.977 605.926 240.354 609.833 242.495C613.741 244.636 617.648 246.533 621.556 247.114C625.463 247.696 629.37 247.233 633.278 245.986C637.185 244.739 645 239.632 645 239.632V247.41C645 247.41 637.185 247.41 633.278 247.41C629.37 247.41 625.463 247.41 621.556 247.41C617.648 247.41 613.741 247.41 609.833 247.41C605.926 247.41 602.018 247.41 598.111 247.41C594.204 247.41 590.296 247.41 586.389 247.41C582.481 247.41 578.574 247.41 574.667 247.41C570.759 247.41 566.852 247.41 562.944 247.41C559.037 247.41 555.13 247.41 551.222 247.41C547.315 247.41 543.407 247.41 539.5 247.41C535.592 247.41 531.685 247.41 527.778 247.41C523.87 247.41 519.963 247.41 516.055 247.41C512.148 247.41 508.241 247.41 504.333 247.41C500.426 247.41 496.518 247.41 492.611 247.41C488.704 247.41 484.796 247.41 480.889 247.41C476.981 247.41 473.074 247.41 469.166 247.41C465.259 247.41 461.352 247.41 457.444 247.41C453.537 247.41 449.629 247.41 445.722 247.41C441.815 247.41 437.907 247.41 434 247.41C430.092 247.41 426.185 247.41 422.278 247.41C418.37 247.41 414.463 247.41 410.555 247.41C406.648 247.41 402.74 247.41 398.833 247.41C394.926 247.41 391.018 247.41 387.111 247.41C383.203 247.41 379.296 247.41 375.389 247.41C371.481 247.41 367.574 247.41 363.666 247.41C359.759 247.41 355.852 247.41 351.944 247.41C348.037 247.41 344.129 247.41 340.222 247.41C336.314 247.41 332.407 247.41 328.5 247.41C324.592 247.41 320.685 247.41 316.777 247.41C312.87 247.41 308.963 247.41 305.055 247.41C301.148 247.41 297.24 247.41 293.333 247.41C289.426 247.41 285.518 247.41 281.611 247.41C277.703 247.41 273.796 247.41 269.888 247.41C265.981 247.41 262.074 247.41 258.166 247.41C254.259 247.41 250.351 247.41 246.444 247.41C242.537 247.41 238.629 247.41 234.722 247.41C230.814 247.41 226.907 247.41 223 247.41C219.092 247.41 215.185 247.41 211.277 247.41C207.37 247.41 203.462 247.41 199.555 247.41C195.648 247.41 191.74 247.41 187.833 247.41C183.925 247.41 180.018 247.41 176.111 247.41C172.203 247.41 168.296 247.41 164.388 247.41C160.481 247.41 156.574 247.41 152.666 247.41C148.759 247.41 144.851 247.41 140.944 247.41C137.036 247.41 133.129 247.41 129.222 247.41C125.314 247.41 121.407 247.41 117.499 247.41C113.592 247.41 109.685 247.41 105.777 247.41C101.87 247.41 97.9624 247.41 94.055 247.41C90.1476 247.41 86.2402 247.41 82.3327 247.41C78.4253 247.41 74.5179 247.41 70.6105 247.41C66.7031 247.41 62.7957 247.41 58.8883 247.41C54.9809 247.41 51.0734 247.41 47.166 247.41C43.2586 247.41 39.3512 247.41 35.4438 247.41C31.5364 247.41 23.7216 247.41 23.7216 247.41V228.666Z" fill="url(#paint0_linear)"/>
<path d="M24.7216 18.16H31.7869C35.7841 18.16 37.7443 16.1231 37.7443 13.4043C37.7443 10.7623 35.8693 9.21114 34.0114 9.11739V8.94694C35.7159 8.54637 37.0625 7.35319 37.0625 5.23103C37.0625 2.63159 35.1875 0.705458 31.4034 0.705458H24.7216V18.16ZM27.8835 15.518V10.4043H31.3693C33.321 10.4043 34.5312 11.5975 34.5312 13.1572C34.5312 14.5464 33.5767 15.518 31.2841 15.518H27.8835ZM27.8835 8.12875V3.31341H31.0795C32.9375 3.31341 33.9006 4.29353 33.9006 5.64012C33.9006 7.17421 32.6562 8.12875 31.0114 8.12875H27.8835ZM46.0689 18.4157C49.9041 18.4157 52.3416 15.714 52.3416 11.6657C52.3416 7.60887 49.9041 4.89864 46.0689 4.89864C42.2337 4.89864 39.7962 7.60887 39.7962 11.6657C39.7962 15.714 42.2337 18.4157 46.0689 18.4157ZM46.0859 15.9441C43.9638 15.9441 42.924 14.052 42.924 11.6572C42.924 9.26228 43.9638 7.34466 46.0859 7.34466C48.174 7.34466 49.2138 9.26228 49.2138 11.6572C49.2138 14.052 48.174 15.9441 46.0859 15.9441ZM55.0966 18.16H58.1307V16.0975H58.3097C58.7955 17.052 59.8097 18.3901 62.0597 18.3901C65.1449 18.3901 67.4545 15.9441 67.4545 11.6316C67.4545 7.26796 65.0767 4.89864 62.0511 4.89864C59.7415 4.89864 58.7784 6.28784 58.3097 7.23387H58.1818V0.705458H55.0966V18.16ZM58.1222 11.6145C58.1222 9.07478 59.2131 7.42989 61.1989 7.42989C63.2528 7.42989 64.3097 9.17705 64.3097 11.6145C64.3097 14.0691 63.2358 15.8589 61.1989 15.8589C59.2301 15.8589 58.1222 14.1543 58.1222 11.6145ZM72.6939 0.705458H70.2393V2.46114C70.2393 3.85034 69.6939 4.91568 69.0717 5.85318L70.5036 6.78216C71.7564 5.74239 72.6939 3.95262 72.6939 2.44409V0.705458ZM83.8459 8.52932C83.4197 6.31341 81.647 4.89864 78.5788 4.89864C75.4254 4.89864 73.2777 6.44978 73.2862 8.87023C73.2777 10.7793 74.4538 12.0407 76.968 12.5606L79.201 13.0293C80.4027 13.2935 80.9652 13.7793 80.9652 14.5208C80.9652 15.4157 79.9936 16.089 78.5277 16.089C77.1129 16.089 76.1925 15.4753 75.9283 14.2992L72.9197 14.589C73.3033 16.9924 75.3232 18.4157 78.5362 18.4157C81.8089 18.4157 84.1186 16.7197 84.1271 14.2395C84.1186 12.3731 82.9169 11.231 80.4453 10.6941L78.2124 10.2168C76.8828 9.91853 76.3544 9.4583 76.3629 8.69978C76.3544 7.81341 77.3345 7.19978 78.6214 7.19978C80.0447 7.19978 80.7947 7.97534 81.0334 8.83614L83.8459 8.52932ZM107.701 6.59466C107.164 2.71682 104.181 0.466821 100.312 0.466821C95.7521 0.466821 92.3175 3.79068 92.3175 9.43273C92.3175 15.0663 95.7095 18.3986 100.312 18.3986C104.462 18.3986 107.215 15.714 107.701 12.3816L104.513 12.3645C104.113 14.41 102.442 15.5606 100.354 15.5606C97.5249 15.5606 95.4964 13.4384 95.4964 9.43273C95.4964 5.49523 97.5078 3.30489 100.363 3.30489C102.485 3.30489 104.147 4.50659 104.513 6.59466H107.701ZM110.597 18.16H113.759V12.2623H117.099C121.131 12.2623 123.295 9.84182 123.295 6.48387C123.295 3.15148 121.156 0.705458 117.142 0.705458H110.597V18.16ZM113.759 9.66284V3.3475H116.656C119.026 3.3475 120.074 4.62591 120.074 6.48387C120.074 8.34182 119.026 9.66284 116.673 9.66284H113.759ZM137.045 0.705458V11.8447C137.045 14.035 135.519 15.6032 133.124 15.6032C130.721 15.6032 129.204 14.035 129.204 11.8447V0.705458H126.042V12.1089C126.042 15.8589 128.854 18.4242 133.124 18.4242C137.377 18.4242 140.207 15.8589 140.207 12.1089V0.705458H137.045ZM164.537 6.59466C164 2.71682 161.017 0.466821 157.148 0.466821C152.588 0.466821 149.153 3.79068 149.153 9.43273C149.153 15.0663 152.545 18.3986 157.148 18.3986C161.298 18.3986 164.051 15.714 164.537 12.3816L161.349 12.3645C160.949 14.41 159.278 15.5606 157.19 15.5606C154.361 15.5606 152.332 13.4384 152.332 9.43273C152.332 5.49523 154.344 3.30489 157.199 3.30489C159.321 3.30489 160.983 4.50659 161.349 6.59466H164.537ZM173.006 18.4157C176.842 18.4157 179.279 15.714 179.279 11.6657C179.279 7.60887 176.842 4.89864 173.006 4.89864C169.171 4.89864 166.734 7.60887 166.734 11.6657C166.734 15.714 169.171 18.4157 173.006 18.4157ZM173.023 15.9441C170.901 15.9441 169.862 14.052 169.862 11.6572C169.862 9.26228 170.901 7.34466 173.023 7.34466C175.112 7.34466 176.151 9.26228 176.151 11.6572C176.151 14.052 175.112 15.9441 173.023 15.9441ZM181.898 18.16H184.983V10.464C184.983 8.80205 186.236 7.62591 187.932 7.62591C188.452 7.62591 189.099 7.71966 189.364 7.80489V4.96682C189.082 4.91568 188.597 4.88159 188.256 4.88159C186.756 4.88159 185.503 5.73387 185.026 7.25091H184.889V5.06909H181.898V18.16ZM196.67 18.4157C199.721 18.4157 201.817 16.9242 202.363 14.6486L199.482 14.3248C199.065 15.4327 198.042 16.0123 196.712 16.0123C194.718 16.0123 193.397 14.6998 193.371 12.4583H202.491V11.5123C202.491 6.91853 199.729 4.89864 196.508 4.89864C192.758 4.89864 190.312 7.65148 190.312 11.6913C190.312 15.7992 192.724 18.4157 196.67 18.4157ZM193.38 10.3788C193.474 8.7083 194.71 7.30205 196.55 7.30205C198.323 7.30205 199.516 8.5975 199.533 10.3788H193.38ZM222.193 0.705458V11.8447C222.193 14.035 220.668 15.6032 218.273 15.6032C215.869 15.6032 214.352 14.035 214.352 11.8447V0.705458H211.19V12.1089C211.19 15.8589 214.003 18.4242 218.273 18.4242C222.526 18.4242 225.355 15.8589 225.355 12.1089V0.705458H222.193ZM239.002 8.52932C238.576 6.31341 236.803 4.89864 233.735 4.89864C230.582 4.89864 228.434 6.44978 228.442 8.87023C228.434 10.7793 229.61 12.0407 232.124 12.5606L234.357 13.0293C235.559 13.2935 236.121 13.7793 236.121 14.5208C236.121 15.4157 235.15 16.089 233.684 16.089C232.269 16.089 231.349 15.4753 231.085 14.2992L228.076 14.589C228.46 16.9924 230.479 18.4157 233.692 18.4157C236.965 18.4157 239.275 16.7197 239.283 14.2395C239.275 12.3731 238.073 11.231 235.602 10.6941L233.369 10.2168C232.039 9.91853 231.511 9.4583 231.519 8.69978C231.511 7.81341 232.491 7.19978 233.778 7.19978C235.201 7.19978 235.951 7.97534 236.19 8.83614L239.002 8.52932ZM245.594 18.4242C247.648 18.4242 248.876 17.4611 249.438 16.3617H249.54V18.16H252.506V9.39864C252.506 5.93841 249.685 4.89864 247.188 4.89864C244.435 4.89864 242.322 6.12591 241.64 8.51228L244.521 8.92137C244.827 8.02648 245.697 7.25944 247.205 7.25944C248.637 7.25944 249.421 7.99239 249.421 9.27932V9.33046C249.421 10.2168 248.492 10.2594 246.183 10.5066C243.643 10.7793 241.214 11.5378 241.214 14.4867C241.214 17.0606 243.097 18.4242 245.594 18.4242ZM246.396 16.1572C245.109 16.1572 244.188 15.5691 244.188 14.4356C244.188 13.2509 245.219 12.7566 246.6 12.5606C247.41 12.4498 249.029 12.2452 249.43 11.9214V13.464C249.43 14.9214 248.254 16.1572 246.396 16.1572ZM261.302 23.3418C264.839 23.3418 267.447 21.7225 267.447 18.3731V5.06909H264.404V7.23387H264.234C263.765 6.28784 262.785 4.89864 260.475 4.89864C257.45 4.89864 255.072 7.26796 255.072 11.5719C255.072 15.8418 257.45 17.9725 260.467 17.9725C262.708 17.9725 263.756 16.7708 264.234 15.8077H264.387V18.2878C264.387 20.214 263.109 21.0066 261.353 21.0066C259.495 21.0066 258.677 20.1288 258.302 19.3617L255.523 20.035C256.086 21.8674 257.969 23.3418 261.302 23.3418ZM261.327 15.552C259.29 15.552 258.217 13.9668 258.217 11.5549C258.217 9.17705 259.273 7.42989 261.327 7.42989C263.313 7.42989 264.404 9.07478 264.404 11.5549C264.404 14.052 263.296 15.552 261.327 15.552ZM276.404 18.4157C279.455 18.4157 281.552 16.9242 282.097 14.6486L279.217 14.3248C278.799 15.4327 277.776 16.0123 276.447 16.0123C274.452 16.0123 273.131 14.6998 273.106 12.4583H282.225V11.5123C282.225 6.91853 279.464 4.89864 276.242 4.89864C272.492 4.89864 270.046 7.65148 270.046 11.6913C270.046 15.7992 272.458 18.4157 276.404 18.4157ZM273.114 10.3788C273.208 8.7083 274.444 7.30205 276.285 7.30205C278.058 7.30205 279.251 8.5975 279.268 10.3788H273.114Z" fill="black"/>
</g>
<g clip-path="url(#clip1)">
<path d="M682.358 43.9091H680.773L677.5 46.0824V47.6932L680.696 45.571H680.773V57H682.358V43.9091ZM690.469 57.179C693.116 57.2109 694.841 55.2166 694.841 52.7812C694.841 50.25 692.969 48.4347 690.725 48.4347C689.376 48.4347 688.219 49.093 687.503 50.1733H687.401C687.407 46.9837 688.648 45.1364 690.674 45.1364C692.055 45.1364 692.885 46.0057 693.18 47.1818H694.739C694.42 45.1491 692.873 43.7301 690.674 43.7301C687.727 43.7301 685.918 46.3381 685.918 50.9659C685.918 55.8047 688.322 57.1534 690.469 57.179ZM690.469 55.7727C688.827 55.7727 687.625 54.3729 687.631 52.8068C687.638 51.2408 688.897 49.8409 690.52 49.8409C692.125 49.8409 693.307 51.1577 693.307 52.7812C693.307 54.4432 692.074 55.7727 690.469 55.7727Z" fill="black"/>
<path d="M682.692 93.9091H681.107L677.834 96.0824V97.6932L681.03 95.571H681.107V107H682.692V93.9091ZM686.457 107H694.715V105.594H688.63V105.491L691.57 102.347C693.82 99.9368 694.485 98.8118 694.485 97.3608C694.485 95.3409 692.849 93.7301 690.548 93.7301C688.253 93.7301 686.508 95.2898 686.508 97.5909H688.016C688.016 96.1016 688.982 95.1108 690.496 95.1108C691.915 95.1108 693.002 95.9801 693.002 97.3608C693.002 98.5689 692.293 99.4638 690.778 101.119L686.457 105.849V107Z" fill="black"/>
<path d="M690.456 155.179C693.071 155.179 694.893 153.651 694.905 151.523C694.893 149.867 693.787 148.461 692.374 148.199V148.122C693.601 147.803 694.407 146.601 694.42 145.207C694.407 143.213 692.732 141.73 690.456 141.73C688.155 141.73 686.481 143.213 686.493 145.207C686.481 146.601 687.286 147.803 688.539 148.122V148.199C687.101 148.461 685.995 149.867 686.008 151.523C685.995 153.651 687.817 155.179 690.456 155.179ZM690.456 153.773C688.66 153.773 687.555 152.852 687.567 151.446C687.555 149.969 688.775 148.915 690.456 148.915C692.112 148.915 693.333 149.969 693.346 151.446C693.333 152.852 692.227 153.773 690.456 153.773ZM690.456 147.56C689.025 147.56 688.015 146.665 688.028 145.31C688.015 143.98 688.986 143.111 690.456 143.111C691.901 143.111 692.873 143.98 692.885 145.31C692.873 146.665 691.863 147.56 690.456 147.56Z" fill="black"/>
<path d="M685.499 202.315H691.661V205H693.17V202.315H694.96V200.909H693.17V191.909H691.252L685.499 201.011V202.315ZM691.661 200.909H687.213V200.807L691.559 193.929H691.661V200.909Z" fill="black"/>
<path d="M690.375 254.179C693.264 254.179 694.926 251.731 694.926 247.455C694.926 243.21 693.239 240.73 690.375 240.73C687.511 240.73 685.824 243.21 685.824 247.455C685.824 251.731 687.486 254.179 690.375 254.179ZM690.375 252.773C688.47 252.773 687.358 250.862 687.358 247.455C687.358 244.054 688.483 242.111 690.375 242.111C692.267 242.111 693.392 244.054 693.392 247.455C693.392 250.862 692.28 252.773 690.375 252.773Z" fill="black"/>
<line x1="702.722" y1="51.1335" x2="1324" y2="51.1335" stroke="black" stroke-opacity="0.08"/>
<line x1="702.722" y1="99.5399" x2="1324" y2="99.5399" stroke="black" stroke-opacity="0.08"/>
<line x1="702.722" y1="149.022" x2="1324" y2="149.022" stroke="black" stroke-opacity="0.08"/>
<line x1="702.722" y1="198.504" x2="1324" y2="198.504" stroke="black" stroke-opacity="0.08"/>
<line x1="702.722" y1="247.986" x2="1324" y2="247.986" stroke="black" stroke-opacity="0.08"/>
<path d="M786.1 256.909H784.515L781.242 259.082V260.693L784.438 258.571H784.515V270H786.1V256.909ZM794.135 270.179C797.024 270.179 798.686 267.731 798.686 263.455C798.686 259.21 796.998 256.73 794.135 256.73C791.271 256.73 789.584 259.21 789.584 263.455C789.584 267.731 791.246 270.179 794.135 270.179ZM794.135 268.773C792.23 268.773 791.118 266.862 791.118 263.455C791.118 260.054 792.243 258.111 794.135 258.111C796.027 258.111 797.152 260.054 797.152 263.455C797.152 266.862 796.04 268.773 794.135 268.773ZM806.944 270L808.261 266.293H813.554L814.871 270H816.532L811.726 256.909H810.089L805.282 270H806.944ZM808.76 264.886L810.856 258.98H810.959L813.055 264.886H808.76ZM818.572 256.909V270H820.055V260.054H820.182L824.273 270H825.705L829.796 260.054H829.924V270H831.407V256.909H829.515L825.066 267.776H824.912L820.464 256.909H818.572Z" fill="black"/>
<path d="M918.19 256.909H916.605L913.332 259.082V260.693L916.528 258.571H916.605V270H918.19V256.909ZM921.955 270H930.213V268.594H924.128V268.491L927.068 265.347C929.318 262.937 929.983 261.812 929.983 260.361C929.983 258.341 928.347 256.73 926.046 256.73C923.751 256.73 922.006 258.29 922.006 260.591H923.514C923.514 259.102 924.48 258.111 925.994 258.111C927.414 258.111 928.5 258.98 928.5 260.361C928.5 261.569 927.791 262.464 926.276 264.119L921.955 268.849V270ZM938.146 270H939.731V265.219H942.595C945.644 265.219 947.018 263.365 947.018 261.051C947.018 258.737 945.644 256.909 942.569 256.909H938.146V270ZM939.731 263.812V258.315H942.518C944.646 258.315 945.458 259.479 945.458 261.051C945.458 262.624 944.646 263.812 942.544 263.812H939.731ZM949.572 256.909V270H951.055V260.054H951.182L955.273 270H956.705L960.796 260.054H960.924V270H962.407V256.909H960.515L956.066 267.776H955.912L951.464 256.909H949.572Z" fill="black"/>
<path d="M1045.95 270H1054.21V268.594H1048.13V268.491L1051.07 265.347C1053.32 262.937 1053.98 261.812 1053.98 260.361C1053.98 258.341 1052.35 256.73 1050.05 256.73C1047.75 256.73 1046.01 258.29 1046.01 260.591H1047.51C1047.51 259.102 1048.48 258.111 1049.99 258.111C1051.41 258.111 1052.5 258.98 1052.5 260.361C1052.5 261.569 1051.79 262.464 1050.28 264.119L1045.95 268.849V270ZM1062.15 270H1063.73V265.219H1066.59C1069.64 265.219 1071.02 263.365 1071.02 261.051C1071.02 258.737 1069.64 256.909 1066.57 256.909H1062.15V270ZM1063.73 263.812V258.315H1066.52C1068.65 258.315 1069.46 259.479 1069.46 261.051C1069.46 262.624 1068.65 263.812 1066.54 263.812H1063.73ZM1073.57 256.909V270H1075.05V260.054H1075.18L1079.27 270H1080.71L1084.8 260.054H1084.92V270H1086.41V256.909H1084.51L1080.07 267.776H1079.91L1075.46 256.909H1073.57Z" fill="black"/>
<path d="M1170 267.315H1176.16V270H1177.67V267.315H1179.46V265.909H1177.67V256.909H1175.75L1170 266.011V267.315ZM1176.16 265.909H1171.71V265.807L1176.06 258.929H1176.16V265.909ZM1187.15 270H1188.73V265.219H1191.59C1194.64 265.219 1196.02 263.365 1196.02 261.051C1196.02 258.737 1194.64 256.909 1191.57 256.909H1187.15V270ZM1188.73 263.812V258.315H1191.52C1193.65 258.315 1194.46 259.479 1194.46 261.051C1194.46 262.624 1193.65 263.812 1191.54 263.812H1188.73ZM1198.57 256.909V270H1200.05V260.054H1200.18L1204.27 270H1205.71L1209.8 260.054H1209.92V270H1211.41V256.909H1209.51L1205.07 267.776H1204.91L1200.46 256.909H1198.57Z" fill="black"/>
<path d="M710.608 0.705458V12.9782C710.599 14.8191 709.747 15.7992 708.23 15.7992C706.815 15.7992 705.869 14.9384 705.844 13.5236H702.699C702.699 16.7452 705.051 18.3986 708.111 18.3986C711.477 18.3986 713.736 16.3532 713.744 12.9782V0.705458H710.608ZM717.038 18.16H720.124V5.06909H717.038V18.16ZM718.589 3.21114C719.57 3.21114 720.371 2.46114 720.371 1.54068C720.371 0.611708 719.57 -0.138292 718.589 -0.138292C717.601 -0.138292 716.8 0.611708 716.8 1.54068C716.8 2.46114 717.601 3.21114 718.589 3.21114ZM723.296 18.16H726.381V10.1998C726.381 8.58898 727.455 7.49807 728.785 7.49807C730.089 7.49807 730.984 8.37591 730.984 9.7225V18.16H734.009V9.99523C734.009 8.5208 734.887 7.49807 736.379 7.49807C737.623 7.49807 738.612 8.23103 738.612 9.85034V18.16H741.705V9.37307C741.705 6.44978 740.018 4.89864 737.614 4.89864C735.714 4.89864 734.265 5.83614 733.685 7.29353H733.549C733.046 5.81057 731.776 4.89864 730.012 4.89864C728.256 4.89864 726.944 5.80205 726.398 7.29353H726.245V5.06909H723.296V18.16ZM747.452 0.705458H744.997V2.46114C744.997 3.85034 744.452 4.91568 743.83 5.85318L745.261 6.78216C746.514 5.74239 747.452 3.95262 747.452 2.44409V0.705458ZM758.604 8.52932C758.178 6.31341 756.405 4.89864 753.337 4.89864C750.183 4.89864 748.036 6.44978 748.044 8.87023C748.036 10.7793 749.212 12.0407 751.726 12.5606L753.959 13.0293C755.161 13.2935 755.723 13.7793 755.723 14.5208C755.723 15.4157 754.751 16.089 753.286 16.089C751.871 16.089 750.95 15.4753 750.686 14.2992L747.678 14.589C748.061 16.9924 750.081 18.4157 753.294 18.4157C756.567 18.4157 758.876 16.7197 758.885 14.2395C758.876 12.3731 757.675 11.231 755.203 10.6941L752.97 10.2168C751.641 9.91853 751.112 9.4583 751.121 8.69978C751.112 7.81341 752.092 7.19978 753.379 7.19978C754.803 7.19978 755.553 7.97534 755.791 8.83614L758.604 8.52932ZM782.459 6.59466C781.922 2.71682 778.939 0.466821 775.07 0.466821C770.51 0.466821 767.075 3.79068 767.075 9.43273C767.075 15.0663 770.467 18.3986 775.07 18.3986C779.22 18.3986 781.973 15.714 782.459 12.3816L779.271 12.3645C778.871 14.41 777.2 15.5606 775.112 15.5606C772.283 15.5606 770.254 13.4384 770.254 9.43273C770.254 5.49523 772.266 3.30489 775.121 3.30489C777.243 3.30489 778.905 4.50659 779.271 6.59466H782.459ZM785.354 18.16H788.516V12.2623H791.857C795.888 12.2623 798.053 9.84182 798.053 6.48387C798.053 3.15148 795.914 0.705458 791.9 0.705458H785.354V18.16ZM788.516 9.66284V3.3475H791.414C793.783 3.3475 794.832 4.62591 794.832 6.48387C794.832 8.34182 793.783 9.66284 791.431 9.66284H788.516ZM811.803 0.705458V11.8447C811.803 14.035 810.277 15.6032 807.882 15.6032C805.479 15.6032 803.962 14.035 803.962 11.8447V0.705458H800.8V12.1089C800.8 15.8589 803.612 18.4242 807.882 18.4242C812.135 18.4242 814.964 15.8589 814.964 12.1089V0.705458H811.803ZM839.295 6.59466C838.758 2.71682 835.775 0.466821 831.906 0.466821C827.346 0.466821 823.911 3.79068 823.911 9.43273C823.911 15.0663 827.303 18.3986 831.906 18.3986C836.056 18.3986 838.809 15.714 839.295 12.3816L836.107 12.3645C835.707 14.41 834.036 15.5606 831.948 15.5606C829.119 15.5606 827.09 13.4384 827.09 9.43273C827.09 5.49523 829.102 3.30489 831.957 3.30489C834.079 3.30489 835.741 4.50659 836.107 6.59466H839.295ZM847.764 18.4157C851.599 18.4157 854.037 15.714 854.037 11.6657C854.037 7.60887 851.599 4.89864 847.764 4.89864C843.929 4.89864 841.491 7.60887 841.491 11.6657C841.491 15.714 843.929 18.4157 847.764 18.4157ZM847.781 15.9441C845.659 15.9441 844.619 14.052 844.619 11.6572C844.619 9.26228 845.659 7.34466 847.781 7.34466C849.869 7.34466 850.909 9.26228 850.909 11.6572C850.909 14.052 849.869 15.9441 847.781 15.9441ZM856.656 18.16H859.741V10.464C859.741 8.80205 860.994 7.62591 862.69 7.62591C863.21 7.62591 863.857 7.71966 864.121 7.80489V4.96682C863.84 4.91568 863.354 4.88159 863.013 4.88159C861.513 4.88159 860.261 5.73387 859.783 7.25091H859.647V5.06909H856.656V18.16ZM871.428 18.4157C874.479 18.4157 876.575 16.9242 877.121 14.6486L874.24 14.3248C873.822 15.4327 872.8 16.0123 871.47 16.0123C869.476 16.0123 868.155 14.6998 868.129 12.4583H877.249V11.5123C877.249 6.91853 874.487 4.89864 871.266 4.89864C867.516 4.89864 865.07 7.65148 865.07 11.6913C865.07 15.7992 867.482 18.4157 871.428 18.4157ZM868.138 10.3788C868.232 8.7083 869.467 7.30205 871.308 7.30205C873.081 7.30205 874.274 8.5975 874.291 10.3788H868.138ZM896.951 0.705458V11.8447C896.951 14.035 895.425 15.6032 893.031 15.6032C890.627 15.6032 889.11 14.035 889.11 11.8447V0.705458H885.948V12.1089C885.948 15.8589 888.761 18.4242 893.031 18.4242C897.283 18.4242 900.113 15.8589 900.113 12.1089V0.705458H896.951ZM913.76 8.52932C913.334 6.31341 911.561 4.89864 908.493 4.89864C905.339 4.89864 903.192 6.44978 903.2 8.87023C903.192 10.7793 904.368 12.0407 906.882 12.5606L909.115 13.0293C910.317 13.2935 910.879 13.7793 910.879 14.5208C910.879 15.4157 909.908 16.089 908.442 16.089C907.027 16.089 906.107 15.4753 905.842 14.2992L902.834 14.589C903.217 16.9924 905.237 18.4157 908.45 18.4157C911.723 18.4157 914.033 16.7197 914.041 14.2395C914.033 12.3731 912.831 11.231 910.359 10.6941L908.126 10.2168C906.797 9.91853 906.268 9.4583 906.277 8.69978C906.268 7.81341 907.249 7.19978 908.536 7.19978C909.959 7.19978 910.709 7.97534 910.947 8.83614L913.76 8.52932ZM920.352 18.4242C922.406 18.4242 923.634 17.4611 924.196 16.3617H924.298V18.16H927.264V9.39864C927.264 5.93841 924.443 4.89864 921.946 4.89864C919.193 4.89864 917.08 6.12591 916.398 8.51228L919.278 8.92137C919.585 8.02648 920.455 7.25944 921.963 7.25944C923.395 7.25944 924.179 7.99239 924.179 9.27932V9.33046C924.179 10.2168 923.25 10.2594 920.94 10.5066C918.401 10.7793 915.972 11.5378 915.972 14.4867C915.972 17.0606 917.855 18.4242 920.352 18.4242ZM921.153 16.1572C919.866 16.1572 918.946 15.5691 918.946 14.4356C918.946 13.2509 919.977 12.7566 921.358 12.5606C922.168 12.4498 923.787 12.2452 924.188 11.9214V13.464C924.188 14.9214 923.011 16.1572 921.153 16.1572ZM936.06 23.3418C939.597 23.3418 942.205 21.7225 942.205 18.3731V5.06909H939.162V7.23387H938.991C938.523 6.28784 937.543 4.89864 935.233 4.89864C932.207 4.89864 929.83 7.26796 929.83 11.5719C929.83 15.8418 932.207 17.9725 935.224 17.9725C937.466 17.9725 938.514 16.7708 938.991 15.8077H939.145V18.2878C939.145 20.214 937.866 21.0066 936.111 21.0066C934.253 21.0066 933.435 20.1288 933.06 19.3617L930.281 20.035C930.844 21.8674 932.727 23.3418 936.06 23.3418ZM936.085 15.552C934.048 15.552 932.974 13.9668 932.974 11.5549C932.974 9.17705 934.031 7.42989 936.085 7.42989C938.071 7.42989 939.162 9.07478 939.162 11.5549C939.162 14.052 938.054 15.552 936.085 15.552ZM951.162 18.4157C954.213 18.4157 956.31 16.9242 956.855 14.6486L953.974 14.3248C953.557 15.4327 952.534 16.0123 951.205 16.0123C949.21 16.0123 947.889 14.6998 947.864 12.4583H956.983V11.5123C956.983 6.91853 954.222 4.89864 951 4.89864C947.25 4.89864 944.804 7.65148 944.804 11.6913C944.804 15.7992 947.216 18.4157 951.162 18.4157ZM947.872 10.3788C947.966 8.7083 949.202 7.30205 951.043 7.30205C952.815 7.30205 954.009 8.5975 954.026 10.3788H947.872Z" fill="black"/>
</g>
<path d="M702.722 233.173C702.722 233.173 710.536 246.974 714.444 246.508C718.351 246.042 722.259 233.485 726.166 230.377C730.073 227.269 733.981 225.27 737.888 227.858C741.796 230.446 745.703 246.821 749.61 245.904C753.518 244.986 757.425 224.482 761.333 222.35C765.24 220.219 769.148 233.012 773.055 233.116C776.962 233.22 780.87 237.508 784.777 222.973C788.685 208.439 792.592 144.105 796.499 145.907C800.407 147.709 804.314 219.181 808.222 233.786C812.129 248.391 816.036 235.431 819.944 233.538C823.851 231.646 827.759 220.53 831.666 222.431C835.574 224.332 839.481 244.582 843.388 244.944C847.296 245.306 851.203 225.299 855.111 224.6C859.018 223.902 862.925 239.788 866.833 240.751C870.74 241.715 874.648 229.924 878.555 230.383C882.462 230.842 886.37 242.359 890.277 243.505C894.185 244.651 898.092 236.924 902 237.26C905.907 237.596 909.814 247.69 913.722 245.519C917.629 243.347 921.537 227.181 925.444 224.231C929.351 221.281 933.259 228.141 937.166 227.821C941.074 227.5 944.981 219.702 948.888 222.306C952.796 224.91 956.703 240.793 960.611 243.444C964.518 246.095 968.426 240.995 972.333 238.21C976.24 235.425 980.148 226.268 984.055 226.736C987.963 227.204 991.87 241.787 995.777 241.017C999.685 240.246 1003.59 223.831 1007.5 222.112C1011.41 220.393 1015.31 230.715 1019.22 230.702C1023.13 230.689 1027.04 227.708 1030.94 222.035C1034.85 216.361 1038.76 213.576 1042.67 196.659C1046.57 179.742 1050.48 118.417 1054.39 120.531C1058.3 122.646 1062.2 192.067 1066.11 209.347C1070.02 226.627 1073.93 221.888 1077.83 224.212C1081.74 226.536 1085.65 223.543 1089.56 223.291C1093.46 223.038 1097.37 220.79 1101.28 222.695C1105.18 224.601 1109.09 231.931 1113 234.722C1116.91 237.514 1120.81 243.674 1124.72 239.445C1128.63 235.215 1132.54 209.211 1136.44 209.347C1140.35 209.483 1144.26 237.438 1148.17 240.261C1152.07 243.085 1155.98 226.224 1159.89 226.29C1163.8 226.356 1167.7 239.345 1171.61 240.658C1175.52 241.97 1179.43 233.352 1183.33 234.162C1187.24 234.972 1191.15 245.894 1195.06 245.519C1198.96 245.144 1202.87 234.939 1206.78 231.912C1210.69 228.885 1214.59 227.713 1218.5 227.356C1222.41 226.998 1226.31 228.418 1230.22 229.767C1234.13 231.117 1238.04 232.856 1241.94 235.454C1245.85 238.053 1249.76 245.274 1253.67 245.357C1257.57 245.439 1261.48 238.211 1265.39 235.952C1269.3 233.693 1273.2 233.769 1277.11 231.801C1281.02 229.832 1284.93 225.187 1288.83 224.14C1292.74 223.094 1296.65 223.76 1300.56 225.523C1304.46 227.287 1308.37 232.555 1312.28 234.722C1316.19 236.89 1324 238.529 1324 238.529V247.41C1324 247.41 1316.19 247.41 1312.28 247.41C1308.37 247.41 1304.46 247.41 1300.56 247.41C1296.65 247.41 1292.74 247.41 1288.83 247.41C1284.93 247.41 1281.02 247.41 1277.11 247.41C1273.2 247.41 1269.3 247.41 1265.39 247.41C1261.48 247.41 1257.57 247.41 1253.67 247.41C1249.76 247.41 1245.85 247.41 1241.94 247.41C1238.04 247.41 1234.13 247.41 1230.22 247.41C1226.31 247.41 1222.41 247.41 1218.5 247.41C1214.59 247.41 1210.69 247.41 1206.78 247.41C1202.87 247.41 1198.96 247.41 1195.06 247.41C1191.15 247.41 1187.24 247.41 1183.33 247.41C1179.43 247.41 1175.52 247.41 1171.61 247.41C1167.7 247.41 1163.8 247.41 1159.89 247.41C1155.98 247.41 1152.07 247.41 1148.17 247.41C1144.26 247.41 1140.35 247.41 1136.44 247.41C1132.54 247.41 1128.63 247.41 1124.72 247.41C1120.81 247.41 1116.91 247.41 1113 247.41C1109.09 247.41 1105.18 247.41 1101.28 247.41C1097.37 247.41 1093.46 247.41 1089.56 247.41C1085.65 247.41 1081.74 247.41 1077.83 247.41C1073.93 247.41 1070.02 247.41 1066.11 247.41C1062.2 247.41 1058.3 247.41 1054.39 247.41C1050.48 247.41 1046.57 247.41 1042.67 247.41C1038.76 247.41 1034.85 247.41 1030.94 247.41C1027.04 247.41 1023.13 247.41 1019.22 247.41C1015.31 247.41 1011.41 247.41 1007.5 247.41C1003.59 247.41 999.685 247.41 995.777 247.41C991.87 247.41 987.963 247.41 984.055 247.41C980.148 247.41 976.24 247.41 972.333 247.41C968.426 247.41 964.518 247.41 960.611 247.41C956.703 247.41 952.796 247.41 948.888 247.41C944.981 247.41 941.074 247.41 937.166 247.41C933.259 247.41 929.351 247.41 925.444 247.41C921.537 247.41 917.629 247.41 913.722 247.41C909.814 247.41 905.907 247.41 902 247.41C898.092 247.41 894.185 247.41 890.277 247.41C886.37 247.41 882.462 247.41 878.555 247.41C874.648 247.41 870.74 247.41 866.833 247.41C862.925 247.41 859.018 247.41 855.111 247.41C851.203 247.41 847.296 247.41 843.388 247.41C839.481 247.41 835.574 247.41 831.666 247.41C827.759 247.41 823.851 247.41 819.944 247.41C816.036 247.41 812.129 247.41 808.222 247.41C804.314 247.41 800.407 247.41 796.499 247.41C792.592 247.41 788.685 247.41 784.777 247.41C780.87 247.41 776.962 247.41 773.055 247.41C769.148 247.41 765.24 247.41 761.333 247.41C757.425 247.41 753.518 247.41 749.61 247.41C745.703 247.41 741.796 247.41 737.888 247.41C733.981 247.41 730.073 247.41 726.166 247.41C722.259 247.41 718.351 247.41 714.444 247.41C710.536 247.41 702.722 247.41 702.722 247.41V233.173Z" fill="url(#paint1_linear)"/>
<g clip-path="url(#clip2)">
<path d="M3.35778 345.909H1.77255L-1.50018 348.082V349.693L1.69585 347.571H1.77255V359H3.35778V345.909ZM11.4693 359.179C14.1156 359.211 15.8414 357.217 15.8414 354.781C15.8414 352.25 13.9686 350.435 11.725 350.435C10.3762 350.435 9.21928 351.093 8.50337 352.173H8.4011C8.40749 348.984 9.64755 347.136 11.6738 347.136C13.0545 347.136 13.8855 348.006 14.1795 349.182H15.7392C15.4196 347.149 13.8727 345.73 11.6738 345.73C8.7271 345.73 6.91815 348.338 6.91815 352.966C6.91815 357.805 9.32156 359.153 11.4693 359.179ZM11.4693 357.773C9.82653 357.773 8.62482 356.373 8.63121 354.807C8.63761 353.241 9.89684 351.841 11.5204 351.841C13.1248 351.841 14.3074 353.158 14.3074 354.781C14.3074 356.443 13.0737 357.773 11.4693 357.773Z" fill="black"/>
<path d="M3.69176 395.909H2.10653L-1.16619 398.082V399.693L2.02983 397.571H2.10653V409H3.69176V395.909ZM7.45668 409H15.7152V407.594H9.62997V407.491L12.5703 404.347C14.8203 401.937 15.4851 400.812 15.4851 399.361C15.4851 397.341 13.8487 395.73 11.5476 395.73C9.25284 395.73 7.50781 397.29 7.50781 399.591H9.01634C9.01634 398.102 9.98153 397.111 11.4964 397.111C12.9155 397.111 14.0021 397.98 14.0021 399.361C14.0021 400.569 13.2926 401.464 11.7777 403.119L7.45668 407.849V409Z" fill="black"/>
<path d="M11.4565 457.179C14.0708 457.179 15.8926 455.651 15.9054 453.523C15.8926 451.867 14.7868 450.461 13.3741 450.199V450.122C14.6014 449.803 15.4068 448.601 15.4196 447.207C15.4068 445.213 13.7321 443.73 11.4565 443.73C9.15536 443.73 7.48065 445.213 7.49343 447.207C7.48065 448.601 8.28604 449.803 9.53888 450.122V450.199C8.10067 450.461 6.99485 451.867 7.00763 453.523C6.99485 455.651 8.81658 457.179 11.4565 457.179ZM11.4565 455.773C9.66033 455.773 8.55451 454.852 8.56729 453.446C8.55451 451.969 9.77539 450.915 11.4565 450.915C13.112 450.915 14.3329 451.969 14.3457 453.446C14.3329 454.852 13.2271 455.773 11.4565 455.773ZM11.4565 449.56C10.0247 449.56 9.01474 448.665 9.02752 447.31C9.01474 445.98 9.98633 445.111 11.4565 445.111C12.9011 445.111 13.8727 445.98 13.8855 447.31C13.8727 448.665 12.8627 449.56 11.4565 449.56Z" fill="black"/>
<path d="M6.49947 504.315H12.6614V507H14.1699V504.315H15.9597V502.909H14.1699V493.909H12.2523L6.49947 503.011V504.315ZM12.6614 502.909H8.21254V502.807L12.5591 495.929H12.6614V502.909Z" fill="black"/>
<path d="M11.375 556.179C14.2642 556.179 15.9261 553.731 15.9261 549.455C15.9261 545.21 14.2386 542.73 11.375 542.73C8.51136 542.73 6.82386 545.21 6.82386 549.455C6.82386 553.731 8.4858 556.179 11.375 556.179ZM11.375 554.773C9.47017 554.773 8.35795 552.862 8.35795 549.455C8.35795 546.054 9.48295 544.111 11.375 544.111C13.267 544.111 14.392 546.054 14.392 549.455C14.392 552.862 13.2798 554.773 11.375 554.773Z" fill="black"/>
<line x1="23.7216" y1="353.133" x2="645" y2="353.133" stroke="black" stroke-opacity="0.08"/>
<line x1="23.7216" y1="401.54" x2="645" y2="401.54" stroke="black" stroke-opacity="0.08"/>
<line x1="23.7216" y1="451.022" x2="645" y2="451.022" stroke="black" stroke-opacity="0.08"/>
<line x1="23.7216" y1="500.504" x2="645" y2="500.504" stroke="black" stroke-opacity="0.08"/>
<line x1="23.7216" y1="549.986" x2="645" y2="549.986" stroke="black" stroke-opacity="0.08"/>
<path d="M107.1 558.909H105.515L102.242 561.082V562.693L105.438 560.571H105.515V572H107.1V558.909ZM115.135 572.179C118.024 572.179 119.686 569.731 119.686 565.455C119.686 561.21 117.998 558.73 115.135 558.73C112.271 558.73 110.584 561.21 110.584 565.455C110.584 569.731 112.246 572.179 115.135 572.179ZM115.135 570.773C113.23 570.773 112.118 568.862 112.118 565.455C112.118 562.054 113.243 560.111 115.135 560.111C117.027 560.111 118.152 562.054 118.152 565.455C118.152 568.862 117.04 570.773 115.135 570.773ZM127.944 572L129.261 568.293H134.554L135.871 572H137.532L132.726 558.909H131.089L126.282 572H127.944ZM129.76 566.886L131.856 560.98H131.959L134.055 566.886H129.76ZM139.572 558.909V572H141.055V562.054H141.182L145.273 572H146.705L150.796 562.054H150.924V572H152.407V558.909H150.515L146.066 569.776H145.912L141.464 558.909H139.572Z" fill="black"/>
<path d="M239.19 558.909H237.605L234.332 561.082V562.693L237.528 560.571H237.605V572H239.19V558.909ZM242.955 572H251.213V570.594H245.128V570.491L248.068 567.347C250.318 564.937 250.983 563.812 250.983 562.361C250.983 560.341 249.347 558.73 247.046 558.73C244.751 558.73 243.006 560.29 243.006 562.591H244.514C244.514 561.102 245.48 560.111 246.994 560.111C248.414 560.111 249.5 560.98 249.5 562.361C249.5 563.569 248.791 564.464 247.276 566.119L242.955 570.849V572ZM259.146 572H260.731V567.219H263.595C266.644 567.219 268.018 565.365 268.018 563.051C268.018 560.737 266.644 558.909 263.569 558.909H259.146V572ZM260.731 565.812V560.315H263.518C265.646 560.315 266.458 561.479 266.458 563.051C266.458 564.624 265.646 565.812 263.544 565.812H260.731ZM270.572 558.909V572H272.055V562.054H272.182L276.273 572H277.705L281.796 562.054H281.924V572H283.407V558.909H281.515L277.066 569.776H276.912L272.464 558.909H270.572Z" fill="black"/>
<path d="M366.955 572H375.213V570.594H369.128V570.491L372.068 567.347C374.318 564.937 374.983 563.812 374.983 562.361C374.983 560.341 373.347 558.73 371.046 558.73C368.751 558.73 367.006 560.29 367.006 562.591H368.514C368.514 561.102 369.48 560.111 370.994 560.111C372.414 560.111 373.5 560.98 373.5 562.361C373.5 563.569 372.791 564.464 371.276 566.119L366.955 570.849V572ZM383.146 572H384.731V567.219H387.595C390.644 567.219 392.018 565.365 392.018 563.051C392.018 560.737 390.644 558.909 387.569 558.909H383.146V572ZM384.731 565.812V560.315H387.518C389.646 560.315 390.458 561.479 390.458 563.051C390.458 564.624 389.646 565.812 387.544 565.812H384.731ZM394.572 558.909V572H396.055V562.054H396.182L400.273 572H401.705L405.796 562.054H405.924V572H407.407V558.909H405.515L401.066 569.776H400.912L396.464 558.909H394.572Z" fill="black"/>
<path d="M490.998 569.315H497.159V572H498.668V569.315H500.458V567.909H498.668V558.909H496.75L490.998 568.011V569.315ZM497.159 567.909H492.711V567.807L497.057 560.929H497.159V567.909ZM508.146 572H509.731V567.219H512.595C515.644 567.219 517.018 565.365 517.018 563.051C517.018 560.737 515.644 558.909 512.569 558.909H508.146V572ZM509.731 565.812V560.315H512.518C514.646 560.315 515.458 561.479 515.458 563.051C515.458 564.624 514.646 565.812 512.544 565.812H509.731ZM519.572 558.909V572H521.055V562.054H521.182L525.273 572H526.705L530.796 562.054H530.924V572H532.407V558.909H530.515L526.066 569.776H525.912L521.464 558.909H519.572Z" fill="black"/>
<path d="M24.7216 302.705V320.16H27.7557V308.143H27.9176L32.7415 320.109H35.0085L39.8324 308.169H39.9943V320.16H43.0284V302.705H39.1591L33.9773 315.353H33.7727L28.5909 302.705H24.7216ZM50.1023 320.424C52.1562 320.424 53.3835 319.461 53.946 318.362H54.0483V320.16H57.0142V311.399C57.0142 307.938 54.1932 306.899 51.696 306.899C48.9432 306.899 46.8295 308.126 46.1477 310.512L49.0284 310.921C49.3352 310.026 50.2045 309.259 51.7131 309.259C53.1449 309.259 53.929 309.992 53.929 311.279V311.33C53.929 312.217 53 312.259 50.6903 312.507C48.1506 312.779 45.7216 313.538 45.7216 316.487C45.7216 319.061 47.6051 320.424 50.1023 320.424ZM50.9034 318.157C49.6165 318.157 48.696 317.569 48.696 316.436C48.696 315.251 49.7273 314.757 51.108 314.561C51.9176 314.45 53.5369 314.245 53.9375 313.921V315.464C53.9375 316.921 52.7614 318.157 50.9034 318.157ZM60.1165 320.16H63.2017V312.464C63.2017 310.802 64.4545 309.626 66.1506 309.626C66.6705 309.626 67.3182 309.72 67.5824 309.805V306.967C67.3011 306.916 66.8153 306.882 66.4744 306.882C64.9744 306.882 63.7216 307.734 63.2443 309.251H63.108V307.069H60.1165V320.16ZM71.9482 325.069C74.3516 325.069 75.7408 323.833 76.4822 321.745L81.7408 307.086L78.4425 307.069L75.4169 316.955H75.2805L72.2635 307.069H68.9908L73.7379 320.433L73.4737 321.14C72.9027 322.632 71.9993 322.734 70.6527 322.342L69.9368 324.745C70.3544 324.916 71.1044 325.069 71.9482 325.069ZM87.272 302.705H84.8175V304.461C84.8175 305.85 84.272 306.916 83.6499 307.853L85.0817 308.782C86.3345 307.742 87.272 305.953 87.272 304.444V302.705ZM98.424 310.529C97.9979 308.313 96.2251 306.899 93.157 306.899C90.0036 306.899 87.8558 308.45 87.8643 310.87C87.8558 312.779 89.032 314.041 91.5462 314.561L93.7791 315.029C94.9808 315.294 95.5433 315.779 95.5433 316.521C95.5433 317.416 94.5717 318.089 93.1058 318.089C91.6911 318.089 90.7706 317.475 90.5064 316.299L87.4979 316.589C87.8814 318.992 89.9013 320.416 93.1143 320.416C96.3871 320.416 98.6967 318.72 98.7053 316.24C98.6967 314.373 97.495 313.231 95.0234 312.694L92.7905 312.217C91.4609 311.919 90.9325 311.458 90.9411 310.7C90.9325 309.813 91.9126 309.2 93.1996 309.2C94.6229 309.2 95.3729 309.975 95.6115 310.836L98.424 310.529ZM122.279 308.595C121.742 304.717 118.759 302.467 114.89 302.467C110.33 302.467 106.896 305.791 106.896 311.433C106.896 317.066 110.288 320.399 114.89 320.399C119.04 320.399 121.793 317.714 122.279 314.382L119.092 314.365C118.691 316.41 117.021 317.561 114.933 317.561C112.103 317.561 110.075 315.438 110.075 311.433C110.075 307.495 112.086 305.305 114.941 305.305C117.063 305.305 118.725 306.507 119.092 308.595H122.279ZM125.175 320.16H128.337V314.262H131.678C135.709 314.262 137.874 311.842 137.874 308.484C137.874 305.151 135.734 302.705 131.72 302.705H125.175V320.16ZM128.337 311.663V305.348H131.234C133.604 305.348 134.652 306.626 134.652 308.484C134.652 310.342 133.604 311.663 131.251 311.663H128.337ZM151.623 302.705V313.845C151.623 316.035 150.097 317.603 147.702 317.603C145.299 317.603 143.782 316.035 143.782 313.845V302.705H140.62V314.109C140.62 317.859 143.433 320.424 147.702 320.424C151.955 320.424 154.785 317.859 154.785 314.109V302.705H151.623ZM179.115 308.595C178.578 304.717 175.595 302.467 171.726 302.467C167.166 302.467 163.732 305.791 163.732 311.433C163.732 317.066 167.124 320.399 171.726 320.399C175.876 320.399 178.629 317.714 179.115 314.382L175.928 314.365C175.527 316.41 173.857 317.561 171.768 317.561C168.939 317.561 166.911 315.438 166.911 311.433C166.911 307.495 168.922 305.305 171.777 305.305C173.899 305.305 175.561 306.507 175.928 308.595H179.115ZM187.585 320.416C191.42 320.416 193.857 317.714 193.857 313.666C193.857 309.609 191.42 306.899 187.585 306.899C183.749 306.899 181.312 309.609 181.312 313.666C181.312 317.714 183.749 320.416 187.585 320.416ZM187.602 317.944C185.479 317.944 184.44 316.052 184.44 313.657C184.44 311.262 185.479 309.345 187.602 309.345C189.69 309.345 190.729 311.262 190.729 313.657C190.729 316.052 189.69 317.944 187.602 317.944ZM196.476 320.16H199.561V312.464C199.561 310.802 200.814 309.626 202.51 309.626C203.03 309.626 203.678 309.72 203.942 309.805V306.967C203.661 306.916 203.175 306.882 202.834 306.882C201.334 306.882 200.081 307.734 199.604 309.251H199.467V307.069H196.476V320.16ZM211.248 320.416C214.299 320.416 216.396 318.924 216.941 316.649L214.06 316.325C213.643 317.433 212.62 318.012 211.29 318.012C209.296 318.012 207.975 316.7 207.95 314.458H217.069V313.512C217.069 308.919 214.308 306.899 211.086 306.899C207.336 306.899 204.89 309.651 204.89 313.691C204.89 317.799 207.302 320.416 211.248 320.416ZM207.958 312.379C208.052 310.708 209.288 309.302 211.129 309.302C212.901 309.302 214.094 310.598 214.112 312.379H207.958ZM236.771 302.705V313.845C236.771 316.035 235.246 317.603 232.851 317.603C230.447 317.603 228.93 316.035 228.93 313.845V302.705H225.768V314.109C225.768 317.859 228.581 320.424 232.851 320.424C237.104 320.424 239.933 317.859 239.933 314.109V302.705H236.771ZM253.58 310.529C253.154 308.313 251.381 306.899 248.313 306.899C245.16 306.899 243.012 308.45 243.021 310.87C243.012 312.779 244.188 314.041 246.702 314.561L248.935 315.029C250.137 315.294 250.7 315.779 250.7 316.521C250.7 317.416 249.728 318.089 248.262 318.089C246.847 318.089 245.927 317.475 245.663 316.299L242.654 316.589C243.038 318.992 245.058 320.416 248.271 320.416C251.543 320.416 253.853 318.72 253.862 316.24C253.853 314.373 252.651 313.231 250.18 312.694L247.947 312.217C246.617 311.919 246.089 311.458 246.097 310.7C246.089 309.813 247.069 309.2 248.356 309.2C249.779 309.2 250.529 309.975 250.768 310.836L253.58 310.529ZM260.173 320.424C262.227 320.424 263.454 319.461 264.016 318.362H264.119V320.16H267.085V311.399C267.085 307.938 264.263 306.899 261.766 306.899C259.013 306.899 256.9 308.126 256.218 310.512L259.099 310.921C259.406 310.026 260.275 309.259 261.783 309.259C263.215 309.259 263.999 309.992 263.999 311.279V311.33C263.999 312.217 263.07 312.259 260.761 312.507C258.221 312.779 255.792 313.538 255.792 316.487C255.792 319.061 257.675 320.424 260.173 320.424ZM260.974 318.157C259.687 318.157 258.766 317.569 258.766 316.436C258.766 315.251 259.798 314.757 261.178 314.561C261.988 314.45 263.607 314.245 264.008 313.921V315.464C264.008 316.921 262.832 318.157 260.974 318.157ZM275.88 325.342C279.417 325.342 282.025 323.723 282.025 320.373V307.069H278.982V309.234H278.812C278.343 308.288 277.363 306.899 275.053 306.899C272.028 306.899 269.65 309.268 269.65 313.572C269.65 317.842 272.028 319.973 275.045 319.973C277.286 319.973 278.335 318.771 278.812 317.808H278.965V320.288C278.965 322.214 277.687 323.007 275.931 323.007C274.073 323.007 273.255 322.129 272.88 321.362L270.102 322.035C270.664 323.867 272.548 325.342 275.88 325.342ZM275.906 317.552C273.869 317.552 272.795 315.967 272.795 313.555C272.795 311.177 273.852 309.43 275.906 309.43C277.891 309.43 278.982 311.075 278.982 313.555C278.982 316.052 277.874 317.552 275.906 317.552ZM290.982 320.416C294.033 320.416 296.13 318.924 296.675 316.649L293.795 316.325C293.377 317.433 292.354 318.012 291.025 318.012C289.031 318.012 287.71 316.7 287.684 314.458H296.803V313.512C296.803 308.919 294.042 306.899 290.82 306.899C287.07 306.899 284.624 309.651 284.624 313.691C284.624 317.799 287.036 320.416 290.982 320.416ZM287.692 312.379C287.786 310.708 289.022 309.302 290.863 309.302C292.636 309.302 293.829 310.598 293.846 312.379H287.692Z" fill="black"/>
</g>
<path d="M23.7216 546.582C23.7216 546.582 31.5364 530.847 35.4438 527.677C39.3512 524.507 43.2586 525.682 47.166 527.563C51.0734 529.444 54.9809 536.078 58.8883 538.962C62.7957 541.845 66.7031 546.041 70.6105 544.864C74.5179 543.688 78.4253 532.346 82.3327 531.902C86.2402 531.459 90.1476 539.659 94.055 542.203C97.9624 544.747 101.87 549.918 105.777 547.166C109.685 544.413 113.592 528.518 117.499 525.688C121.407 522.857 125.314 529.532 129.222 530.183C133.129 530.833 137.036 538.913 140.944 529.592C144.851 520.272 148.759 491.831 152.666 474.259C156.574 456.686 160.481 440.858 164.388 424.158C168.296 407.457 172.203 361.531 176.111 374.057C180.018 386.582 183.925 473.792 187.833 499.309C191.74 524.826 195.648 519.657 199.555 527.158C203.462 534.659 207.37 541.024 211.277 544.315C215.185 547.606 219.092 549.641 223 546.905C226.907 544.17 230.814 530.527 234.722 527.901C238.629 525.275 242.537 528.728 246.444 531.15C250.351 533.573 254.259 541.605 258.166 542.435C262.074 543.264 265.981 536.733 269.888 536.129C273.796 535.526 277.703 538.158 281.611 538.813C285.518 539.467 289.426 539.534 293.333 540.055C297.24 540.576 301.148 542.733 305.055 541.941C308.963 541.15 312.87 534.897 316.777 535.307C320.685 535.717 324.592 543.599 328.5 544.4C332.407 545.202 336.314 540.115 340.222 540.115C344.129 540.115 348.037 543.477 351.944 544.4C355.852 545.323 359.759 548.631 363.666 545.653C367.574 542.674 371.481 527.572 375.389 526.528C379.296 525.484 383.203 538.891 387.111 539.39C391.018 539.889 394.926 532.028 398.833 529.524C402.74 527.02 406.648 523.17 410.555 524.367C414.463 525.565 418.37 534.206 422.278 536.71C426.185 539.214 430.092 539.259 434 539.39C437.907 539.521 441.815 537.289 445.722 537.497C449.629 537.706 453.537 541.58 457.444 540.643C461.352 539.706 465.259 555.464 469.166 531.875C473.074 508.286 476.981 398.655 480.889 399.107C484.796 399.56 488.704 510.375 492.611 534.59C496.518 558.806 500.426 545.515 504.333 544.4C508.241 543.285 512.148 529.908 516.055 527.901C519.963 525.894 523.87 532.596 527.778 532.358C531.685 532.12 535.592 527.25 539.5 526.473C543.407 525.695 547.315 525.923 551.222 527.695C555.13 529.466 559.037 534.606 562.944 537.1C566.852 539.595 570.759 544.19 574.667 542.661C578.574 541.133 582.481 527.883 586.389 527.93C590.296 527.977 594.204 543.391 598.111 542.944C602.018 542.497 605.926 526.848 609.833 525.25C613.741 523.652 617.648 530.362 621.556 533.358C625.463 536.354 629.37 544.255 633.278 543.227C637.185 542.2 645 527.192 645 527.192V549.41C645 549.41 637.185 549.41 633.278 549.41C629.37 549.41 625.463 549.41 621.556 549.41C617.648 549.41 613.741 549.41 609.833 549.41C605.926 549.41 602.018 549.41 598.111 549.41C594.204 549.41 590.296 549.41 586.389 549.41C582.481 549.41 578.574 549.41 574.667 549.41C570.759 549.41 566.852 549.41 562.944 549.41C559.037 549.41 555.13 549.41 551.222 549.41C547.315 549.41 543.407 549.41 539.5 549.41C535.592 549.41 531.685 549.41 527.778 549.41C523.87 549.41 519.963 549.41 516.055 549.41C512.148 549.41 508.241 549.41 504.333 549.41C500.426 549.41 496.518 549.41 492.611 549.41C488.704 549.41 484.796 549.41 480.889 549.41C476.981 549.41 473.074 549.41 469.166 549.41C465.259 549.41 461.352 549.41 457.444 549.41C453.537 549.41 449.629 549.41 445.722 549.41C441.815 549.41 437.907 549.41 434 549.41C430.092 549.41 426.185 549.41 422.278 549.41C418.37 549.41 414.463 549.41 410.555 549.41C406.648 549.41 402.74 549.41 398.833 549.41C394.926 549.41 391.018 549.41 387.111 549.41C383.203 549.41 379.296 549.41 375.389 549.41C371.481 549.41 367.574 549.41 363.666 549.41C359.759 549.41 355.852 549.41 351.944 549.41C348.037 549.41 344.129 549.41 340.222 549.41C336.314 549.41 332.407 549.41 328.5 549.41C324.592 549.41 320.685 549.41 316.777 549.41C312.87 549.41 308.963 549.41 305.055 549.41C301.148 549.41 297.24 549.41 293.333 549.41C289.426 549.41 285.518 549.41 281.611 549.41C277.703 549.41 273.796 549.41 269.888 549.41C265.981 549.41 262.074 549.41 258.166 549.41C254.259 549.41 250.351 549.41 246.444 549.41C242.537 549.41 238.629 549.41 234.722 549.41C230.814 549.41 226.907 549.41 223 549.41C219.092 549.41 215.185 549.41 211.277 549.41C207.37 549.41 203.462 549.41 199.555 549.41C195.648 549.41 191.74 549.41 187.833 549.41C183.925 549.41 180.018 549.41 176.111 549.41C172.203 549.41 168.296 549.41 164.388 549.41C160.481 549.41 156.574 549.41 152.666 549.41C148.759 549.41 144.851 549.41 140.944 549.41C137.036 549.41 133.129 549.41 129.222 549.41C125.314 549.41 121.407 549.41 117.499 549.41C113.592 549.41 109.685 549.41 105.777 549.41C101.87 549.41 97.9624 549.41 94.055 549.41C90.1476 549.41 86.2402 549.41 82.3327 549.41C78.4253 549.41 74.5179 549.41 70.6105 549.41C66.7031 549.41 62.7957 549.41 58.8883 549.41C54.9809 549.41 51.0734 549.41 47.166 549.41C43.2586 549.41 39.3512 549.41 35.4438 549.41C31.5364 549.41 23.7216 549.41 23.7216 549.41V546.582Z" fill="url(#paint2_linear)"/>
<g clip-path="url(#clip3)">
<path d="M682.358 345.909H680.773L677.5 348.082V349.693L680.696 347.571H680.773V359H682.358V345.909ZM690.469 359.179C693.116 359.211 694.841 357.217 694.841 354.781C694.841 352.25 692.969 350.435 690.725 350.435C689.376 350.435 688.219 351.093 687.503 352.173H687.401C687.407 348.984 688.648 347.136 690.674 347.136C692.055 347.136 692.885 348.006 693.18 349.182H694.739C694.42 347.149 692.873 345.73 690.674 345.73C687.727 345.73 685.918 348.338 685.918 352.966C685.918 357.805 688.322 359.153 690.469 359.179ZM690.469 357.773C688.827 357.773 687.625 356.373 687.631 354.807C687.638 353.241 688.897 351.841 690.52 351.841C692.125 351.841 693.307 353.158 693.307 354.781C693.307 356.443 692.074 357.773 690.469 357.773Z" fill="black"/>
<path d="M682.692 395.909H681.107L677.834 398.082V399.693L681.03 397.571H681.107V409H682.692V395.909ZM686.457 409H694.715V407.594H688.63V407.491L691.57 404.347C693.82 401.937 694.485 400.812 694.485 399.361C694.485 397.341 692.849 395.73 690.548 395.73C688.253 395.73 686.508 397.29 686.508 399.591H688.016C688.016 398.102 688.982 397.111 690.496 397.111C691.915 397.111 693.002 397.98 693.002 399.361C693.002 400.569 692.293 401.464 690.778 403.119L686.457 407.849V409Z" fill="black"/>
<path d="M690.456 457.179C693.071 457.179 694.893 455.651 694.905 453.523C694.893 451.867 693.787 450.461 692.374 450.199V450.122C693.601 449.803 694.407 448.601 694.42 447.207C694.407 445.213 692.732 443.73 690.456 443.73C688.155 443.73 686.481 445.213 686.493 447.207C686.481 448.601 687.286 449.803 688.539 450.122V450.199C687.101 450.461 685.995 451.867 686.008 453.523C685.995 455.651 687.817 457.179 690.456 457.179ZM690.456 455.773C688.66 455.773 687.555 454.852 687.567 453.446C687.555 451.969 688.775 450.915 690.456 450.915C692.112 450.915 693.333 451.969 693.346 453.446C693.333 454.852 692.227 455.773 690.456 455.773ZM690.456 449.56C689.025 449.56 688.015 448.665 688.028 447.31C688.015 445.98 688.986 445.111 690.456 445.111C691.901 445.111 692.873 445.98 692.885 447.31C692.873 448.665 691.863 449.56 690.456 449.56Z" fill="black"/>
<path d="M685.499 504.315H691.661V507H693.17V504.315H694.96V502.909H693.17V493.909H691.252L685.499 503.011V504.315ZM691.661 502.909H687.213V502.807L691.559 495.929H691.661V502.909Z" fill="black"/>
<path d="M690.375 556.179C693.264 556.179 694.926 553.731 694.926 549.455C694.926 545.21 693.239 542.73 690.375 542.73C687.511 542.73 685.824 545.21 685.824 549.455C685.824 553.731 687.486 556.179 690.375 556.179ZM690.375 554.773C688.47 554.773 687.358 552.862 687.358 549.455C687.358 546.054 688.483 544.111 690.375 544.111C692.267 544.111 693.392 546.054 693.392 549.455C693.392 552.862 692.28 554.773 690.375 554.773Z" fill="black"/>
<line x1="702.722" y1="353.133" x2="1324" y2="353.133" stroke="black" stroke-opacity="0.08"/>
<line x1="702.722" y1="401.54" x2="1324" y2="401.54" stroke="black" stroke-opacity="0.08"/>
<line x1="702.722" y1="451.022" x2="1324" y2="451.022" stroke="black" stroke-opacity="0.08"/>
<line x1="702.722" y1="500.504" x2="1324" y2="500.504" stroke="black" stroke-opacity="0.08"/>
<line x1="702.722" y1="549.986" x2="1324" y2="549.986" stroke="black" stroke-opacity="0.08"/>
<path d="M786.1 558.909H784.515L781.242 561.082V562.693L784.438 560.571H784.515V572H786.1V558.909ZM794.135 572.179C797.024 572.179 798.686 569.731 798.686 565.455C798.686 561.21 796.998 558.73 794.135 558.73C791.271 558.73 789.584 561.21 789.584 565.455C789.584 569.731 791.246 572.179 794.135 572.179ZM794.135 570.773C792.23 570.773 791.118 568.862 791.118 565.455C791.118 562.054 792.243 560.111 794.135 560.111C796.027 560.111 797.152 562.054 797.152 565.455C797.152 568.862 796.04 570.773 794.135 570.773ZM806.944 572L808.261 568.293H813.554L814.871 572H816.532L811.726 558.909H810.089L805.282 572H806.944ZM808.76 566.886L810.856 560.98H810.959L813.055 566.886H808.76ZM818.572 558.909V572H820.055V562.054H820.182L824.273 572H825.705L829.796 562.054H829.924V572H831.407V558.909H829.515L825.066 569.776H824.912L820.464 558.909H818.572Z" fill="black"/>
<path d="M918.19 558.909H916.605L913.332 561.082V562.693L916.528 560.571H916.605V572H918.19V558.909ZM921.955 572H930.213V570.594H924.128V570.491L927.068 567.347C929.318 564.937 929.983 563.812 929.983 562.361C929.983 560.341 928.347 558.73 926.046 558.73C923.751 558.73 922.006 560.29 922.006 562.591H923.514C923.514 561.102 924.48 560.111 925.994 560.111C927.414 560.111 928.5 560.98 928.5 562.361C928.5 563.569 927.791 564.464 926.276 566.119L921.955 570.849V572ZM938.146 572H939.731V567.219H942.595C945.644 567.219 947.018 565.365 947.018 563.051C947.018 560.737 945.644 558.909 942.569 558.909H938.146V572ZM939.731 565.812V560.315H942.518C944.646 560.315 945.458 561.479 945.458 563.051C945.458 564.624 944.646 565.812 942.544 565.812H939.731ZM949.572 558.909V572H951.055V562.054H951.182L955.273 572H956.705L960.796 562.054H960.924V572H962.407V558.909H960.515L956.066 569.776H955.912L951.464 558.909H949.572Z" fill="black"/>
<path d="M1045.95 572H1054.21V570.594H1048.13V570.491L1051.07 567.347C1053.32 564.937 1053.98 563.812 1053.98 562.361C1053.98 560.341 1052.35 558.73 1050.05 558.73C1047.75 558.73 1046.01 560.29 1046.01 562.591H1047.51C1047.51 561.102 1048.48 560.111 1049.99 560.111C1051.41 560.111 1052.5 560.98 1052.5 562.361C1052.5 563.569 1051.79 564.464 1050.28 566.119L1045.95 570.849V572ZM1062.15 572H1063.73V567.219H1066.59C1069.64 567.219 1071.02 565.365 1071.02 563.051C1071.02 560.737 1069.64 558.909 1066.57 558.909H1062.15V572ZM1063.73 565.812V560.315H1066.52C1068.65 560.315 1069.46 561.479 1069.46 563.051C1069.46 564.624 1068.65 565.812 1066.54 565.812H1063.73ZM1073.57 558.909V572H1075.05V562.054H1075.18L1079.27 572H1080.71L1084.8 562.054H1084.92V572H1086.41V558.909H1084.51L1080.07 569.776H1079.91L1075.46 558.909H1073.57Z" fill="black"/>
<path d="M1170 569.315H1176.16V572H1177.67V569.315H1179.46V567.909H1177.67V558.909H1175.75L1170 568.011V569.315ZM1176.16 567.909H1171.71V567.807L1176.06 560.929H1176.16V567.909ZM1187.15 572H1188.73V567.219H1191.59C1194.64 567.219 1196.02 565.365 1196.02 563.051C1196.02 560.737 1194.64 558.909 1191.57 558.909H1187.15V572ZM1188.73 565.812V560.315H1191.52C1193.65 560.315 1194.46 561.479 1194.46 563.051C1194.46 564.624 1193.65 565.812 1191.54 565.812H1188.73ZM1198.57 558.909V572H1200.05V562.054H1200.18L1204.27 572H1205.71L1209.8 562.054H1209.92V572H1211.41V558.909H1209.51L1205.07 569.776H1204.91L1200.46 558.909H1198.57Z" fill="black"/>
<path d="M703.722 320.16H706.884V312.745H714.136V310.095H706.884V305.356H714.903V302.705H703.722V320.16ZM717.46 320.16H720.545V312.464C720.545 310.802 721.798 309.626 723.494 309.626C724.014 309.626 724.662 309.72 724.926 309.805V306.967C724.645 306.916 724.159 306.882 723.818 306.882C722.318 306.882 721.065 307.734 720.588 309.251H720.452V307.069H717.46V320.16ZM732.232 320.416C735.283 320.416 737.38 318.924 737.925 316.649L735.045 316.325C734.627 317.433 733.604 318.012 732.275 318.012C730.281 318.012 728.96 316.7 728.934 314.458H738.053V313.512C738.053 308.919 735.292 306.899 732.07 306.899C728.32 306.899 725.874 309.651 725.874 313.691C725.874 317.799 728.286 320.416 732.232 320.416ZM728.942 312.379C729.036 310.708 730.272 309.302 732.113 309.302C733.886 309.302 735.079 310.598 735.096 312.379H728.942ZM745.521 320.39C747.771 320.39 748.786 319.052 749.271 318.098H749.459V320.16H752.493V302.705H749.399V309.234H749.271C748.803 308.288 747.839 306.899 745.53 306.899C742.504 306.899 740.126 309.268 740.126 313.632C740.126 317.944 742.436 320.39 745.521 320.39ZM746.382 317.859C744.345 317.859 743.271 316.069 743.271 313.615C743.271 311.177 744.328 309.43 746.382 309.43C748.368 309.43 749.459 311.075 749.459 313.615C749.459 316.154 748.351 317.859 746.382 317.859ZM758.397 302.705H755.942V304.461C755.942 305.85 755.397 306.916 754.775 307.853L756.207 308.782C757.46 307.742 758.397 305.953 758.397 304.444V302.705ZM769.549 310.529C769.123 308.313 767.35 306.899 764.282 306.899C761.129 306.899 758.981 308.45 758.989 310.87C758.981 312.779 760.157 314.041 762.671 314.561L764.904 315.029C766.106 315.294 766.668 315.779 766.668 316.521C766.668 317.416 765.697 318.089 764.231 318.089C762.816 318.089 761.896 317.475 761.631 316.299L758.623 316.589C759.006 318.992 761.026 320.416 764.239 320.416C767.512 320.416 769.822 318.72 769.83 316.24C769.822 314.373 768.62 313.231 766.148 312.694L763.915 312.217C762.586 311.919 762.058 311.458 762.066 310.7C762.058 309.813 763.038 309.2 764.325 309.2C765.748 309.2 766.498 309.975 766.737 310.836L769.549 310.529ZM793.404 308.595C792.867 304.717 789.884 302.467 786.015 302.467C781.455 302.467 778.021 305.791 778.021 311.433C778.021 317.066 781.413 320.399 786.015 320.399C790.165 320.399 792.918 317.714 793.404 314.382L790.217 314.365C789.816 316.41 788.146 317.561 786.058 317.561C783.228 317.561 781.2 315.438 781.2 311.433C781.2 307.495 783.211 305.305 786.066 305.305C788.188 305.305 789.85 306.507 790.217 308.595H793.404ZM796.3 320.16H799.462V314.262H802.803C806.834 314.262 808.999 311.842 808.999 308.484C808.999 305.151 806.859 302.705 802.845 302.705H796.3V320.16ZM799.462 311.663V305.348H802.359C804.729 305.348 805.777 306.626 805.777 308.484C805.777 310.342 804.729 311.663 802.376 311.663H799.462ZM822.748 302.705V313.845C822.748 316.035 821.222 317.603 818.827 317.603C816.424 317.603 814.907 316.035 814.907 313.845V302.705H811.745V314.109C811.745 317.859 814.558 320.424 818.827 320.424C823.08 320.424 825.91 317.859 825.91 314.109V302.705H822.748ZM850.24 308.595C849.703 304.717 846.72 302.467 842.851 302.467C838.291 302.467 834.857 305.791 834.857 311.433C834.857 317.066 838.249 320.399 842.851 320.399C847.001 320.399 849.754 317.714 850.24 314.382L847.053 314.365C846.652 316.41 844.982 317.561 842.893 317.561C840.064 317.561 838.036 315.438 838.036 311.433C838.036 307.495 840.047 305.305 842.902 305.305C845.024 305.305 846.686 306.507 847.053 308.595H850.24ZM858.71 320.416C862.545 320.416 864.982 317.714 864.982 313.666C864.982 309.609 862.545 306.899 858.71 306.899C854.874 306.899 852.437 309.609 852.437 313.666C852.437 317.714 854.874 320.416 858.71 320.416ZM858.727 317.944C856.604 317.944 855.565 316.052 855.565 313.657C855.565 311.262 856.604 309.345 858.727 309.345C860.815 309.345 861.854 311.262 861.854 313.657C861.854 316.052 860.815 317.944 858.727 317.944ZM867.601 320.16H870.686V312.464C870.686 310.802 871.939 309.626 873.635 309.626C874.155 309.626 874.803 309.72 875.067 309.805V306.967C874.786 306.916 874.3 306.882 873.959 306.882C872.459 306.882 871.206 307.734 870.729 309.251H870.592V307.069H867.601V320.16ZM882.373 320.416C885.424 320.416 887.521 318.924 888.066 316.649L885.185 316.325C884.768 317.433 883.745 318.012 882.415 318.012C880.421 318.012 879.1 316.7 879.075 314.458H888.194V313.512C888.194 308.919 885.433 306.899 882.211 306.899C878.461 306.899 876.015 309.651 876.015 313.691C876.015 317.799 878.427 320.416 882.373 320.416ZM879.083 312.379C879.177 310.708 880.413 309.302 882.254 309.302C884.026 309.302 885.219 310.598 885.237 312.379H879.083ZM907.896 302.705V313.845C907.896 316.035 906.371 317.603 903.976 317.603C901.572 317.603 900.055 316.035 900.055 313.845V302.705H896.893V314.109C896.893 317.859 899.706 320.424 903.976 320.424C908.229 320.424 911.058 317.859 911.058 314.109V302.705H907.896ZM924.705 310.529C924.279 308.313 922.506 306.899 919.438 306.899C916.285 306.899 914.137 308.45 914.146 310.87C914.137 312.779 915.313 314.041 917.827 314.561L920.06 315.029C921.262 315.294 921.825 315.779 921.825 316.521C921.825 317.416 920.853 318.089 919.387 318.089C917.972 318.089 917.052 317.475 916.788 316.299L913.779 316.589C914.163 318.992 916.183 320.416 919.396 320.416C922.668 320.416 924.978 318.72 924.987 316.24C924.978 314.373 923.776 313.231 921.305 312.694L919.072 312.217C917.742 311.919 917.214 311.458 917.222 310.7C917.214 309.813 918.194 309.2 919.481 309.2C920.904 309.2 921.654 309.975 921.893 310.836L924.705 310.529ZM931.298 320.424C933.352 320.424 934.579 319.461 935.141 318.362H935.244V320.16H938.21V311.399C938.21 307.938 935.388 306.899 932.891 306.899C930.138 306.899 928.025 308.126 927.343 310.512L930.224 310.921C930.531 310.026 931.4 309.259 932.908 309.259C934.34 309.259 935.124 309.992 935.124 311.279V311.33C935.124 312.217 934.195 312.259 931.886 312.507C929.346 312.779 926.917 313.538 926.917 316.487C926.917 319.061 928.8 320.424 931.298 320.424ZM932.099 318.157C930.812 318.157 929.891 317.569 929.891 316.436C929.891 315.251 930.923 314.757 932.303 314.561C933.113 314.45 934.732 314.245 935.133 313.921V315.464C935.133 316.921 933.957 318.157 932.099 318.157ZM947.005 325.342C950.542 325.342 953.15 323.723 953.15 320.373V307.069H950.107V309.234H949.937C949.468 308.288 948.488 306.899 946.178 306.899C943.153 306.899 940.775 309.268 940.775 313.572C940.775 317.842 943.153 319.973 946.17 319.973C948.411 319.973 949.46 318.771 949.937 317.808H950.09V320.288C950.09 322.214 948.812 323.007 947.056 323.007C945.198 323.007 944.38 322.129 944.005 321.362L941.227 322.035C941.789 323.867 943.673 325.342 947.005 325.342ZM947.031 317.552C944.994 317.552 943.92 315.967 943.92 313.555C943.92 311.177 944.977 309.43 947.031 309.43C949.016 309.43 950.107 311.075 950.107 313.555C950.107 316.052 948.999 317.552 947.031 317.552ZM962.107 320.416C965.158 320.416 967.255 318.924 967.8 316.649L964.92 316.325C964.502 317.433 963.479 318.012 962.15 318.012C960.156 318.012 958.835 316.7 958.809 314.458H967.928V313.512C967.928 308.919 965.167 306.899 961.945 306.899C958.195 306.899 955.749 309.651 955.749 313.691C955.749 317.799 958.161 320.416 962.107 320.416ZM958.817 312.379C958.911 310.708 960.147 309.302 961.988 309.302C963.761 309.302 964.954 310.598 964.971 312.379H958.817Z" fill="black"/>
</g>
<g clip-path="url(#clip4)">
<path d="M702.722 543.784C702.722 543.784 710.536 544.873 714.444 545.178C718.351 545.484 722.259 549.096 726.166 545.618C730.073 542.139 733.981 523.886 737.888 524.307C741.796 524.729 745.703 548.176 749.61 548.146C753.518 548.117 757.425 527.795 761.333 524.13C765.24 520.464 769.148 522.362 773.055 526.154C776.962 529.946 780.87 546.764 784.777 546.88C788.685 546.997 792.592 529.414 796.499 526.855C800.407 524.297 804.314 531.796 808.222 531.529C812.129 531.262 816.036 524.474 819.944 525.254C823.851 526.034 827.759 536.033 831.666 536.21C835.574 536.387 839.481 524.326 843.388 526.316C847.296 528.305 851.203 544.611 855.111 548.146C857.035 549.891 865.783 549.41 866.833 547.526C870.74 543.55 874.648 526.419 878.555 524.292C882.462 522.166 886.37 534.611 890.277 534.767C894.185 534.923 898.092 526.731 902 525.228C905.907 523.724 909.814 525.837 913.722 525.747C917.629 525.657 921.537 521.26 925.444 524.687C929.351 528.113 933.259 542.814 937.166 546.307C941.074 549.801 944.981 547.683 948.888 545.65C952.796 543.617 956.703 534.223 960.611 534.109C964.518 533.996 968.426 544.649 972.333 544.971C976.24 545.292 980.148 536.402 984.055 536.039C987.963 535.676 991.87 544.243 995.777 542.795C999.685 541.346 1003.59 526.457 1007.5 527.349C1011.41 528.241 1015.31 548.146 1019.22 548.146C1023.13 548.146 1027.04 527.164 1030.94 527.349C1034.85 527.535 1038.76 548.654 1042.67 549.259C1046.57 549.864 1050.48 531.377 1054.39 530.981C1058.3 530.585 1062.2 548.009 1066.11 546.882C1070.02 545.755 1073.93 524.848 1077.83 524.216C1081.74 523.584 1085.65 555.746 1089.56 543.09C1093.46 530.433 1097.37 448.488 1101.28 448.278C1105.18 448.067 1109.09 528.679 1113 541.825C1116.91 554.972 1120.81 529.63 1124.72 527.157C1128.63 524.683 1132.54 527.449 1136.44 526.986C1140.35 526.522 1144.26 522.56 1148.17 524.377C1152.07 526.194 1155.98 533.982 1159.89 537.885C1163.8 541.787 1167.7 549.547 1171.61 547.791C1175.52 546.035 1179.43 531.023 1183.33 527.349C1187.24 523.675 1191.15 522.345 1195.06 525.747C1198.96 529.149 1202.87 547.601 1206.78 547.762C1210.69 547.923 1214.59 547.505 1218.5 526.711C1222.41 505.916 1226.31 444.494 1230.22 422.994C1234.13 401.494 1238.04 377.779 1241.94 397.711C1245.85 417.643 1249.76 521.433 1253.67 542.585C1257.57 563.738 1261.48 527.657 1265.39 524.627C1269.3 521.597 1273.2 521.117 1277.11 524.405C1281.02 527.693 1284.93 543.563 1288.83 544.354C1292.74 545.144 1296.65 528.76 1300.56 529.149C1304.46 529.538 1308.37 547.511 1312.28 546.687C1316.19 545.863 1324 524.205 1324 524.205V549.41C1324 549.41 1316.19 549.41 1312.28 549.41C1308.37 549.41 1304.46 549.41 1300.56 549.41C1296.65 549.41 1292.74 549.41 1288.83 549.41C1284.93 549.41 1281.02 549.41 1277.11 549.41C1273.2 549.41 1269.3 549.41 1265.39 549.41C1261.48 549.41 1257.57 549.41 1253.67 549.41C1249.76 549.41 1245.85 549.41 1241.94 549.41C1238.04 549.41 1234.13 549.41 1230.22 549.41C1226.31 549.41 1222.41 549.41 1218.5 549.41C1214.59 549.41 1210.69 549.41 1206.78 549.41C1202.87 549.41 1198.96 549.41 1195.06 549.41C1191.15 549.41 1187.24 549.41 1183.33 549.41C1179.43 549.41 1175.52 549.41 1171.61 549.41C1167.7 549.41 1163.8 549.41 1159.89 549.41C1155.98 549.41 1152.07 549.41 1148.17 549.41C1144.26 549.41 1140.35 549.41 1136.44 549.41C1132.54 549.41 1128.63 549.41 1124.72 549.41C1120.81 549.41 1116.91 549.41 1113 549.41C1109.09 549.41 1105.18 549.41 1101.28 549.41C1097.37 549.41 1093.46 549.41 1089.56 549.41C1085.65 549.41 1081.74 549.41 1077.83 549.41C1073.93 549.41 1070.02 549.41 1066.11 549.41C1062.2 549.41 1058.3 549.41 1054.39 549.41C1050.48 549.41 1046.57 549.41 1042.67 549.41C1038.76 549.41 1034.85 549.41 1030.94 549.41C1027.04 549.41 1023.13 549.41 1019.22 549.41C1015.31 549.41 1011.41 549.41 1007.5 549.41C1003.59 549.41 999.685 549.41 995.777 549.41C991.87 549.41 987.963 549.41 984.055 549.41C980.148 549.41 976.24 549.41 972.333 549.41C968.426 549.41 964.518 549.41 960.611 549.41C956.703 549.41 952.796 549.41 948.888 549.41C944.981 549.41 941.074 549.41 937.166 549.41C933.259 549.41 929.351 549.41 925.444 549.41C921.537 549.41 917.629 549.41 913.722 549.41C909.814 549.41 905.907 549.41 902 549.41C898.092 549.41 894.185 549.41 890.277 549.41C886.37 549.41 882.462 549.41 878.555 549.41C874.648 549.41 870.74 549.41 866.833 549.41C862.925 549.41 859.018 549.41 855.111 549.41C851.203 549.41 847.296 549.41 843.388 549.41C839.481 549.41 835.574 549.41 831.666 549.41C827.759 549.41 823.851 549.41 819.944 549.41C816.036 549.41 812.129 549.41 808.222 549.41C804.314 549.41 800.407 549.41 796.499 549.41C792.592 549.41 788.685 549.41 784.777 549.41C780.87 549.41 776.962 549.41 773.055 549.41C769.148 549.41 765.24 549.41 761.333 549.41C757.425 549.41 753.518 549.41 749.61 549.41C745.703 549.41 741.796 549.41 737.888 549.41C733.981 549.41 730.073 549.41 726.166 549.41C722.259 549.41 718.351 549.41 714.444 549.41C710.536 549.41 702.722 549.41 702.722 549.41V543.784Z" fill="url(#paint3_linear)"/>
</g>
<defs>
<linearGradient id="paint0_linear" x1="334.361" y1="119.402" x2="334.361" y2="247.41" gradientUnits="userSpaceOnUse">
<stop stop-color="#D0EFD2"/>
<stop offset="1" stop-color="#A2E0A5"/>
</linearGradient>
<linearGradient id="paint1_linear" x1="1013.36" y1="120.478" x2="1013.36" y2="247.41" gradientUnits="userSpaceOnUse">
<stop stop-color="#D0EBEF"/>
<stop offset="1" stop-color="#A2D9E0"/>
</linearGradient>
<linearGradient id="paint2_linear" x1="334.361" y1="371.92" x2="334.361" y2="549.41" gradientUnits="userSpaceOnUse">
<stop stop-color="#D4D0EF"/>
<stop offset="1" stop-color="#ABA2E0"/>
</linearGradient>
<linearGradient id="paint3_linear" x1="1013.36" y1="390.207" x2="1013.36" y2="549.41" gradientUnits="userSpaceOnUse">
<stop stop-color="#EED0EF"/>
<stop offset="1" stop-color="#E0A2DE"/>
</linearGradient>
<clipPath id="clip0">
<rect width="645" height="270" fill="white"/>
</clipPath>
<clipPath id="clip1">
<rect width="645" height="270" fill="white" transform="translate(679)"/>
</clipPath>
<clipPath id="clip2">
<rect width="645" height="270" fill="white" transform="translate(0 302)"/>
</clipPath>
<clipPath id="clip3">
<rect width="645" height="270" fill="white" transform="translate(679 302)"/>
</clipPath>
<clipPath id="clip4">
<rect width="621.278" height="159.203" fill="white" transform="translate(702.722 390.207)"/>
</clipPath>
</defs>
</svg>
