<svg xmlns="http://www.w3.org/2000/svg" width="1330" height="760" fill="none" viewBox="0 0 1330 760"><g clip-path="url(#clip0)"><path fill="#000" d="M3.35778 59.9091H1.77255L-1.50018 62.0824V63.6932L1.69585 61.571H1.77255V73H3.35778V59.9091ZM11.4693 73.179C14.1156 73.2109 15.8414 71.2166 15.8414 68.7812C15.8414 66.25 13.9686 64.4347 11.725 64.4347C10.3762 64.4347 9.21928 65.093 8.50337 66.1733H8.4011C8.40749 62.9837 9.64755 61.1364 11.6738 61.1364C13.0545 61.1364 13.8855 62.0057 14.1795 63.1818H15.7392C15.4196 61.1491 13.8727 59.7301 11.6738 59.7301C8.7271 59.7301 6.91815 62.3381 6.91815 66.9659C6.91815 71.8047 9.32156 73.1534 11.4693 73.179ZM11.4693 71.7727C9.82653 71.7727 8.62482 70.3729 8.63121 68.8068C8.63761 67.2408 9.89684 65.8409 11.5204 65.8409C13.1248 65.8409 14.3074 67.1577 14.3074 68.7812C14.3074 70.4432 13.0737 71.7727 11.4693 71.7727Z"/><path fill="#000" d="M3.69176 125.576H2.10653L-1.16619 127.749V129.36L2.02983 127.238H2.10653V138.667H3.69176V125.576ZM7.45668 138.667H15.7152V137.26H9.62997V137.158L12.5703 134.013C14.8203 131.603 15.4851 130.478 15.4851 129.027C15.4851 127.008 13.8487 125.397 11.5476 125.397C9.25284 125.397 7.50781 126.956 7.50781 129.258H9.01634C9.01634 127.768 9.98153 126.777 11.4964 126.777C12.9155 126.777 14.0021 127.647 14.0021 129.027C14.0021 130.236 13.2926 131.13 11.7777 132.786L7.45668 137.516V138.667Z"/><path fill="#000" d="M11.4565 205.846C14.0708 205.846 15.8926 204.318 15.9054 202.189C15.8926 200.534 14.7868 199.128 13.3741 198.866V198.789C14.6014 198.469 15.4068 197.268 15.4196 195.874C15.4068 193.88 13.7321 192.397 11.4565 192.397C9.15536 192.397 7.48065 193.88 7.49343 195.874C7.48065 197.268 8.28604 198.469 9.53888 198.789V198.866C8.10067 199.128 6.99485 200.534 7.00763 202.189C6.99485 204.318 8.81658 205.846 11.4565 205.846ZM11.4565 204.439C9.66033 204.439 8.55451 203.519 8.56729 202.113C8.55451 200.636 9.77539 199.581 11.4565 199.581C13.112 199.581 14.3329 200.636 14.3457 202.113C14.3329 203.519 13.2271 204.439 11.4565 204.439ZM11.4565 198.226C10.0247 198.226 9.01474 197.331 9.02752 195.976C9.01474 194.647 9.98633 193.777 11.4565 193.777C12.9011 193.777 13.8727 194.647 13.8855 195.976C13.8727 197.331 12.8627 198.226 11.4565 198.226Z"/><path fill="#000" d="M6.49947 268.649H12.6614V271.333H14.1699V268.649H15.9597V267.242H14.1699V258.242H12.2523L6.49947 267.345V268.649ZM12.6614 267.242H8.21254V267.14L12.5591 260.262H12.6614V267.242Z"/><path fill="#000" d="M11.375 335.846C14.2642 335.846 15.9261 333.397 15.9261 329.121C15.9261 324.877 14.2386 322.397 11.375 322.397C8.51136 322.397 6.82386 324.877 6.82386 329.121C6.82386 333.397 8.4858 335.846 11.375 335.846ZM11.375 334.439C9.47017 334.439 8.35795 332.528 8.35795 329.121C8.35795 325.721 9.48295 323.777 11.375 323.777C13.267 323.777 14.392 325.721 14.392 329.121C14.392 332.528 13.2798 334.439 11.375 334.439Z"/><line x1="23.722" x2="645" y1="68.345" y2="68.345" stroke="#000" stroke-opacity=".08"/><line x1="23.722" x2="645" y1="132.886" y2="132.886" stroke="#000" stroke-opacity=".08"/><line x1="23.722" x2="645" y1="198.863" y2="198.863" stroke="#000" stroke-opacity=".08"/><line x1="23.722" x2="645" y1="264.839" y2="264.839" stroke="#000" stroke-opacity=".08"/><line x1="23.722" x2="645" y1="330.815" y2="330.815" stroke="#000" stroke-opacity=".08"/><path fill="#000" d="M107.1 346.909H105.515L102.242 349.082V350.693L105.438 348.571H105.515V360H107.1V346.909ZM115.135 360.179C118.024 360.179 119.686 357.731 119.686 353.455C119.686 349.21 117.998 346.73 115.135 346.73C112.271 346.73 110.584 349.21 110.584 353.455C110.584 357.731 112.246 360.179 115.135 360.179ZM115.135 358.773C113.23 358.773 112.118 356.862 112.118 353.455C112.118 350.054 113.243 348.111 115.135 348.111C117.027 348.111 118.152 350.054 118.152 353.455C118.152 356.862 117.04 358.773 115.135 358.773ZM127.944 360L129.261 356.293H134.554L135.871 360H137.532L132.726 346.909H131.089L126.282 360H127.944ZM129.76 354.886L131.856 348.98H131.959L134.055 354.886H129.76ZM139.572 346.909V360H141.055V350.054H141.182L145.273 360H146.705L150.796 350.054H150.924V360H152.407V346.909H150.515L146.066 357.776H145.912L141.464 346.909H139.572Z"/><path fill="#000" d="M239.19 346.909H237.605L234.332 349.082V350.693L237.528 348.571H237.605V360H239.19V346.909ZM242.955 360H251.213V358.594H245.128V358.491L248.068 355.347C250.318 352.937 250.983 351.812 250.983 350.361C250.983 348.341 249.347 346.73 247.046 346.73C244.751 346.73 243.006 348.29 243.006 350.591H244.514C244.514 349.102 245.48 348.111 246.994 348.111C248.414 348.111 249.5 348.98 249.5 350.361C249.5 351.569 248.791 352.464 247.276 354.119L242.955 358.849V360ZM259.146 360H260.731V355.219H263.595C266.644 355.219 268.018 353.365 268.018 351.051C268.018 348.737 266.644 346.909 263.569 346.909H259.146V360ZM260.731 353.812V348.315H263.518C265.646 348.315 266.458 349.479 266.458 351.051C266.458 352.624 265.646 353.812 263.544 353.812H260.731ZM270.572 346.909V360H272.055V350.054H272.182L276.273 360H277.705L281.796 350.054H281.924V360H283.407V346.909H281.515L277.066 357.776H276.912L272.464 346.909H270.572Z"/><path fill="#000" d="M366.955 360H375.213V358.594H369.128V358.491L372.068 355.347C374.318 352.937 374.983 351.812 374.983 350.361C374.983 348.341 373.347 346.73 371.046 346.73C368.751 346.73 367.006 348.29 367.006 350.591H368.514C368.514 349.102 369.48 348.111 370.994 348.111C372.414 348.111 373.5 348.98 373.5 350.361C373.5 351.569 372.791 352.464 371.276 354.119L366.955 358.849V360ZM383.146 360H384.731V355.219H387.595C390.644 355.219 392.018 353.365 392.018 351.051C392.018 348.737 390.644 346.909 387.569 346.909H383.146V360ZM384.731 353.812V348.315H387.518C389.646 348.315 390.458 349.479 390.458 351.051C390.458 352.624 389.646 353.812 387.544 353.812H384.731ZM394.572 346.909V360H396.055V350.054H396.182L400.273 360H401.705L405.796 350.054H405.924V360H407.407V346.909H405.515L401.066 357.776H400.912L396.464 346.909H394.572Z"/><path fill="#000" d="M490.998 357.315H497.159V360H498.668V357.315H500.458V355.909H498.668V346.909H496.75L490.998 356.011V357.315ZM497.159 355.909H492.711V355.807L497.057 348.929H497.159V355.909ZM508.146 360H509.731V355.219H512.595C515.644 355.219 517.018 353.365 517.018 351.051C517.018 348.737 515.644 346.909 512.569 346.909H508.146V360ZM509.731 353.812V348.315H512.518C514.646 348.315 515.458 349.479 515.458 351.051C515.458 352.624 514.646 353.812 512.544 353.812H509.731ZM519.572 346.909V360H521.055V350.054H521.182L525.273 360H526.705L530.796 350.054H530.924V360H532.407V346.909H530.515L526.066 357.776H525.912L521.464 346.909H519.572Z"/><path fill="url(#paint0_linear)" d="M23.7216 304.889C23.7216 304.889 31.5364 298.559 35.4438 297.215C39.3512 295.872 43.2586 295.712 47.166 296.826C51.0734 297.94 54.9809 300.844 58.8883 303.9C62.7957 306.956 66.7031 311.58 70.6105 315.162C74.5179 318.744 78.4253 322.945 82.3327 325.395C86.2402 327.844 90.1476 329.677 94.055 329.859C97.9624 330.041 101.87 328.657 105.777 326.487C109.685 324.317 113.592 320.357 117.499 316.84C121.407 313.324 125.314 308.622 129.222 305.387C133.129 302.153 137.036 298.887 140.944 297.433C144.851 295.979 148.759 295.662 152.666 296.661C156.574 297.661 160.481 300.44 164.388 303.43C168.296 306.42 172.203 311.007 176.111 314.604C180.018 318.2 183.925 322.471 187.833 325.007C191.74 327.543 195.648 329.52 199.555 329.821C203.462 330.123 207.37 328.89 211.277 326.817C215.185 324.744 219.092 328.168 223 317.385C226.907 306.602 230.814 288.271 234.722 262.121C238.629 235.97 242.537 168.951 246.444 160.481C250.351 152.011 254.259 187.552 258.166 211.301C262.074 235.049 265.981 285.846 269.888 302.97C273.796 320.094 277.703 310.437 281.611 314.043C285.518 317.649 289.426 321.986 293.333 324.606C297.24 327.226 301.148 329.344 305.055 329.765C308.963 330.186 312.87 329.105 316.777 327.132C320.685 325.158 324.592 321.379 328.5 317.925C332.407 314.471 336.314 309.744 340.222 306.41C344.129 303.075 348.037 299.59 351.944 297.919C355.852 296.249 359.759 295.62 363.666 296.387C367.574 297.153 371.481 299.672 375.389 302.521C379.296 305.37 383.203 309.87 387.111 313.482C391.018 317.094 394.926 321.49 398.833 324.192C402.74 326.893 406.648 329.151 410.555 329.69C414.463 330.23 418.37 329.303 422.278 327.431C426.185 325.559 430.092 321.876 434 318.46C437.907 315.043 441.815 310.311 445.722 306.932C449.629 303.553 453.537 299.963 457.444 298.187C461.352 296.412 465.259 295.627 469.166 296.276C473.074 296.926 476.981 310.6 480.889 302.084C484.796 293.568 488.704 257.488 492.611 245.181C496.518 232.873 500.426 225.417 504.333 228.241C508.241 231.064 512.148 245.542 516.055 262.121C519.963 278.699 523.87 319.809 527.778 327.714C531.685 335.619 535.592 312.928 539.5 309.553C543.407 306.177 547.315 309.308 551.222 307.461C555.13 305.614 559.037 300.351 562.944 298.472C566.852 296.592 570.759 295.653 574.667 296.185C578.574 296.716 582.481 298.963 586.389 301.658C590.296 304.354 594.204 308.746 598.111 312.358C602.018 315.969 605.926 320.473 609.833 323.327C613.741 326.182 617.648 328.71 621.556 329.486C625.463 330.261 629.37 329.644 633.278 327.981C637.185 326.318 645 319.51 645 319.51V329.881C645 329.881 637.185 329.881 633.278 329.881C629.37 329.881 625.463 329.881 621.556 329.881C617.648 329.881 613.741 329.881 609.833 329.881C605.926 329.881 602.018 329.881 598.111 329.881C594.204 329.881 590.296 329.881 586.389 329.881C582.481 329.881 578.574 329.881 574.667 329.881C570.759 329.881 566.852 329.881 562.944 329.881C559.037 329.881 555.13 329.881 551.222 329.881C547.315 329.881 543.407 329.881 539.5 329.881C535.592 329.881 531.685 329.881 527.778 329.881C523.87 329.881 519.963 329.881 516.055 329.881C512.148 329.881 508.241 329.881 504.333 329.881C500.426 329.881 496.518 329.881 492.611 329.881C488.704 329.881 484.796 329.881 480.889 329.881C476.981 329.881 473.074 329.881 469.166 329.881C465.259 329.881 461.352 329.881 457.444 329.881C453.537 329.881 449.629 329.881 445.722 329.881C441.815 329.881 437.907 329.881 434 329.881C430.092 329.881 426.185 329.881 422.278 329.881C418.37 329.881 414.463 329.881 410.555 329.881C406.648 329.881 402.74 329.881 398.833 329.881C394.926 329.881 391.018 329.881 387.111 329.881C383.203 329.881 379.296 329.881 375.389 329.881C371.481 329.881 367.574 329.881 363.666 329.881C359.759 329.881 355.852 329.881 351.944 329.881C348.037 329.881 344.129 329.881 340.222 329.881C336.314 329.881 332.407 329.881 328.5 329.881C324.592 329.881 320.685 329.881 316.777 329.881C312.87 329.881 308.963 329.881 305.055 329.881C301.148 329.881 297.24 329.881 293.333 329.881C289.426 329.881 285.518 329.881 281.611 329.881C277.703 329.881 273.796 329.881 269.888 329.881C265.981 329.881 262.074 329.881 258.166 329.881C254.259 329.881 250.351 329.881 246.444 329.881C242.537 329.881 238.629 329.881 234.722 329.881C230.814 329.881 226.907 329.881 223 329.881C219.092 329.881 215.185 329.881 211.277 329.881C207.37 329.881 203.462 329.881 199.555 329.881C195.648 329.881 191.74 329.881 187.833 329.881C183.925 329.881 180.018 329.881 176.111 329.881C172.203 329.881 168.296 329.881 164.388 329.881C160.481 329.881 156.574 329.881 152.666 329.881C148.759 329.881 144.851 329.881 140.944 329.881C137.036 329.881 133.129 329.881 129.222 329.881C125.314 329.881 121.407 329.881 117.499 329.881C113.592 329.881 109.685 329.881 105.777 329.881C101.87 329.881 97.9624 329.881 94.055 329.881C90.1476 329.881 86.2402 329.881 82.3327 329.881C78.4253 329.881 74.5179 329.881 70.6105 329.881C66.7031 329.881 62.7957 329.881 58.8883 329.881C54.9809 329.881 51.0734 329.881 47.166 329.881C43.2586 329.881 39.3512 329.881 35.4438 329.881C31.5364 329.881 23.7216 329.881 23.7216 329.881V304.889Z"/><path fill="#000" d="M24.7216 19.5467H31.7869C35.7841 19.5467 37.7443 17.5097 37.7443 14.791C37.7443 12.1489 35.8693 10.5978 34.0114 10.504V10.3336C35.7159 9.93302 37.0625 8.73984 37.0625 6.61768C37.0625 4.01825 35.1875 2.09212 31.4034 2.09212H24.7216V19.5467ZM27.8835 16.9046V11.791H31.3693C33.321 11.791 34.5312 12.9842 34.5312 14.5438C34.5312 15.933 33.5767 16.9046 31.2841 16.9046H27.8835ZM27.8835 9.51541V4.70007H31.0795C32.9375 4.70007 33.9006 5.68018 33.9006 7.02677C33.9006 8.56087 32.6562 9.51541 31.0114 9.51541H27.8835ZM46.0689 19.8023C49.9041 19.8023 52.3416 17.1006 52.3416 13.0523C52.3416 8.99552 49.9041 6.2853 46.0689 6.2853C42.2337 6.2853 39.7962 8.99552 39.7962 13.0523C39.7962 17.1006 42.2337 19.8023 46.0689 19.8023ZM46.0859 17.3308C43.9638 17.3308 42.924 15.4387 42.924 13.0438C42.924 10.6489 43.9638 8.73132 46.0859 8.73132C48.174 8.73132 49.2138 10.6489 49.2138 13.0438C49.2138 15.4387 48.174 17.3308 46.0859 17.3308ZM55.0966 19.5467H58.1307V17.4842H58.3097C58.7955 18.4387 59.8097 19.7768 62.0597 19.7768C65.1449 19.7768 67.4545 17.3308 67.4545 13.0183C67.4545 8.65462 65.0767 6.2853 62.0511 6.2853C59.7415 6.2853 58.7784 7.6745 58.3097 8.62052H58.1818V2.09212H55.0966V19.5467ZM58.1222 13.0012C58.1222 10.4614 59.2131 8.81655 61.1989 8.81655C63.2528 8.81655 64.3097 10.5637 64.3097 13.0012C64.3097 15.4558 63.2358 17.2455 61.1989 17.2455C59.2301 17.2455 58.1222 15.541 58.1222 13.0012ZM72.6939 2.09212H70.2393V3.8478C70.2393 5.237 69.6939 6.30234 69.0717 7.23984L70.5036 8.16882C71.7564 7.12905 72.6939 5.33927 72.6939 3.83075V2.09212ZM83.8459 9.91598C83.4197 7.70007 81.647 6.2853 78.5788 6.2853C75.4254 6.2853 73.2777 7.83643 73.2862 10.2569C73.2777 12.166 74.4538 13.4273 76.968 13.9472L79.201 14.416C80.4027 14.6802 80.9652 15.166 80.9652 15.9075C80.9652 16.8023 79.9936 17.4756 78.5277 17.4756C77.1129 17.4756 76.1925 16.862 75.9283 15.6859L72.9197 15.9756C73.3033 18.379 75.3232 19.8023 78.5362 19.8023C81.8089 19.8023 84.1186 18.1063 84.1271 15.6262C84.1186 13.7597 82.9169 12.6177 80.4453 12.0808L78.2124 11.6035C76.8828 11.3052 76.3544 10.845 76.3629 10.0864C76.3544 9.20007 77.3345 8.58643 78.6214 8.58643C80.0447 8.58643 80.7947 9.362 81.0334 10.2228L83.8459 9.91598ZM107.701 7.98132C107.164 4.10348 104.181 1.85348 100.312 1.85348C95.7521 1.85348 92.3175 5.17734 92.3175 10.8194C92.3175 16.4529 95.7095 19.7853 100.312 19.7853C104.462 19.7853 107.215 17.1006 107.701 13.7683L104.513 13.7512C104.113 15.7967 102.442 16.9472 100.354 16.9472C97.5249 16.9472 95.4964 14.8251 95.4964 10.8194C95.4964 6.88189 97.5078 4.69155 100.363 4.69155C102.485 4.69155 104.147 5.89325 104.513 7.98132H107.701ZM110.597 19.5467H113.759V13.6489H117.099C121.131 13.6489 123.295 11.2285 123.295 7.87052C123.295 4.53814 121.156 2.09212 117.142 2.09212H110.597V19.5467ZM113.759 11.0495V4.73416H116.656C119.026 4.73416 120.074 6.01257 120.074 7.87052C120.074 9.72848 119.026 11.0495 116.673 11.0495H113.759ZM137.045 2.09212V13.2313C137.045 15.4217 135.519 16.9898 133.124 16.9898C130.721 16.9898 129.204 15.4217 129.204 13.2313V2.09212H126.042V13.4955C126.042 17.2455 128.854 19.8109 133.124 19.8109C137.377 19.8109 140.207 17.2455 140.207 13.4955V2.09212H137.045ZM164.537 7.98132C164 4.10348 161.017 1.85348 157.148 1.85348C152.588 1.85348 149.153 5.17734 149.153 10.8194C149.153 16.4529 152.545 19.7853 157.148 19.7853C161.298 19.7853 164.051 17.1006 164.537 13.7683L161.349 13.7512C160.949 15.7967 159.278 16.9472 157.19 16.9472C154.361 16.9472 152.332 14.8251 152.332 10.8194C152.332 6.88189 154.344 4.69155 157.199 4.69155C159.321 4.69155 160.983 5.89325 161.349 7.98132H164.537ZM173.006 19.8023C176.842 19.8023 179.279 17.1006 179.279 13.0523C179.279 8.99552 176.842 6.2853 173.006 6.2853C169.171 6.2853 166.734 8.99552 166.734 13.0523C166.734 17.1006 169.171 19.8023 173.006 19.8023ZM173.023 17.3308C170.901 17.3308 169.862 15.4387 169.862 13.0438C169.862 10.6489 170.901 8.73132 173.023 8.73132C175.112 8.73132 176.151 10.6489 176.151 13.0438C176.151 15.4387 175.112 17.3308 173.023 17.3308ZM181.898 19.5467H184.983V11.8506C184.983 10.1887 186.236 9.01257 187.932 9.01257C188.452 9.01257 189.099 9.10632 189.364 9.19155V6.35348C189.082 6.30234 188.597 6.26825 188.256 6.26825C186.756 6.26825 185.503 7.12052 185.026 8.63757H184.889V6.45575H181.898V19.5467ZM196.67 19.8023C199.721 19.8023 201.817 18.3109 202.363 16.0353L199.482 15.7114C199.065 16.8194 198.042 17.3989 196.712 17.3989C194.718 17.3989 193.397 16.0864 193.371 13.845H202.491V12.8989C202.491 8.30518 199.729 6.2853 196.508 6.2853C192.758 6.2853 190.312 9.03814 190.312 13.0779C190.312 17.1859 192.724 19.8023 196.67 19.8023ZM193.38 11.7654C193.474 10.095 194.71 8.68871 196.55 8.68871C198.323 8.68871 199.516 9.98416 199.533 11.7654H193.38ZM222.193 2.09212V13.2313C222.193 15.4217 220.668 16.9898 218.273 16.9898C215.869 16.9898 214.352 15.4217 214.352 13.2313V2.09212H211.19V13.4955C211.19 17.2455 214.003 19.8109 218.273 19.8109C222.526 19.8109 225.355 17.2455 225.355 13.4955V2.09212H222.193ZM239.002 9.91598C238.576 7.70007 236.803 6.2853 233.735 6.2853C230.582 6.2853 228.434 7.83643 228.442 10.2569C228.434 12.166 229.61 13.4273 232.124 13.9472L234.357 14.416C235.559 14.6802 236.121 15.166 236.121 15.9075C236.121 16.8023 235.15 17.4756 233.684 17.4756C232.269 17.4756 231.349 16.862 231.085 15.6859L228.076 15.9756C228.46 18.379 230.479 19.8023 233.692 19.8023C236.965 19.8023 239.275 18.1063 239.283 15.6262C239.275 13.7597 238.073 12.6177 235.602 12.0808L233.369 11.6035C232.039 11.3052 231.511 10.845 231.519 10.0864C231.511 9.20007 232.491 8.58643 233.778 8.58643C235.201 8.58643 235.951 9.362 236.19 10.2228L239.002 9.91598ZM245.594 19.8109C247.648 19.8109 248.876 18.8478 249.438 17.7484H249.54V19.5467H252.506V10.7853C252.506 7.32507 249.685 6.2853 247.188 6.2853C244.435 6.2853 242.322 7.51257 241.64 9.89893L244.521 10.308C244.827 9.41314 245.697 8.64609 247.205 8.64609C248.637 8.64609 249.421 9.37905 249.421 10.666V10.7171C249.421 11.6035 248.492 11.6461 246.183 11.8933C243.643 12.166 241.214 12.9245 241.214 15.8734C241.214 18.4472 243.097 19.8109 245.594 19.8109ZM246.396 17.5438C245.109 17.5438 244.188 16.9558 244.188 15.8222C244.188 14.6376 245.219 14.1433 246.6 13.9472C247.41 13.8364 249.029 13.6319 249.43 13.308V14.8506C249.43 16.308 248.254 17.5438 246.396 17.5438ZM261.302 24.7285C264.839 24.7285 267.447 23.1092 267.447 19.7597V6.45575H264.404V8.62052H264.234C263.765 7.6745 262.785 6.2853 260.475 6.2853C257.45 6.2853 255.072 8.65462 255.072 12.9586C255.072 17.2285 257.45 19.3592 260.467 19.3592C262.708 19.3592 263.756 18.1575 264.234 17.1944H264.387V19.6745C264.387 21.6006 263.109 22.3933 261.353 22.3933C259.495 22.3933 258.677 21.5154 258.302 20.7484L255.523 21.4217C256.086 23.254 257.969 24.7285 261.302 24.7285ZM261.327 16.9387C259.29 16.9387 258.217 15.3535 258.217 12.9415C258.217 10.5637 259.273 8.81655 261.327 8.81655C263.313 8.81655 264.404 10.4614 264.404 12.9415C264.404 15.4387 263.296 16.9387 261.327 16.9387ZM276.404 19.8023C279.455 19.8023 281.552 18.3109 282.097 16.0353L279.217 15.7114C278.799 16.8194 277.776 17.3989 276.447 17.3989C274.452 17.3989 273.131 16.0864 273.106 13.845H282.225V12.8989C282.225 8.30518 279.464 6.2853 276.242 6.2853C272.492 6.2853 270.046 9.03814 270.046 13.0779C270.046 17.1859 272.458 19.8023 276.404 19.8023ZM273.114 11.7654C273.208 10.095 274.444 8.68871 276.285 8.68871C278.058 8.68871 279.251 9.98416 279.268 11.7654H273.114Z"/></g><g clip-path="url(#clip1)"><path fill="#000" d="M688.358 59.9091H686.773L683.5 62.0824V63.6932L686.696 61.571H686.773V73H688.358V59.9091ZM696.469 73.179C699.116 73.2109 700.841 71.2166 700.841 68.7812C700.841 66.25 698.969 64.4347 696.725 64.4347C695.376 64.4347 694.219 65.093 693.503 66.1733H693.401C693.407 62.9837 694.648 61.1364 696.674 61.1364C698.055 61.1364 698.885 62.0057 699.18 63.1818H700.739C700.42 61.1491 698.873 59.7301 696.674 59.7301C693.727 59.7301 691.918 62.3381 691.918 66.9659C691.918 71.8047 694.322 73.1534 696.469 73.179ZM696.469 71.7727C694.827 71.7727 693.625 70.3729 693.631 68.8068C693.638 67.2408 694.897 65.8409 696.52 65.8409C698.125 65.8409 699.307 67.1577 699.307 68.7812C699.307 70.4432 698.074 71.7727 696.469 71.7727Z"/><path fill="#000" d="M688.692 125.576H687.107L683.834 127.749V129.36L687.03 127.238H687.107V138.667H688.692V125.576ZM692.457 138.667H700.715V137.26H694.63V137.158L697.57 134.013C699.82 131.603 700.485 130.478 700.485 129.027C700.485 127.008 698.849 125.397 696.548 125.397C694.253 125.397 692.508 126.956 692.508 129.258H694.016C694.016 127.768 694.982 126.777 696.496 126.777C697.915 126.777 699.002 127.647 699.002 129.027C699.002 130.236 698.293 131.13 696.778 132.786L692.457 137.516V138.667Z"/><path fill="#000" d="M696.456 205.846C699.071 205.846 700.893 204.318 700.905 202.189C700.893 200.534 699.787 199.128 698.374 198.866V198.789C699.601 198.469 700.407 197.268 700.42 195.874C700.407 193.88 698.732 192.397 696.456 192.397C694.155 192.397 692.481 193.88 692.493 195.874C692.481 197.268 693.286 198.469 694.539 198.789V198.866C693.101 199.128 691.995 200.534 692.008 202.189C691.995 204.318 693.817 205.846 696.456 205.846ZM696.456 204.439C694.66 204.439 693.555 203.519 693.567 202.113C693.555 200.636 694.775 199.581 696.456 199.581C698.112 199.581 699.333 200.636 699.346 202.113C699.333 203.519 698.227 204.439 696.456 204.439ZM696.456 198.226C695.025 198.226 694.015 197.331 694.028 195.976C694.015 194.647 694.986 193.777 696.456 193.777C697.901 193.777 698.873 194.647 698.885 195.976C698.873 197.331 697.863 198.226 696.456 198.226Z"/><path fill="#000" d="M691.499 268.649H697.661V271.333H699.17V268.649H700.96V267.242H699.17V258.242H697.252L691.499 267.345V268.649ZM697.661 267.242H693.213V267.14L697.559 260.262H697.661V267.242Z"/><path fill="#000" d="M696.375 335.846C699.264 335.846 700.926 333.397 700.926 329.121C700.926 324.877 699.239 322.397 696.375 322.397C693.511 322.397 691.824 324.877 691.824 329.121C691.824 333.397 693.486 335.846 696.375 335.846ZM696.375 334.439C694.47 334.439 693.358 332.528 693.358 329.121C693.358 325.721 694.483 323.777 696.375 323.777C698.267 323.777 699.392 325.721 699.392 329.121C699.392 332.528 698.28 334.439 696.375 334.439Z"/><line x1="708.722" x2="1330" y1="68.345" y2="68.345" stroke="#000" stroke-opacity=".08"/><line x1="708.722" x2="1330" y1="132.886" y2="132.886" stroke="#000" stroke-opacity=".08"/><line x1="708.722" x2="1330" y1="198.863" y2="198.863" stroke="#000" stroke-opacity=".08"/><line x1="708.722" x2="1330" y1="264.839" y2="264.839" stroke="#000" stroke-opacity=".08"/><line x1="708.722" x2="1330" y1="330.815" y2="330.815" stroke="#000" stroke-opacity=".08"/><path fill="#000" d="M792.1 346.909H790.515L787.242 349.082V350.693L790.438 348.571H790.515V360H792.1V346.909ZM800.135 360.179C803.024 360.179 804.686 357.731 804.686 353.455C804.686 349.21 802.998 346.73 800.135 346.73C797.271 346.73 795.584 349.21 795.584 353.455C795.584 357.731 797.246 360.179 800.135 360.179ZM800.135 358.773C798.23 358.773 797.118 356.862 797.118 353.455C797.118 350.054 798.243 348.111 800.135 348.111C802.027 348.111 803.152 350.054 803.152 353.455C803.152 356.862 802.04 358.773 800.135 358.773ZM812.944 360L814.261 356.293H819.554L820.871 360H822.532L817.726 346.909H816.089L811.282 360H812.944ZM814.76 354.886L816.856 348.98H816.959L819.055 354.886H814.76ZM824.572 346.909V360H826.055V350.054H826.182L830.273 360H831.705L835.796 350.054H835.924V360H837.407V346.909H835.515L831.066 357.776H830.912L826.464 346.909H824.572Z"/><path fill="#000" d="M924.19 346.909H922.605L919.332 349.082V350.693L922.528 348.571H922.605V360H924.19V346.909ZM927.955 360H936.213V358.594H930.128V358.491L933.068 355.347C935.318 352.937 935.983 351.812 935.983 350.361C935.983 348.341 934.347 346.73 932.046 346.73C929.751 346.73 928.006 348.29 928.006 350.591H929.514C929.514 349.102 930.48 348.111 931.994 348.111C933.414 348.111 934.5 348.98 934.5 350.361C934.5 351.569 933.791 352.464 932.276 354.119L927.955 358.849V360ZM944.146 360H945.731V355.219H948.595C951.644 355.219 953.018 353.365 953.018 351.051C953.018 348.737 951.644 346.909 948.569 346.909H944.146V360ZM945.731 353.812V348.315H948.518C950.646 348.315 951.458 349.479 951.458 351.051C951.458 352.624 950.646 353.812 948.544 353.812H945.731ZM955.572 346.909V360H957.055V350.054H957.182L961.273 360H962.705L966.796 350.054H966.924V360H968.407V346.909H966.515L962.066 357.776H961.912L957.464 346.909H955.572Z"/><path fill="#000" d="M1051.95 360H1060.21V358.594H1054.13V358.491L1057.07 355.347C1059.32 352.937 1059.98 351.812 1059.98 350.361C1059.98 348.341 1058.35 346.73 1056.05 346.73C1053.75 346.73 1052.01 348.29 1052.01 350.591H1053.51C1053.51 349.102 1054.48 348.111 1055.99 348.111C1057.41 348.111 1058.5 348.98 1058.5 350.361C1058.5 351.569 1057.79 352.464 1056.28 354.119L1051.95 358.849V360ZM1068.15 360H1069.73V355.219H1072.59C1075.64 355.219 1077.02 353.365 1077.02 351.051C1077.02 348.737 1075.64 346.909 1072.57 346.909H1068.15V360ZM1069.73 353.812V348.315H1072.52C1074.65 348.315 1075.46 349.479 1075.46 351.051C1075.46 352.624 1074.65 353.812 1072.54 353.812H1069.73ZM1079.57 346.909V360H1081.05V350.054H1081.18L1085.27 360H1086.71L1090.8 350.054H1090.92V360H1092.41V346.909H1090.51L1086.07 357.776H1085.91L1081.46 346.909H1079.57Z"/><path fill="#000" d="M1176 357.315H1182.16V360H1183.67V357.315H1185.46V355.909H1183.67V346.909H1181.75L1176 356.011V357.315ZM1182.16 355.909H1177.71V355.807L1182.06 348.929H1182.16V355.909ZM1193.15 360H1194.73V355.219H1197.59C1200.64 355.219 1202.02 353.365 1202.02 351.051C1202.02 348.737 1200.64 346.909 1197.57 346.909H1193.15V360ZM1194.73 353.812V348.315H1197.52C1199.65 348.315 1200.46 349.479 1200.46 351.051C1200.46 352.624 1199.65 353.812 1197.54 353.812H1194.73ZM1204.57 346.909V360H1206.05V350.054H1206.18L1210.27 360H1211.71L1215.8 350.054H1215.92V360H1217.41V346.909H1215.51L1211.07 357.776H1210.91L1206.46 346.909H1204.57Z"/><path fill="#000" d="M716.608 2.09212V14.3648C716.599 16.2058 715.747 17.1859 714.23 17.1859C712.815 17.1859 711.869 16.3251 711.844 14.9103H708.699C708.699 18.1319 711.051 19.7853 714.111 19.7853C717.477 19.7853 719.736 17.7398 719.744 14.3648V2.09212H716.608ZM723.038 19.5467H726.124V6.45575H723.038V19.5467ZM724.589 4.5978C725.57 4.5978 726.371 3.8478 726.371 2.92734C726.371 1.99837 725.57 1.24837 724.589 1.24837C723.601 1.24837 722.8 1.99837 722.8 2.92734C722.8 3.8478 723.601 4.5978 724.589 4.5978ZM729.296 19.5467H732.381V11.5864C732.381 9.97564 733.455 8.88473 734.785 8.88473C736.089 8.88473 736.984 9.76257 736.984 11.1092V19.5467H740.009V11.3819C740.009 9.90746 740.887 8.88473 742.379 8.88473C743.623 8.88473 744.612 9.61768 744.612 11.237V19.5467H747.705V10.7597C747.705 7.83643 746.018 6.2853 743.614 6.2853C741.714 6.2853 740.265 7.2228 739.685 8.68018H739.549C739.046 7.19723 737.776 6.2853 736.012 6.2853C734.256 6.2853 732.944 7.18871 732.398 8.68018H732.245V6.45575H729.296V19.5467ZM753.452 2.09212H750.997V3.8478C750.997 5.237 750.452 6.30234 749.83 7.23984L751.261 8.16882C752.514 7.12905 753.452 5.33927 753.452 3.83075V2.09212ZM764.604 9.91598C764.178 7.70007 762.405 6.2853 759.337 6.2853C756.183 6.2853 754.036 7.83643 754.044 10.2569C754.036 12.166 755.212 13.4273 757.726 13.9472L759.959 14.416C761.161 14.6802 761.723 15.166 761.723 15.9075C761.723 16.8023 760.751 17.4756 759.286 17.4756C757.871 17.4756 756.95 16.862 756.686 15.6859L753.678 15.9756C754.061 18.379 756.081 19.8023 759.294 19.8023C762.567 19.8023 764.876 18.1063 764.885 15.6262C764.876 13.7597 763.675 12.6177 761.203 12.0808L758.97 11.6035C757.641 11.3052 757.112 10.845 757.121 10.0864C757.112 9.20007 758.092 8.58643 759.379 8.58643C760.803 8.58643 761.553 9.362 761.791 10.2228L764.604 9.91598ZM788.459 7.98132C787.922 4.10348 784.939 1.85348 781.07 1.85348C776.51 1.85348 773.075 5.17734 773.075 10.8194C773.075 16.4529 776.467 19.7853 781.07 19.7853C785.22 19.7853 787.973 17.1006 788.459 13.7683L785.271 13.7512C784.871 15.7967 783.2 16.9472 781.112 16.9472C778.283 16.9472 776.254 14.8251 776.254 10.8194C776.254 6.88189 778.266 4.69155 781.121 4.69155C783.243 4.69155 784.905 5.89325 785.271 7.98132H788.459ZM791.354 19.5467H794.516V13.6489H797.857C801.888 13.6489 804.053 11.2285 804.053 7.87052C804.053 4.53814 801.914 2.09212 797.9 2.09212H791.354V19.5467ZM794.516 11.0495V4.73416H797.414C799.783 4.73416 800.832 6.01257 800.832 7.87052C800.832 9.72848 799.783 11.0495 797.431 11.0495H794.516ZM817.803 2.09212V13.2313C817.803 15.4217 816.277 16.9898 813.882 16.9898C811.479 16.9898 809.962 15.4217 809.962 13.2313V2.09212H806.8V13.4955C806.8 17.2455 809.612 19.8109 813.882 19.8109C818.135 19.8109 820.964 17.2455 820.964 13.4955V2.09212H817.803ZM845.295 7.98132C844.758 4.10348 841.775 1.85348 837.906 1.85348C833.346 1.85348 829.911 5.17734 829.911 10.8194C829.911 16.4529 833.303 19.7853 837.906 19.7853C842.056 19.7853 844.809 17.1006 845.295 13.7683L842.107 13.7512C841.707 15.7967 840.036 16.9472 837.948 16.9472C835.119 16.9472 833.09 14.8251 833.09 10.8194C833.09 6.88189 835.102 4.69155 837.957 4.69155C840.079 4.69155 841.741 5.89325 842.107 7.98132H845.295ZM853.764 19.8023C857.599 19.8023 860.037 17.1006 860.037 13.0523C860.037 8.99552 857.599 6.2853 853.764 6.2853C849.929 6.2853 847.491 8.99552 847.491 13.0523C847.491 17.1006 849.929 19.8023 853.764 19.8023ZM853.781 17.3308C851.659 17.3308 850.619 15.4387 850.619 13.0438C850.619 10.6489 851.659 8.73132 853.781 8.73132C855.869 8.73132 856.909 10.6489 856.909 13.0438C856.909 15.4387 855.869 17.3308 853.781 17.3308ZM862.656 19.5467H865.741V11.8506C865.741 10.1887 866.994 9.01257 868.69 9.01257C869.21 9.01257 869.857 9.10632 870.121 9.19155V6.35348C869.84 6.30234 869.354 6.26825 869.013 6.26825C867.513 6.26825 866.261 7.12052 865.783 8.63757H865.647V6.45575H862.656V19.5467ZM877.428 19.8023C880.479 19.8023 882.575 18.3109 883.121 16.0353L880.24 15.7114C879.822 16.8194 878.8 17.3989 877.47 17.3989C875.476 17.3989 874.155 16.0864 874.129 13.845H883.249V12.8989C883.249 8.30518 880.487 6.2853 877.266 6.2853C873.516 6.2853 871.07 9.03814 871.07 13.0779C871.07 17.1859 873.482 19.8023 877.428 19.8023ZM874.138 11.7654C874.232 10.095 875.467 8.68871 877.308 8.68871C879.081 8.68871 880.274 9.98416 880.291 11.7654H874.138ZM902.951 2.09212V13.2313C902.951 15.4217 901.425 16.9898 899.031 16.9898C896.627 16.9898 895.11 15.4217 895.11 13.2313V2.09212H891.948V13.4955C891.948 17.2455 894.761 19.8109 899.031 19.8109C903.283 19.8109 906.113 17.2455 906.113 13.4955V2.09212H902.951ZM919.76 9.91598C919.334 7.70007 917.561 6.2853 914.493 6.2853C911.339 6.2853 909.192 7.83643 909.2 10.2569C909.192 12.166 910.368 13.4273 912.882 13.9472L915.115 14.416C916.317 14.6802 916.879 15.166 916.879 15.9075C916.879 16.8023 915.908 17.4756 914.442 17.4756C913.027 17.4756 912.107 16.862 911.842 15.6859L908.834 15.9756C909.217 18.379 911.237 19.8023 914.45 19.8023C917.723 19.8023 920.033 18.1063 920.041 15.6262C920.033 13.7597 918.831 12.6177 916.359 12.0808L914.126 11.6035C912.797 11.3052 912.268 10.845 912.277 10.0864C912.268 9.20007 913.249 8.58643 914.536 8.58643C915.959 8.58643 916.709 9.362 916.947 10.2228L919.76 9.91598ZM926.352 19.8109C928.406 19.8109 929.634 18.8478 930.196 17.7484H930.298V19.5467H933.264V10.7853C933.264 7.32507 930.443 6.2853 927.946 6.2853C925.193 6.2853 923.08 7.51257 922.398 9.89893L925.278 10.308C925.585 9.41314 926.455 8.64609 927.963 8.64609C929.395 8.64609 930.179 9.37905 930.179 10.666V10.7171C930.179 11.6035 929.25 11.6461 926.94 11.8933C924.401 12.166 921.972 12.9245 921.972 15.8734C921.972 18.4472 923.855 19.8109 926.352 19.8109ZM927.153 17.5438C925.866 17.5438 924.946 16.9558 924.946 15.8222C924.946 14.6376 925.977 14.1433 927.358 13.9472C928.168 13.8364 929.787 13.6319 930.188 13.308V14.8506C930.188 16.308 929.011 17.5438 927.153 17.5438ZM942.06 24.7285C945.597 24.7285 948.205 23.1092 948.205 19.7597V6.45575H945.162V8.62052H944.991C944.523 7.6745 943.543 6.2853 941.233 6.2853C938.207 6.2853 935.83 8.65462 935.83 12.9586C935.83 17.2285 938.207 19.3592 941.224 19.3592C943.466 19.3592 944.514 18.1575 944.991 17.1944H945.145V19.6745C945.145 21.6006 943.866 22.3933 942.111 22.3933C940.253 22.3933 939.435 21.5154 939.06 20.7484L936.281 21.4217C936.844 23.254 938.727 24.7285 942.06 24.7285ZM942.085 16.9387C940.048 16.9387 938.974 15.3535 938.974 12.9415C938.974 10.5637 940.031 8.81655 942.085 8.81655C944.071 8.81655 945.162 10.4614 945.162 12.9415C945.162 15.4387 944.054 16.9387 942.085 16.9387ZM957.162 19.8023C960.213 19.8023 962.31 18.3109 962.855 16.0353L959.974 15.7114C959.557 16.8194 958.534 17.3989 957.205 17.3989C955.21 17.3989 953.889 16.0864 953.864 13.845H962.983V12.8989C962.983 8.30518 960.222 6.2853 957 6.2853C953.25 6.2853 950.804 9.03814 950.804 13.0779C950.804 17.1859 953.216 19.8023 957.162 19.8023ZM953.872 11.7654C953.966 10.095 955.202 8.68871 957.043 8.68871C958.815 8.68871 960.009 9.98416 960.026 11.7654H953.872Z"/></g><path fill="url(#paint1_linear)" d="M708.722 310.897C708.722 310.897 716.536 329.299 720.444 328.678C724.351 328.056 728.259 311.314 732.166 307.169C736.073 303.025 739.981 300.36 743.888 303.81C747.796 307.261 751.703 329.095 755.61 327.871C759.518 326.648 763.425 299.309 767.333 296.467C771.24 293.626 775.148 310.683 779.055 310.822C782.962 310.96 786.87 316.678 790.777 297.298C794.685 277.918 798.592 192.14 802.499 194.543C806.407 196.946 810.314 292.241 814.222 311.715C818.129 331.189 822.036 313.908 825.944 311.384C829.851 308.861 833.759 294.04 837.666 296.575C841.574 299.109 845.481 326.11 849.388 326.592C853.296 327.074 857.203 300.399 861.111 299.467C865.018 298.536 868.925 319.717 872.833 321.002C876.74 322.287 880.648 306.566 884.555 307.178C888.462 307.79 892.37 323.145 896.277 324.673C900.185 326.201 904.092 315.899 908 316.347C911.907 316.794 915.814 330.254 919.722 327.358C923.629 324.463 927.537 302.908 931.444 298.975C935.351 295.042 939.259 304.189 943.166 303.761C947.074 303.333 950.981 292.936 954.888 296.408C958.796 299.88 962.703 321.058 966.611 324.592C970.518 328.126 974.426 321.326 978.333 317.613C982.24 313.9 986.148 301.691 990.055 302.314C993.963 302.938 997.87 322.383 1001.78 321.356C1005.68 320.328 1009.59 298.442 1013.5 296.149C1017.41 293.857 1021.31 307.62 1025.22 307.603C1029.13 307.586 1033.04 303.611 1036.94 296.046C1040.85 288.481 1044.76 284.768 1048.67 262.212C1052.57 239.656 1056.48 157.889 1060.39 160.709C1064.3 163.528 1068.2 256.089 1072.11 279.129C1076.02 302.169 1079.93 295.85 1083.83 298.949C1087.74 302.048 1091.65 298.058 1095.56 297.721C1099.46 297.384 1103.37 294.387 1107.28 296.927C1111.18 299.467 1115.09 309.241 1119 312.963C1122.91 316.685 1126.81 324.898 1130.72 319.259C1134.63 313.62 1138.54 278.947 1142.44 279.129C1146.35 279.31 1150.26 316.583 1154.17 320.349C1158.07 324.114 1161.98 301.631 1165.89 301.719C1169.8 301.807 1173.7 319.127 1177.61 320.877C1181.52 322.626 1185.43 311.136 1189.33 312.216C1193.24 313.296 1197.15 327.858 1201.06 327.358C1204.96 326.858 1208.87 313.252 1212.78 309.216C1216.69 305.18 1220.59 303.618 1224.5 303.141C1228.41 302.664 1232.31 304.557 1236.22 306.356C1240.13 308.156 1244.04 310.475 1247.94 313.939C1251.85 317.404 1255.76 327.032 1259.67 327.142C1263.57 327.253 1267.48 317.615 1271.39 314.603C1275.3 311.59 1279.2 311.693 1283.11 309.068C1287.02 306.443 1290.93 300.249 1294.83 298.854C1298.74 297.459 1302.65 298.346 1306.56 300.698C1310.46 303.05 1314.37 310.073 1318.28 312.963C1322.19 315.853 1330 318.038 1330 318.038V329.88C1330 329.88 1322.19 329.88 1318.28 329.88C1314.37 329.88 1310.46 329.88 1306.56 329.88C1302.65 329.88 1298.74 329.88 1294.83 329.88C1290.93 329.88 1287.02 329.88 1283.11 329.88C1279.2 329.88 1275.3 329.88 1271.39 329.88C1267.48 329.88 1263.57 329.88 1259.67 329.88C1255.76 329.88 1251.85 329.88 1247.94 329.88C1244.04 329.88 1240.13 329.88 1236.22 329.88C1232.31 329.88 1228.41 329.88 1224.5 329.88C1220.59 329.88 1216.69 329.88 1212.78 329.88C1208.87 329.88 1204.96 329.88 1201.06 329.88C1197.15 329.88 1193.24 329.88 1189.33 329.88C1185.43 329.88 1181.52 329.88 1177.61 329.88C1173.7 329.88 1169.8 329.88 1165.89 329.88C1161.98 329.88 1158.07 329.88 1154.17 329.88C1150.26 329.88 1146.35 329.88 1142.44 329.88C1138.54 329.88 1134.63 329.88 1130.72 329.88C1126.81 329.88 1122.91 329.88 1119 329.88C1115.09 329.88 1111.18 329.88 1107.28 329.88C1103.37 329.88 1099.46 329.88 1095.56 329.88C1091.65 329.88 1087.74 329.88 1083.83 329.88C1079.93 329.88 1076.02 329.88 1072.11 329.88C1068.2 329.88 1064.3 329.88 1060.39 329.88C1056.48 329.88 1052.57 329.88 1048.67 329.88C1044.76 329.88 1040.85 329.88 1036.94 329.88C1033.04 329.88 1029.13 329.88 1025.22 329.88C1021.31 329.88 1017.41 329.88 1013.5 329.88C1009.59 329.88 1005.68 329.88 1001.78 329.88C997.87 329.88 993.963 329.88 990.055 329.88C986.148 329.88 982.24 329.88 978.333 329.88C974.426 329.88 970.518 329.88 966.611 329.88C962.703 329.88 958.796 329.88 954.888 329.88C950.981 329.88 947.074 329.88 943.166 329.88C939.259 329.88 935.351 329.88 931.444 329.88C927.537 329.88 923.629 329.88 919.722 329.88C915.814 329.88 911.907 329.88 908 329.88C904.092 329.88 900.185 329.88 896.277 329.88C892.37 329.88 888.462 329.88 884.555 329.88C880.648 329.88 876.74 329.88 872.833 329.88C868.925 329.88 865.018 329.88 861.111 329.88C857.203 329.88 853.296 329.88 849.388 329.88C845.481 329.88 841.574 329.88 837.666 329.88C833.759 329.88 829.851 329.88 825.944 329.88C822.036 329.88 818.129 329.88 814.222 329.88C810.314 329.88 806.407 329.88 802.499 329.88C798.592 329.88 794.685 329.88 790.777 329.88C786.87 329.88 782.962 329.88 779.055 329.88C775.148 329.88 771.24 329.88 767.333 329.88C763.425 329.88 759.518 329.88 755.61 329.88C751.703 329.88 747.796 329.88 743.888 329.88C739.981 329.88 736.073 329.88 732.166 329.88C728.259 329.88 724.351 329.88 720.444 329.88C716.536 329.88 708.722 329.88 708.722 329.88V310.897Z"/><g clip-path="url(#clip2)"><path fill="#000" d="M3.35778 459.909H1.77255L-1.50018 462.082V463.693L1.69585 461.571H1.77255V473H3.35778V459.909ZM11.4693 473.179C14.1156 473.211 15.8414 471.217 15.8414 468.781C15.8414 466.25 13.9686 464.435 11.725 464.435C10.3762 464.435 9.21928 465.093 8.50337 466.173H8.4011C8.40749 462.984 9.64755 461.136 11.6738 461.136C13.0545 461.136 13.8855 462.006 14.1795 463.182H15.7392C15.4196 461.149 13.8727 459.73 11.6738 459.73C8.7271 459.73 6.91815 462.338 6.91815 466.966C6.91815 471.805 9.32156 473.153 11.4693 473.179ZM11.4693 471.773C9.82653 471.773 8.62482 470.373 8.63121 468.807C8.63761 467.241 9.89684 465.841 11.5204 465.841C13.1248 465.841 14.3074 467.158 14.3074 468.781C14.3074 470.443 13.0737 471.773 11.4693 471.773Z"/><path fill="#000" d="M3.69176 525.576H2.10653L-1.16619 527.749V529.36L2.02983 527.238H2.10653V538.667H3.69176V525.576ZM7.45668 538.667H15.7152V537.26H9.62997V537.158L12.5703 534.013C14.8203 531.603 15.4851 530.478 15.4851 529.027C15.4851 527.008 13.8487 525.397 11.5476 525.397C9.25284 525.397 7.50781 526.956 7.50781 529.258H9.01634C9.01634 527.768 9.98153 526.777 11.4964 526.777C12.9155 526.777 14.0021 527.647 14.0021 529.027C14.0021 530.236 13.2926 531.13 11.7777 532.786L7.45668 537.516V538.667Z"/><path fill="#000" d="M11.4565 605.846C14.0708 605.846 15.8926 604.318 15.9054 602.189C15.8926 600.534 14.7868 599.128 13.3741 598.866V598.789C14.6014 598.469 15.4068 597.268 15.4196 595.874C15.4068 593.88 13.7321 592.397 11.4565 592.397C9.15536 592.397 7.48065 593.88 7.49343 595.874C7.48065 597.268 8.28604 598.469 9.53888 598.789V598.866C8.10067 599.128 6.99485 600.534 7.00763 602.189C6.99485 604.318 8.81658 605.846 11.4565 605.846ZM11.4565 604.439C9.66033 604.439 8.55451 603.519 8.56729 602.113C8.55451 600.636 9.77539 599.581 11.4565 599.581C13.112 599.581 14.3329 600.636 14.3457 602.113C14.3329 603.519 13.2271 604.439 11.4565 604.439ZM11.4565 598.226C10.0247 598.226 9.01474 597.331 9.02752 595.976C9.01474 594.647 9.98633 593.777 11.4565 593.777C12.9011 593.777 13.8727 594.647 13.8855 595.976C13.8727 597.331 12.8627 598.226 11.4565 598.226Z"/><path fill="#000" d="M6.49947 668.649H12.6614V671.333H14.1699V668.649H15.9597V667.242H14.1699V658.242H12.2523L6.49947 667.345V668.649ZM12.6614 667.242H8.21254V667.14L12.5591 660.262H12.6614V667.242Z"/><path fill="#000" d="M11.375 735.846C14.2642 735.846 15.9261 733.397 15.9261 729.121C15.9261 724.877 14.2386 722.397 11.375 722.397C8.51136 722.397 6.82386 724.877 6.82386 729.121C6.82386 733.397 8.4858 735.846 11.375 735.846ZM11.375 734.439C9.47017 734.439 8.35795 732.528 8.35795 729.121C8.35795 725.721 9.48295 723.777 11.375 723.777C13.267 723.777 14.392 725.721 14.392 729.121C14.392 732.528 13.2798 734.439 11.375 734.439Z"/><line x1="23.722" x2="645" y1="468.345" y2="468.345" stroke="#000" stroke-opacity=".08"/><line x1="23.722" x2="645" y1="532.886" y2="532.886" stroke="#000" stroke-opacity=".08"/><line x1="23.722" x2="645" y1="598.863" y2="598.863" stroke="#000" stroke-opacity=".08"/><line x1="23.722" x2="645" y1="664.839" y2="664.839" stroke="#000" stroke-opacity=".08"/><line x1="23.722" x2="645" y1="730.815" y2="730.815" stroke="#000" stroke-opacity=".08"/><path fill="#000" d="M107.1 746.909H105.515L102.242 749.082V750.693L105.438 748.571H105.515V760H107.1V746.909ZM115.135 760.179C118.024 760.179 119.686 757.731 119.686 753.455C119.686 749.21 117.998 746.73 115.135 746.73C112.271 746.73 110.584 749.21 110.584 753.455C110.584 757.731 112.246 760.179 115.135 760.179ZM115.135 758.773C113.23 758.773 112.118 756.862 112.118 753.455C112.118 750.054 113.243 748.111 115.135 748.111C117.027 748.111 118.152 750.054 118.152 753.455C118.152 756.862 117.04 758.773 115.135 758.773ZM127.944 760L129.261 756.293H134.554L135.871 760H137.532L132.726 746.909H131.089L126.282 760H127.944ZM129.76 754.886L131.856 748.98H131.959L134.055 754.886H129.76ZM139.572 746.909V760H141.055V750.054H141.182L145.273 760H146.705L150.796 750.054H150.924V760H152.407V746.909H150.515L146.066 757.776H145.912L141.464 746.909H139.572Z"/><path fill="#000" d="M239.19 746.909H237.605L234.332 749.082V750.693L237.528 748.571H237.605V760H239.19V746.909ZM242.955 760H251.213V758.594H245.128V758.491L248.068 755.347C250.318 752.937 250.983 751.812 250.983 750.361C250.983 748.341 249.347 746.73 247.046 746.73C244.751 746.73 243.006 748.29 243.006 750.591H244.514C244.514 749.102 245.48 748.111 246.994 748.111C248.414 748.111 249.5 748.98 249.5 750.361C249.5 751.569 248.791 752.464 247.276 754.119L242.955 758.849V760ZM259.146 760H260.731V755.219H263.595C266.644 755.219 268.018 753.365 268.018 751.051C268.018 748.737 266.644 746.909 263.569 746.909H259.146V760ZM260.731 753.812V748.315H263.518C265.646 748.315 266.458 749.479 266.458 751.051C266.458 752.624 265.646 753.812 263.544 753.812H260.731ZM270.572 746.909V760H272.055V750.054H272.182L276.273 760H277.705L281.796 750.054H281.924V760H283.407V746.909H281.515L277.066 757.776H276.912L272.464 746.909H270.572Z"/><path fill="#000" d="M366.955 760H375.213V758.594H369.128V758.491L372.068 755.347C374.318 752.937 374.983 751.812 374.983 750.361C374.983 748.341 373.347 746.73 371.046 746.73C368.751 746.73 367.006 748.29 367.006 750.591H368.514C368.514 749.102 369.48 748.111 370.994 748.111C372.414 748.111 373.5 748.98 373.5 750.361C373.5 751.569 372.791 752.464 371.276 754.119L366.955 758.849V760ZM383.146 760H384.731V755.219H387.595C390.644 755.219 392.018 753.365 392.018 751.051C392.018 748.737 390.644 746.909 387.569 746.909H383.146V760ZM384.731 753.812V748.315H387.518C389.646 748.315 390.458 749.479 390.458 751.051C390.458 752.624 389.646 753.812 387.544 753.812H384.731ZM394.572 746.909V760H396.055V750.054H396.182L400.273 760H401.705L405.796 750.054H405.924V760H407.407V746.909H405.515L401.066 757.776H400.912L396.464 746.909H394.572Z"/><path fill="#000" d="M490.998 757.315H497.159V760H498.668V757.315H500.458V755.909H498.668V746.909H496.75L490.998 756.011V757.315ZM497.159 755.909H492.711V755.807L497.057 748.929H497.159V755.909ZM508.146 760H509.731V755.219H512.595C515.644 755.219 517.018 753.365 517.018 751.051C517.018 748.737 515.644 746.909 512.569 746.909H508.146V760ZM509.731 753.812V748.315H512.518C514.646 748.315 515.458 749.479 515.458 751.051C515.458 752.624 514.646 753.812 512.544 753.812H509.731ZM519.572 746.909V760H521.055V750.054H521.182L525.273 760H526.705L530.796 750.054H530.924V760H532.407V746.909H530.515L526.066 757.776H525.912L521.464 746.909H519.572Z"/><path fill="#000" d="M24.7216 402.092V419.547H27.7557V407.53H27.9176L32.7415 419.496H35.0085L39.8324 407.555H39.9943V419.547H43.0284V402.092H39.1591L33.9773 414.74H33.7727L28.5909 402.092H24.7216ZM50.1023 419.811C52.1562 419.811 53.3835 418.848 53.946 417.748H54.0483V419.547H57.0142V410.785C57.0142 407.325 54.1932 406.285 51.696 406.285C48.9432 406.285 46.8295 407.513 46.1477 409.899L49.0284 410.308C49.3352 409.413 50.2045 408.646 51.7131 408.646C53.1449 408.646 53.929 409.379 53.929 410.666V410.717C53.929 411.603 53 411.646 50.6903 411.893C48.1506 412.166 45.7216 412.925 45.7216 415.873C45.7216 418.447 47.6051 419.811 50.1023 419.811ZM50.9034 417.544C49.6165 417.544 48.696 416.956 48.696 415.822C48.696 414.638 49.7273 414.143 51.108 413.947C51.9176 413.836 53.5369 413.632 53.9375 413.308V414.851C53.9375 416.308 52.7614 417.544 50.9034 417.544ZM60.1165 419.547H63.2017V411.851C63.2017 410.189 64.4545 409.013 66.1506 409.013C66.6705 409.013 67.3182 409.106 67.5824 409.192V406.353C67.3011 406.302 66.8153 406.268 66.4744 406.268C64.9744 406.268 63.7216 407.121 63.2443 408.638H63.108V406.456H60.1165V419.547ZM71.9482 424.456C74.3516 424.456 75.7408 423.22 76.4822 421.132L81.7408 406.473L78.4425 406.456L75.4169 416.342H75.2805L72.2635 406.456H68.9908L73.7379 419.819L73.4737 420.527C72.9027 422.018 71.9993 422.121 70.6527 421.728L69.9368 424.132C70.3544 424.302 71.1044 424.456 71.9482 424.456ZM87.272 402.092H84.8175V403.848C84.8175 405.237 84.272 406.302 83.6499 407.24L85.0817 408.169C86.3345 407.129 87.272 405.339 87.272 403.831V402.092ZM98.424 409.916C97.9979 407.7 96.2251 406.285 93.157 406.285C90.0036 406.285 87.8558 407.836 87.8643 410.257C87.8558 412.166 89.032 413.427 91.5462 413.947L93.7791 414.416C94.9808 414.68 95.5433 415.166 95.5433 415.907C95.5433 416.802 94.5717 417.476 93.1058 417.476C91.6911 417.476 90.7706 416.862 90.5064 415.686L87.4979 415.976C87.8814 418.379 89.9013 419.802 93.1143 419.802C96.3871 419.802 98.6967 418.106 98.7053 415.626C98.6967 413.76 97.495 412.618 95.0234 412.081L92.7905 411.603C91.4609 411.305 90.9325 410.845 90.9411 410.086C90.9325 409.2 91.9126 408.586 93.1996 408.586C94.6229 408.586 95.3729 409.362 95.6115 410.223L98.424 409.916ZM122.279 407.981C121.742 404.103 118.759 401.853 114.89 401.853C110.33 401.853 106.896 405.177 106.896 410.819C106.896 416.453 110.288 419.785 114.89 419.785C119.04 419.785 121.793 417.101 122.279 413.768L119.092 413.751C118.691 415.797 117.021 416.947 114.933 416.947C112.103 416.947 110.075 414.825 110.075 410.819C110.075 406.882 112.086 404.692 114.941 404.692C117.063 404.692 118.725 405.893 119.092 407.981H122.279ZM125.175 419.547H128.337V413.649H131.678C135.709 413.649 137.874 411.228 137.874 407.871C137.874 404.538 135.734 402.092 131.72 402.092H125.175V419.547ZM128.337 411.05V404.734H131.234C133.604 404.734 134.652 406.013 134.652 407.871C134.652 409.728 133.604 411.05 131.251 411.05H128.337ZM151.623 402.092V413.231C151.623 415.422 150.097 416.99 147.702 416.99C145.299 416.99 143.782 415.422 143.782 413.231V402.092H140.62V413.496C140.62 417.246 143.433 419.811 147.702 419.811C151.955 419.811 154.785 417.246 154.785 413.496V402.092H151.623ZM179.115 407.981C178.578 404.103 175.595 401.853 171.726 401.853C167.166 401.853 163.732 405.177 163.732 410.819C163.732 416.453 167.124 419.785 171.726 419.785C175.876 419.785 178.629 417.101 179.115 413.768L175.928 413.751C175.527 415.797 173.857 416.947 171.768 416.947C168.939 416.947 166.911 414.825 166.911 410.819C166.911 406.882 168.922 404.692 171.777 404.692C173.899 404.692 175.561 405.893 175.928 407.981H179.115ZM187.585 419.802C191.42 419.802 193.857 417.101 193.857 413.052C193.857 408.996 191.42 406.285 187.585 406.285C183.749 406.285 181.312 408.996 181.312 413.052C181.312 417.101 183.749 419.802 187.585 419.802ZM187.602 417.331C185.479 417.331 184.44 415.439 184.44 413.044C184.44 410.649 185.479 408.731 187.602 408.731C189.69 408.731 190.729 410.649 190.729 413.044C190.729 415.439 189.69 417.331 187.602 417.331ZM196.476 419.547H199.561V411.851C199.561 410.189 200.814 409.013 202.51 409.013C203.03 409.013 203.678 409.106 203.942 409.192V406.353C203.661 406.302 203.175 406.268 202.834 406.268C201.334 406.268 200.081 407.121 199.604 408.638H199.467V406.456H196.476V419.547ZM211.248 419.802C214.299 419.802 216.396 418.311 216.941 416.035L214.06 415.711C213.643 416.819 212.62 417.399 211.29 417.399C209.296 417.399 207.975 416.086 207.95 413.845H217.069V412.899C217.069 408.305 214.308 406.285 211.086 406.285C207.336 406.285 204.89 409.038 204.89 413.078C204.89 417.186 207.302 419.802 211.248 419.802ZM207.958 411.765C208.052 410.095 209.288 408.689 211.129 408.689C212.901 408.689 214.094 409.984 214.112 411.765H207.958ZM236.771 402.092V413.231C236.771 415.422 235.246 416.99 232.851 416.99C230.447 416.99 228.93 415.422 228.93 413.231V402.092H225.768V413.496C225.768 417.246 228.581 419.811 232.851 419.811C237.104 419.811 239.933 417.246 239.933 413.496V402.092H236.771ZM253.58 409.916C253.154 407.7 251.381 406.285 248.313 406.285C245.16 406.285 243.012 407.836 243.021 410.257C243.012 412.166 244.188 413.427 246.702 413.947L248.935 414.416C250.137 414.68 250.7 415.166 250.7 415.907C250.7 416.802 249.728 417.476 248.262 417.476C246.847 417.476 245.927 416.862 245.663 415.686L242.654 415.976C243.038 418.379 245.058 419.802 248.271 419.802C251.543 419.802 253.853 418.106 253.862 415.626C253.853 413.76 252.651 412.618 250.18 412.081L247.947 411.603C246.617 411.305 246.089 410.845 246.097 410.086C246.089 409.2 247.069 408.586 248.356 408.586C249.779 408.586 250.529 409.362 250.768 410.223L253.58 409.916ZM260.173 419.811C262.227 419.811 263.454 418.848 264.016 417.748H264.119V419.547H267.085V410.785C267.085 407.325 264.263 406.285 261.766 406.285C259.013 406.285 256.9 407.513 256.218 409.899L259.099 410.308C259.406 409.413 260.275 408.646 261.783 408.646C263.215 408.646 263.999 409.379 263.999 410.666V410.717C263.999 411.603 263.07 411.646 260.761 411.893C258.221 412.166 255.792 412.925 255.792 415.873C255.792 418.447 257.675 419.811 260.173 419.811ZM260.974 417.544C259.687 417.544 258.766 416.956 258.766 415.822C258.766 414.638 259.798 414.143 261.178 413.947C261.988 413.836 263.607 413.632 264.008 413.308V414.851C264.008 416.308 262.832 417.544 260.974 417.544ZM275.88 424.728C279.417 424.728 282.025 423.109 282.025 419.76V406.456H278.982V408.621H278.812C278.343 407.675 277.363 406.285 275.053 406.285C272.028 406.285 269.65 408.655 269.65 412.959C269.65 417.228 272.028 419.359 275.045 419.359C277.286 419.359 278.335 418.157 278.812 417.194H278.965V419.675C278.965 421.601 277.687 422.393 275.931 422.393C274.073 422.393 273.255 421.515 272.88 420.748L270.102 421.422C270.664 423.254 272.548 424.728 275.88 424.728ZM275.906 416.939C273.869 416.939 272.795 415.353 272.795 412.942C272.795 410.564 273.852 408.817 275.906 408.817C277.891 408.817 278.982 410.461 278.982 412.942C278.982 415.439 277.874 416.939 275.906 416.939ZM290.982 419.802C294.033 419.802 296.13 418.311 296.675 416.035L293.795 415.711C293.377 416.819 292.354 417.399 291.025 417.399C289.031 417.399 287.71 416.086 287.684 413.845H296.803V412.899C296.803 408.305 294.042 406.285 290.82 406.285C287.07 406.285 284.624 409.038 284.624 413.078C284.624 417.186 287.036 419.802 290.982 419.802ZM287.692 411.765C287.786 410.095 289.022 408.689 290.863 408.689C292.636 408.689 293.829 409.984 293.846 411.765H287.692Z"/></g><path fill="url(#paint2_linear)" d="M23.7216 726.11C23.7216 726.11 31.5364 705.129 35.4438 700.903C39.3512 696.676 43.2586 698.243 47.166 700.751C51.0734 703.258 54.9809 712.104 58.8883 715.949C62.7957 719.794 66.7031 725.388 70.6105 723.819C74.5179 722.25 78.4253 707.128 82.3327 706.537C86.2402 705.945 90.1476 716.878 94.055 720.27C97.9624 723.662 101.87 730.557 105.777 726.887C109.685 723.217 113.592 702.024 117.499 698.251C121.407 694.477 125.314 703.376 129.222 704.244C133.129 705.111 137.036 715.884 140.944 703.456C144.851 691.029 148.759 653.108 152.666 629.678C156.574 606.249 160.481 585.144 164.388 562.877C168.296 540.61 172.203 479.375 176.111 496.076C180.018 512.776 183.925 629.057 187.833 663.079C191.74 697.102 195.648 690.209 199.555 700.21C203.462 710.212 207.37 718.698 211.277 723.087C215.185 727.475 219.092 730.188 223 726.54C226.907 722.893 230.814 704.702 234.722 701.201C238.629 697.7 242.537 702.304 246.444 705.534C250.351 708.763 254.259 719.473 258.166 720.579C262.074 721.686 265.981 712.977 269.888 712.172C273.796 711.367 277.703 714.878 281.611 715.75C285.518 716.623 289.426 716.711 293.333 717.407C297.24 718.102 301.148 720.977 305.055 719.922C308.963 718.867 312.87 710.529 316.777 711.076C320.685 711.622 324.592 722.132 328.5 723.2C332.407 724.269 336.314 717.487 340.222 717.487C344.129 717.487 348.037 721.97 351.944 723.2C355.852 724.431 359.759 728.842 363.666 724.87C367.574 720.899 371.481 700.763 375.389 699.371C379.296 697.979 383.203 715.854 387.111 716.52C391.018 717.186 394.926 706.704 398.833 703.365C402.74 700.027 406.648 694.893 410.555 696.49C414.463 698.086 418.37 709.608 422.278 712.946C426.185 716.285 430.092 716.345 434 716.52C437.907 716.695 441.815 713.718 445.722 713.997C449.629 714.275 453.537 719.44 457.444 718.19C461.352 716.941 465.259 737.952 469.166 706.5C473.074 675.048 476.981 528.873 480.889 529.476C484.796 530.08 488.704 677.833 492.611 710.12C496.518 742.408 500.426 724.687 504.333 723.2C508.241 721.714 512.148 703.877 516.055 701.201C519.963 698.525 523.87 707.462 527.778 707.144C531.685 706.827 535.592 700.333 539.5 699.297C543.407 698.26 547.315 698.565 551.222 700.926C555.13 703.288 559.037 710.141 562.944 713.467C566.852 716.793 570.759 722.919 574.667 720.881C578.574 718.844 582.481 701.177 586.389 701.24C590.296 701.302 594.204 721.854 598.111 721.259C602.018 720.663 605.926 699.797 609.833 697.667C613.741 695.537 617.648 704.483 621.556 708.478C625.463 712.473 629.37 723.007 633.278 721.637C637.185 720.266 645 700.256 645 700.256V729.88C645 729.88 637.185 729.88 633.278 729.88C629.37 729.88 625.463 729.88 621.556 729.88C617.648 729.88 613.741 729.88 609.833 729.88C605.926 729.88 602.018 729.88 598.111 729.88C594.204 729.88 590.296 729.88 586.389 729.88C582.481 729.88 578.574 729.88 574.667 729.88C570.759 729.88 566.852 729.88 562.944 729.88C559.037 729.88 555.13 729.88 551.222 729.88C547.315 729.88 543.407 729.88 539.5 729.88C535.592 729.88 531.685 729.88 527.778 729.88C523.87 729.88 519.963 729.88 516.055 729.88C512.148 729.88 508.241 729.88 504.333 729.88C500.426 729.88 496.518 729.88 492.611 729.88C488.704 729.88 484.796 729.88 480.889 729.88C476.981 729.88 473.074 729.88 469.166 729.88C465.259 729.88 461.352 729.88 457.444 729.88C453.537 729.88 449.629 729.88 445.722 729.88C441.815 729.88 437.907 729.88 434 729.88C430.092 729.88 426.185 729.88 422.278 729.88C418.37 729.88 414.463 729.88 410.555 729.88C406.648 729.88 402.74 729.88 398.833 729.88C394.926 729.88 391.018 729.88 387.111 729.88C383.203 729.88 379.296 729.88 375.389 729.88C371.481 729.88 367.574 729.88 363.666 729.88C359.759 729.88 355.852 729.88 351.944 729.88C348.037 729.88 344.129 729.88 340.222 729.88C336.314 729.88 332.407 729.88 328.5 729.88C324.592 729.88 320.685 729.88 316.777 729.88C312.87 729.88 308.963 729.88 305.055 729.88C301.148 729.88 297.24 729.88 293.333 729.88C289.426 729.88 285.518 729.88 281.611 729.88C277.703 729.88 273.796 729.88 269.888 729.88C265.981 729.88 262.074 729.88 258.166 729.88C254.259 729.88 250.351 729.88 246.444 729.88C242.537 729.88 238.629 729.88 234.722 729.88C230.814 729.88 226.907 729.88 223 729.88C219.092 729.88 215.185 729.88 211.277 729.88C207.37 729.88 203.462 729.88 199.555 729.88C195.648 729.88 191.74 729.88 187.833 729.88C183.925 729.88 180.018 729.88 176.111 729.88C172.203 729.88 168.296 729.88 164.388 729.88C160.481 729.88 156.574 729.88 152.666 729.88C148.759 729.88 144.851 729.88 140.944 729.88C137.036 729.88 133.129 729.88 129.222 729.88C125.314 729.88 121.407 729.88 117.499 729.88C113.592 729.88 109.685 729.88 105.777 729.88C101.87 729.88 97.9624 729.88 94.055 729.88C90.1476 729.88 86.2402 729.88 82.3327 729.88C78.4253 729.88 74.5179 729.88 70.6105 729.88C66.7031 729.88 62.7957 729.88 58.8883 729.88C54.9809 729.88 51.0734 729.88 47.166 729.88C43.2586 729.88 39.3512 729.88 35.4438 729.88C31.5364 729.88 23.7216 729.88 23.7216 729.88V726.11Z"/><g clip-path="url(#clip3)"><path fill="#000" d="M688.358 459.909H686.773L683.5 462.082V463.693L686.696 461.571H686.773V473H688.358V459.909ZM696.469 473.179C699.116 473.211 700.841 471.217 700.841 468.781C700.841 466.25 698.969 464.435 696.725 464.435C695.376 464.435 694.219 465.093 693.503 466.173H693.401C693.407 462.984 694.648 461.136 696.674 461.136C698.055 461.136 698.885 462.006 699.18 463.182H700.739C700.42 461.149 698.873 459.73 696.674 459.73C693.727 459.73 691.918 462.338 691.918 466.966C691.918 471.805 694.322 473.153 696.469 473.179ZM696.469 471.773C694.827 471.773 693.625 470.373 693.631 468.807C693.638 467.241 694.897 465.841 696.52 465.841C698.125 465.841 699.307 467.158 699.307 468.781C699.307 470.443 698.074 471.773 696.469 471.773Z"/><path fill="#000" d="M688.692 525.576H687.107L683.834 527.749V529.36L687.03 527.238H687.107V538.667H688.692V525.576ZM692.457 538.667H700.715V537.26H694.63V537.158L697.57 534.013C699.82 531.603 700.485 530.478 700.485 529.027C700.485 527.008 698.849 525.397 696.548 525.397C694.253 525.397 692.508 526.956 692.508 529.258H694.016C694.016 527.768 694.982 526.777 696.496 526.777C697.915 526.777 699.002 527.647 699.002 529.027C699.002 530.236 698.293 531.13 696.778 532.786L692.457 537.516V538.667Z"/><path fill="#000" d="M696.456 605.846C699.071 605.846 700.893 604.318 700.905 602.189C700.893 600.534 699.787 599.128 698.374 598.866V598.789C699.601 598.469 700.407 597.268 700.42 595.874C700.407 593.88 698.732 592.397 696.456 592.397C694.155 592.397 692.481 593.88 692.493 595.874C692.481 597.268 693.286 598.469 694.539 598.789V598.866C693.101 599.128 691.995 600.534 692.008 602.189C691.995 604.318 693.817 605.846 696.456 605.846ZM696.456 604.439C694.66 604.439 693.555 603.519 693.567 602.113C693.555 600.636 694.775 599.581 696.456 599.581C698.112 599.581 699.333 600.636 699.346 602.113C699.333 603.519 698.227 604.439 696.456 604.439ZM696.456 598.226C695.025 598.226 694.015 597.331 694.028 595.976C694.015 594.647 694.986 593.777 696.456 593.777C697.901 593.777 698.873 594.647 698.885 595.976C698.873 597.331 697.863 598.226 696.456 598.226Z"/><path fill="#000" d="M691.499 668.649H697.661V671.333H699.17V668.649H700.96V667.242H699.17V658.242H697.252L691.499 667.345V668.649ZM697.661 667.242H693.213V667.14L697.559 660.262H697.661V667.242Z"/><path fill="#000" d="M696.375 735.846C699.264 735.846 700.926 733.397 700.926 729.121C700.926 724.877 699.239 722.397 696.375 722.397C693.511 722.397 691.824 724.877 691.824 729.121C691.824 733.397 693.486 735.846 696.375 735.846ZM696.375 734.439C694.47 734.439 693.358 732.528 693.358 729.121C693.358 725.721 694.483 723.777 696.375 723.777C698.267 723.777 699.392 725.721 699.392 729.121C699.392 732.528 698.28 734.439 696.375 734.439Z"/><line x1="708.722" x2="1330" y1="468.345" y2="468.345" stroke="#000" stroke-opacity=".08"/><line x1="708.722" x2="1330" y1="532.886" y2="532.886" stroke="#000" stroke-opacity=".08"/><line x1="708.722" x2="1330" y1="598.863" y2="598.863" stroke="#000" stroke-opacity=".08"/><line x1="708.722" x2="1330" y1="664.839" y2="664.839" stroke="#000" stroke-opacity=".08"/><line x1="708.722" x2="1330" y1="730.815" y2="730.815" stroke="#000" stroke-opacity=".08"/><path fill="#000" d="M792.1 746.909H790.515L787.242 749.082V750.693L790.438 748.571H790.515V760H792.1V746.909ZM800.135 760.179C803.024 760.179 804.686 757.731 804.686 753.455C804.686 749.21 802.998 746.73 800.135 746.73C797.271 746.73 795.584 749.21 795.584 753.455C795.584 757.731 797.246 760.179 800.135 760.179ZM800.135 758.773C798.23 758.773 797.118 756.862 797.118 753.455C797.118 750.054 798.243 748.111 800.135 748.111C802.027 748.111 803.152 750.054 803.152 753.455C803.152 756.862 802.04 758.773 800.135 758.773ZM812.944 760L814.261 756.293H819.554L820.871 760H822.532L817.726 746.909H816.089L811.282 760H812.944ZM814.76 754.886L816.856 748.98H816.959L819.055 754.886H814.76ZM824.572 746.909V760H826.055V750.054H826.182L830.273 760H831.705L835.796 750.054H835.924V760H837.407V746.909H835.515L831.066 757.776H830.912L826.464 746.909H824.572Z"/><path fill="#000" d="M924.19 746.909H922.605L919.332 749.082V750.693L922.528 748.571H922.605V760H924.19V746.909ZM927.955 760H936.213V758.594H930.128V758.491L933.068 755.347C935.318 752.937 935.983 751.812 935.983 750.361C935.983 748.341 934.347 746.73 932.046 746.73C929.751 746.73 928.006 748.29 928.006 750.591H929.514C929.514 749.102 930.48 748.111 931.994 748.111C933.414 748.111 934.5 748.98 934.5 750.361C934.5 751.569 933.791 752.464 932.276 754.119L927.955 758.849V760ZM944.146 760H945.731V755.219H948.595C951.644 755.219 953.018 753.365 953.018 751.051C953.018 748.737 951.644 746.909 948.569 746.909H944.146V760ZM945.731 753.812V748.315H948.518C950.646 748.315 951.458 749.479 951.458 751.051C951.458 752.624 950.646 753.812 948.544 753.812H945.731ZM955.572 746.909V760H957.055V750.054H957.182L961.273 760H962.705L966.796 750.054H966.924V760H968.407V746.909H966.515L962.066 757.776H961.912L957.464 746.909H955.572Z"/><path fill="#000" d="M1051.95 760H1060.21V758.594H1054.13V758.491L1057.07 755.347C1059.32 752.937 1059.98 751.812 1059.98 750.361C1059.98 748.341 1058.35 746.73 1056.05 746.73C1053.75 746.73 1052.01 748.29 1052.01 750.591H1053.51C1053.51 749.102 1054.48 748.111 1055.99 748.111C1057.41 748.111 1058.5 748.98 1058.5 750.361C1058.5 751.569 1057.79 752.464 1056.28 754.119L1051.95 758.849V760ZM1068.15 760H1069.73V755.219H1072.59C1075.64 755.219 1077.02 753.365 1077.02 751.051C1077.02 748.737 1075.64 746.909 1072.57 746.909H1068.15V760ZM1069.73 753.812V748.315H1072.52C1074.65 748.315 1075.46 749.479 1075.46 751.051C1075.46 752.624 1074.65 753.812 1072.54 753.812H1069.73ZM1079.57 746.909V760H1081.05V750.054H1081.18L1085.27 760H1086.71L1090.8 750.054H1090.92V760H1092.41V746.909H1090.51L1086.07 757.776H1085.91L1081.46 746.909H1079.57Z"/><path fill="#000" d="M1176 757.315H1182.16V760H1183.67V757.315H1185.46V755.909H1183.67V746.909H1181.75L1176 756.011V757.315ZM1182.16 755.909H1177.71V755.807L1182.06 748.929H1182.16V755.909ZM1193.15 760H1194.73V755.219H1197.59C1200.64 755.219 1202.02 753.365 1202.02 751.051C1202.02 748.737 1200.64 746.909 1197.57 746.909H1193.15V760ZM1194.73 753.812V748.315H1197.52C1199.65 748.315 1200.46 749.479 1200.46 751.051C1200.46 752.624 1199.65 753.812 1197.54 753.812H1194.73ZM1204.57 746.909V760H1206.05V750.054H1206.18L1210.27 760H1211.71L1215.8 750.054H1215.92V760H1217.41V746.909H1215.51L1211.07 757.776H1210.91L1206.46 746.909H1204.57Z"/><path fill="#000" d="M709.722 419.547H712.884V412.132H720.136V409.481H712.884V404.743H720.903V402.092H709.722V419.547ZM723.46 419.547H726.545V411.851C726.545 410.189 727.798 409.013 729.494 409.013C730.014 409.013 730.662 409.106 730.926 409.192V406.353C730.645 406.302 730.159 406.268 729.818 406.268C728.318 406.268 727.065 407.121 726.588 408.638H726.452V406.456H723.46V419.547ZM738.232 419.802C741.283 419.802 743.38 418.311 743.925 416.035L741.045 415.711C740.627 416.819 739.604 417.399 738.275 417.399C736.281 417.399 734.96 416.086 734.934 413.845H744.053V412.899C744.053 408.305 741.292 406.285 738.07 406.285C734.32 406.285 731.874 409.038 731.874 413.078C731.874 417.186 734.286 419.802 738.232 419.802ZM734.942 411.765C735.036 410.095 736.272 408.689 738.113 408.689C739.886 408.689 741.079 409.984 741.096 411.765H734.942ZM751.521 419.777C753.771 419.777 754.786 418.439 755.271 417.484H755.459V419.547H758.493V402.092H755.399V408.621H755.271C754.803 407.675 753.839 406.285 751.53 406.285C748.504 406.285 746.126 408.655 746.126 413.018C746.126 417.331 748.436 419.777 751.521 419.777ZM752.382 417.246C750.345 417.246 749.271 415.456 749.271 413.001C749.271 410.564 750.328 408.817 752.382 408.817C754.368 408.817 755.459 410.461 755.459 413.001C755.459 415.541 754.351 417.246 752.382 417.246ZM764.397 402.092H761.942V403.848C761.942 405.237 761.397 406.302 760.775 407.24L762.207 408.169C763.46 407.129 764.397 405.339 764.397 403.831V402.092ZM775.549 409.916C775.123 407.7 773.35 406.285 770.282 406.285C767.129 406.285 764.981 407.836 764.989 410.257C764.981 412.166 766.157 413.427 768.671 413.947L770.904 414.416C772.106 414.68 772.668 415.166 772.668 415.907C772.668 416.802 771.697 417.476 770.231 417.476C768.816 417.476 767.896 416.862 767.631 415.686L764.623 415.976C765.006 418.379 767.026 419.802 770.239 419.802C773.512 419.802 775.822 418.106 775.83 415.626C775.822 413.76 774.62 412.618 772.148 412.081L769.915 411.603C768.586 411.305 768.058 410.845 768.066 410.086C768.058 409.2 769.038 408.586 770.325 408.586C771.748 408.586 772.498 409.362 772.737 410.223L775.549 409.916ZM799.404 407.981C798.867 404.103 795.884 401.853 792.015 401.853C787.455 401.853 784.021 405.177 784.021 410.819C784.021 416.453 787.413 419.785 792.015 419.785C796.165 419.785 798.918 417.101 799.404 413.768L796.217 413.751C795.816 415.797 794.146 416.947 792.058 416.947C789.228 416.947 787.2 414.825 787.2 410.819C787.2 406.882 789.211 404.692 792.066 404.692C794.188 404.692 795.85 405.893 796.217 407.981H799.404ZM802.3 419.547H805.462V413.649H808.803C812.834 413.649 814.999 411.228 814.999 407.871C814.999 404.538 812.859 402.092 808.845 402.092H802.3V419.547ZM805.462 411.05V404.734H808.359C810.729 404.734 811.777 406.013 811.777 407.871C811.777 409.728 810.729 411.05 808.376 411.05H805.462ZM828.748 402.092V413.231C828.748 415.422 827.222 416.99 824.827 416.99C822.424 416.99 820.907 415.422 820.907 413.231V402.092H817.745V413.496C817.745 417.246 820.558 419.811 824.827 419.811C829.08 419.811 831.91 417.246 831.91 413.496V402.092H828.748ZM856.24 407.981C855.703 404.103 852.72 401.853 848.851 401.853C844.291 401.853 840.857 405.177 840.857 410.819C840.857 416.453 844.249 419.785 848.851 419.785C853.001 419.785 855.754 417.101 856.24 413.768L853.053 413.751C852.652 415.797 850.982 416.947 848.893 416.947C846.064 416.947 844.036 414.825 844.036 410.819C844.036 406.882 846.047 404.692 848.902 404.692C851.024 404.692 852.686 405.893 853.053 407.981H856.24ZM864.71 419.802C868.545 419.802 870.982 417.101 870.982 413.052C870.982 408.996 868.545 406.285 864.71 406.285C860.874 406.285 858.437 408.996 858.437 413.052C858.437 417.101 860.874 419.802 864.71 419.802ZM864.727 417.331C862.604 417.331 861.565 415.439 861.565 413.044C861.565 410.649 862.604 408.731 864.727 408.731C866.815 408.731 867.854 410.649 867.854 413.044C867.854 415.439 866.815 417.331 864.727 417.331ZM873.601 419.547H876.686V411.851C876.686 410.189 877.939 409.013 879.635 409.013C880.155 409.013 880.803 409.106 881.067 409.192V406.353C880.786 406.302 880.3 406.268 879.959 406.268C878.459 406.268 877.206 407.121 876.729 408.638H876.592V406.456H873.601V419.547ZM888.373 419.802C891.424 419.802 893.521 418.311 894.066 416.035L891.185 415.711C890.768 416.819 889.745 417.399 888.415 417.399C886.421 417.399 885.1 416.086 885.075 413.845H894.194V412.899C894.194 408.305 891.433 406.285 888.211 406.285C884.461 406.285 882.015 409.038 882.015 413.078C882.015 417.186 884.427 419.802 888.373 419.802ZM885.083 411.765C885.177 410.095 886.413 408.689 888.254 408.689C890.026 408.689 891.219 409.984 891.237 411.765H885.083ZM913.896 402.092V413.231C913.896 415.422 912.371 416.99 909.976 416.99C907.572 416.99 906.055 415.422 906.055 413.231V402.092H902.893V413.496C902.893 417.246 905.706 419.811 909.976 419.811C914.229 419.811 917.058 417.246 917.058 413.496V402.092H913.896ZM930.705 409.916C930.279 407.7 928.506 406.285 925.438 406.285C922.285 406.285 920.137 407.836 920.146 410.257C920.137 412.166 921.313 413.427 923.827 413.947L926.06 414.416C927.262 414.68 927.825 415.166 927.825 415.907C927.825 416.802 926.853 417.476 925.387 417.476C923.972 417.476 923.052 416.862 922.788 415.686L919.779 415.976C920.163 418.379 922.183 419.802 925.396 419.802C928.668 419.802 930.978 418.106 930.987 415.626C930.978 413.76 929.776 412.618 927.305 412.081L925.072 411.603C923.742 411.305 923.214 410.845 923.222 410.086C923.214 409.2 924.194 408.586 925.481 408.586C926.904 408.586 927.654 409.362 927.893 410.223L930.705 409.916ZM937.298 419.811C939.352 419.811 940.579 418.848 941.141 417.748H941.244V419.547H944.21V410.785C944.21 407.325 941.388 406.285 938.891 406.285C936.138 406.285 934.025 407.513 933.343 409.899L936.224 410.308C936.531 409.413 937.4 408.646 938.908 408.646C940.34 408.646 941.124 409.379 941.124 410.666V410.717C941.124 411.603 940.195 411.646 937.886 411.893C935.346 412.166 932.917 412.925 932.917 415.873C932.917 418.447 934.8 419.811 937.298 419.811ZM938.099 417.544C936.812 417.544 935.891 416.956 935.891 415.822C935.891 414.638 936.923 414.143 938.303 413.947C939.113 413.836 940.732 413.632 941.133 413.308V414.851C941.133 416.308 939.957 417.544 938.099 417.544ZM953.005 424.728C956.542 424.728 959.15 423.109 959.15 419.76V406.456H956.107V408.621H955.937C955.468 407.675 954.488 406.285 952.178 406.285C949.153 406.285 946.775 408.655 946.775 412.959C946.775 417.228 949.153 419.359 952.17 419.359C954.411 419.359 955.46 418.157 955.937 417.194H956.09V419.675C956.09 421.601 954.812 422.393 953.056 422.393C951.198 422.393 950.38 421.515 950.005 420.748L947.227 421.422C947.789 423.254 949.673 424.728 953.005 424.728ZM953.031 416.939C950.994 416.939 949.92 415.353 949.92 412.942C949.92 410.564 950.977 408.817 953.031 408.817C955.016 408.817 956.107 410.461 956.107 412.942C956.107 415.439 954.999 416.939 953.031 416.939ZM968.107 419.802C971.158 419.802 973.255 418.311 973.8 416.035L970.92 415.711C970.502 416.819 969.479 417.399 968.15 417.399C966.156 417.399 964.835 416.086 964.809 413.845H973.928V412.899C973.928 408.305 971.167 406.285 967.945 406.285C964.195 406.285 961.749 409.038 961.749 413.078C961.749 417.186 964.161 419.802 968.107 419.802ZM964.817 411.765C964.911 410.095 966.147 408.689 967.988 408.689C969.761 408.689 970.954 409.984 970.971 411.765H964.817Z"/></g><g clip-path="url(#clip4)"><path fill="url(#paint3_linear)" d="M708.722 722.378C708.722 722.378 716.536 723.83 720.444 724.238C724.351 724.646 728.259 729.462 732.166 724.824C736.073 720.186 739.981 695.848 743.888 696.41C747.796 696.972 751.703 728.234 755.61 728.195C759.518 728.155 763.425 701.06 767.333 696.173C771.24 691.286 775.148 693.817 779.055 698.872C782.962 703.928 786.87 726.351 790.777 726.507C794.685 726.663 798.592 703.218 802.499 699.807C806.407 696.396 810.314 706.395 814.222 706.039C818.129 705.683 822.036 696.631 825.944 697.672C829.851 698.712 833.759 712.044 837.666 712.28C841.574 712.516 845.481 696.435 849.388 699.088C853.296 701.74 857.203 723.482 861.111 728.195C863.035 730.521 871.783 729.88 872.833 727.368C876.74 722.067 880.648 699.225 884.555 696.39C888.462 693.554 892.37 710.148 896.277 710.356C900.185 710.564 904.092 699.641 908 697.637C911.907 695.633 915.814 698.449 919.722 698.329C923.629 698.209 927.537 692.347 931.444 696.916C935.351 701.485 939.259 721.085 943.166 725.743C947.074 730.402 950.981 727.577 954.888 724.866C958.796 722.156 962.703 709.63 966.611 709.479C970.518 709.328 974.426 723.532 978.333 723.961C982.24 724.389 986.148 712.535 990.055 712.052C993.963 711.568 997.87 722.991 1001.78 721.06C1005.68 719.129 1009.59 699.277 1013.5 700.466C1017.41 701.655 1021.31 728.195 1025.22 728.195C1029.13 728.195 1033.04 700.218 1036.94 700.466C1040.85 700.713 1044.76 728.872 1048.67 729.679C1052.57 730.486 1056.48 705.836 1060.39 705.308C1064.3 704.779 1068.2 728.013 1072.11 726.509C1076.02 725.006 1079.93 697.131 1083.83 696.288C1087.74 695.445 1091.65 738.328 1095.56 721.453C1099.46 704.578 1103.37 595.318 1107.28 595.037C1111.18 594.756 1115.09 702.238 1119 719.767C1122.91 737.296 1126.81 703.507 1130.72 700.209C1134.63 696.911 1138.54 700.598 1142.44 699.981C1146.35 699.363 1150.26 694.081 1154.17 696.503C1158.07 698.925 1161.98 709.31 1165.89 714.513C1169.8 719.716 1173.7 730.062 1177.61 727.721C1181.52 725.38 1185.43 705.364 1189.33 700.466C1193.24 695.567 1197.15 693.793 1201.06 698.329C1204.96 702.865 1208.87 727.468 1212.78 727.683C1216.69 727.897 1220.59 727.341 1224.5 699.614C1228.41 671.888 1232.31 589.992 1236.22 561.326C1240.13 532.659 1244.04 501.039 1247.94 527.615C1251.85 554.191 1255.76 692.577 1259.67 720.781C1263.57 748.984 1267.48 700.876 1271.39 696.836C1275.3 692.795 1279.2 692.156 1283.11 696.54C1287.02 700.924 1290.93 722.084 1294.83 723.138C1298.74 724.193 1302.65 702.347 1306.56 702.866C1310.46 703.384 1314.37 727.349 1318.28 726.25C1322.19 725.151 1330 696.273 1330 696.273V729.88C1330 729.88 1322.19 729.88 1318.28 729.88C1314.37 729.88 1310.46 729.88 1306.56 729.88C1302.65 729.88 1298.74 729.88 1294.83 729.88C1290.93 729.88 1287.02 729.88 1283.11 729.88C1279.2 729.88 1275.3 729.88 1271.39 729.88C1267.48 729.88 1263.57 729.88 1259.67 729.88C1255.76 729.88 1251.85 729.88 1247.94 729.88C1244.04 729.88 1240.13 729.88 1236.22 729.88C1232.31 729.88 1228.41 729.88 1224.5 729.88C1220.59 729.88 1216.69 729.88 1212.78 729.88C1208.87 729.88 1204.96 729.88 1201.06 729.88C1197.15 729.88 1193.24 729.88 1189.33 729.88C1185.43 729.88 1181.52 729.88 1177.61 729.88C1173.7 729.88 1169.8 729.88 1165.89 729.88C1161.98 729.88 1158.07 729.88 1154.17 729.88C1150.26 729.88 1146.35 729.88 1142.44 729.88C1138.54 729.88 1134.63 729.88 1130.72 729.88C1126.81 729.88 1122.91 729.88 1119 729.88C1115.09 729.88 1111.18 729.88 1107.28 729.88C1103.37 729.88 1099.46 729.88 1095.56 729.88C1091.65 729.88 1087.74 729.88 1083.83 729.88C1079.93 729.88 1076.02 729.88 1072.11 729.88C1068.2 729.88 1064.3 729.88 1060.39 729.88C1056.48 729.88 1052.57 729.88 1048.67 729.88C1044.76 729.88 1040.85 729.88 1036.94 729.88C1033.04 729.88 1029.13 729.88 1025.22 729.88C1021.31 729.88 1017.41 729.88 1013.5 729.88C1009.59 729.88 1005.68 729.88 1001.78 729.88C997.87 729.88 993.963 729.88 990.055 729.88C986.148 729.88 982.24 729.88 978.333 729.88C974.426 729.88 970.518 729.88 966.611 729.88C962.703 729.88 958.796 729.88 954.888 729.88C950.981 729.88 947.074 729.88 943.166 729.88C939.259 729.88 935.351 729.88 931.444 729.88C927.537 729.88 923.629 729.88 919.722 729.88C915.814 729.88 911.907 729.88 908 729.88C904.092 729.88 900.185 729.88 896.277 729.88C892.37 729.88 888.462 729.88 884.555 729.88C880.648 729.88 876.74 729.88 872.833 729.88C868.925 729.88 865.018 729.88 861.111 729.88C857.203 729.88 853.296 729.88 849.388 729.88C845.481 729.88 841.574 729.88 837.666 729.88C833.759 729.88 829.851 729.88 825.944 729.88C822.036 729.88 818.129 729.88 814.222 729.88C810.314 729.88 806.407 729.88 802.499 729.88C798.592 729.88 794.685 729.88 790.777 729.88C786.87 729.88 782.962 729.88 779.055 729.88C775.148 729.88 771.24 729.88 767.333 729.88C763.425 729.88 759.518 729.88 755.61 729.88C751.703 729.88 747.796 729.88 743.888 729.88C739.981 729.88 736.073 729.88 732.166 729.88C728.259 729.88 724.351 729.88 720.444 729.88C716.536 729.88 708.722 729.88 708.722 729.88V722.378Z"/></g><defs><linearGradient id="paint0_linear" x1="334.361" x2="334.361" y1="159.203" y2="329.881" gradientUnits="userSpaceOnUse"><stop stop-color="#D0EFD2"/><stop offset="1" stop-color="#A2E0A5"/></linearGradient><linearGradient id="paint1_linear" x1="1019.36" x2="1019.36" y1="160.637" y2="329.88" gradientUnits="userSpaceOnUse"><stop stop-color="#D0EBEF"/><stop offset="1" stop-color="#A2D9E0"/></linearGradient><linearGradient id="paint2_linear" x1="334.361" x2="334.361" y1="493.227" y2="729.88" gradientUnits="userSpaceOnUse"><stop stop-color="#D4D0EF"/><stop offset="1" stop-color="#ABA2E0"/></linearGradient><linearGradient id="paint3_linear" x1="1019.36" x2="1019.36" y1="517.61" y2="729.88" gradientUnits="userSpaceOnUse"><stop stop-color="#EED0EF"/><stop offset="1" stop-color="#E0A2DE"/></linearGradient><clipPath id="clip0"><rect width="645" height="360" fill="#fff"/></clipPath><clipPath id="clip1"><rect width="645" height="360" fill="#fff" transform="translate(685)"/></clipPath><clipPath id="clip2"><rect width="645" height="360" fill="#fff" transform="translate(0 400)"/></clipPath><clipPath id="clip3"><rect width="645" height="360" fill="#fff" transform="translate(685 400)"/></clipPath><clipPath id="clip4"><rect width="621.278" height="212.271" fill="#fff" transform="translate(708.722 517.61)"/></clipPath></defs></svg>