<svg width="1326" height="350" viewBox="0 0 1326 350" fill="none" xmlns="http://www.w3.org/2000/svg">
<g clip-path="url(#clip0)">
<path d="M21.3066 64.0518H19.7214L16.4486 66.2251V67.8359L19.6447 65.7137H19.7214V77.1427H21.3066V64.0518ZM29.4181 77.3216C32.0644 77.3536 33.7903 75.3593 33.7903 72.9239C33.7903 70.3927 31.9174 68.5773 29.6738 68.5773C28.3251 68.5773 27.1681 69.2357 26.4522 70.316H26.3499C26.3563 67.1263 27.5964 65.279 29.6227 65.279C31.0033 65.279 31.8343 66.1484 32.1283 67.3245H33.688C33.3684 65.2918 31.8215 63.8728 29.6227 63.8728C26.6759 63.8728 24.867 66.4807 24.867 71.1086C24.867 75.9474 27.2704 77.2961 29.4181 77.3216ZM29.4181 75.9154C27.7754 75.9154 26.5736 74.5155 26.58 72.9495C26.5864 71.3834 27.8457 69.9836 29.4692 69.9836C31.0736 69.9836 32.2562 71.3003 32.2562 72.9239C32.2562 74.5859 31.0225 75.9154 29.4181 75.9154Z" fill="black"/>
<path d="M21.6406 127.353H20.0554L16.7826 129.527V131.137L19.9787 129.015H20.0554V140.444H21.6406V127.353ZM25.4055 140.444H33.664V139.038H27.5788V138.936L30.5191 135.791C32.7691 133.381 33.4339 132.256 33.4339 130.805C33.4339 128.785 31.7975 127.174 29.4964 127.174C27.2017 127.174 25.4566 128.734 25.4566 131.035H26.9652C26.9652 129.546 27.9304 128.555 29.4453 128.555C30.8643 128.555 31.951 129.424 31.951 130.805C31.951 132.013 31.2414 132.908 29.7265 134.564L25.4055 139.294V140.444Z" fill="black"/>
<path d="M29.4053 201.393C32.0197 201.393 33.8414 199.865 33.8542 197.737C33.8414 196.081 32.7356 194.675 31.323 194.413V194.336C32.5502 194.016 33.3556 192.815 33.3684 191.421C33.3556 189.427 31.6809 187.944 29.4053 187.944C27.1042 187.944 25.4295 189.427 25.4423 191.421C25.4295 192.815 26.2349 194.016 27.4877 194.336V194.413C26.0495 194.675 24.9437 196.081 24.9565 197.737C24.9437 199.865 26.7654 201.393 29.4053 201.393ZM29.4053 199.987C27.6092 199.987 26.5034 199.066 26.5161 197.66C26.5034 196.183 27.7242 195.129 29.4053 195.129C31.0609 195.129 32.2818 196.183 32.2946 197.66C32.2818 199.066 31.1759 199.987 29.4053 199.987ZM29.4053 193.774C27.9735 193.774 26.9636 192.879 26.9764 191.524C26.9636 190.194 27.9352 189.325 29.4053 189.325C30.85 189.325 31.8215 190.194 31.8343 191.524C31.8215 192.879 30.8116 193.774 29.4053 193.774Z" fill="black"/>
<path d="M24.4483 261.831H30.6102V264.516H32.1188V261.831H33.9085V260.425H32.1188V251.425H30.2012L24.4483 260.527V261.831ZM30.6102 260.425H26.1614V260.322L30.508 253.444H30.6102V260.425Z" fill="black"/>
<path d="M29.3238 326.73C32.2131 326.73 33.875 324.282 33.875 320.006C33.875 315.761 32.1875 313.281 29.3238 313.281C26.4602 313.281 24.7727 315.761 24.7727 320.006C24.7727 324.282 26.4346 326.73 29.3238 326.73ZM29.3238 325.324C27.419 325.324 26.3068 323.413 26.3068 320.006C26.3068 316.605 27.4318 314.662 29.3238 314.662C31.2159 314.662 32.3409 316.605 32.3409 320.006C32.3409 323.413 31.2287 325.324 29.3238 325.324Z" fill="black"/>
<line x1="48.7671" y1="73.0409" x2="1326" y2="73.0409" stroke="black" stroke-opacity="0.08"/>
<line x1="48.7671" y1="134.325" x2="1326" y2="134.325" stroke="black" stroke-opacity="0.08"/>
<line x1="48.7671" y1="196.971" x2="1326" y2="196.971" stroke="black" stroke-opacity="0.08"/>
<line x1="48.7671" y1="259.617" x2="1326" y2="259.617" stroke="black" stroke-opacity="0.08"/>
<line x1="48.7671" y1="322.263" x2="1326" y2="322.263" stroke="black" stroke-opacity="0.08"/>
<path d="M268.737 337.08H267.152L263.879 339.254V340.864L267.075 338.742H267.152V350.171H268.737V337.08ZM276.772 350.35C279.661 350.35 281.323 347.902 281.323 343.626C281.323 339.381 279.636 336.901 276.772 336.901C273.908 336.901 272.221 339.381 272.221 343.626C272.221 347.902 273.883 350.35 276.772 350.35ZM276.772 348.944C274.867 348.944 273.755 347.033 273.755 343.626C273.755 340.225 274.88 338.282 276.772 338.282C278.664 338.282 279.789 340.225 279.789 343.626C279.789 347.033 278.677 348.944 276.772 348.944ZM289.582 350.171L290.898 346.464H296.191L297.508 350.171H299.17L294.363 337.08H292.727L287.92 350.171H289.582ZM291.397 345.058L293.494 339.151H293.596L295.692 345.058H291.397ZM301.209 337.08V350.171H302.692V340.225H302.82L306.91 350.171H308.342L312.433 340.225H312.561V350.171H314.044V337.08H312.152L307.703 347.947H307.55L303.101 337.08H301.209Z" fill="black"/>
<path d="M539.194 337.08H537.609L534.336 339.254V340.864L537.533 338.742H537.609V350.171H539.194V337.08ZM542.959 350.171H551.218V348.765H545.133V348.663L548.073 345.518C550.323 343.108 550.988 341.983 550.988 340.532C550.988 338.512 549.351 336.901 547.05 336.901C544.756 336.901 543.01 338.461 543.01 340.762H544.519C544.519 339.273 545.484 338.282 546.999 338.282C548.418 338.282 549.505 339.151 549.505 340.532C549.505 341.74 548.795 342.635 547.28 344.291L542.959 349.021V350.171ZM559.15 350.171H560.736V345.39H563.599C566.648 345.39 568.023 343.536 568.023 341.222C568.023 338.908 566.648 337.08 563.574 337.08H559.15V350.171ZM560.736 343.984V338.487H563.523C565.651 338.487 566.463 339.65 566.463 341.222C566.463 342.795 565.651 343.984 563.548 343.984H560.736ZM570.576 337.08V350.171H572.059V340.225H572.187L576.278 350.171H577.71L581.801 340.225H581.928V350.171H583.411V337.08H581.519L577.071 347.947H576.917L572.468 337.08H570.576Z" fill="black"/>
<path d="M798.327 350.171H806.585V348.765H800.5V348.663L803.44 345.518C805.69 343.108 806.355 341.983 806.355 340.532C806.355 338.512 804.719 336.901 802.418 336.901C800.123 336.901 798.378 338.461 798.378 340.762H799.886C799.886 339.273 800.852 338.282 802.367 338.282C803.786 338.282 804.872 339.151 804.872 340.532C804.872 341.74 804.163 342.635 802.648 344.291L798.327 349.021V350.171ZM814.518 350.171H816.103V345.39H818.967C822.016 345.39 823.39 343.536 823.39 341.222C823.39 338.908 822.016 337.08 818.941 337.08H814.518V350.171ZM816.103 343.984V338.487H818.89C821.019 338.487 821.83 339.65 821.83 341.222C821.83 342.795 821.019 343.984 818.916 343.984H816.103ZM825.944 337.08V350.171H827.427V340.225H827.554L831.645 350.171H833.077L837.168 340.225H837.296V350.171H838.779V337.08H836.887L832.438 347.947H832.285L827.836 337.08H825.944Z" fill="black"/>
<path d="M1054.29 347.487H1060.45V350.171H1061.96V347.487H1063.75V346.08H1061.96V337.08H1060.04L1054.29 346.183V347.487ZM1060.45 346.08H1056V345.978L1060.35 339.1H1060.45V346.08ZM1071.44 350.171H1073.02V345.39H1075.89C1078.94 345.39 1080.31 343.536 1080.31 341.222C1080.31 338.908 1078.94 337.08 1075.86 337.08H1071.44V350.171ZM1073.02 343.984V338.487H1075.81C1077.94 338.487 1078.75 339.65 1078.75 341.222C1078.75 342.795 1077.94 343.984 1075.84 343.984H1073.02ZM1082.86 337.08V350.171H1084.35V340.225H1084.48L1088.57 350.171H1090L1094.09 340.225H1094.22V350.171H1095.7V337.08H1093.81L1089.36 347.947H1089.21L1084.76 337.08H1082.86Z" fill="black"/>
<path d="M34.2074 14.7816H37.25C37.1903 11.8328 34.6761 9.74471 30.9602 9.74471C27.2955 9.74471 24.5426 11.8072 24.5511 14.8924C24.5511 17.3981 26.3324 18.8385 29.2045 19.5799L31.1903 20.0913C33.0739 20.5686 34.3182 21.1566 34.3267 22.5118C34.3182 24.0032 32.9034 25.0004 30.8409 25.0004C28.8636 25.0004 27.3295 24.114 27.2017 22.2816H24.0909C24.2188 25.7504 26.8011 27.7021 30.8665 27.7021C35.0511 27.7021 37.4801 25.614 37.4886 22.5373C37.4801 19.5118 34.983 18.1311 32.358 17.5089L30.7216 17.0998C29.2898 16.7589 27.7386 16.1538 27.7557 14.6964C27.7642 13.3839 28.9403 12.4209 30.9176 12.4209C32.8011 12.4209 34.0455 13.2987 34.2074 14.7816ZM43.2564 19.7674C43.2564 17.8754 44.4325 16.7845 46.0859 16.7845C47.7053 16.7845 48.6598 17.8157 48.6598 19.5799V27.4379H51.745V19.1027C51.745 15.9407 49.9553 14.1765 47.2365 14.1765C45.2251 14.1765 43.9467 15.0885 43.3416 16.5714H43.1882V9.98335H40.1712V27.4379H43.2564V19.7674ZM58.657 27.7021C60.7109 27.7021 61.9382 26.739 62.5007 25.6396H62.603V27.4379H65.5689V18.6765C65.5689 15.2163 62.7479 14.1765 60.2507 14.1765C57.4979 14.1765 55.3842 15.4038 54.7024 17.7902L57.5831 18.1993C57.8899 17.3044 58.7592 16.5373 60.2678 16.5373C61.6996 16.5373 62.4837 17.2703 62.4837 18.5572V18.6084C62.4837 19.4947 61.5547 19.5373 59.245 19.7845C56.7053 20.0572 54.2763 20.8157 54.2763 23.7646C54.2763 26.3385 56.1598 27.7021 58.657 27.7021ZM59.4581 25.4351C58.1712 25.4351 57.2507 24.847 57.2507 23.7135C57.2507 22.5288 58.282 22.0345 59.6626 21.8385C60.4723 21.7277 62.0916 21.5231 62.4922 21.1993V22.7419C62.4922 24.1993 61.3161 25.4351 59.4581 25.4351ZM68.6712 27.4379H71.7564V19.7419C71.7564 18.0799 73.0092 16.9038 74.7053 16.9038C75.2251 16.9038 75.8729 16.9976 76.1371 17.0828V14.2447C75.8558 14.1936 75.37 14.1595 75.0291 14.1595C73.5291 14.1595 72.2763 15.0118 71.799 16.5288H71.6626V14.347H68.6712V27.4379ZM83.4432 27.6936C86.4943 27.6936 88.5909 26.2021 89.1364 23.9265L86.2557 23.6027C85.8381 24.7106 84.8153 25.2902 83.4858 25.2902C81.4915 25.2902 80.1705 23.9777 80.1449 21.7362H89.2642V20.7902C89.2642 16.1964 86.5028 14.1765 83.2812 14.1765C79.5312 14.1765 77.0852 16.9294 77.0852 20.9691C77.0852 25.0771 79.4972 27.6936 83.4432 27.6936ZM80.1534 19.6566C80.2472 17.9862 81.483 16.5799 83.3239 16.5799C85.0966 16.5799 86.2898 17.8754 86.3068 19.6566H80.1534ZM96.7322 27.668C98.9822 27.668 99.9964 26.3299 100.482 25.3754H100.67V27.4379H103.704V9.98335H100.61V16.5118H100.482C100.013 15.5657 99.0504 14.1765 96.7408 14.1765C93.7152 14.1765 91.3374 16.5459 91.3374 20.9095C91.3374 25.222 93.647 27.668 96.7322 27.668ZM97.593 25.1368C95.5561 25.1368 94.4822 23.347 94.4822 20.8924C94.4822 18.4549 95.5391 16.7078 97.593 16.7078C99.5788 16.7078 100.67 18.3527 100.67 20.8924C100.67 23.4322 99.5618 25.1368 97.593 25.1368ZM128.021 15.8726C127.484 11.9947 124.501 9.74471 120.632 9.74471C116.072 9.74471 112.638 13.0686 112.638 18.7106C112.638 24.3441 116.03 27.6765 120.632 27.6765C124.783 27.6765 127.536 24.9919 128.021 21.6595L124.834 21.6424C124.433 23.6879 122.763 24.8385 120.675 24.8385C117.845 24.8385 115.817 22.7163 115.817 18.7106C115.817 14.7731 117.828 12.5828 120.683 12.5828C122.805 12.5828 124.467 13.7845 124.834 15.8726H128.021ZM130.917 27.4379H134.079V21.5402H137.42C141.451 21.5402 143.616 19.1197 143.616 15.7618C143.616 12.4294 141.477 9.98335 137.462 9.98335H130.917V27.4379ZM134.079 18.9407V12.6254H136.977C139.346 12.6254 140.394 13.9038 140.394 15.7618C140.394 17.6197 139.346 18.9407 136.994 18.9407H134.079ZM157.365 9.98335V21.1226C157.365 23.3129 155.839 24.8811 153.445 24.8811C151.041 24.8811 149.524 23.3129 149.524 21.1226V9.98335H146.362V21.3868C146.362 25.1368 149.175 27.7021 153.445 27.7021C157.697 27.7021 160.527 25.1368 160.527 21.3868V9.98335H157.365ZM184.857 15.8726C184.32 11.9947 181.337 9.74471 177.468 9.74471C172.908 9.74471 169.474 13.0686 169.474 18.7106C169.474 24.3441 172.866 27.6765 177.468 27.6765C181.619 27.6765 184.371 24.9919 184.857 21.6595L181.67 21.6424C181.269 23.6879 179.599 24.8385 177.511 24.8385C174.681 24.8385 172.653 22.7163 172.653 18.7106C172.653 14.7731 174.664 12.5828 177.519 12.5828C179.641 12.5828 181.303 13.7845 181.67 15.8726H184.857ZM193.327 27.6936C197.162 27.6936 199.599 24.9919 199.599 20.9436C199.599 16.8868 197.162 14.1765 193.327 14.1765C189.491 14.1765 187.054 16.8868 187.054 20.9436C187.054 24.9919 189.491 27.6936 193.327 27.6936ZM193.344 25.222C191.222 25.222 190.182 23.3299 190.182 20.9351C190.182 18.5402 191.222 16.6226 193.344 16.6226C195.432 16.6226 196.472 18.5402 196.472 20.9351C196.472 23.3299 195.432 25.222 193.344 25.222ZM202.218 27.4379H205.303V19.7419C205.303 18.0799 206.556 16.9038 208.252 16.9038C208.772 16.9038 209.42 16.9976 209.684 17.0828V14.2447C209.403 14.1936 208.917 14.1595 208.576 14.1595C207.076 14.1595 205.823 15.0118 205.346 16.5288H205.21V14.347H202.218V27.4379ZM216.99 27.6936C220.041 27.6936 222.138 26.2021 222.683 23.9265L219.803 23.6027C219.385 24.7106 218.362 25.2902 217.033 25.2902C215.038 25.2902 213.717 23.9777 213.692 21.7362H222.811V20.7902C222.811 16.1964 220.05 14.1765 216.828 14.1765C213.078 14.1765 210.632 16.9294 210.632 20.9691C210.632 25.0771 213.044 27.6936 216.99 27.6936ZM213.7 19.6566C213.794 17.9862 215.03 16.5799 216.871 16.5799C218.643 16.5799 219.837 17.8754 219.854 19.6566H213.7ZM242.513 9.98335V21.1226C242.513 23.3129 240.988 24.8811 238.593 24.8811C236.19 24.8811 234.673 23.3129 234.673 21.1226V9.98335H231.511V21.3868C231.511 25.1368 234.323 27.7021 238.593 27.7021C242.846 27.7021 245.675 25.1368 245.675 21.3868V9.98335H242.513ZM259.322 17.8072C258.896 15.5913 257.124 14.1765 254.055 14.1765C250.902 14.1765 248.754 15.7277 248.763 18.1481C248.754 20.0572 249.93 21.3186 252.445 21.8385L254.678 22.3072C255.879 22.5714 256.442 23.0572 256.442 23.7987C256.442 24.6936 255.47 25.3669 254.004 25.3669C252.589 25.3669 251.669 24.7532 251.405 23.5771L248.396 23.8669C248.78 26.2703 250.8 27.6936 254.013 27.6936C257.286 27.6936 259.595 25.9976 259.604 23.5174C259.595 21.651 258.393 20.5089 255.922 19.972L253.689 19.4947C252.359 19.1964 251.831 18.7362 251.839 17.9777C251.831 17.0913 252.811 16.4777 254.098 16.4777C255.521 16.4777 256.271 17.2532 256.51 18.114L259.322 17.8072ZM265.915 27.7021C267.969 27.7021 269.196 26.739 269.759 25.6396H269.861V27.4379H272.827V18.6765C272.827 15.2163 270.006 14.1765 267.509 14.1765C264.756 14.1765 262.642 15.4038 261.96 17.7902L264.841 18.1993C265.148 17.3044 266.017 16.5373 267.526 16.5373C268.957 16.5373 269.741 17.2703 269.741 18.5572V18.6084C269.741 19.4947 268.812 19.5373 266.503 19.7845C263.963 20.0572 261.534 20.8157 261.534 23.7646C261.534 26.3385 263.418 27.7021 265.915 27.7021ZM266.716 25.4351C265.429 25.4351 264.509 24.847 264.509 23.7135C264.509 22.5288 265.54 22.0345 266.92 21.8385C267.73 21.7277 269.349 21.5231 269.75 21.1993V22.7419C269.75 24.1993 268.574 25.4351 266.716 25.4351ZM281.622 32.6197C285.159 32.6197 287.767 31.0004 287.767 27.651V14.347H284.724V16.5118H284.554C284.085 15.5657 283.105 14.1765 280.795 14.1765C277.77 14.1765 275.392 16.5459 275.392 20.8498C275.392 25.1197 277.77 27.2504 280.787 27.2504C283.028 27.2504 284.077 26.0487 284.554 25.0856H284.707V27.5657C284.707 29.4919 283.429 30.2845 281.673 30.2845C279.815 30.2845 278.997 29.4066 278.622 28.6396L275.844 29.3129C276.406 31.1453 278.29 32.6197 281.622 32.6197ZM281.648 24.8299C279.611 24.8299 278.537 23.2447 278.537 20.8328C278.537 18.4549 279.594 16.7078 281.648 16.7078C283.634 16.7078 284.724 18.3527 284.724 20.8328C284.724 23.3299 283.616 24.8299 281.648 24.8299ZM296.724 27.6936C299.776 27.6936 301.872 26.2021 302.418 23.9265L299.537 23.6027C299.119 24.7106 298.097 25.2902 296.767 25.2902C294.773 25.2902 293.452 23.9777 293.426 21.7362H302.545V20.7902C302.545 16.1964 299.784 14.1765 296.562 14.1765C292.812 14.1765 290.366 16.9294 290.366 20.9691C290.366 25.0771 292.778 27.6936 296.724 27.6936ZM293.435 19.6566C293.528 17.9862 294.764 16.5799 296.605 16.5799C298.378 16.5799 299.571 17.8754 299.588 19.6566H293.435Z" fill="black"/>
</g>
<g clip-path="url(#clip1)">
<path d="M48.4015 295.477C48.4015 295.477 64.4719 288.911 72.5071 287.517C80.5423 286.124 88.5775 285.958 96.6128 287.113C104.648 288.269 112.683 291.282 120.718 294.452C128.754 297.622 136.789 302.417 144.824 306.133C152.859 309.849 160.894 314.207 168.93 316.748C176.965 319.289 185 321.19 193.035 321.378C201.071 321.567 209.106 320.131 217.141 317.881C225.176 315.63 233.211 311.522 241.247 307.874C249.282 304.227 257.317 299.349 265.352 295.994C273.387 292.639 281.423 289.252 289.458 287.743C297.493 286.235 305.528 285.906 313.563 286.943C321.599 287.98 329.634 290.862 337.669 293.964C345.704 297.066 353.74 301.824 361.775 305.554C369.81 309.284 377.845 313.715 385.88 316.345C393.916 318.976 401.951 321.027 409.986 321.339C418.021 321.652 426.056 320.373 434.092 318.223C442.127 316.073 450.162 319.624 458.197 308.439C466.232 297.255 474.268 278.24 482.303 251.114C490.338 223.988 498.373 154.469 506.409 145.683C514.444 136.897 522.479 173.764 530.514 198.398C538.549 223.032 546.585 275.724 554.62 293.487C562.655 311.249 570.69 301.233 578.725 304.973C586.761 308.713 594.796 313.211 602.831 315.929C610.866 318.647 618.901 320.844 626.937 321.281C634.972 321.718 643.007 320.596 651.042 318.549C659.078 316.502 667.113 312.582 675.148 308.999C683.183 305.417 691.218 300.513 699.254 297.055C707.289 293.596 715.324 289.98 723.359 288.248C731.394 286.515 739.43 285.862 747.465 286.658C755.5 287.453 763.535 290.066 771.57 293.021C779.606 295.977 787.641 300.644 795.676 304.391C803.711 308.137 811.746 312.698 819.782 315.5C827.817 318.302 835.852 320.644 843.887 321.204C851.923 321.764 859.958 320.801 867.993 318.86C876.028 316.918 884.063 313.098 892.099 309.554C900.134 306.01 908.169 301.101 916.204 297.596C924.24 294.092 932.275 290.368 940.31 288.526C948.345 286.684 956.38 285.87 964.416 286.543C972.451 287.217 980.486 301.401 988.521 292.567C996.556 283.734 1004.59 246.308 1012.63 233.542C1020.66 220.776 1028.7 213.042 1036.73 215.97C1044.77 218.899 1052.8 233.916 1060.84 251.114C1068.87 268.311 1076.91 310.953 1084.94 319.153C1092.98 327.354 1101.01 303.816 1109.05 300.315C1117.08 296.813 1125.12 300.061 1133.16 298.145C1141.19 296.229 1149.23 290.77 1157.26 288.821C1165.3 286.871 1173.33 285.897 1181.37 286.448C1189.4 286.999 1197.44 289.33 1205.47 292.126C1213.51 294.922 1221.54 299.478 1229.58 303.225C1237.61 306.971 1245.65 311.642 1253.68 314.603C1261.72 317.564 1269.75 320.187 1277.79 320.991C1285.82 321.796 1293.86 321.155 1301.89 319.43C1309.93 317.706 1326 310.643 1326 310.643V321.401C1326 321.401 1309.93 321.401 1301.89 321.401C1293.86 321.401 1285.82 321.401 1277.79 321.401C1269.75 321.401 1261.72 321.401 1253.68 321.401C1245.65 321.401 1237.61 321.401 1229.58 321.401C1221.54 321.401 1213.51 321.401 1205.47 321.401C1197.44 321.401 1189.4 321.401 1181.37 321.401C1173.33 321.401 1165.3 321.401 1157.26 321.401C1149.23 321.401 1141.19 321.401 1133.16 321.401C1125.12 321.401 1117.08 321.401 1109.05 321.401C1101.01 321.401 1092.98 321.401 1084.94 321.401C1076.91 321.401 1068.87 321.401 1060.84 321.401C1052.8 321.401 1044.77 321.401 1036.73 321.401C1028.7 321.401 1020.66 321.401 1012.63 321.401C1004.59 321.401 996.556 321.401 988.521 321.401C980.486 321.401 972.451 321.401 964.416 321.401C956.38 321.401 948.345 321.401 940.31 321.401C932.275 321.401 924.24 321.401 916.204 321.401C908.169 321.401 900.134 321.401 892.099 321.401C884.063 321.401 876.028 321.401 867.993 321.401C859.958 321.401 851.923 321.401 843.887 321.401C835.852 321.401 827.817 321.401 819.782 321.401C811.746 321.401 803.711 321.401 795.676 321.401C787.641 321.401 779.606 321.401 771.57 321.401C763.535 321.401 755.5 321.401 747.465 321.401C739.43 321.401 731.394 321.401 723.359 321.401C715.324 321.401 707.289 321.401 699.254 321.401C691.218 321.401 683.183 321.401 675.148 321.401C667.113 321.401 659.078 321.401 651.042 321.401C643.007 321.401 634.972 321.401 626.937 321.401C618.901 321.401 610.866 321.401 602.831 321.401C594.796 321.401 586.761 321.401 578.725 321.401C570.69 321.401 562.655 321.401 554.62 321.401C546.585 321.401 538.549 321.401 530.514 321.401C522.479 321.401 514.444 321.401 506.409 321.401C498.373 321.401 490.338 321.401 482.303 321.401C474.268 321.401 466.232 321.401 458.197 321.401C450.162 321.401 442.127 321.401 434.092 321.401C426.056 321.401 418.021 321.401 409.986 321.401C401.951 321.401 393.916 321.401 385.88 321.401C377.845 321.401 369.81 321.401 361.775 321.401C353.74 321.401 345.704 321.401 337.669 321.401C329.634 321.401 321.599 321.401 313.563 321.401C305.528 321.401 297.493 321.401 289.458 321.401C281.423 321.401 273.387 321.401 265.352 321.401C257.317 321.401 249.282 321.401 241.247 321.401C233.211 321.401 225.176 321.401 217.141 321.401C209.106 321.401 201.071 321.401 193.035 321.401C185 321.401 176.965 321.401 168.93 321.401C160.894 321.401 152.859 321.401 144.824 321.401C136.789 321.401 128.754 321.401 120.718 321.401C112.683 321.401 104.648 321.401 96.6128 321.401C88.5775 321.401 80.5423 321.401 72.5071 321.401C64.4719 321.401 48.4015 321.401 48.4015 321.401V295.477Z" fill="url(#paint0_linear)"/>
<path d="M48.4015 275.83C48.4015 275.83 64.4719 288.361 72.5071 286.324C80.5423 284.288 88.5775 266.757 96.6128 263.612C104.648 260.467 112.683 260.712 120.718 267.456C128.754 274.2 136.789 301.636 144.824 304.077C152.859 306.518 160.894 282.514 168.93 282.104C176.965 281.694 185 301.284 193.035 301.616C201.071 301.949 209.106 306.445 217.141 284.097C225.176 261.748 233.211 168.677 241.247 167.527C249.282 166.377 257.317 260.348 265.352 277.195C273.387 294.043 281.423 272.736 289.458 268.613C297.493 264.489 305.528 248.789 313.563 252.453C321.599 256.117 329.634 287 337.669 290.598C345.704 294.195 353.74 271.279 361.775 274.038C369.81 276.796 377.845 303.19 385.88 307.15C393.916 311.11 401.951 296.851 409.986 297.798C418.021 298.745 426.056 313.394 434.092 312.832C442.127 312.27 450.162 305.131 458.197 294.426C466.232 283.722 474.268 278.695 482.303 248.604C490.338 218.514 498.373 126.738 506.409 113.886C514.444 101.033 522.479 147.334 530.514 171.489C538.549 195.644 546.585 237.477 554.62 258.815C562.655 280.153 570.69 292.116 578.725 299.517C586.761 306.918 594.796 304.356 602.831 303.219C610.866 302.083 618.901 291.612 626.937 292.695C634.972 293.778 643.007 312.827 651.042 309.717C659.078 306.607 667.113 279.992 675.148 274.037C683.183 268.082 691.218 277.46 699.254 273.989C707.289 270.517 715.324 262.785 723.359 253.208C731.394 243.631 739.43 239.128 747.465 216.527C755.5 193.926 763.535 111.726 771.57 117.602C779.606 123.478 787.641 224.143 795.676 251.781C803.711 279.419 811.746 277.42 819.782 283.432C827.817 289.444 835.852 287.644 843.887 287.854C851.923 288.063 859.958 283.994 867.993 284.69C876.028 285.386 884.063 291.708 892.099 292.03C900.134 292.352 908.169 295.968 916.204 286.62C924.24 277.271 932.275 237.59 940.31 235.939C948.345 234.288 956.38 272.135 964.416 276.712C972.451 281.29 980.486 272.135 988.521 263.406C996.556 254.676 1004.59 235.268 1012.63 224.335C1020.66 213.402 1028.7 193.76 1036.73 197.805C1044.77 201.85 1052.8 231.951 1060.84 248.604C1068.87 265.258 1076.91 293.727 1084.94 297.729C1092.98 301.731 1101.01 276.607 1109.05 272.616C1117.08 268.626 1125.12 273.831 1133.16 273.785C1141.19 273.739 1149.23 270.692 1157.26 272.339C1165.3 273.985 1173.33 282.999 1181.37 283.664C1189.4 284.328 1197.44 276.66 1205.47 276.327C1213.51 275.995 1221.54 280.651 1229.58 281.669C1237.61 282.688 1245.65 280.927 1253.68 282.437C1261.72 283.947 1269.75 287.487 1277.79 290.729C1285.82 293.972 1293.86 300.617 1301.89 301.892C1309.93 303.168 1326 298.382 1326 298.382V310.664C1326 310.664 1309.93 317.717 1301.89 319.439C1293.86 321.161 1285.82 321.801 1277.79 320.998C1269.75 320.194 1261.72 317.575 1253.68 314.619C1245.65 311.662 1237.61 306.997 1229.58 303.256C1221.54 299.516 1213.51 294.966 1205.47 292.174C1197.44 289.382 1189.4 287.054 1181.37 286.504C1173.33 285.954 1165.3 286.926 1157.26 288.873C1149.23 290.82 1141.19 296.271 1133.16 298.184C1125.12 300.097 1117.08 296.854 1109.05 300.351C1101.01 303.847 1092.98 327.351 1084.94 319.162C1076.91 310.974 1068.87 268.393 1060.84 251.22C1052.8 234.048 1044.77 219.052 1036.73 216.127C1028.7 213.203 1020.66 220.926 1012.63 233.674C1004.59 246.422 996.556 283.793 988.521 292.614C980.486 301.435 972.451 287.272 964.416 286.599C956.38 285.926 948.345 286.739 940.31 288.579C932.275 290.418 924.24 294.137 916.204 297.636C908.169 301.136 900.134 306.038 892.099 309.577C884.063 313.115 876.028 316.93 867.993 318.869C859.958 320.808 851.923 321.769 843.887 321.21C835.852 320.65 827.817 318.312 819.782 315.514C811.746 312.716 803.711 308.162 795.676 304.421C787.641 300.68 779.606 296.019 771.57 293.067C763.535 290.116 755.5 287.508 747.465 286.713C739.43 285.919 731.394 286.571 723.359 288.301C715.324 290.031 707.289 293.642 699.254 297.095C691.218 300.549 683.183 305.446 675.148 309.023C667.113 312.6 659.078 316.515 651.042 318.559C643.007 320.603 634.972 321.723 626.937 321.287C618.901 320.851 610.866 318.657 602.831 315.943C594.796 313.229 586.761 308.737 578.725 305.002C570.69 301.267 562.655 311.269 554.62 293.532C546.585 275.796 538.549 223.179 530.514 198.581C522.479 173.982 514.444 137.168 506.409 145.941C498.373 154.714 490.338 224.133 482.303 251.22C474.268 278.307 466.232 297.295 458.197 308.464C450.162 319.633 442.127 316.086 434.092 318.233C426.056 320.38 418.021 321.658 409.986 321.345C401.951 321.033 393.916 318.986 385.88 316.358C377.845 313.731 369.81 309.307 361.775 305.583C353.74 301.858 345.704 297.106 337.669 294.009C329.634 290.911 321.599 288.033 313.563 286.998C305.528 285.963 297.493 286.291 289.458 287.797C281.423 289.304 273.387 292.686 265.352 296.036C257.317 299.387 249.282 304.257 241.247 307.899C233.211 311.542 225.176 315.644 217.141 317.891C209.106 320.139 201.071 321.573 193.035 321.384C185 321.196 176.965 319.297 168.93 316.76C160.894 314.223 152.859 309.872 144.824 306.161C136.789 302.45 128.754 297.661 120.718 294.496C112.683 291.331 104.648 288.322 96.6128 287.168C88.5775 286.014 80.5423 286.18 72.5071 287.572C64.4719 288.964 48.4015 295.52 48.4015 295.52V275.83Z" fill="url(#paint1_linear)"/>
<path d="M48.4015 272.466C48.4015 272.466 64.4719 263.003 72.5071 256.56C80.5423 250.117 88.5775 234.315 96.6128 233.808C104.648 233.301 112.683 242.789 120.718 253.516C128.754 264.243 136.789 297.381 144.824 298.17C152.859 298.959 160.894 259.275 168.93 258.249C176.965 257.223 185 288.138 193.035 292.013C201.071 295.888 209.106 307.568 217.141 281.501C225.176 255.435 233.211 140.703 241.247 135.615C249.282 130.526 257.317 233.304 265.352 250.97C273.387 268.636 281.423 258.701 289.458 241.61C297.493 224.519 305.528 169.269 313.563 148.427C321.599 127.584 329.634 136.247 337.669 116.554C345.704 96.8599 353.74 10.0652 361.775 30.2636C369.81 50.462 377.845 198.246 385.88 237.744C393.916 277.242 401.951 255.854 409.986 267.249C418.021 278.644 426.056 302.086 434.092 306.113C442.127 310.141 450.162 305.875 458.197 291.414C466.232 276.954 474.268 252.941 482.303 219.35C490.338 185.759 498.373 99.2771 506.409 89.8676C514.444 80.4582 522.479 137.709 530.514 162.893C538.549 188.078 546.585 220.588 554.62 240.973C562.655 261.357 570.69 276.927 578.725 285.2C586.761 293.474 594.796 291.019 602.831 290.615C610.866 290.211 618.901 282.8 626.937 282.775C634.972 282.749 643.007 292.984 651.042 290.462C659.078 287.939 667.113 272.448 675.148 267.641C683.183 262.834 691.218 265.075 699.254 261.622C707.289 258.168 715.324 255.162 723.359 246.921C731.394 238.681 739.43 238.812 747.465 212.179C755.5 185.546 763.535 82.7332 771.57 87.1234C779.606 91.5137 787.641 210.332 795.676 238.52C803.711 266.709 811.746 253.765 819.782 256.256C827.817 258.748 835.852 251.591 843.887 253.468C851.923 255.346 859.958 263.339 867.993 267.521C876.028 271.702 884.063 278.055 892.099 278.558C900.134 279.061 908.169 279.547 916.204 270.538C924.24 261.53 932.275 227.455 940.31 224.507C948.345 221.559 956.38 281.167 964.416 252.848C972.451 224.53 980.486 62.649 988.521 54.5959C996.556 46.5429 1004.59 181.661 1012.63 204.53C1020.66 227.399 1028.7 189.34 1036.73 191.81C1044.77 194.28 1052.8 205.58 1060.84 219.35C1068.87 233.119 1076.91 270.778 1084.94 274.427C1092.98 278.076 1101.01 246.298 1109.05 241.245C1117.08 236.192 1125.12 241.688 1133.16 244.111C1141.19 246.533 1149.23 250.665 1157.26 255.779C1165.3 260.893 1173.33 276.262 1181.37 274.793C1189.4 273.325 1197.44 247.232 1205.47 246.967C1213.51 246.702 1221.54 272.813 1229.58 273.204C1237.61 273.595 1245.65 250.035 1253.68 249.311C1261.72 248.587 1269.75 261.457 1277.79 268.858C1285.82 276.259 1293.86 293.879 1301.89 293.715C1309.93 293.552 1326 267.877 1326 267.877V298.839C1326 298.839 1309.93 303.6 1301.89 302.331C1293.86 301.063 1285.82 294.453 1277.79 291.227C1269.75 288.002 1261.72 284.481 1253.68 282.979C1245.65 281.477 1237.61 283.228 1229.58 282.215C1221.54 281.202 1213.51 276.57 1205.47 276.901C1197.44 277.232 1189.4 284.86 1181.37 284.199C1173.33 283.537 1165.3 274.571 1157.26 272.934C1149.23 271.296 1141.19 274.326 1133.16 274.372C1125.12 274.418 1117.08 269.24 1109.05 273.21C1101.01 277.179 1092.98 302.171 1084.94 298.19C1076.91 294.209 1068.87 265.89 1060.84 249.324C1052.8 232.758 1044.77 202.816 1036.73 198.792C1028.7 194.768 1020.66 214.306 1012.63 225.182C1004.59 236.058 996.556 255.364 988.521 264.047C980.486 272.731 972.451 281.838 964.416 277.284C956.38 272.73 948.345 235.082 940.31 236.725C932.275 238.368 924.24 277.84 916.204 287.14C908.169 296.439 900.134 292.841 892.099 292.521C884.063 292.201 876.028 285.912 867.993 285.219C859.958 284.527 851.923 288.575 843.887 288.367C835.852 288.158 827.817 289.949 819.782 283.968C811.746 277.988 803.711 279.977 795.676 252.484C787.641 224.991 779.606 124.855 771.57 119.01C763.535 113.166 755.5 194.933 747.465 217.415C739.43 239.897 731.394 244.376 723.359 253.903C715.324 263.43 707.289 271.122 699.254 274.575C691.218 278.028 683.183 268.699 675.148 274.623C667.113 280.546 659.078 307.022 651.042 310.115C643.007 313.209 634.972 294.26 626.937 293.183C618.901 292.106 610.866 302.521 602.831 303.652C594.796 304.783 586.761 307.331 578.725 299.969C570.69 292.607 562.655 280.706 554.62 259.481C546.585 238.255 538.549 196.642 530.514 172.614C522.479 148.586 514.444 102.528 506.409 115.313C498.373 128.098 490.338 219.392 482.303 249.324C474.268 279.256 466.232 284.257 458.197 294.905C450.162 305.553 442.127 312.655 434.092 313.214C426.056 313.773 418.021 299.201 409.986 298.259C401.951 297.317 393.916 311.5 385.88 307.561C377.845 303.622 369.81 277.368 361.775 274.624C353.74 271.879 345.704 294.675 337.669 291.097C329.634 287.518 321.599 256.797 313.563 253.152C305.528 249.507 297.493 265.125 289.458 269.227C281.423 273.329 273.387 294.523 265.352 277.764C257.317 261.005 249.282 167.529 241.247 168.673C233.211 169.817 225.176 262.399 217.141 284.63C209.106 306.86 201.071 302.388 193.035 302.057C185 301.727 176.965 282.239 168.93 282.647C160.894 283.055 152.859 306.933 144.824 304.505C136.789 302.076 128.754 274.785 120.718 268.076C112.683 261.368 104.648 261.124 96.6128 264.253C88.5775 267.381 80.5423 284.82 72.5071 286.845C64.4719 288.871 48.4015 276.407 48.4015 276.407V272.466Z" fill="url(#paint2_linear)"/>
<path d="M48.4015 264.946C48.4015 264.946 64.4719 256.125 72.5071 250.973C80.5423 245.82 88.5775 239.34 96.6128 234.032C104.648 228.725 112.683 208.44 120.718 219.128C128.754 229.816 136.789 297.413 144.824 298.161C152.859 298.909 160.894 229.948 168.93 223.614C176.965 217.279 185 251.049 193.035 260.155C201.071 269.261 209.106 304.143 217.141 278.251C225.176 252.359 233.211 113.418 241.247 104.801C249.282 96.1845 257.317 209.261 265.352 226.55C273.387 243.838 281.423 224.539 289.458 208.534C297.493 192.528 305.528 151.105 313.563 130.517C321.599 109.929 329.634 101.944 337.669 85.0049C345.704 68.0661 353.74 3.81719 361.775 28.884C369.81 53.9508 377.845 201.414 385.88 235.406C393.916 269.397 401.951 224.379 409.986 232.834C418.021 241.288 426.056 281.893 434.092 286.134C442.127 290.374 450.162 274.806 458.197 258.278C466.232 241.75 474.268 220.664 482.303 186.966C490.338 153.267 498.373 60.7598 506.409 56.084C514.444 51.4081 522.479 128.917 530.514 158.911C538.549 188.904 546.585 218.475 554.62 236.044C562.655 253.613 570.69 256.211 578.725 264.324C586.761 272.437 594.796 284.684 602.831 284.724C610.866 284.764 618.901 265.088 626.937 264.562C634.972 264.036 643.007 286.088 651.042 281.569C659.078 277.049 667.113 241.018 675.148 237.444C683.183 233.871 691.218 263.579 699.254 260.128C707.289 256.676 715.324 224.715 723.359 216.735C731.394 208.754 739.43 238.03 747.465 212.245C755.5 186.461 763.535 58.1857 771.57 62.0271C779.606 65.8684 787.641 208.674 795.676 235.293C803.711 261.912 811.746 220.123 819.782 221.741C827.817 223.359 835.852 260.59 843.887 245C851.923 229.411 859.958 124.314 867.993 128.203C876.028 132.092 884.063 249.687 892.099 268.333C900.134 286.978 908.169 252.492 916.204 240.074C924.24 227.657 932.275 197.416 940.31 193.829C948.345 190.243 956.38 244.354 964.416 218.557C972.451 192.759 980.486 41.7071 988.521 39.0433C996.556 36.3794 1004.59 182.139 1012.63 202.574C1020.66 223.008 1028.7 164.252 1036.73 161.651C1044.77 159.049 1052.8 168.508 1060.84 186.966C1068.87 205.423 1076.91 268.528 1084.94 272.397C1092.98 276.266 1101.01 243.927 1109.05 210.18C1117.08 176.433 1125.12 97.1625 1133.16 69.9133C1141.19 42.6641 1149.23 14.0671 1157.26 46.6847C1165.3 79.3024 1173.33 237.896 1181.37 265.619C1189.4 293.342 1197.44 217.47 1205.47 213.023C1213.51 208.577 1221.54 234.013 1229.58 238.941C1237.61 243.869 1245.65 242.222 1253.68 242.59C1261.72 242.957 1269.75 233.211 1277.79 241.145C1285.82 249.079 1293.86 291.493 1301.89 290.193C1309.93 288.892 1326 233.341 1326 233.341V268.125C1326 268.125 1309.93 293.787 1301.89 293.95C1293.86 294.114 1285.82 276.503 1277.79 269.105C1269.75 261.708 1261.72 248.844 1253.68 249.568C1245.65 250.292 1237.61 273.839 1229.58 273.449C1221.54 273.059 1213.51 246.961 1205.47 247.225C1197.44 247.49 1189.4 273.57 1181.37 275.038C1173.33 276.506 1165.3 261.144 1157.26 256.033C1149.23 250.921 1141.19 246.791 1133.16 244.37C1125.12 241.949 1117.08 236.456 1109.05 241.506C1101.01 246.556 1092.98 278.319 1084.94 274.672C1076.91 271.024 1068.87 233.384 1060.84 219.622C1052.8 205.859 1044.77 194.564 1036.73 192.095C1028.7 189.627 1020.66 227.667 1012.63 204.809C1004.59 181.951 996.556 46.8998 988.521 54.9488C980.486 62.9979 972.451 224.799 964.416 253.103C956.38 281.408 948.345 221.829 940.31 224.776C932.275 227.723 924.24 261.781 916.204 270.785C908.169 279.789 900.134 279.303 892.099 278.8C884.063 278.297 876.028 271.948 867.993 267.769C859.958 263.589 851.923 255.599 843.887 253.723C835.852 251.847 827.817 259 819.782 256.51C811.746 254.02 803.711 266.957 795.676 238.783C787.641 210.608 779.606 91.8484 771.57 87.4603C763.535 83.0722 755.5 185.834 747.465 212.454C739.43 239.074 731.394 238.943 723.359 247.179C715.324 255.416 707.289 258.421 699.254 261.872C691.218 265.324 683.183 263.085 675.148 267.889C667.113 272.693 659.078 288.177 651.042 290.698C643.007 293.219 634.972 282.989 626.937 283.015C618.901 283.04 610.866 290.447 602.831 290.851C594.796 291.255 586.761 293.709 578.725 285.44C570.69 277.17 562.655 261.608 554.62 241.234C546.585 220.859 538.549 188.365 530.514 163.193C522.479 138.021 514.444 80.7984 506.409 90.2032C498.373 99.608 490.338 186.047 482.303 219.622C474.268 253.196 466.232 277.197 458.197 291.65C450.162 306.104 442.127 310.368 434.092 306.342C426.056 302.317 418.021 278.886 409.986 267.497C401.951 256.108 393.916 277.485 385.88 238.007C377.845 198.529 369.81 50.817 361.775 30.6286C353.74 10.4401 345.704 97.192 337.669 116.876C329.634 136.56 321.599 127.901 313.563 148.733C305.528 169.566 297.493 224.789 289.458 241.871C281.423 258.953 273.387 268.883 265.352 251.226C257.317 233.569 249.282 130.842 241.247 135.928C233.211 141.014 225.176 255.689 217.141 281.742C209.106 307.796 201.071 296.122 193.035 292.249C185 288.375 176.965 257.476 168.93 258.502C160.894 259.527 152.859 299.191 144.824 298.403C136.789 297.614 128.754 264.492 120.718 253.77C112.683 243.049 104.648 233.565 96.6128 234.072C88.5775 234.579 80.5423 250.373 72.5071 256.813C64.4719 263.253 48.4015 272.711 48.4015 272.711V264.946Z" fill="url(#paint3_linear)"/>
</g>
<defs>
<linearGradient id="paint0_linear" x1="687.201" y1="144.358" x2="687.201" y2="321.401" gradientUnits="userSpaceOnUse">
<stop stop-color="#D0EFD2"/>
<stop offset="1" stop-color="#A2E0A5"/>
</linearGradient>
<linearGradient id="paint1_linear" x1="687.201" y1="111.673" x2="687.201" y2="321.401" gradientUnits="userSpaceOnUse">
<stop stop-color="#D0EBEF"/>
<stop offset="1" stop-color="#A2D9E0"/>
</linearGradient>
<linearGradient id="paint2_linear" x1="687.201" y1="27.2374" x2="687.201" y2="313.23" gradientUnits="userSpaceOnUse">
<stop stop-color="#D4D0EF"/>
<stop offset="1" stop-color="#ABA2E0"/>
</linearGradient>
<linearGradient id="paint3_linear" x1="687.201" y1="23.1518" x2="687.201" y2="307.782" gradientUnits="userSpaceOnUse">
<stop stop-color="#EED0EF"/>
<stop offset="1" stop-color="#E0A2DE"/>
</linearGradient>
<clipPath id="clip0">
<rect width="1326" height="341.829" fill="white" transform="translate(0 8.1712)"/>
</clipPath>
<clipPath id="clip1">
<rect width="1277.6" height="321.401" fill="white" transform="translate(48.4015)"/>
</clipPath>
</defs>
</svg>
