<svg width="1324" height="536" viewBox="0 0 1324 536" fill="none" xmlns="http://www.w3.org/2000/svg">
<g clip-path="url(#clip0)">
<path d="M6.3333 41.6509H5.10034L2.55489 43.3412V44.594L5.04068 42.9435H5.10034V51.8327H6.3333V41.6509ZM12.6422 51.9719C14.7005 51.9967 16.0428 50.4456 16.0428 48.5514C16.0428 46.5827 14.5861 45.1707 12.8411 45.1707C11.7921 45.1707 10.8922 45.6828 10.3354 46.523H10.2559C10.2609 44.0422 11.2253 42.6054 12.8013 42.6054C13.8752 42.6054 14.5215 43.2815 14.7502 44.1963H15.9633C15.7147 42.6153 14.5116 41.5116 12.8013 41.5116C10.5094 41.5116 9.10247 43.5401 9.10247 47.1395C9.10247 50.903 10.9718 51.952 12.6422 51.9719ZM12.6422 50.8781C11.3645 50.8781 10.4299 49.7893 10.4349 48.5713C10.4398 47.3533 11.4192 46.2645 12.682 46.2645C13.9299 46.2645 14.8496 47.2886 14.8496 48.5514C14.8496 49.844 13.8901 50.8781 12.6422 50.8781Z" fill="black"/>
<path d="M6.59311 87.4676H5.36015L2.8147 89.1579V90.4108L5.30049 88.7602H5.36015V97.6494H6.59311V87.4676ZM9.52137 97.6494H15.9447V96.5557H11.2117V96.4761L13.4986 94.0301C15.2486 92.1558 15.7657 91.2808 15.7657 90.1523C15.7657 88.5812 14.493 87.3284 12.7032 87.3284C10.9184 87.3284 9.56115 88.5415 9.56115 90.3312H10.7344C10.7344 89.1729 11.4852 88.4023 12.6634 88.4023C13.7671 88.4023 14.6123 89.0784 14.6123 90.1523C14.6123 91.0919 14.0604 91.7879 12.8822 93.0756L9.52137 96.7545V97.6494Z" fill="black"/>
<path d="M12.6324 142.609C14.6657 142.609 16.0826 141.421 16.0926 139.766C16.0826 138.478 15.2225 137.384 14.1238 137.18V137.121C15.0784 136.872 15.7048 135.937 15.7147 134.854C15.7048 133.303 14.4022 132.149 12.6324 132.149C10.8426 132.149 9.54002 133.303 9.54996 134.854C9.54002 135.937 10.1664 136.872 11.1409 137.121V137.18C10.0223 137.384 9.16218 138.478 9.17212 139.766C9.16218 141.421 10.5791 142.609 12.6324 142.609ZM12.6324 141.516C11.2353 141.516 10.3752 140.8 10.3852 139.706C10.3752 138.557 11.3248 137.737 12.6324 137.737C13.92 137.737 14.8696 138.557 14.8795 139.706C14.8696 140.8 14.0095 141.516 12.6324 141.516ZM12.6324 136.683C11.5187 136.683 10.7332 135.987 10.7431 134.933C10.7332 133.899 11.4889 133.223 12.6324 133.223C13.7559 133.223 14.5116 133.899 14.5216 134.933C14.5116 135.987 13.7261 136.683 12.6324 136.683Z" fill="black"/>
<path d="M8.77688 186.199H13.5695V188.287H14.7428V186.199H16.1348V185.105H14.7428V178.105H13.2513L8.77688 185.185V186.199ZM13.5695 185.105H10.1093V185.025L13.49 179.676H13.5695V185.105Z" fill="black"/>
<path d="M12.569 234.243C14.8161 234.243 16.1087 232.339 16.1087 229.013C16.1087 225.712 14.7962 223.783 12.569 223.783C10.3417 223.783 9.02919 225.712 9.02919 229.013C9.02919 232.339 10.3218 234.243 12.569 234.243ZM12.569 233.149C11.0874 233.149 10.2224 231.663 10.2224 229.013C10.2224 226.368 11.0974 224.856 12.569 224.856C14.0406 224.856 14.9156 226.368 14.9156 229.013C14.9156 231.663 14.0505 233.149 12.569 233.149Z" fill="black"/>
<line x1="23.7216" y1="47.3088" x2="645" y2="47.3088" stroke="black" stroke-opacity="0.08"/>
<line x1="23.7216" y1="92.1295" x2="645" y2="92.1295" stroke="black" stroke-opacity="0.08"/>
<line x1="23.7216" y1="137.946" x2="645" y2="137.946" stroke="black" stroke-opacity="0.08"/>
<line x1="23.7216" y1="183.763" x2="645" y2="183.763" stroke="black" stroke-opacity="0.08"/>
<line x1="23.7216" y1="229.58" x2="645" y2="229.58" stroke="black" stroke-opacity="0.08"/>
<path d="M117.522 239.818H116.289L113.744 241.509V242.761L116.23 241.111H116.289V250H117.522V239.818ZM123.771 250.139C126.019 250.139 127.311 248.235 127.311 244.909C127.311 241.608 125.999 239.679 123.771 239.679C121.544 239.679 120.232 241.608 120.232 244.909C120.232 248.235 121.524 250.139 123.771 250.139ZM123.771 249.045C122.29 249.045 121.425 247.559 121.425 244.909C121.425 242.264 122.3 240.753 123.771 240.753C125.243 240.753 126.118 242.264 126.118 244.909C126.118 247.559 125.253 249.045 123.771 249.045ZM133.735 250L134.759 247.116H138.875L139.899 250H141.192L137.453 239.818H136.181L132.442 250H133.735ZM135.146 246.023L136.777 241.429H136.857L138.487 246.023H135.146ZM142.778 239.818V250H143.931V242.264H144.031L147.213 250H148.326L151.508 242.264H151.607V250H152.761V239.818H151.289L147.829 248.27H147.71L144.249 239.818H142.778Z" fill="black"/>
<path d="M249.37 239.818H248.137L245.591 241.509V242.761L248.077 241.111H248.137V250H249.37V239.818ZM252.298 250H258.721V248.906H253.988V248.827L256.275 246.381C258.025 244.506 258.542 243.631 258.542 242.503C258.542 240.932 257.27 239.679 255.48 239.679C253.695 239.679 252.338 240.892 252.338 242.682H253.511C253.511 241.523 254.262 240.753 255.44 240.753C256.544 240.753 257.389 241.429 257.389 242.503C257.389 243.442 256.837 244.138 255.659 245.426L252.298 249.105V250ZM264.891 250H266.124V246.281H268.351C270.723 246.281 271.792 244.839 271.792 243.04C271.792 241.24 270.723 239.818 268.331 239.818H264.891V250ZM266.124 245.188V240.912H268.292C269.947 240.912 270.579 241.817 270.579 243.04C270.579 244.263 269.947 245.188 268.312 245.188H266.124ZM273.778 239.818V250H274.931V242.264H275.031L278.213 250H279.326L282.508 242.264H282.607V250H283.761V239.818H282.289L278.829 248.27H278.71L275.249 239.818H273.778Z" fill="black"/>
<path d="M376.298 250H382.721V248.906H377.988V248.827L380.275 246.381C382.025 244.506 382.542 243.631 382.542 242.503C382.542 240.932 381.27 239.679 379.48 239.679C377.695 239.679 376.338 240.892 376.338 242.682H377.511C377.511 241.523 378.262 240.753 379.44 240.753C380.544 240.753 381.389 241.429 381.389 242.503C381.389 243.442 380.837 244.138 379.659 245.426L376.298 249.105V250ZM388.891 250H390.124V246.281H392.351C394.723 246.281 395.792 244.839 395.792 243.04C395.792 241.24 394.723 239.818 392.331 239.818H388.891V250ZM390.124 245.188V240.912H392.292C393.947 240.912 394.579 241.817 394.579 243.04C394.579 244.263 393.947 245.188 392.312 245.188H390.124ZM397.778 239.818V250H398.931V242.264H399.031L402.213 250H403.326L406.508 242.264H406.607V250H407.761V239.818H406.289L402.829 248.27H402.71L399.249 239.818H397.778Z" fill="black"/>
<path d="M500.554 247.912H505.346V250H506.52V247.912H507.912V246.818H506.52V239.818H505.028L500.554 246.898V247.912ZM505.346 246.818H501.886V246.739L505.267 241.389H505.346V246.818ZM513.891 250H515.124V246.281H517.351C519.723 246.281 520.792 244.839 520.792 243.04C520.792 241.24 519.723 239.818 517.331 239.818H513.891V250ZM515.124 245.188V240.912H517.292C518.947 240.912 519.579 241.817 519.579 243.04C519.579 244.263 518.947 245.188 517.312 245.188H515.124ZM522.778 239.818V250H523.931V242.264H524.031L527.213 250H528.326L531.508 242.264H531.607V250H532.761V239.818H531.289L527.829 248.27H527.71L524.249 239.818H522.778Z" fill="black"/>
<path d="M23.7216 211.728C23.7216 211.728 31.5364 207.333 35.4438 206.4C39.3512 205.466 43.2586 205.355 47.166 206.129C51.0734 206.903 54.9809 208.92 58.8883 211.042C62.7957 213.164 66.7031 216.375 70.6105 218.863C74.5179 221.35 78.4253 224.268 82.3327 225.969C86.2402 227.67 90.1476 228.942 94.055 229.069C97.9624 229.195 101.87 228.234 105.777 226.727C109.685 225.22 113.592 222.47 117.499 220.028C121.407 217.586 125.314 214.321 129.222 212.075C133.129 209.828 137.036 207.561 140.944 206.551C144.851 205.541 148.759 205.321 152.666 206.015C156.574 206.709 160.481 208.639 164.388 210.715C168.296 212.792 172.203 215.977 176.111 218.475C180.018 220.972 183.925 223.938 187.833 225.699C191.74 227.461 195.648 228.833 199.555 229.043C203.462 229.252 207.37 228.396 211.277 226.956C215.185 225.517 219.092 227.894 223 220.406C226.907 212.918 230.814 200.188 234.722 182.028C238.629 163.868 242.537 117.327 246.444 111.445C250.351 105.563 254.259 130.245 258.166 146.737C262.074 163.228 265.981 198.504 269.888 210.396C273.796 222.287 277.703 215.582 281.611 218.086C285.518 220.59 289.426 223.601 293.333 225.421C297.24 227.24 301.148 228.711 305.055 229.004C308.963 229.296 312.87 228.545 316.777 227.175C320.685 225.804 324.592 223.18 328.5 220.781C332.407 218.383 336.314 215.1 340.222 212.785C344.129 210.469 348.037 208.049 351.944 206.888C355.852 205.728 359.759 205.291 363.666 205.824C367.574 206.357 371.481 208.105 375.389 210.084C379.296 212.063 383.203 215.188 387.111 217.696C391.018 220.204 394.926 223.257 398.833 225.133C402.74 227.009 406.648 228.577 410.555 228.952C414.463 229.327 418.37 228.682 422.278 227.382C426.185 226.083 430.092 223.525 434 221.152C437.907 218.78 441.815 215.493 445.722 213.147C449.629 210.801 453.537 208.308 457.444 207.075C461.352 205.841 465.259 205.296 469.166 205.747C473.074 206.198 476.981 215.694 480.889 209.78C484.796 203.867 488.704 178.811 492.611 170.264C496.518 161.718 500.426 156.54 504.333 158.5C508.241 160.461 512.148 170.515 516.055 182.028C519.963 193.541 523.87 222.089 527.778 227.579C531.685 233.069 535.592 217.311 539.5 214.967C543.407 212.623 547.315 214.797 551.222 213.514C555.13 212.232 559.037 208.577 562.944 207.272C566.852 205.967 570.759 205.315 574.667 205.684C578.574 206.052 582.481 207.613 586.389 209.485C590.296 211.357 594.204 214.407 598.111 216.915C602.018 219.423 605.926 222.55 609.833 224.533C613.741 226.515 617.648 228.271 621.556 228.81C625.463 229.348 629.37 228.919 633.278 227.764C637.185 226.61 645 221.882 645 221.882V229.084C645 229.084 637.185 229.084 633.278 229.084C629.37 229.084 625.463 229.084 621.556 229.084C617.648 229.084 613.741 229.084 609.833 229.084C605.926 229.084 602.018 229.084 598.111 229.084C594.204 229.084 590.296 229.084 586.389 229.084C582.481 229.084 578.574 229.084 574.667 229.084C570.759 229.084 566.852 229.084 562.944 229.084C559.037 229.084 555.13 229.084 551.222 229.084C547.315 229.084 543.407 229.084 539.5 229.084C535.592 229.084 531.685 229.084 527.778 229.084C523.87 229.084 519.963 229.084 516.055 229.084C512.148 229.084 508.241 229.084 504.333 229.084C500.426 229.084 496.518 229.084 492.611 229.084C488.704 229.084 484.796 229.084 480.889 229.084C476.981 229.084 473.074 229.084 469.166 229.084C465.259 229.084 461.352 229.084 457.444 229.084C453.537 229.084 449.629 229.084 445.722 229.084C441.815 229.084 437.907 229.084 434 229.084C430.092 229.084 426.185 229.084 422.278 229.084C418.37 229.084 414.463 229.084 410.555 229.084C406.648 229.084 402.74 229.084 398.833 229.084C394.926 229.084 391.018 229.084 387.111 229.084C383.203 229.084 379.296 229.084 375.389 229.084C371.481 229.084 367.574 229.084 363.666 229.084C359.759 229.084 355.852 229.084 351.944 229.084C348.037 229.084 344.129 229.084 340.222 229.084C336.314 229.084 332.407 229.084 328.5 229.084C324.592 229.084 320.685 229.084 316.777 229.084C312.87 229.084 308.963 229.084 305.055 229.084C301.148 229.084 297.24 229.084 293.333 229.084C289.426 229.084 285.518 229.084 281.611 229.084C277.703 229.084 273.796 229.084 269.888 229.084C265.981 229.084 262.074 229.084 258.166 229.084C254.259 229.084 250.351 229.084 246.444 229.084C242.537 229.084 238.629 229.084 234.722 229.084C230.814 229.084 226.907 229.084 223 229.084C219.092 229.084 215.185 229.084 211.277 229.084C207.37 229.084 203.462 229.084 199.555 229.084C195.648 229.084 191.74 229.084 187.833 229.084C183.925 229.084 180.018 229.084 176.111 229.084C172.203 229.084 168.296 229.084 164.388 229.084C160.481 229.084 156.574 229.084 152.666 229.084C148.759 229.084 144.851 229.084 140.944 229.084C137.036 229.084 133.129 229.084 129.222 229.084C125.314 229.084 121.407 229.084 117.499 229.084C113.592 229.084 109.685 229.084 105.777 229.084C101.87 229.084 97.9624 229.084 94.055 229.084C90.1476 229.084 86.2402 229.084 82.3327 229.084C78.4253 229.084 74.5179 229.084 70.6105 229.084C66.7031 229.084 62.7957 229.084 58.8883 229.084C54.9809 229.084 51.0734 229.084 47.166 229.084C43.2586 229.084 39.3512 229.084 35.4438 229.084C31.5364 229.084 23.7216 229.084 23.7216 229.084V211.728Z" fill="url(#paint0_linear)"/>
<path d="M23.8831 14H29.1821C32.18 14 33.6502 12.4723 33.6502 10.4332C33.6502 8.4517 32.2439 7.28835 30.8504 7.21804V7.0902C32.1289 6.78977 33.1388 5.89489 33.1388 4.30327C33.1388 2.35369 31.7325 0.909091 28.8945 0.909091H23.8831V14ZM26.2546 12.0185V8.18324H28.8689C30.3327 8.18324 31.2404 9.07812 31.2404 10.2479C31.2404 11.2898 30.5244 12.0185 28.805 12.0185H26.2546ZM26.2546 6.47656V2.86506H28.6516C30.045 2.86506 30.7673 3.60014 30.7673 4.61009C30.7673 5.76065 29.8341 6.47656 28.6004 6.47656H26.2546ZM39.8936 14.1918C42.77 14.1918 44.5981 12.1655 44.5981 9.12926C44.5981 6.08665 42.77 4.05398 39.8936 4.05398C37.0172 4.05398 35.189 6.08665 35.189 9.12926C35.189 12.1655 37.0172 14.1918 39.8936 14.1918ZM39.9064 12.3381C38.3148 12.3381 37.5349 10.919 37.5349 9.12287C37.5349 7.3267 38.3148 5.88849 39.9064 5.88849C41.4724 5.88849 42.2523 7.3267 42.2523 9.12287C42.2523 10.919 41.4724 12.3381 39.9064 12.3381ZM46.6644 14H48.9399V12.4531H49.0742C49.4385 13.169 50.1992 14.1726 51.8867 14.1726C54.2006 14.1726 55.9328 12.3381 55.9328 9.10369C55.9328 5.83097 54.1494 4.05398 51.8803 4.05398C50.148 4.05398 49.4257 5.09588 49.0742 5.8054H48.9783V0.909091H46.6644V14ZM48.9335 9.09091C48.9335 7.18608 49.7517 5.95241 51.2411 5.95241C52.7815 5.95241 53.5742 7.26278 53.5742 9.09091C53.5742 10.9318 52.7688 12.2741 51.2411 12.2741C49.7645 12.2741 48.9335 10.9957 48.9335 9.09091ZM59.8623 0.909091H58.0214V2.22585C58.0214 3.26776 57.6123 4.06676 57.1457 4.76989L58.2196 5.46662C59.1592 4.68679 59.8623 3.34446 59.8623 2.21307V0.909091ZM68.2263 6.77699C67.9067 5.11506 66.5772 4.05398 64.276 4.05398C61.911 4.05398 60.3002 5.21733 60.3066 7.03267C60.3002 8.46449 61.1823 9.41051 63.0679 9.80043L64.7427 10.152C65.6439 10.3501 66.0658 10.7145 66.0658 11.2706C66.0658 11.9418 65.3371 12.4467 64.2377 12.4467C63.1766 12.4467 62.4863 11.9865 62.2881 11.1044L60.0317 11.3217C60.3194 13.1243 61.8343 14.1918 64.2441 14.1918C66.6986 14.1918 68.4309 12.9197 68.4373 11.0597C68.4309 9.6598 67.5296 8.80327 65.6759 8.40057L64.0012 8.04261C63.004 7.81889 62.6077 7.47372 62.6141 6.90483C62.6077 6.24006 63.3428 5.77983 64.308 5.77983C65.3755 5.77983 65.938 6.36151 66.117 7.0071L68.2263 6.77699ZM86.1177 5.32599C85.715 2.41761 83.4778 0.730113 80.5758 0.730113C77.156 0.730113 74.58 3.22301 74.58 7.45455C74.58 11.6797 77.1241 14.179 80.5758 14.179C83.6887 14.179 85.7533 12.1655 86.1177 9.66619L83.727 9.65341C83.4266 11.1875 82.1738 12.0504 80.6077 12.0504C78.4856 12.0504 76.9643 10.4588 76.9643 7.45455C76.9643 4.50142 78.4728 2.85866 80.6141 2.85866C82.2057 2.85866 83.4522 3.75994 83.727 5.32599H86.1177ZM88.2894 14H90.6608V9.5767H93.1665C96.1899 9.5767 97.8135 7.76136 97.8135 5.2429C97.8135 2.74361 96.2091 0.909091 93.1985 0.909091H88.2894V14ZM90.6608 7.62713V2.89062H92.8341C94.6111 2.89062 95.3973 3.84943 95.3973 5.2429C95.3973 6.63636 94.6111 7.62713 92.8469 7.62713H90.6608ZM108.125 0.909091V9.26349C108.125 10.9062 106.981 12.0824 105.185 12.0824C103.383 12.0824 102.245 10.9062 102.245 9.26349V0.909091H99.8733V9.46165C99.8733 12.2741 101.983 14.1982 105.185 14.1982C108.375 14.1982 110.497 12.2741 110.497 9.46165V0.909091H108.125ZM128.745 5.32599C128.342 2.41761 126.105 0.730113 123.203 0.730113C119.783 0.730113 117.207 3.22301 117.207 7.45455C117.207 11.6797 119.751 14.179 123.203 14.179C126.316 14.179 128.38 12.1655 128.745 9.66619L126.354 9.65341C126.054 11.1875 124.801 12.0504 123.235 12.0504C121.113 12.0504 119.591 10.4588 119.591 7.45455C119.591 4.50142 121.1 2.85866 123.241 2.85866C124.833 2.85866 126.079 3.75994 126.354 5.32599H128.745ZM135.097 14.1918C137.973 14.1918 139.801 12.1655 139.801 9.12926C139.801 6.08665 137.973 4.05398 135.097 4.05398C132.22 4.05398 130.392 6.08665 130.392 9.12926C130.392 12.1655 132.22 14.1918 135.097 14.1918ZM135.109 12.3381C133.518 12.3381 132.738 10.919 132.738 9.12287C132.738 7.3267 133.518 5.88849 135.109 5.88849C136.676 5.88849 137.455 7.3267 137.455 9.12287C137.455 10.919 136.676 12.3381 135.109 12.3381ZM141.765 14H144.079V8.22798C144.079 6.98153 145.019 6.09943 146.291 6.09943C146.681 6.09943 147.166 6.16974 147.365 6.23366V4.10511C147.154 4.06676 146.789 4.04119 146.534 4.04119C145.409 4.04119 144.469 4.6804 144.111 5.81818H144.009V4.18182H141.765V14ZM152.844 14.1918C155.133 14.1918 156.705 13.0732 157.114 11.3665L154.954 11.1236C154.64 11.9545 153.873 12.3892 152.876 12.3892C151.38 12.3892 150.39 11.4048 150.371 9.72372H157.21V9.0142C157.21 5.56889 155.139 4.05398 152.723 4.05398C149.91 4.05398 148.076 6.11861 148.076 9.14844C148.076 12.2294 149.885 14.1918 152.844 14.1918ZM150.377 8.16406C150.447 6.91122 151.374 5.85653 152.755 5.85653C154.084 5.85653 154.979 6.82812 154.992 8.16406H150.377ZM171.987 0.909091V9.26349C171.987 10.9062 170.843 12.0824 169.046 12.0824C167.244 12.0824 166.106 10.9062 166.106 9.26349V0.909091H163.735V9.46165C163.735 12.2741 165.844 14.1982 169.046 14.1982C172.236 14.1982 174.358 12.2741 174.358 9.46165V0.909091H171.987ZM184.594 6.77699C184.274 5.11506 182.944 4.05398 180.643 4.05398C178.278 4.05398 176.667 5.21733 176.674 7.03267C176.667 8.46449 177.549 9.41051 179.435 9.80043L181.11 10.152C182.011 10.3501 182.433 10.7145 182.433 11.2706C182.433 11.9418 181.704 12.4467 180.605 12.4467C179.544 12.4467 178.853 11.9865 178.655 11.1044L176.399 11.3217C176.687 13.1243 178.201 14.1918 180.611 14.1918C183.066 14.1918 184.798 12.9197 184.804 11.0597C184.798 9.6598 183.897 8.80327 182.043 8.40057L180.368 8.04261C179.371 7.81889 178.975 7.47372 178.981 6.90483C178.975 6.24006 179.71 5.77983 180.675 5.77983C181.743 5.77983 182.305 6.36151 182.484 7.0071L184.594 6.77699ZM189.538 14.1982C191.078 14.1982 191.999 13.4759 192.421 12.6513H192.497V14H194.722V7.42898C194.722 4.83381 192.606 4.05398 190.733 4.05398C188.668 4.05398 187.083 4.97443 186.572 6.7642L188.732 7.07102C188.962 6.39986 189.614 5.82457 190.746 5.82457C191.82 5.82457 192.408 6.37429 192.408 7.33949V7.37784C192.408 8.04261 191.711 8.07457 189.979 8.25994C188.074 8.46449 186.252 9.03338 186.252 11.245C186.252 13.1754 187.665 14.1982 189.538 14.1982ZM190.139 12.4979C189.173 12.4979 188.483 12.0568 188.483 11.2067C188.483 10.3182 189.257 9.94744 190.292 9.80043C190.899 9.71733 192.114 9.56392 192.414 9.32102V10.478C192.414 11.571 191.532 12.4979 190.139 12.4979ZM201.318 17.8864C203.971 17.8864 205.927 16.6719 205.927 14.1598V4.18182H203.645V5.8054H203.517C203.166 5.09588 202.431 4.05398 200.698 4.05398C198.429 4.05398 196.646 5.83097 196.646 9.05895C196.646 12.2614 198.429 13.8594 200.692 13.8594C202.373 13.8594 203.159 12.9581 203.517 12.2358H203.632V14.0959C203.632 15.5405 202.673 16.1349 201.357 16.1349C199.963 16.1349 199.35 15.4766 199.068 14.9013L196.984 15.4062C197.406 16.7805 198.819 17.8864 201.318 17.8864ZM201.337 12.044C199.81 12.044 199.004 10.8551 199.004 9.04616C199.004 7.26278 199.797 5.95241 201.337 5.95241C202.827 5.95241 203.645 7.18608 203.645 9.04616C203.645 10.919 202.814 12.044 201.337 12.044ZM212.645 14.1918C214.933 14.1918 216.506 13.0732 216.915 11.3665L214.754 11.1236C214.441 11.9545 213.674 12.3892 212.677 12.3892C211.181 12.3892 210.19 11.4048 210.171 9.72372H217.011V9.0142C217.011 5.56889 214.94 4.05398 212.524 4.05398C209.711 4.05398 207.877 6.11861 207.877 9.14844C207.877 12.2294 209.685 14.1918 212.645 14.1918ZM210.178 8.16406C210.248 6.91122 211.175 5.85653 212.556 5.85653C213.885 5.85653 214.78 6.82812 214.793 8.16406H210.178Z" fill="black"/>
</g>
<g clip-path="url(#clip1)">
<path d="M674.333 41.6509H673.1L670.555 43.3412V44.594L673.041 42.9435H673.1V51.8327H674.333V41.6509ZM680.642 51.9719C682.7 51.9967 684.043 50.4456 684.043 48.5514C684.043 46.5827 682.586 45.1707 680.841 45.1707C679.792 45.1707 678.892 45.6828 678.335 46.523H678.256C678.261 44.0422 679.225 42.6054 680.801 42.6054C681.875 42.6054 682.522 43.2815 682.75 44.1963H683.963C683.715 42.6153 682.512 41.5116 680.801 41.5116C678.509 41.5116 677.102 43.5401 677.102 47.1395C677.102 50.903 678.972 51.952 680.642 51.9719ZM680.642 50.8781C679.365 50.8781 678.43 49.7893 678.435 48.5713C678.44 47.3533 679.419 46.2645 680.682 46.2645C681.93 46.2645 682.85 47.2886 682.85 48.5514C682.85 49.844 681.89 50.8781 680.642 50.8781Z" fill="black"/>
<path d="M674.593 87.4676H673.36L670.815 89.1579V90.4108L673.3 88.7602H673.36V97.6494H674.593V87.4676ZM677.521 97.6494H683.945V96.5557H679.212V96.4761L681.499 94.0301C683.249 92.1558 683.766 91.2808 683.766 90.1523C683.766 88.5812 682.493 87.3284 680.703 87.3284C678.918 87.3284 677.561 88.5415 677.561 90.3312H678.734C678.734 89.1729 679.485 88.4023 680.663 88.4023C681.767 88.4023 682.612 89.0784 682.612 90.1523C682.612 91.0919 682.06 91.7879 680.882 93.0756L677.521 96.7545V97.6494Z" fill="black"/>
<path d="M680.632 142.609C682.666 142.609 684.083 141.421 684.093 139.766C684.083 138.478 683.223 137.384 682.124 137.18V137.121C683.078 136.872 683.705 135.937 683.715 134.854C683.705 133.303 682.402 132.149 680.632 132.149C678.843 132.149 677.54 133.303 677.55 134.854C677.54 135.937 678.166 136.872 679.141 137.121V137.18C678.022 137.384 677.162 138.478 677.172 139.766C677.162 141.421 678.579 142.609 680.632 142.609ZM680.632 141.516C679.235 141.516 678.375 140.8 678.385 139.706C678.375 138.557 679.325 137.737 680.632 137.737C681.92 137.737 682.87 138.557 682.88 139.706C682.87 140.8 682.009 141.516 680.632 141.516ZM680.632 136.683C679.519 136.683 678.733 135.987 678.743 134.933C678.733 133.899 679.489 133.223 680.632 133.223C681.756 133.223 682.512 133.899 682.522 134.933C682.512 135.987 681.726 136.683 680.632 136.683Z" fill="black"/>
<path d="M676.777 186.199H681.569V188.287H682.743V186.199H684.135V185.105H682.743V178.105H681.251L676.777 185.185V186.199ZM681.569 185.105H678.109V185.025L681.49 179.676H681.569V185.105Z" fill="black"/>
<path d="M680.569 234.243C682.816 234.243 684.109 232.339 684.109 229.013C684.109 225.712 682.796 223.783 680.569 223.783C678.342 223.783 677.029 225.712 677.029 229.013C677.029 232.339 678.322 234.243 680.569 234.243ZM680.569 233.149C679.087 233.149 678.222 231.663 678.222 229.013C678.222 226.368 679.097 224.856 680.569 224.856C682.041 224.856 682.916 226.368 682.916 229.013C682.916 231.663 682.05 233.149 680.569 233.149Z" fill="black"/>
<line x1="691.722" y1="47.3088" x2="1313" y2="47.3088" stroke="black" stroke-opacity="0.08"/>
<line x1="691.722" y1="92.1295" x2="1313" y2="92.1295" stroke="black" stroke-opacity="0.08"/>
<line x1="691.722" y1="137.946" x2="1313" y2="137.946" stroke="black" stroke-opacity="0.08"/>
<line x1="691.722" y1="183.763" x2="1313" y2="183.763" stroke="black" stroke-opacity="0.08"/>
<line x1="691.722" y1="229.58" x2="1313" y2="229.58" stroke="black" stroke-opacity="0.08"/>
<path d="M785.522 239.818H784.289L781.744 241.509V242.761L784.23 241.111H784.289V250H785.522V239.818ZM791.771 250.139C794.019 250.139 795.311 248.235 795.311 244.909C795.311 241.608 793.999 239.679 791.771 239.679C789.544 239.679 788.232 241.608 788.232 244.909C788.232 248.235 789.524 250.139 791.771 250.139ZM791.771 249.045C790.29 249.045 789.425 247.559 789.425 244.909C789.425 242.264 790.3 240.753 791.771 240.753C793.243 240.753 794.118 242.264 794.118 244.909C794.118 247.559 793.253 249.045 791.771 249.045ZM801.735 250L802.759 247.116H806.875L807.899 250H809.192L805.453 239.818H804.181L800.442 250H801.735ZM803.146 246.023L804.777 241.429H804.857L806.487 246.023H803.146ZM810.778 239.818V250H811.931V242.264H812.031L815.213 250H816.326L819.508 242.264H819.607V250H820.761V239.818H819.289L815.829 248.27H815.71L812.249 239.818H810.778Z" fill="black"/>
<path d="M917.37 239.818H916.137L913.591 241.509V242.761L916.077 241.111H916.137V250H917.37V239.818ZM920.298 250H926.721V248.906H921.988V248.827L924.275 246.381C926.025 244.506 926.542 243.631 926.542 242.503C926.542 240.932 925.27 239.679 923.48 239.679C921.695 239.679 920.338 240.892 920.338 242.682H921.511C921.511 241.523 922.262 240.753 923.44 240.753C924.544 240.753 925.389 241.429 925.389 242.503C925.389 243.442 924.837 244.138 923.659 245.426L920.298 249.105V250ZM932.891 250H934.124V246.281H936.351C938.723 246.281 939.792 244.839 939.792 243.04C939.792 241.24 938.723 239.818 936.331 239.818H932.891V250ZM934.124 245.188V240.912H936.292C937.947 240.912 938.579 241.817 938.579 243.04C938.579 244.263 937.947 245.188 936.312 245.188H934.124ZM941.778 239.818V250H942.931V242.264H943.031L946.213 250H947.326L950.508 242.264H950.607V250H951.761V239.818H950.289L946.829 248.27H946.71L943.249 239.818H941.778Z" fill="black"/>
<path d="M1044.3 250H1050.72V248.906H1045.99V248.827L1048.28 246.381C1050.03 244.506 1050.54 243.631 1050.54 242.503C1050.54 240.932 1049.27 239.679 1047.48 239.679C1045.7 239.679 1044.34 240.892 1044.34 242.682H1045.51C1045.51 241.523 1046.26 240.753 1047.44 240.753C1048.54 240.753 1049.39 241.429 1049.39 242.503C1049.39 243.442 1048.84 244.138 1047.66 245.426L1044.3 249.105V250ZM1056.89 250H1058.12V246.281H1060.35C1062.72 246.281 1063.79 244.839 1063.79 243.04C1063.79 241.24 1062.72 239.818 1060.33 239.818H1056.89V250ZM1058.12 245.188V240.912H1060.29C1061.95 240.912 1062.58 241.817 1062.58 243.04C1062.58 244.263 1061.95 245.188 1060.31 245.188H1058.12ZM1065.78 239.818V250H1066.93V242.264H1067.03L1070.21 250H1071.33L1074.51 242.264H1074.61V250H1075.76V239.818H1074.29L1070.83 248.27H1070.71L1067.25 239.818H1065.78Z" fill="black"/>
<path d="M1168.55 247.912H1173.35V250H1174.52V247.912H1175.91V246.818H1174.52V239.818H1173.03L1168.55 246.898V247.912ZM1173.35 246.818H1169.89V246.739L1173.27 241.389H1173.35V246.818ZM1181.89 250H1183.12V246.281H1185.35C1187.72 246.281 1188.79 244.839 1188.79 243.04C1188.79 241.24 1187.72 239.818 1185.33 239.818H1181.89V250ZM1183.12 245.188V240.912H1185.29C1186.95 240.912 1187.58 241.817 1187.58 243.04C1187.58 244.263 1186.95 245.188 1185.31 245.188H1183.12ZM1190.78 239.818V250H1191.93V242.264H1192.03L1195.21 250H1196.33L1199.51 242.264H1199.61V250H1200.76V239.818H1199.29L1195.83 248.27H1195.71L1192.25 239.818H1190.78Z" fill="black"/>
<path d="M697.048 0.909091V10.1136C697.041 11.4943 696.402 12.2294 695.265 12.2294C694.203 12.2294 693.494 11.5838 693.475 10.5227H691.116C691.116 12.9389 692.88 14.179 695.175 14.179C697.7 14.179 699.394 12.6449 699.4 10.1136V0.909091H697.048ZM701.871 14H704.185V4.18182H701.871V14ZM703.034 2.78835C703.769 2.78835 704.37 2.22585 704.37 1.53551C704.37 0.838778 703.769 0.276278 703.034 0.276278C702.293 0.276278 701.692 0.838778 701.692 1.53551C701.692 2.22585 702.293 2.78835 703.034 2.78835ZM706.564 14H708.878V8.02983C708.878 6.82173 709.683 6.00355 710.681 6.00355C711.659 6.00355 712.33 6.66193 712.33 7.67188V14H714.599V7.87642C714.599 6.7706 715.257 6.00355 716.376 6.00355C717.309 6.00355 718.051 6.55327 718.051 7.76776V14H720.371V7.4098C720.371 5.21733 719.105 4.05398 717.303 4.05398C715.877 4.05398 714.791 4.7571 714.356 5.85014H714.254C713.877 4.73793 712.924 4.05398 711.601 4.05398C710.284 4.05398 709.3 4.73153 708.891 5.85014H708.776V4.18182H706.564V14ZM724.681 0.909091H722.84V2.22585C722.84 3.26776 722.431 4.06676 721.964 4.76989L723.038 5.46662C723.978 4.68679 724.681 3.34446 724.681 2.21307V0.909091ZM733.045 6.77699C732.725 5.11506 731.396 4.05398 729.094 4.05398C726.729 4.05398 725.119 5.21733 725.125 7.03267C725.119 8.46449 726.001 9.41051 727.886 9.80043L729.561 10.152C730.462 10.3501 730.884 10.7145 730.884 11.2706C730.884 11.9418 730.155 12.4467 729.056 12.4467C727.995 12.4467 727.305 11.9865 727.106 11.1044L724.85 11.3217C725.138 13.1243 726.653 14.1918 729.062 14.1918C731.517 14.1918 733.249 12.9197 733.256 11.0597C733.249 9.6598 732.348 8.80327 730.494 8.40057L728.82 8.04261C727.822 7.81889 727.426 7.47372 727.432 6.90483C727.426 6.24006 728.161 5.77983 729.126 5.77983C730.194 5.77983 730.756 6.36151 730.935 7.0071L733.045 6.77699ZM750.936 5.32599C750.533 2.41761 748.296 0.730113 745.394 0.730113C741.974 0.730113 739.398 3.22301 739.398 7.45455C739.398 11.6797 741.942 14.179 745.394 14.179C748.507 14.179 750.572 12.1655 750.936 9.66619L748.545 9.65341C748.245 11.1875 746.992 12.0504 745.426 12.0504C743.304 12.0504 741.783 10.4588 741.783 7.45455C741.783 4.50142 743.291 2.85866 745.432 2.85866C747.024 2.85866 748.271 3.75994 748.545 5.32599H750.936ZM753.108 14H755.479V9.5767H757.985C761.008 9.5767 762.632 7.76136 762.632 5.2429C762.632 2.74361 761.027 0.909091 758.017 0.909091H753.108V14ZM755.479 7.62713V2.89062H757.652C759.429 2.89062 760.216 3.84943 760.216 5.2429C760.216 6.63636 759.429 7.62713 757.665 7.62713H755.479ZM772.944 0.909091V9.26349C772.944 10.9062 771.8 12.0824 770.003 12.0824C768.201 12.0824 767.063 10.9062 767.063 9.26349V0.909091H764.692V9.46165C764.692 12.2741 766.801 14.1982 770.003 14.1982C773.193 14.1982 775.315 12.2741 775.315 9.46165V0.909091H772.944ZM793.563 5.32599C793.16 2.41761 790.923 0.730113 788.021 0.730113C784.601 0.730113 782.025 3.22301 782.025 7.45455C782.025 11.6797 784.569 14.179 788.021 14.179C791.134 14.179 793.199 12.1655 793.563 9.66619L791.172 9.65341C790.872 11.1875 789.619 12.0504 788.053 12.0504C785.931 12.0504 784.41 10.4588 784.41 7.45455C784.41 4.50142 785.918 2.85866 788.059 2.85866C789.651 2.85866 790.897 3.75994 791.172 5.32599H793.563ZM799.915 14.1918C802.791 14.1918 804.62 12.1655 804.62 9.12926C804.62 6.08665 802.791 4.05398 799.915 4.05398C797.039 4.05398 795.211 6.08665 795.211 9.12926C795.211 12.1655 797.039 14.1918 799.915 14.1918ZM799.928 12.3381C798.336 12.3381 797.556 10.919 797.556 9.12287C797.556 7.3267 798.336 5.88849 799.928 5.88849C801.494 5.88849 802.274 7.3267 802.274 9.12287C802.274 10.919 801.494 12.3381 799.928 12.3381ZM806.584 14H808.897V8.22798C808.897 6.98153 809.837 6.09943 811.109 6.09943C811.499 6.09943 811.985 6.16974 812.183 6.23366V4.10511C811.972 4.06676 811.608 4.04119 811.352 4.04119C810.227 4.04119 809.287 4.6804 808.929 5.81818H808.827V4.18182H806.584V14ZM817.663 14.1918C819.951 14.1918 821.523 13.0732 821.932 11.3665L819.772 11.1236C819.459 11.9545 818.692 12.3892 817.695 12.3892C816.199 12.3892 815.208 11.4048 815.189 9.72372H822.028V9.0142C822.028 5.56889 819.957 4.05398 817.541 4.05398C814.729 4.05398 812.894 6.11861 812.894 9.14844C812.894 12.2294 814.703 14.1918 817.663 14.1918ZM815.195 8.16406C815.266 6.91122 816.192 5.85653 817.573 5.85653C818.903 5.85653 819.798 6.82812 819.81 8.16406H815.195ZM836.805 0.909091V9.26349C836.805 10.9062 835.661 12.0824 833.865 12.0824C832.062 12.0824 830.924 10.9062 830.924 9.26349V0.909091H828.553V9.46165C828.553 12.2741 830.662 14.1982 833.865 14.1982C837.054 14.1982 839.177 12.2741 839.177 9.46165V0.909091H836.805ZM849.412 6.77699C849.092 5.11506 847.763 4.05398 845.462 4.05398C843.097 4.05398 841.486 5.21733 841.492 7.03267C841.486 8.46449 842.368 9.41051 844.253 9.80043L845.928 10.152C846.829 10.3501 847.251 10.7145 847.251 11.2706C847.251 11.9418 846.523 12.4467 845.423 12.4467C844.362 12.4467 843.672 11.9865 843.474 11.1044L841.217 11.3217C841.505 13.1243 843.02 14.1918 845.43 14.1918C847.884 14.1918 849.616 12.9197 849.623 11.0597C849.616 9.6598 848.715 8.80327 846.861 8.40057L845.187 8.04261C844.19 7.81889 843.793 7.47372 843.8 6.90483C843.793 6.24006 844.528 5.77983 845.494 5.77983C846.561 5.77983 847.124 6.36151 847.303 7.0071L849.412 6.77699ZM854.356 14.1982C855.897 14.1982 856.817 13.4759 857.239 12.6513H857.316V14H859.54V7.42898C859.54 4.83381 857.424 4.05398 855.551 4.05398C853.487 4.05398 851.902 4.97443 851.39 6.7642L853.551 7.07102C853.781 6.39986 854.433 5.82457 855.564 5.82457C856.638 5.82457 857.226 6.37429 857.226 7.33949V7.37784C857.226 8.04261 856.529 8.07457 854.797 8.25994C852.892 8.46449 851.071 9.03338 851.071 11.245C851.071 13.1754 852.483 14.1982 854.356 14.1982ZM854.957 12.4979C853.992 12.4979 853.301 12.0568 853.301 11.2067C853.301 10.3182 854.075 9.94744 855.11 9.80043C855.718 9.71733 856.932 9.56392 857.233 9.32102V10.478C857.233 11.571 856.35 12.4979 854.957 12.4979ZM866.137 17.8864C868.789 17.8864 870.745 16.6719 870.745 14.1598V4.18182H868.463V5.8054H868.336C867.984 5.09588 867.249 4.05398 865.517 4.05398C863.247 4.05398 861.464 5.83097 861.464 9.05895C861.464 12.2614 863.247 13.8594 865.51 13.8594C867.191 13.8594 867.978 12.9581 868.336 12.2358H868.451V14.0959C868.451 15.5405 867.492 16.1349 866.175 16.1349C864.782 16.1349 864.168 15.4766 863.887 14.9013L861.803 15.4062C862.225 16.7805 863.637 17.8864 866.137 17.8864ZM866.156 12.044C864.628 12.044 863.823 10.8551 863.823 9.04616C863.823 7.26278 864.615 5.95241 866.156 5.95241C867.645 5.95241 868.463 7.18608 868.463 9.04616C868.463 10.919 867.632 12.044 866.156 12.044ZM877.463 14.1918C879.752 14.1918 881.324 13.0732 881.733 11.3665L879.573 11.1236C879.26 11.9545 878.492 12.3892 877.495 12.3892C876 12.3892 875.009 11.4048 874.99 9.72372H881.829V9.0142C881.829 5.56889 879.758 4.05398 877.342 4.05398C874.529 4.05398 872.695 6.11861 872.695 9.14844C872.695 12.2294 874.504 14.1918 877.463 14.1918ZM874.996 8.16406C875.066 6.91122 875.993 5.85653 877.374 5.85653C878.703 5.85653 879.598 6.82812 879.611 8.16406H874.996Z" fill="black"/>
</g>
<path d="M691.722 215.901C691.722 215.901 699.536 228.68 703.444 228.248C707.351 227.817 711.259 216.19 715.166 213.312C719.073 210.434 722.981 208.583 726.888 210.979C730.796 213.375 734.703 228.538 738.61 227.689C742.518 226.839 746.425 207.853 750.333 205.88C754.24 203.907 758.148 215.752 762.055 215.848C765.962 215.945 769.87 219.915 773.777 206.457C777.685 192.999 781.592 133.431 785.499 135.099C789.407 136.768 793.314 202.945 797.222 216.469C801.129 229.992 805.036 217.991 808.944 216.239C812.851 214.487 816.759 204.194 820.666 205.955C824.574 207.715 828.481 226.465 832.388 226.8C836.296 227.135 840.203 208.61 844.111 207.963C848.018 207.316 851.925 222.026 855.833 222.918C859.74 223.81 863.648 212.893 867.555 213.318C871.462 213.743 875.37 224.406 879.277 225.468C883.185 226.529 887.092 219.374 891 219.685C894.907 219.996 898.814 229.343 902.722 227.332C906.629 225.322 910.537 210.353 914.444 207.621C918.351 204.89 922.259 211.242 926.166 210.945C930.074 210.648 933.981 203.428 937.888 205.839C941.796 208.25 945.703 222.957 949.611 225.411C953.518 227.865 957.426 223.143 961.333 220.565C965.24 217.986 969.148 209.507 973.055 209.941C976.963 210.374 980.87 223.877 984.777 223.164C988.685 222.45 992.592 207.251 996.5 205.659C1000.41 204.068 1004.31 213.625 1008.22 213.613C1012.13 213.601 1016.04 210.841 1019.94 205.588C1023.85 200.334 1027.76 197.756 1031.67 182.091C1035.57 166.427 1039.48 109.645 1043.39 111.603C1047.3 113.561 1051.2 177.839 1055.11 193.84C1059.02 209.84 1062.93 205.452 1066.83 207.603C1070.74 209.755 1074.65 206.985 1078.56 206.751C1082.46 206.517 1086.37 204.435 1090.28 206.199C1094.18 207.963 1098.09 214.751 1102 217.336C1105.91 219.92 1109.81 225.624 1113.72 221.708C1117.63 217.792 1121.54 193.713 1125.44 193.84C1129.35 193.966 1133.26 219.85 1137.17 222.464C1141.07 225.079 1144.98 209.466 1148.89 209.527C1152.8 209.589 1156.7 221.616 1160.61 222.831C1164.52 224.046 1168.43 216.066 1172.33 216.817C1176.24 217.567 1180.15 227.68 1184.06 227.332C1187.96 226.985 1191.87 217.536 1195.78 214.733C1199.69 211.93 1203.59 210.846 1207.5 210.515C1211.41 210.184 1215.31 211.498 1219.22 212.748C1223.13 213.997 1227.04 215.608 1230.94 218.013C1234.85 220.419 1238.76 227.105 1242.67 227.182C1246.57 227.259 1250.48 220.566 1254.39 218.474C1258.3 216.382 1262.2 216.453 1266.11 214.63C1270.02 212.808 1273.93 208.506 1277.83 207.537C1281.74 206.569 1285.65 207.185 1289.56 208.818C1293.46 210.451 1297.37 215.329 1301.28 217.336C1305.19 219.343 1313 220.86 1313 220.86V229.084C1313 229.084 1305.19 229.084 1301.28 229.084C1297.37 229.084 1293.46 229.084 1289.56 229.084C1285.65 229.084 1281.74 229.084 1277.83 229.084C1273.93 229.084 1270.02 229.084 1266.11 229.084C1262.2 229.084 1258.3 229.084 1254.39 229.084C1250.48 229.084 1246.57 229.084 1242.67 229.084C1238.76 229.084 1234.85 229.084 1230.94 229.084C1227.04 229.084 1223.13 229.084 1219.22 229.084C1215.31 229.084 1211.41 229.084 1207.5 229.084C1203.59 229.084 1199.69 229.084 1195.78 229.084C1191.87 229.084 1187.96 229.084 1184.06 229.084C1180.15 229.084 1176.24 229.084 1172.33 229.084C1168.43 229.084 1164.52 229.084 1160.61 229.084C1156.7 229.084 1152.8 229.084 1148.89 229.084C1144.98 229.084 1141.07 229.084 1137.17 229.084C1133.26 229.084 1129.35 229.084 1125.44 229.084C1121.54 229.084 1117.63 229.084 1113.72 229.084C1109.81 229.084 1105.91 229.084 1102 229.084C1098.09 229.084 1094.18 229.084 1090.28 229.084C1086.37 229.084 1082.46 229.084 1078.56 229.084C1074.65 229.084 1070.74 229.084 1066.83 229.084C1062.93 229.084 1059.02 229.084 1055.11 229.084C1051.2 229.084 1047.3 229.084 1043.39 229.084C1039.48 229.084 1035.57 229.084 1031.67 229.084C1027.76 229.084 1023.85 229.084 1019.94 229.084C1016.04 229.084 1012.13 229.084 1008.22 229.084C1004.31 229.084 1000.41 229.084 996.5 229.084C992.592 229.084 988.685 229.084 984.777 229.084C980.87 229.084 976.963 229.084 973.055 229.084C969.148 229.084 965.24 229.084 961.333 229.084C957.426 229.084 953.518 229.084 949.611 229.084C945.703 229.084 941.796 229.084 937.888 229.084C933.981 229.084 930.074 229.084 926.166 229.084C922.259 229.084 918.351 229.084 914.444 229.084C910.537 229.084 906.629 229.084 902.722 229.084C898.814 229.084 894.907 229.084 891 229.084C887.092 229.084 883.185 229.084 879.277 229.084C875.37 229.084 871.462 229.084 867.555 229.084C863.648 229.084 859.74 229.084 855.833 229.084C851.925 229.084 848.018 229.084 844.111 229.084C840.203 229.084 836.296 229.084 832.388 229.084C828.481 229.084 824.574 229.084 820.666 229.084C816.759 229.084 812.851 229.084 808.944 229.084C805.036 229.084 801.129 229.084 797.222 229.084C793.314 229.084 789.407 229.084 785.499 229.084C781.592 229.084 777.685 229.084 773.777 229.084C769.87 229.084 765.962 229.084 762.055 229.084C758.148 229.084 754.24 229.084 750.333 229.084C746.425 229.084 742.518 229.084 738.61 229.084C734.703 229.084 730.796 229.084 726.888 229.084C722.981 229.084 719.073 229.084 715.166 229.084C711.259 229.084 707.351 229.084 703.444 229.084C699.536 229.084 691.722 229.084 691.722 229.084V215.901Z" fill="url(#paint1_linear)"/>
<g clip-path="url(#clip2)">
<path d="M6.3333 327.651H5.10034L2.55489 329.341V330.594L5.04068 328.943H5.10034V337.833H6.3333V327.651ZM12.6422 337.972C14.7005 337.997 16.0428 336.446 16.0428 334.551C16.0428 332.583 14.5861 331.171 12.8411 331.171C11.7921 331.171 10.8922 331.683 10.3354 332.523H10.2559C10.2609 330.042 11.2253 328.605 12.8013 328.605C13.8752 328.605 14.5215 329.282 14.7502 330.196H15.9633C15.7147 328.615 14.5116 327.512 12.8013 327.512C10.5094 327.512 9.10247 329.54 9.10247 333.139C9.10247 336.903 10.9718 337.952 12.6422 337.972ZM12.6422 336.878C11.3645 336.878 10.4299 335.789 10.4349 334.571C10.4398 333.353 11.4192 332.264 12.682 332.264C13.9299 332.264 14.8496 333.289 14.8496 334.551C14.8496 335.844 13.8901 336.878 12.6422 336.878Z" fill="black"/>
<path d="M6.59311 373.468H5.36015L2.8147 375.158V376.411L5.30049 374.76H5.36015V383.649H6.59311V373.468ZM9.52137 383.649H15.9447V382.556H11.2117V382.476L13.4986 380.03C15.2486 378.156 15.7657 377.281 15.7657 376.152C15.7657 374.581 14.493 373.328 12.7032 373.328C10.9184 373.328 9.56115 374.541 9.56115 376.331H10.7344C10.7344 375.173 11.4852 374.402 12.6634 374.402C13.7671 374.402 14.6123 375.078 14.6123 376.152C14.6123 377.092 14.0604 377.788 12.8822 379.076L9.52137 382.755V383.649Z" fill="black"/>
<path d="M12.6324 428.609C14.6657 428.609 16.0826 427.421 16.0926 425.766C16.0826 424.478 15.2225 423.384 14.1238 423.18V423.121C15.0784 422.872 15.7048 421.937 15.7147 420.854C15.7048 419.303 14.4022 418.149 12.6324 418.149C10.8426 418.149 9.54002 419.303 9.54996 420.854C9.54002 421.937 10.1664 422.872 11.1409 423.121V423.18C10.0223 423.384 9.16218 424.478 9.17212 425.766C9.16218 427.421 10.5791 428.609 12.6324 428.609ZM12.6324 427.516C11.2353 427.516 10.3752 426.8 10.3852 425.706C10.3752 424.557 11.3248 423.737 12.6324 423.737C13.92 423.737 14.8696 424.557 14.8795 425.706C14.8696 426.8 14.0095 427.516 12.6324 427.516ZM12.6324 422.683C11.5187 422.683 10.7332 421.987 10.7431 420.933C10.7332 419.899 11.4889 419.223 12.6324 419.223C13.7559 419.223 14.5116 419.899 14.5216 420.933C14.5116 421.987 13.7261 422.683 12.6324 422.683Z" fill="black"/>
<path d="M8.77688 472.199H13.5695V474.287H14.7428V472.199H16.1348V471.105H14.7428V464.105H13.2513L8.77688 471.185V472.199ZM13.5695 471.105H10.1093V471.025L13.49 465.676H13.5695V471.105Z" fill="black"/>
<path d="M12.569 520.243C14.8161 520.243 16.1087 518.339 16.1087 515.013C16.1087 511.712 14.7962 509.783 12.569 509.783C10.3417 509.783 9.02919 511.712 9.02919 515.013C9.02919 518.339 10.3218 520.243 12.569 520.243ZM12.569 519.149C11.0874 519.149 10.2224 517.663 10.2224 515.013C10.2224 512.368 11.0974 510.856 12.569 510.856C14.0406 510.856 14.9156 512.368 14.9156 515.013C14.9156 517.663 14.0505 519.149 12.569 519.149Z" fill="black"/>
<line x1="23.7216" y1="333.309" x2="645" y2="333.309" stroke="black" stroke-opacity="0.08"/>
<line x1="23.7216" y1="378.129" x2="645" y2="378.129" stroke="black" stroke-opacity="0.08"/>
<line x1="23.7216" y1="423.946" x2="645" y2="423.946" stroke="black" stroke-opacity="0.08"/>
<line x1="23.7216" y1="469.763" x2="645" y2="469.763" stroke="black" stroke-opacity="0.08"/>
<line x1="23.7216" y1="515.58" x2="645" y2="515.58" stroke="black" stroke-opacity="0.08"/>
<path d="M117.522 525.818H116.289L113.744 527.509V528.761L116.23 527.111H116.289V536H117.522V525.818ZM123.771 536.139C126.019 536.139 127.311 534.235 127.311 530.909C127.311 527.608 125.999 525.679 123.771 525.679C121.544 525.679 120.232 527.608 120.232 530.909C120.232 534.235 121.524 536.139 123.771 536.139ZM123.771 535.045C122.29 535.045 121.425 533.559 121.425 530.909C121.425 528.264 122.3 526.753 123.771 526.753C125.243 526.753 126.118 528.264 126.118 530.909C126.118 533.559 125.253 535.045 123.771 535.045ZM133.735 536L134.759 533.116H138.875L139.899 536H141.192L137.453 525.818H136.181L132.442 536H133.735ZM135.146 532.023L136.777 527.429H136.857L138.487 532.023H135.146ZM142.778 525.818V536H143.931V528.264H144.031L147.213 536H148.326L151.508 528.264H151.607V536H152.761V525.818H151.289L147.829 534.27H147.71L144.249 525.818H142.778Z" fill="black"/>
<path d="M249.37 525.818H248.137L245.591 527.509V528.761L248.077 527.111H248.137V536H249.37V525.818ZM252.298 536H258.721V534.906H253.988V534.827L256.275 532.381C258.025 530.506 258.542 529.631 258.542 528.503C258.542 526.932 257.27 525.679 255.48 525.679C253.695 525.679 252.338 526.892 252.338 528.682H253.511C253.511 527.523 254.262 526.753 255.44 526.753C256.544 526.753 257.389 527.429 257.389 528.503C257.389 529.442 256.837 530.138 255.659 531.426L252.298 535.105V536ZM264.891 536H266.124V532.281H268.351C270.723 532.281 271.792 530.839 271.792 529.04C271.792 527.24 270.723 525.818 268.331 525.818H264.891V536ZM266.124 531.188V526.912H268.292C269.947 526.912 270.579 527.817 270.579 529.04C270.579 530.263 269.947 531.188 268.312 531.188H266.124ZM273.778 525.818V536H274.931V528.264H275.031L278.213 536H279.326L282.508 528.264H282.607V536H283.761V525.818H282.289L278.829 534.27H278.71L275.249 525.818H273.778Z" fill="black"/>
<path d="M376.298 536H382.721V534.906H377.988V534.827L380.275 532.381C382.025 530.506 382.542 529.631 382.542 528.503C382.542 526.932 381.27 525.679 379.48 525.679C377.695 525.679 376.338 526.892 376.338 528.682H377.511C377.511 527.523 378.262 526.753 379.44 526.753C380.544 526.753 381.389 527.429 381.389 528.503C381.389 529.442 380.837 530.138 379.659 531.426L376.298 535.105V536ZM388.891 536H390.124V532.281H392.351C394.723 532.281 395.792 530.839 395.792 529.04C395.792 527.24 394.723 525.818 392.331 525.818H388.891V536ZM390.124 531.188V526.912H392.292C393.947 526.912 394.579 527.817 394.579 529.04C394.579 530.263 393.947 531.188 392.312 531.188H390.124ZM397.778 525.818V536H398.931V528.264H399.031L402.213 536H403.326L406.508 528.264H406.607V536H407.761V525.818H406.289L402.829 534.27H402.71L399.249 525.818H397.778Z" fill="black"/>
<path d="M500.554 533.912H505.346V536H506.52V533.912H507.912V532.818H506.52V525.818H505.028L500.554 532.898V533.912ZM505.346 532.818H501.886V532.739L505.267 527.389H505.346V532.818ZM513.891 536H515.124V532.281H517.351C519.723 532.281 520.792 530.839 520.792 529.04C520.792 527.24 519.723 525.818 517.331 525.818H513.891V536ZM515.124 531.188V526.912H517.292C518.947 526.912 519.579 527.817 519.579 529.04C519.579 530.263 518.947 531.188 517.312 531.188H515.124ZM522.778 525.818V536H523.931V528.264H524.031L527.213 536H528.326L531.508 528.264H531.607V536H532.761V525.818H531.289L527.829 534.27H527.71L524.249 525.818H522.778Z" fill="black"/>
<path d="M23.8831 286.909V300H26.1587V290.987H26.2801L29.898 299.962H31.5983L35.2162 291.006H35.3377V300H37.6132V286.909H34.7112L30.8249 296.395H30.6715L26.7851 286.909H23.8831ZM42.9186 300.198C44.4591 300.198 45.3796 299.476 45.8014 298.651H45.8781V300H48.1026V293.429C48.1026 290.834 45.9868 290.054 44.1139 290.054C42.0493 290.054 40.4641 290.974 39.9527 292.764L42.1132 293.071C42.3433 292.4 42.9953 291.825 44.1267 291.825C45.2006 291.825 45.7887 292.374 45.7887 293.339V293.378C45.7887 294.043 45.0919 294.075 43.3597 294.26C41.4548 294.464 39.6331 295.033 39.6331 297.245C39.6331 299.175 41.0458 300.198 42.9186 300.198ZM43.5195 298.498C42.5543 298.498 41.8639 298.057 41.8639 297.207C41.8639 296.318 42.6374 295.947 43.6729 295.8C44.2801 295.717 45.4946 295.564 45.795 295.321V296.478C45.795 297.571 44.9129 298.498 43.5195 298.498ZM50.4293 300H52.7432V294.228C52.7432 292.982 53.6828 292.099 54.9548 292.099C55.3448 292.099 55.8306 292.17 56.0287 292.234V290.105C55.8178 290.067 55.4534 290.041 55.1977 290.041C54.0727 290.041 53.1331 290.68 52.7752 291.818H52.6729V290.182H50.4293V300ZM59.303 303.682C61.1056 303.682 62.1475 302.755 62.7036 301.189L66.6475 290.195L64.1738 290.182L61.9046 297.597H61.8023L59.5395 290.182H57.085L60.6454 300.205L60.4472 300.735C60.0189 301.854 59.3414 301.93 58.3314 301.636L57.7945 303.439C58.1077 303.567 58.6702 303.682 59.303 303.682ZM70.7959 286.909H68.955V288.226C68.955 289.268 68.5459 290.067 68.0793 290.77L69.1532 291.467C70.0928 290.687 70.7959 289.344 70.7959 288.213V286.909ZM79.1599 292.777C78.8403 291.115 77.5108 290.054 75.2096 290.054C72.8446 290.054 71.2338 291.217 71.2402 293.033C71.2338 294.464 72.1159 295.411 74.0015 295.8L75.6763 296.152C76.5775 296.35 76.9994 296.714 76.9994 297.271C76.9994 297.942 76.2707 298.447 75.1713 298.447C74.1102 298.447 73.4199 297.987 73.2217 297.104L70.9653 297.322C71.253 299.124 72.7679 300.192 75.1777 300.192C77.6322 300.192 79.3645 298.92 79.3709 297.06C79.3645 295.66 78.4632 294.803 76.6095 294.401L74.9348 294.043C73.9376 293.819 73.5413 293.474 73.5477 292.905C73.5413 292.24 74.2764 291.78 75.2416 291.78C76.3091 291.78 76.8716 292.362 77.0505 293.007L79.1599 292.777ZM97.0513 291.326C96.6486 288.418 94.4113 286.73 91.5094 286.73C88.0896 286.73 85.5136 289.223 85.5136 293.455C85.5136 297.68 88.0577 300.179 91.5094 300.179C94.6223 300.179 96.6869 298.165 97.0513 295.666L94.6606 295.653C94.3602 297.188 93.1074 298.05 91.5413 298.05C89.4192 298.05 87.8978 296.459 87.8978 293.455C87.8978 290.501 89.4064 288.859 91.5477 288.859C93.1393 288.859 94.3858 289.76 94.6606 291.326H97.0513ZM99.223 300H101.594V295.577H104.1C107.124 295.577 108.747 293.761 108.747 291.243C108.747 288.744 107.143 286.909 104.132 286.909H99.223V300ZM101.594 293.627V288.891H103.768C105.545 288.891 106.331 289.849 106.331 291.243C106.331 292.636 105.545 293.627 103.78 293.627H101.594ZM119.059 286.909V295.263C119.059 296.906 117.915 298.082 116.119 298.082C114.316 298.082 113.178 296.906 113.178 295.263V286.909H110.807V295.462C110.807 298.274 112.916 300.198 116.119 300.198C119.308 300.198 121.431 298.274 121.431 295.462V286.909H119.059ZM139.678 291.326C139.276 288.418 137.038 286.73 134.136 286.73C130.717 286.73 128.141 289.223 128.141 293.455C128.141 297.68 130.685 300.179 134.136 300.179C137.249 300.179 139.314 298.165 139.678 295.666L137.288 295.653C136.987 297.188 135.734 298.05 134.168 298.05C132.046 298.05 130.525 296.459 130.525 293.455C130.525 290.501 132.033 288.859 134.175 288.859C135.766 288.859 137.013 289.76 137.288 291.326H139.678ZM146.03 300.192C148.907 300.192 150.735 298.165 150.735 295.129C150.735 292.087 148.907 290.054 146.03 290.054C143.154 290.054 141.326 292.087 141.326 295.129C141.326 298.165 143.154 300.192 146.03 300.192ZM146.043 298.338C144.451 298.338 143.672 296.919 143.672 295.123C143.672 293.327 144.451 291.888 146.043 291.888C147.609 291.888 148.389 293.327 148.389 295.123C148.389 296.919 147.609 298.338 146.043 298.338ZM152.699 300H155.013V294.228C155.013 292.982 155.952 292.099 157.224 292.099C157.614 292.099 158.1 292.17 158.298 292.234V290.105C158.087 290.067 157.723 290.041 157.467 290.041C156.342 290.041 155.403 290.68 155.045 291.818H154.942V290.182H152.699V300ZM163.778 300.192C166.066 300.192 167.639 299.073 168.048 297.366L165.887 297.124C165.574 297.955 164.807 298.389 163.81 298.389C162.314 298.389 161.323 297.405 161.304 295.724H168.144V295.014C168.144 291.569 166.073 290.054 163.656 290.054C160.844 290.054 159.009 292.119 159.009 295.148C159.009 298.229 160.818 300.192 163.778 300.192ZM161.31 294.164C161.381 292.911 162.308 291.857 163.688 291.857C165.018 291.857 165.913 292.828 165.926 294.164H161.31ZM182.92 286.909V295.263C182.92 296.906 181.776 298.082 179.98 298.082C178.178 298.082 177.04 296.906 177.04 295.263V286.909H174.668V295.462C174.668 298.274 176.778 300.198 179.98 300.198C183.17 300.198 185.292 298.274 185.292 295.462V286.909H182.92ZM195.527 292.777C195.208 291.115 193.878 290.054 191.577 290.054C189.212 290.054 187.601 291.217 187.607 293.033C187.601 294.464 188.483 295.411 190.369 295.8L192.043 296.152C192.945 296.35 193.367 296.714 193.367 297.271C193.367 297.942 192.638 298.447 191.538 298.447C190.477 298.447 189.787 297.987 189.589 297.104L187.333 297.322C187.62 299.124 189.135 300.192 191.545 300.192C193.999 300.192 195.732 298.92 195.738 297.06C195.732 295.66 194.83 294.803 192.977 294.401L191.302 294.043C190.305 293.819 189.909 293.474 189.915 292.905C189.909 292.24 190.644 291.78 191.609 291.78C192.676 291.78 193.239 292.362 193.418 293.007L195.527 292.777ZM200.471 300.198C202.012 300.198 202.932 299.476 203.354 298.651H203.431V300H205.655V293.429C205.655 290.834 203.54 290.054 201.667 290.054C199.602 290.054 198.017 290.974 197.505 292.764L199.666 293.071C199.896 292.4 200.548 291.825 201.679 291.825C202.753 291.825 203.341 292.374 203.341 293.339V293.378C203.341 294.043 202.645 294.075 200.912 294.26C199.008 294.464 197.186 295.033 197.186 297.245C197.186 299.175 198.598 300.198 200.471 300.198ZM201.072 298.498C200.107 298.498 199.417 298.057 199.417 297.207C199.417 296.318 200.19 295.947 201.226 295.8C201.833 295.717 203.047 295.564 203.348 295.321V296.478C203.348 297.571 202.466 298.498 201.072 298.498ZM212.252 303.886C214.905 303.886 216.861 302.672 216.861 300.16V290.182H214.579V291.805H214.451C214.099 291.096 213.364 290.054 211.632 290.054C209.363 290.054 207.579 291.831 207.579 295.059C207.579 298.261 209.363 299.859 211.625 299.859C213.307 299.859 214.093 298.958 214.451 298.236H214.566V300.096C214.566 301.54 213.607 302.135 212.29 302.135C210.897 302.135 210.283 301.477 210.002 300.901L207.918 301.406C208.34 302.781 209.753 303.886 212.252 303.886ZM212.271 298.044C210.743 298.044 209.938 296.855 209.938 295.046C209.938 293.263 210.731 291.952 212.271 291.952C213.76 291.952 214.579 293.186 214.579 295.046C214.579 296.919 213.748 298.044 212.271 298.044ZM223.579 300.192C225.867 300.192 227.439 299.073 227.848 297.366L225.688 297.124C225.375 297.955 224.608 298.389 223.611 298.389C222.115 298.389 221.124 297.405 221.105 295.724H227.944V295.014C227.944 291.569 225.873 290.054 223.457 290.054C220.645 290.054 218.81 292.119 218.81 295.148C218.81 298.229 220.619 300.192 223.579 300.192ZM221.111 294.164C221.182 292.911 222.108 291.857 223.489 291.857C224.819 291.857 225.714 292.828 225.726 294.164H221.111Z" fill="black"/>
</g>
<path d="M23.7216 512.465C23.7216 512.465 31.5364 497.895 35.4438 494.96C39.3512 492.025 43.2586 493.113 47.166 494.855C51.0734 496.596 54.9809 502.739 58.8883 505.409C62.7957 508.079 66.7031 511.964 70.6105 510.874C74.5179 509.785 78.4253 499.283 82.3327 498.873C86.2402 498.462 90.1476 506.054 94.055 508.41C97.9624 510.765 101.87 515.554 105.777 513.005C109.685 510.457 113.592 495.739 117.499 493.118C121.407 490.498 125.314 496.678 129.222 497.28C133.129 497.883 137.036 505.364 140.944 496.734C144.851 488.103 148.759 461.77 152.666 445.499C156.574 429.228 160.481 414.572 164.388 399.109C168.296 383.646 172.203 341.122 176.111 352.719C180.018 364.317 183.925 445.067 187.833 468.694C191.74 492.321 195.648 487.534 199.555 494.479C203.462 501.425 207.37 507.318 211.277 510.366C215.185 513.413 219.092 515.297 223 512.764C226.907 510.231 230.814 497.599 234.722 495.168C238.629 492.736 242.537 495.933 246.444 498.176C250.351 500.419 254.259 507.856 258.166 508.625C262.074 509.393 265.981 503.345 269.888 502.786C273.796 502.227 277.703 504.665 281.611 505.271C285.518 505.877 289.426 505.938 293.333 506.421C297.24 506.904 301.148 508.901 305.055 508.168C308.963 507.435 312.87 501.645 316.777 502.025C320.685 502.404 324.592 509.703 328.5 510.445C332.407 511.187 336.314 506.477 340.222 506.477C344.129 506.477 348.037 509.59 351.944 510.445C355.852 511.299 359.759 514.362 363.666 511.604C367.574 508.846 371.481 494.863 375.389 493.896C379.296 492.93 383.203 505.343 387.111 505.806C391.018 506.268 394.926 498.989 398.833 496.67C402.74 494.352 406.648 490.787 410.555 491.896C414.463 493.004 418.37 501.005 422.278 503.324C426.185 505.642 430.092 505.684 434 505.806C437.907 505.927 441.815 503.86 445.722 504.053C449.629 504.246 453.537 507.833 457.444 506.965C461.352 506.098 465.259 520.689 469.166 498.847C473.074 477.005 476.981 375.495 480.889 375.914C484.796 376.333 488.704 478.94 492.611 501.361C496.518 523.783 500.426 511.477 504.333 510.445C508.241 509.412 512.148 497.026 516.055 495.168C519.963 493.309 523.87 499.515 527.778 499.295C531.685 499.074 535.592 494.565 539.5 493.845C543.407 493.125 547.315 493.337 551.222 494.977C555.13 496.617 559.037 501.376 562.944 503.685C566.852 505.995 570.759 510.25 574.667 508.834C578.574 507.419 582.481 495.15 586.389 495.194C590.296 495.238 594.204 509.51 598.111 509.096C602.018 508.683 605.926 494.192 609.833 492.713C613.741 491.234 617.648 497.446 621.556 500.221C625.463 502.995 629.37 510.31 633.278 509.359C637.185 508.407 645 494.511 645 494.511V515.084C645 515.084 637.185 515.084 633.278 515.084C629.37 515.084 625.463 515.084 621.556 515.084C617.648 515.084 613.741 515.084 609.833 515.084C605.926 515.084 602.018 515.084 598.111 515.084C594.204 515.084 590.296 515.084 586.389 515.084C582.481 515.084 578.574 515.084 574.667 515.084C570.759 515.084 566.852 515.084 562.944 515.084C559.037 515.084 555.13 515.084 551.222 515.084C547.315 515.084 543.407 515.084 539.5 515.084C535.592 515.084 531.685 515.084 527.778 515.084C523.87 515.084 519.963 515.084 516.055 515.084C512.148 515.084 508.241 515.084 504.333 515.084C500.426 515.084 496.518 515.084 492.611 515.084C488.704 515.084 484.796 515.084 480.889 515.084C476.981 515.084 473.074 515.084 469.166 515.084C465.259 515.084 461.352 515.084 457.444 515.084C453.537 515.084 449.629 515.084 445.722 515.084C441.815 515.084 437.907 515.084 434 515.084C430.092 515.084 426.185 515.084 422.278 515.084C418.37 515.084 414.463 515.084 410.555 515.084C406.648 515.084 402.74 515.084 398.833 515.084C394.926 515.084 391.018 515.084 387.111 515.084C383.203 515.084 379.296 515.084 375.389 515.084C371.481 515.084 367.574 515.084 363.666 515.084C359.759 515.084 355.852 515.084 351.944 515.084C348.037 515.084 344.129 515.084 340.222 515.084C336.314 515.084 332.407 515.084 328.5 515.084C324.592 515.084 320.685 515.084 316.777 515.084C312.87 515.084 308.963 515.084 305.055 515.084C301.148 515.084 297.24 515.084 293.333 515.084C289.426 515.084 285.518 515.084 281.611 515.084C277.703 515.084 273.796 515.084 269.888 515.084C265.981 515.084 262.074 515.084 258.166 515.084C254.259 515.084 250.351 515.084 246.444 515.084C242.537 515.084 238.629 515.084 234.722 515.084C230.814 515.084 226.907 515.084 223 515.084C219.092 515.084 215.185 515.084 211.277 515.084C207.37 515.084 203.462 515.084 199.555 515.084C195.648 515.084 191.74 515.084 187.833 515.084C183.925 515.084 180.018 515.084 176.111 515.084C172.203 515.084 168.296 515.084 164.388 515.084C160.481 515.084 156.574 515.084 152.666 515.084C148.759 515.084 144.851 515.084 140.944 515.084C137.036 515.084 133.129 515.084 129.222 515.084C125.314 515.084 121.407 515.084 117.499 515.084C113.592 515.084 109.685 515.084 105.777 515.084C101.87 515.084 97.9624 515.084 94.055 515.084C90.1476 515.084 86.2402 515.084 82.3327 515.084C78.4253 515.084 74.5179 515.084 70.6105 515.084C66.7031 515.084 62.7957 515.084 58.8883 515.084C54.9809 515.084 51.0734 515.084 47.166 515.084C43.2586 515.084 39.3512 515.084 35.4438 515.084C31.5364 515.084 23.7216 515.084 23.7216 515.084V512.465Z" fill="url(#paint2_linear)"/>
<g clip-path="url(#clip3)">
<path d="M685.333 327.651H684.1L681.555 329.341V330.594L684.041 328.943H684.1V337.833H685.333V327.651ZM691.642 337.972C693.7 337.997 695.043 336.446 695.043 334.551C695.043 332.583 693.586 331.171 691.841 331.171C690.792 331.171 689.892 331.683 689.335 332.523H689.256C689.261 330.042 690.225 328.605 691.801 328.605C692.875 328.605 693.522 329.282 693.75 330.196H694.963C694.715 328.615 693.512 327.512 691.801 327.512C689.509 327.512 688.102 329.54 688.102 333.139C688.102 336.903 689.972 337.952 691.642 337.972ZM691.642 336.878C690.365 336.878 689.43 335.789 689.435 334.571C689.44 333.353 690.419 332.264 691.682 332.264C692.93 332.264 693.85 333.289 693.85 334.551C693.85 335.844 692.89 336.878 691.642 336.878Z" fill="black"/>
<path d="M685.593 373.468H684.36L681.815 375.158V376.411L684.3 374.76H684.36V383.649H685.593V373.468ZM688.521 383.649H694.945V382.556H690.212V382.476L692.499 380.03C694.249 378.156 694.766 377.281 694.766 376.152C694.766 374.581 693.493 373.328 691.703 373.328C689.918 373.328 688.561 374.541 688.561 376.331H689.734C689.734 375.173 690.485 374.402 691.663 374.402C692.767 374.402 693.612 375.078 693.612 376.152C693.612 377.092 693.06 377.788 691.882 379.076L688.521 382.755V383.649Z" fill="black"/>
<path d="M691.632 428.609C693.666 428.609 695.083 427.421 695.093 425.766C695.083 424.478 694.223 423.384 693.124 423.18V423.121C694.078 422.872 694.705 421.937 694.715 420.854C694.705 419.303 693.402 418.149 691.632 418.149C689.843 418.149 688.54 419.303 688.55 420.854C688.54 421.937 689.166 422.872 690.141 423.121V423.18C689.022 423.384 688.162 424.478 688.172 425.766C688.162 427.421 689.579 428.609 691.632 428.609ZM691.632 427.516C690.235 427.516 689.375 426.8 689.385 425.706C689.375 424.557 690.325 423.737 691.632 423.737C692.92 423.737 693.87 424.557 693.88 425.706C693.87 426.8 693.009 427.516 691.632 427.516ZM691.632 422.683C690.519 422.683 689.733 421.987 689.743 420.933C689.733 419.899 690.489 419.223 691.632 419.223C692.756 419.223 693.512 419.899 693.522 420.933C693.512 421.987 692.726 422.683 691.632 422.683Z" fill="black"/>
<path d="M687.777 472.199H692.569V474.287H693.743V472.199H695.135V471.105H693.743V464.105H692.251L687.777 471.185V472.199ZM692.569 471.105H689.109V471.025L692.49 465.676H692.569V471.105Z" fill="black"/>
<path d="M691.569 520.243C693.816 520.243 695.109 518.339 695.109 515.013C695.109 511.712 693.796 509.783 691.569 509.783C689.342 509.783 688.029 511.712 688.029 515.013C688.029 518.339 689.322 520.243 691.569 520.243ZM691.569 519.149C690.087 519.149 689.222 517.663 689.222 515.013C689.222 512.368 690.097 510.856 691.569 510.856C693.041 510.856 693.916 512.368 693.916 515.013C693.916 517.663 693.05 519.149 691.569 519.149Z" fill="black"/>
<line x1="702.722" y1="333.309" x2="1324" y2="333.309" stroke="black" stroke-opacity="0.08"/>
<line x1="702.722" y1="378.129" x2="1324" y2="378.129" stroke="black" stroke-opacity="0.08"/>
<line x1="702.722" y1="423.946" x2="1324" y2="423.946" stroke="black" stroke-opacity="0.08"/>
<line x1="702.722" y1="469.763" x2="1324" y2="469.763" stroke="black" stroke-opacity="0.08"/>
<line x1="702.722" y1="515.58" x2="1324" y2="515.58" stroke="black" stroke-opacity="0.08"/>
<path d="M796.522 525.818H795.289L792.744 527.509V528.761L795.23 527.111H795.289V536H796.522V525.818ZM802.771 536.139C805.019 536.139 806.311 534.235 806.311 530.909C806.311 527.608 804.999 525.679 802.771 525.679C800.544 525.679 799.232 527.608 799.232 530.909C799.232 534.235 800.524 536.139 802.771 536.139ZM802.771 535.045C801.29 535.045 800.425 533.559 800.425 530.909C800.425 528.264 801.3 526.753 802.771 526.753C804.243 526.753 805.118 528.264 805.118 530.909C805.118 533.559 804.253 535.045 802.771 535.045ZM812.735 536L813.759 533.116H817.875L818.899 536H820.192L816.453 525.818H815.181L811.442 536H812.735ZM814.146 532.023L815.777 527.429H815.857L817.487 532.023H814.146ZM821.778 525.818V536H822.931V528.264H823.031L826.213 536H827.326L830.508 528.264H830.607V536H831.761V525.818H830.289L826.829 534.27H826.71L823.249 525.818H821.778Z" fill="black"/>
<path d="M928.37 525.818H927.137L924.591 527.509V528.761L927.077 527.111H927.137V536H928.37V525.818ZM931.298 536H937.721V534.906H932.988V534.827L935.275 532.381C937.025 530.506 937.542 529.631 937.542 528.503C937.542 526.932 936.27 525.679 934.48 525.679C932.695 525.679 931.338 526.892 931.338 528.682H932.511C932.511 527.523 933.262 526.753 934.44 526.753C935.544 526.753 936.389 527.429 936.389 528.503C936.389 529.442 935.837 530.138 934.659 531.426L931.298 535.105V536ZM943.891 536H945.124V532.281H947.351C949.723 532.281 950.792 530.839 950.792 529.04C950.792 527.24 949.723 525.818 947.331 525.818H943.891V536ZM945.124 531.188V526.912H947.292C948.947 526.912 949.579 527.817 949.579 529.04C949.579 530.263 948.947 531.188 947.312 531.188H945.124ZM952.778 525.818V536H953.931V528.264H954.031L957.213 536H958.326L961.508 528.264H961.607V536H962.761V525.818H961.289L957.829 534.27H957.71L954.249 525.818H952.778Z" fill="black"/>
<path d="M1055.3 536H1061.72V534.906H1056.99V534.827L1059.28 532.381C1061.03 530.506 1061.54 529.631 1061.54 528.503C1061.54 526.932 1060.27 525.679 1058.48 525.679C1056.7 525.679 1055.34 526.892 1055.34 528.682H1056.51C1056.51 527.523 1057.26 526.753 1058.44 526.753C1059.54 526.753 1060.39 527.429 1060.39 528.503C1060.39 529.442 1059.84 530.138 1058.66 531.426L1055.3 535.105V536ZM1067.89 536H1069.12V532.281H1071.35C1073.72 532.281 1074.79 530.839 1074.79 529.04C1074.79 527.24 1073.72 525.818 1071.33 525.818H1067.89V536ZM1069.12 531.188V526.912H1071.29C1072.95 526.912 1073.58 527.817 1073.58 529.04C1073.58 530.263 1072.95 531.188 1071.31 531.188H1069.12ZM1076.78 525.818V536H1077.93V528.264H1078.03L1081.21 536H1082.33L1085.51 528.264H1085.61V536H1086.76V525.818H1085.29L1081.83 534.27H1081.71L1078.25 525.818H1076.78Z" fill="black"/>
<path d="M1179.55 533.912H1184.35V536H1185.52V533.912H1186.91V532.818H1185.52V525.818H1184.03L1179.55 532.898V533.912ZM1184.35 532.818H1180.89V532.739L1184.27 527.389H1184.35V532.818ZM1192.89 536H1194.12V532.281H1196.35C1198.72 532.281 1199.79 530.839 1199.79 529.04C1199.79 527.24 1198.72 525.818 1196.33 525.818H1192.89V536ZM1194.12 531.188V526.912H1196.29C1197.95 526.912 1198.58 527.817 1198.58 529.04C1198.58 530.263 1197.95 531.188 1196.31 531.188H1194.12ZM1201.78 525.818V536H1202.93V528.264H1203.03L1206.21 536H1207.33L1210.51 528.264H1210.61V536H1211.76V525.818H1210.29L1206.83 534.27H1206.71L1203.25 525.818H1201.78Z" fill="black"/>
<path d="M702.883 300H705.255V294.439H710.694V292.451H705.255V288.897H711.269V286.909H702.883V300ZM713.187 300H715.501V294.228C715.501 292.982 716.441 292.099 717.713 292.099C718.103 292.099 718.588 292.17 718.787 292.234V290.105C718.576 290.067 718.211 290.041 717.956 290.041C716.831 290.041 715.891 290.68 715.533 291.818H715.431V290.182H713.187V300ZM724.266 300.192C726.554 300.192 728.127 299.073 728.536 297.366L726.375 297.124C726.062 297.955 725.295 298.389 724.298 298.389C722.802 298.389 721.812 297.405 721.792 295.724H728.632V295.014C728.632 291.569 726.561 290.054 724.145 290.054C721.332 290.054 719.498 292.119 719.498 295.148C719.498 298.229 721.307 300.192 724.266 300.192ZM721.799 294.164C721.869 292.911 722.796 291.857 724.177 291.857C725.506 291.857 726.401 292.828 726.414 294.164H721.799ZM734.233 300.173C735.92 300.173 736.681 299.169 737.045 298.453H737.186V300H739.462V286.909H737.141V291.805H737.045C736.694 291.096 735.972 290.054 734.239 290.054C731.97 290.054 730.187 291.831 730.187 295.104C730.187 298.338 731.919 300.173 734.233 300.173ZM734.878 298.274C733.351 298.274 732.545 296.932 732.545 295.091C732.545 293.263 733.338 291.952 734.878 291.952C736.368 291.952 737.186 293.186 737.186 295.091C737.186 296.996 736.355 298.274 734.878 298.274ZM743.89 286.909H742.049V288.226C742.049 289.268 741.64 290.067 741.173 290.77L742.247 291.467C743.187 290.687 743.89 289.344 743.89 288.213V286.909ZM752.254 292.777C751.934 291.115 750.605 290.054 748.303 290.054C745.938 290.054 744.328 291.217 744.334 293.033C744.328 294.464 745.21 295.411 747.095 295.8L748.77 296.152C749.671 296.35 750.093 296.714 750.093 297.271C750.093 297.942 749.364 298.447 748.265 298.447C747.204 298.447 746.514 297.987 746.315 297.104L744.059 297.322C744.347 299.124 745.862 300.192 748.271 300.192C750.726 300.192 752.458 298.92 752.465 297.06C752.458 295.66 751.557 294.803 749.703 294.401L748.029 294.043C747.031 293.819 746.635 293.474 746.641 292.905C746.635 292.24 747.37 291.78 748.335 291.78C749.403 291.78 749.965 292.362 750.144 293.007L752.254 292.777ZM770.145 291.326C769.742 288.418 767.505 286.73 764.603 286.73C761.183 286.73 758.607 289.223 758.607 293.455C758.607 297.68 761.151 300.179 764.603 300.179C767.716 300.179 769.781 298.165 770.145 295.666L767.754 295.653C767.454 297.188 766.201 298.05 764.635 298.05C762.513 298.05 760.992 296.459 760.992 293.455C760.992 290.501 762.5 288.859 764.641 288.859C766.233 288.859 767.48 289.76 767.754 291.326H770.145ZM772.317 300H774.688V295.577H777.194C780.217 295.577 781.841 293.761 781.841 291.243C781.841 288.744 780.236 286.909 777.226 286.909H772.317V300ZM774.688 293.627V288.891H776.861C778.638 288.891 779.425 289.849 779.425 291.243C779.425 292.636 778.638 293.627 776.874 293.627H774.688ZM792.153 286.909V295.263C792.153 296.906 791.009 298.082 789.212 298.082C787.41 298.082 786.272 296.906 786.272 295.263V286.909H783.901V295.462C783.901 298.274 786.01 300.198 789.212 300.198C792.402 300.198 794.524 298.274 794.524 295.462V286.909H792.153ZM812.772 291.326C812.369 288.418 810.132 286.73 807.23 286.73C803.81 286.73 801.234 289.223 801.234 293.455C801.234 297.68 803.778 300.179 807.23 300.179C810.343 300.179 812.408 298.165 812.772 295.666L810.381 295.653C810.081 297.188 808.828 298.05 807.262 298.05C805.14 298.05 803.619 296.459 803.619 293.455C803.619 290.501 805.127 288.859 807.268 288.859C808.86 288.859 810.106 289.76 810.381 291.326H812.772ZM819.124 300.192C822 300.192 823.829 298.165 823.829 295.129C823.829 292.087 822 290.054 819.124 290.054C816.248 290.054 814.42 292.087 814.42 295.129C814.42 298.165 816.248 300.192 819.124 300.192ZM819.137 298.338C817.545 298.338 816.765 296.919 816.765 295.123C816.765 293.327 817.545 291.888 819.137 291.888C820.703 291.888 821.483 293.327 821.483 295.123C821.483 296.919 820.703 298.338 819.137 298.338ZM825.793 300H828.106V294.228C828.106 292.982 829.046 292.099 830.318 292.099C830.708 292.099 831.194 292.17 831.392 292.234V290.105C831.181 290.067 830.817 290.041 830.561 290.041C829.436 290.041 828.496 290.68 828.138 291.818H828.036V290.182H825.793V300ZM836.872 300.192C839.16 300.192 840.732 299.073 841.141 297.366L838.981 297.124C838.668 297.955 837.901 298.389 836.904 298.389C835.408 298.389 834.417 297.405 834.398 295.724H841.237V295.014C841.237 291.569 839.166 290.054 836.75 290.054C833.938 290.054 832.103 292.119 832.103 295.148C832.103 298.229 833.912 300.192 836.872 300.192ZM834.404 294.164C834.475 292.911 835.401 291.857 836.782 291.857C838.112 291.857 839.007 292.828 839.019 294.164H834.404ZM856.014 286.909V295.263C856.014 296.906 854.87 298.082 853.074 298.082C851.271 298.082 850.133 296.906 850.133 295.263V286.909H847.762V295.462C847.762 298.274 849.871 300.198 853.074 300.198C856.263 300.198 858.386 298.274 858.386 295.462V286.909H856.014ZM868.621 292.777C868.301 291.115 866.972 290.054 864.671 290.054C862.306 290.054 860.695 291.217 860.701 293.033C860.695 294.464 861.577 295.411 863.462 295.8L865.137 296.152C866.038 296.35 866.46 296.714 866.46 297.271C866.46 297.942 865.732 298.447 864.632 298.447C863.571 298.447 862.881 297.987 862.683 297.104L860.426 297.322C860.714 299.124 862.229 300.192 864.639 300.192C867.093 300.192 868.825 298.92 868.832 297.06C868.825 295.66 867.924 294.803 866.07 294.401L864.396 294.043C863.399 293.819 863.002 293.474 863.009 292.905C863.002 292.24 863.737 291.78 864.703 291.78C865.77 291.78 866.333 292.362 866.511 293.007L868.621 292.777ZM873.565 300.198C875.106 300.198 876.026 299.476 876.448 298.651H876.525V300H878.749V293.429C878.749 290.834 876.633 290.054 874.76 290.054C872.696 290.054 871.111 290.974 870.599 292.764L872.76 293.071C872.99 292.4 873.642 291.825 874.773 291.825C875.847 291.825 876.435 292.374 876.435 293.339V293.378C876.435 294.043 875.738 294.075 874.006 294.26C872.101 294.464 870.28 295.033 870.28 297.245C870.28 299.175 871.692 300.198 873.565 300.198ZM874.166 298.498C873.201 298.498 872.51 298.057 872.51 297.207C872.51 296.318 873.284 295.947 874.319 295.8C874.927 295.717 876.141 295.564 876.442 295.321V296.478C876.442 297.571 875.559 298.498 874.166 298.498ZM885.346 303.886C887.998 303.886 889.954 302.672 889.954 300.16V290.182H887.672V291.805H887.545C887.193 291.096 886.458 290.054 884.726 290.054C882.456 290.054 880.673 291.831 880.673 295.059C880.673 298.261 882.456 299.859 884.719 299.859C886.4 299.859 887.187 298.958 887.545 298.236H887.66V300.096C887.66 301.54 886.701 302.135 885.384 302.135C883.991 302.135 883.377 301.477 883.096 300.901L881.012 301.406C881.434 302.781 882.846 303.886 885.346 303.886ZM885.365 298.044C883.837 298.044 883.032 296.855 883.032 295.046C883.032 293.263 883.824 291.952 885.365 291.952C886.854 291.952 887.672 293.186 887.672 295.046C887.672 296.919 886.841 298.044 885.365 298.044ZM896.672 300.192C898.961 300.192 900.533 299.073 900.942 297.366L898.782 297.124C898.469 297.955 897.701 298.389 896.704 298.389C895.209 298.389 894.218 297.405 894.199 295.724H901.038V295.014C901.038 291.569 898.967 290.054 896.551 290.054C893.738 290.054 891.904 292.119 891.904 295.148C891.904 298.229 893.713 300.192 896.672 300.192ZM894.205 294.164C894.275 292.911 895.202 291.857 896.583 291.857C897.912 291.857 898.807 292.828 898.82 294.164H894.205Z" fill="black"/>
</g>
<g clip-path="url(#clip4)">
<path d="M702.722 509.874C702.722 509.874 710.536 510.882 714.444 511.165C718.351 511.448 722.259 514.793 726.166 511.572C730.073 508.351 733.981 491.45 737.888 491.84C741.796 492.23 745.703 513.941 749.61 513.913C753.518 513.886 757.425 495.069 761.333 491.676C765.24 488.282 769.148 490.039 773.055 493.55C776.962 497.061 780.87 512.633 784.777 512.741C788.685 512.849 792.592 496.568 796.499 494.199C800.407 491.83 804.314 498.774 808.222 498.527C812.129 498.28 816.036 491.994 819.944 492.716C823.851 493.439 827.759 502.697 831.666 502.861C835.574 503.025 839.481 491.858 843.388 493.7C847.296 495.542 851.203 510.64 855.111 513.913C857.035 515.528 865.783 515.084 866.833 513.339C870.74 509.657 874.648 493.795 878.555 491.826C882.462 489.857 886.37 501.38 890.277 501.525C894.185 501.669 898.092 494.084 902 492.692C905.907 491.3 909.814 493.257 913.722 493.173C917.629 493.09 921.537 489.018 925.444 492.191C929.351 495.364 933.259 508.975 937.166 512.211C941.074 515.446 944.981 513.484 948.888 511.602C952.796 509.719 956.703 501.021 960.611 500.916C964.518 500.811 968.426 510.675 972.333 510.973C976.24 511.27 980.148 503.038 984.055 502.703C987.963 502.367 991.87 510.299 995.777 508.958C999.685 507.617 1003.59 493.831 1007.5 494.657C1011.41 495.483 1015.31 513.913 1019.22 513.913C1023.13 513.913 1027.04 494.485 1030.94 494.657C1034.85 494.829 1038.76 514.383 1042.67 514.944C1046.57 515.504 1050.48 498.386 1054.39 498.019C1058.3 497.652 1062.2 513.787 1066.11 512.743C1070.02 511.699 1073.93 492.341 1077.83 491.756C1081.74 491.17 1085.65 520.95 1089.56 509.231C1093.46 497.512 1097.37 421.637 1101.28 421.442C1105.18 421.247 1109.09 495.888 1113 508.061C1116.91 520.233 1120.81 496.769 1124.72 494.478C1128.63 492.188 1132.54 494.749 1136.44 494.32C1140.35 493.891 1144.26 490.223 1148.17 491.905C1152.07 493.587 1155.98 500.799 1159.89 504.412C1163.8 508.025 1167.7 515.21 1171.61 513.584C1175.52 511.958 1179.43 498.059 1183.33 494.657C1187.24 491.255 1191.15 490.023 1195.06 493.173C1198.96 496.323 1202.87 513.409 1206.78 513.557C1210.69 513.706 1214.59 513.32 1218.5 494.066C1222.41 474.811 1226.31 417.939 1230.22 398.032C1234.13 378.124 1238.04 356.166 1241.94 374.621C1245.85 393.077 1249.76 489.179 1253.67 508.764C1257.57 528.35 1261.48 494.941 1265.39 492.136C1269.3 489.33 1273.2 488.886 1277.11 491.931C1281.02 494.975 1284.93 509.669 1288.83 510.402C1292.74 511.134 1296.65 495.963 1300.56 496.324C1304.46 496.684 1308.37 513.325 1312.28 512.562C1316.19 511.799 1324 491.745 1324 491.745V515.084C1324 515.084 1316.19 515.084 1312.28 515.084C1308.37 515.084 1304.46 515.084 1300.56 515.084C1296.65 515.084 1292.74 515.084 1288.83 515.084C1284.93 515.084 1281.02 515.084 1277.11 515.084C1273.2 515.084 1269.3 515.084 1265.39 515.084C1261.48 515.084 1257.57 515.084 1253.67 515.084C1249.76 515.084 1245.85 515.084 1241.94 515.084C1238.04 515.084 1234.13 515.084 1230.22 515.084C1226.31 515.084 1222.41 515.084 1218.5 515.084C1214.59 515.084 1210.69 515.084 1206.78 515.084C1202.87 515.084 1198.96 515.084 1195.06 515.084C1191.15 515.084 1187.24 515.084 1183.33 515.084C1179.43 515.084 1175.52 515.084 1171.61 515.084C1167.7 515.084 1163.8 515.084 1159.89 515.084C1155.98 515.084 1152.07 515.084 1148.17 515.084C1144.26 515.084 1140.35 515.084 1136.44 515.084C1132.54 515.084 1128.63 515.084 1124.72 515.084C1120.81 515.084 1116.91 515.084 1113 515.084C1109.09 515.084 1105.18 515.084 1101.28 515.084C1097.37 515.084 1093.46 515.084 1089.56 515.084C1085.65 515.084 1081.74 515.084 1077.83 515.084C1073.93 515.084 1070.02 515.084 1066.11 515.084C1062.2 515.084 1058.3 515.084 1054.39 515.084C1050.48 515.084 1046.57 515.084 1042.67 515.084C1038.76 515.084 1034.85 515.084 1030.94 515.084C1027.04 515.084 1023.13 515.084 1019.22 515.084C1015.31 515.084 1011.41 515.084 1007.5 515.084C1003.59 515.084 999.685 515.084 995.777 515.084C991.87 515.084 987.963 515.084 984.055 515.084C980.148 515.084 976.24 515.084 972.333 515.084C968.426 515.084 964.518 515.084 960.611 515.084C956.703 515.084 952.796 515.084 948.888 515.084C944.981 515.084 941.074 515.084 937.166 515.084C933.259 515.084 929.351 515.084 925.444 515.084C921.537 515.084 917.629 515.084 913.722 515.084C909.814 515.084 905.907 515.084 902 515.084C898.092 515.084 894.185 515.084 890.277 515.084C886.37 515.084 882.462 515.084 878.555 515.084C874.648 515.084 870.74 515.084 866.833 515.084C862.925 515.084 859.018 515.084 855.111 515.084C851.203 515.084 847.296 515.084 843.388 515.084C839.481 515.084 835.574 515.084 831.666 515.084C827.759 515.084 823.851 515.084 819.944 515.084C816.036 515.084 812.129 515.084 808.222 515.084C804.314 515.084 800.407 515.084 796.499 515.084C792.592 515.084 788.685 515.084 784.777 515.084C780.87 515.084 776.962 515.084 773.055 515.084C769.148 515.084 765.24 515.084 761.333 515.084C757.425 515.084 753.518 515.084 749.61 515.084C745.703 515.084 741.796 515.084 737.888 515.084C733.981 515.084 730.073 515.084 726.166 515.084C722.259 515.084 718.351 515.084 714.444 515.084C710.536 515.084 702.722 515.084 702.722 515.084V509.874Z" fill="url(#paint3_linear)"/>
</g>
<defs>
<linearGradient id="paint0_linear" x1="334.361" y1="110.558" x2="334.361" y2="229.084" gradientUnits="userSpaceOnUse">
<stop stop-color="#D0EFD2"/>
<stop offset="1" stop-color="#A2E0A5"/>
</linearGradient>
<linearGradient id="paint1_linear" x1="1002.36" y1="111.554" x2="1002.36" y2="229.084" gradientUnits="userSpaceOnUse">
<stop stop-color="#D0EBEF"/>
<stop offset="1" stop-color="#A2D9E0"/>
</linearGradient>
<linearGradient id="paint2_linear" x1="334.361" y1="350.741" x2="334.361" y2="515.084" gradientUnits="userSpaceOnUse">
<stop stop-color="#D4D0EF"/>
<stop offset="1" stop-color="#ABA2E0"/>
</linearGradient>
<linearGradient id="paint3_linear" x1="1013.36" y1="367.673" x2="1013.36" y2="515.084" gradientUnits="userSpaceOnUse">
<stop stop-color="#EED0EF"/>
<stop offset="1" stop-color="#E0A2DE"/>
</linearGradient>
<clipPath id="clip0">
<rect width="645" height="250" fill="white"/>
</clipPath>
<clipPath id="clip1">
<rect width="645" height="250" fill="white" transform="translate(668)"/>
</clipPath>
<clipPath id="clip2">
<rect width="645" height="250" fill="white" transform="translate(0 286)"/>
</clipPath>
<clipPath id="clip3">
<rect width="645" height="250" fill="white" transform="translate(679 286)"/>
</clipPath>
<clipPath id="clip4">
<rect width="621.278" height="147.41" fill="white" transform="translate(702.722 367.673)"/>
</clipPath>
</defs>
</svg>