<svg width="1326" height="257" viewBox="0 0 1326 257" fill="none" xmlns="http://www.w3.org/2000/svg">
<g clip-path="url(#clip0)">
<path d="M24.223 47.8182H22.99L20.4446 49.5085V50.7614L22.9304 49.1108H22.99V58H24.223V47.8182ZM30.5319 58.1392C32.5902 58.1641 33.9325 56.6129 33.9325 54.7188C33.9325 52.75 32.4758 51.3381 30.7308 51.3381C29.6818 51.3381 28.7819 51.8501 28.2251 52.6903H28.1456C28.1505 50.2095 29.115 48.7727 30.691 48.7727C31.7649 48.7727 32.4112 49.4489 32.6399 50.3636H33.853C33.6044 48.7827 32.4012 47.679 30.691 47.679C28.3991 47.679 26.9922 49.7074 26.9922 53.3068C26.9922 57.0703 28.8615 58.1193 30.5319 58.1392ZM30.5319 57.0455C29.2542 57.0455 28.3196 55.9567 28.3245 54.7386C28.3295 53.5206 29.3089 52.4318 30.5717 52.4318C31.8196 52.4318 32.7393 53.456 32.7393 54.7188C32.7393 56.0114 31.7798 57.0455 30.5319 57.0455Z" fill="black"/>
<path d="M24.4828 93.8182H23.2498L20.7044 95.5085V96.7614L23.1902 95.1108H23.2498V104H24.4828V93.8182ZM27.411 104H33.8343V102.906H29.1014V102.827L31.3883 100.381C33.1383 98.5064 33.6554 97.6314 33.6554 96.5028C33.6554 94.9318 32.3826 93.679 30.5929 93.679C28.8081 93.679 27.4508 94.892 27.4508 96.6818H28.6241C28.6241 95.5234 29.3748 94.7528 30.5531 94.7528C31.6568 94.7528 32.5019 95.429 32.5019 96.5028C32.5019 97.4425 31.9501 98.1385 30.7718 99.4261L27.411 103.105V104Z" fill="black"/>
<path d="M30.522 149.139C32.5554 149.139 33.9723 147.951 33.9823 146.295C33.9723 145.008 33.1122 143.914 32.0135 143.71V143.651C32.9681 143.402 33.5945 142.467 33.6044 141.384C33.5945 139.832 32.2919 138.679 30.522 138.679C28.7323 138.679 27.4297 139.832 27.4396 141.384C27.4297 142.467 28.0561 143.402 29.0306 143.651V143.71C27.9119 143.914 27.0519 145.008 27.0618 146.295C27.0519 147.951 28.4688 149.139 30.522 149.139ZM30.522 148.045C29.125 148.045 28.2649 147.33 28.2749 146.236C28.2649 145.087 29.2145 144.267 30.522 144.267C31.8097 144.267 32.7593 145.087 32.7692 146.236C32.7593 147.33 31.8992 148.045 30.522 148.045ZM30.522 143.213C29.4084 143.213 28.6229 142.517 28.6328 141.463C28.6229 140.429 29.3786 139.753 30.522 139.753C31.6456 139.753 32.4013 140.429 32.4112 141.463C32.4013 142.517 31.6158 143.213 30.522 143.213Z" fill="black"/>
<path d="M26.6666 192.912H31.4592V195H32.6325V192.912H34.0245V191.818H32.6325V184.818H31.141L26.6666 191.898V192.912ZM31.4592 191.818H27.999V191.739L31.3796 186.389H31.4592V191.818Z" fill="black"/>
<path d="M30.4586 241.139C32.7058 241.139 33.9984 239.235 33.9984 235.909C33.9984 232.608 32.6859 230.679 30.4586 230.679C28.2314 230.679 26.9189 232.608 26.9189 235.909C26.9189 239.235 28.2115 241.139 30.4586 241.139ZM30.4586 240.045C28.9771 240.045 28.1121 238.559 28.1121 235.909C28.1121 233.264 28.9871 231.753 30.4586 231.753C31.9302 231.753 32.8052 233.264 32.8052 235.909C32.8052 238.559 31.9402 240.045 30.4586 240.045Z" fill="black"/>
<line x1="48.7671" y1="53.5" x2="1326" y2="53.5" stroke="black" stroke-opacity="0.08"/>
<line x1="48.7671" y1="98.5" x2="1326" y2="98.5" stroke="black" stroke-opacity="0.08"/>
<line x1="48.7671" y1="144.5" x2="1326" y2="144.5" stroke="black" stroke-opacity="0.08"/>
<line x1="48.7671" y1="190.5" x2="1326" y2="190.5" stroke="black" stroke-opacity="0.08"/>
<line x1="48.7671" y1="236.5" x2="1326" y2="236.5" stroke="black" stroke-opacity="0.08"/>
<path d="M279.773 246.818H278.54L275.995 248.509V249.761L278.481 248.111H278.54V257H279.773V246.818ZM286.023 257.139C288.27 257.139 289.562 255.235 289.562 251.909C289.562 248.608 288.25 246.679 286.023 246.679C283.795 246.679 282.483 248.608 282.483 251.909C282.483 255.235 283.776 257.139 286.023 257.139ZM286.023 256.045C284.541 256.045 283.676 254.559 283.676 251.909C283.676 249.264 284.551 247.753 286.023 247.753C287.494 247.753 288.369 249.264 288.369 251.909C288.369 254.559 287.504 256.045 286.023 256.045ZM295.986 257L297.01 254.116H301.126L302.151 257H303.443L299.705 246.818H298.432L294.693 257H295.986ZM297.398 253.023L299.028 248.429H299.108L300.739 253.023H297.398ZM305.029 246.818V257H306.183V249.264H306.282L309.464 257H310.577L313.759 249.264H313.859V257H315.012V246.818H313.54L310.08 255.27H309.961L306.501 246.818H305.029Z" fill="black"/>
<path d="M549.989 246.818H548.756L546.21 248.509V249.761L548.696 248.111H548.756V257H549.989V246.818ZM552.917 257H559.34V255.906H554.607V255.827L556.894 253.381C558.644 251.506 559.161 250.631 559.161 249.503C559.161 247.932 557.888 246.679 556.099 246.679C554.314 246.679 552.957 247.892 552.957 249.682H554.13C554.13 248.523 554.881 247.753 556.059 247.753C557.163 247.753 558.008 248.429 558.008 249.503C558.008 250.442 557.456 251.138 556.278 252.426L552.917 256.105V257ZM565.51 257H566.743V253.281H568.97C571.341 253.281 572.41 251.839 572.41 250.04C572.41 248.24 571.341 246.818 568.95 246.818H565.51V257ZM566.743 252.188V247.912H568.91C570.566 247.912 571.197 248.817 571.197 250.04C571.197 251.263 570.566 252.188 568.93 252.188H566.743ZM574.397 246.818V257H575.55V249.264H575.649L578.831 257H579.945L583.127 249.264H583.226V257H584.379V246.818H582.908L579.448 255.27H579.328L575.868 246.818H574.397Z" fill="black"/>
<path d="M807.228 257H813.652V255.906H808.919V255.827L811.206 253.381C812.956 251.506 813.473 250.631 813.473 249.503C813.473 247.932 812.2 246.679 810.41 246.679C808.625 246.679 807.268 247.892 807.268 249.682H808.441C808.441 248.523 809.192 247.753 810.37 247.753C811.474 247.753 812.319 248.429 812.319 249.503C812.319 250.442 811.767 251.138 810.589 252.426L807.228 256.105V257ZM819.821 257H821.054V253.281H823.282C825.653 253.281 826.722 251.839 826.722 250.04C826.722 248.24 825.653 246.818 823.262 246.818H819.821V257ZM821.054 252.188V247.912H823.222C824.877 247.912 825.509 248.817 825.509 250.04C825.509 251.263 824.877 252.188 823.242 252.188H821.054ZM828.708 246.818V257H829.861V249.264H829.961L833.143 257H834.256L837.438 249.264H837.538V257H838.691V246.818H837.219L833.759 255.27H833.64L830.18 246.818H828.708Z" fill="black"/>
<path d="M1063.4 254.912H1068.2V257H1069.37V254.912H1070.76V253.818H1069.37V246.818H1067.88L1063.4 253.898V254.912ZM1068.2 253.818H1064.74V253.739L1068.12 248.389H1068.2V253.818ZM1076.74 257H1077.98V253.281H1080.2C1082.57 253.281 1083.64 251.839 1083.64 250.04C1083.64 248.24 1082.57 246.818 1080.18 246.818H1076.74V257ZM1077.98 252.188V247.912H1080.14C1081.8 247.912 1082.43 248.817 1082.43 250.04C1082.43 251.263 1081.8 252.188 1080.16 252.188H1077.98ZM1085.63 246.818V257H1086.78V249.264H1086.88L1090.06 257H1091.18L1094.36 249.264H1094.46V257H1095.61V246.818H1094.14L1090.68 255.27H1090.56L1087.1 246.818H1085.63Z" fill="black"/>
<path d="M54.8504 10.5158H57.1323C57.0876 8.30416 55.2019 6.73811 52.415 6.73811C49.6664 6.73811 47.6018 8.28498 47.6082 10.5989C47.6082 12.4782 48.9441 13.5584 51.0982 14.1145L52.5876 14.4981C54.0002 14.856 54.9335 15.2971 54.9399 16.3134C54.9335 17.432 53.8724 18.1799 52.3255 18.1799C50.8426 18.1799 49.692 17.5151 49.5961 16.1408H47.263C47.3589 18.7424 49.2957 20.2061 52.3447 20.2061C55.4832 20.2061 57.3049 18.6401 57.3113 16.3326C57.3049 14.0634 55.432 13.0279 53.4633 12.5613L52.236 12.2544C51.1622 11.9988 49.9988 11.5449 50.0116 10.4519C50.018 9.46751 50.9001 8.74521 52.383 8.74521C53.7957 8.74521 54.7289 9.40359 54.8504 10.5158ZM61.6371 14.2552C61.6371 12.8361 62.5192 12.0179 63.7593 12.0179C64.9738 12.0179 65.6897 12.7914 65.6897 14.1145V20.008H68.0036V13.7566C68.0036 11.3851 66.6613 10.062 64.6222 10.062C63.1137 10.062 62.1549 10.7459 61.701 11.8581H61.586V6.91709H59.3232V20.008H61.6371V14.2552ZM73.1875 20.2061C74.728 20.2061 75.6485 19.4838 76.0704 18.6593H76.1471V20.008H78.3715V13.437C78.3715 10.8418 76.2557 10.062 74.3829 10.062C72.3182 10.062 70.733 10.9824 70.2216 12.7722L72.3821 13.079C72.6123 12.4079 73.2642 11.8326 74.3956 11.8326C75.4695 11.8326 76.0576 12.3823 76.0576 13.3475V13.3858C76.0576 14.0506 75.3608 14.0826 73.6286 14.2679C71.7238 14.4725 69.902 15.0414 69.902 17.253C69.902 19.1834 71.3147 20.2061 73.1875 20.2061ZM73.7884 18.5059C72.8232 18.5059 72.1329 18.0648 72.1329 17.2147C72.1329 16.3262 72.9063 15.9554 73.9418 15.8084C74.549 15.7253 75.7635 15.5719 76.064 15.329V16.486C76.064 17.579 75.1819 18.5059 73.7884 18.5059ZM80.6982 20.008H83.0121V14.236C83.0121 12.9895 83.9517 12.1074 85.2238 12.1074C85.6137 12.1074 86.0995 12.1777 86.2976 12.2417V10.1131C86.0867 10.0748 85.7223 10.0492 85.4667 10.0492C84.3417 10.0492 83.402 10.6884 83.0441 11.8262H82.9418V10.1898H80.6982V20.008ZM91.7772 20.1998C94.0656 20.1998 95.638 19.0811 96.0471 17.3745L93.8866 17.1316C93.5734 17.9625 92.8063 18.3972 91.8092 18.3972C90.3134 18.3972 89.3227 17.4128 89.3035 15.7317H96.143V15.0222C96.143 11.5769 94.072 10.062 91.6558 10.062C88.8433 10.062 87.0087 12.1266 87.0087 15.1564C87.0087 18.2374 88.8177 20.1998 91.7772 20.1998ZM89.3099 14.1721C89.3802 12.9192 90.307 11.8645 91.6877 11.8645C93.0173 11.8645 93.9122 12.8361 93.9249 14.1721H89.3099ZM101.744 20.1806C103.432 20.1806 104.192 19.177 104.557 18.4611H104.697V20.008H106.973V6.91709H104.652V11.8134H104.557C104.205 11.1039 103.483 10.062 101.75 10.062C99.4812 10.062 97.6978 11.839 97.6978 15.1117C97.6978 18.3461 99.4301 20.1806 101.744 20.1806ZM102.39 18.2821C100.862 18.2821 100.057 16.9398 100.057 15.0989C100.057 13.2708 100.849 11.9604 102.39 11.9604C103.879 11.9604 104.697 13.1941 104.697 15.0989C104.697 17.0037 103.866 18.2821 102.39 18.2821ZM125.211 11.334C124.808 8.42561 122.571 6.73811 119.669 6.73811C116.249 6.73811 113.673 9.23101 113.673 13.4625C113.673 17.6877 116.217 20.187 119.669 20.187C122.782 20.187 124.846 18.1735 125.211 15.6742L122.82 15.6614C122.52 17.1955 121.267 18.0584 119.701 18.0584C117.579 18.0584 116.057 16.4668 116.057 13.4625C116.057 10.5094 117.566 8.86666 119.707 8.86666C121.299 8.86666 122.545 9.76794 122.82 11.334H125.211ZM127.383 20.008H129.754V15.5847H132.26C135.283 15.5847 136.907 13.7694 136.907 11.2509C136.907 8.7516 135.302 6.91709 132.292 6.91709H127.383V20.008ZM129.754 13.6351V8.89862H131.927C133.704 8.89862 134.49 9.85743 134.49 11.2509C134.49 12.6444 133.704 13.6351 131.94 13.6351H129.754ZM147.219 6.91709V15.2715C147.219 16.9142 146.074 18.0904 144.278 18.0904C142.476 18.0904 141.338 16.9142 141.338 15.2715V6.91709H138.966V15.4696C138.966 18.2821 141.076 20.2061 144.278 20.2061C147.468 20.2061 149.59 18.2821 149.59 15.4696V6.91709H147.219ZM167.838 11.334C167.435 8.42561 165.198 6.73811 162.296 6.73811C158.876 6.73811 156.3 9.23101 156.3 13.4625C156.3 17.6877 158.844 20.187 162.296 20.187C165.409 20.187 167.473 18.1735 167.838 15.6742L165.447 15.6614C165.147 17.1955 163.894 18.0584 162.328 18.0584C160.206 18.0584 158.684 16.4668 158.684 13.4625C158.684 10.5094 160.193 8.86666 162.334 8.86666C163.926 8.86666 165.172 9.76794 165.447 11.334H167.838ZM174.19 20.1998C177.066 20.1998 178.894 18.1735 178.894 15.1373C178.894 12.0946 177.066 10.062 174.19 10.062C171.313 10.062 169.485 12.0946 169.485 15.1373C169.485 18.1735 171.313 20.1998 174.19 20.1998ZM174.203 18.3461C172.611 18.3461 171.831 16.927 171.831 15.1309C171.831 13.3347 172.611 11.8965 174.203 11.8965C175.769 11.8965 176.549 13.3347 176.549 15.1309C176.549 16.927 175.769 18.3461 174.203 18.3461ZM180.858 20.008H183.172V14.236C183.172 12.9895 184.112 12.1074 185.384 12.1074C185.774 12.1074 186.26 12.1777 186.458 12.2417V10.1131C186.247 10.0748 185.883 10.0492 185.627 10.0492C184.502 10.0492 183.562 10.6884 183.204 11.8262H183.102V10.1898H180.858V20.008ZM191.937 20.1998C194.226 20.1998 195.798 19.0811 196.207 17.3745L194.047 17.1316C193.734 17.9625 192.966 18.3972 191.969 18.3972C190.474 18.3972 189.483 17.4128 189.464 15.7317H196.303V15.0222C196.303 11.5769 194.232 10.062 191.816 10.062C189.003 10.062 187.169 12.1266 187.169 15.1564C187.169 18.2374 188.978 20.1998 191.937 20.1998ZM189.47 14.1721C189.54 12.9192 190.467 11.8645 191.848 11.8645C193.177 11.8645 194.072 12.8361 194.085 14.1721H189.47ZM211.08 6.91709V15.2715C211.08 16.9142 209.936 18.0904 208.14 18.0904C206.337 18.0904 205.199 16.9142 205.199 15.2715V6.91709H202.828V15.4696C202.828 18.2821 204.937 20.2061 208.14 20.2061C211.329 20.2061 213.451 18.2821 213.451 15.4696V6.91709H211.08ZM223.687 12.785C223.367 11.1231 222.038 10.062 219.736 10.062C217.371 10.062 215.761 11.2253 215.767 13.0407C215.761 14.4725 216.643 15.4185 218.528 15.8084L220.203 16.16C221.104 16.3581 221.526 16.7225 221.526 17.2786C221.526 17.9498 220.797 18.4547 219.698 18.4547C218.637 18.4547 217.947 17.9945 217.748 17.1124L215.492 17.3297C215.78 19.1323 217.295 20.1998 219.704 20.1998C222.159 20.1998 223.891 18.9277 223.898 17.0677C223.891 15.6678 222.99 14.8113 221.136 14.4086L219.462 14.0506C218.464 13.8269 218.068 13.4817 218.074 12.9128C218.068 12.2481 218.803 11.7878 219.768 11.7878C220.836 11.7878 221.398 12.3695 221.577 13.0151L223.687 12.785ZM228.631 20.2061C230.171 20.2061 231.092 19.4838 231.514 18.6593H231.59V20.008H233.815V13.437C233.815 10.8418 231.699 10.062 229.826 10.062C227.762 10.062 226.176 10.9824 225.665 12.7722L227.826 13.079C228.056 12.4079 228.708 11.8326 229.839 11.8326C230.913 11.8326 231.501 12.3823 231.501 13.3475V13.3858C231.501 14.0506 230.804 14.0826 229.072 14.2679C227.167 14.4725 225.345 15.0414 225.345 17.253C225.345 19.1834 226.758 20.2061 228.631 20.2061ZM229.232 18.5059C228.267 18.5059 227.576 18.0648 227.576 17.2147C227.576 16.3262 228.35 15.9554 229.385 15.8084C229.992 15.7253 231.207 15.5719 231.507 15.329V16.486C231.507 17.579 230.625 18.5059 229.232 18.5059ZM240.411 23.8944C243.064 23.8944 245.02 22.6799 245.02 20.1678V10.1898H242.738V11.8134H242.61C242.259 11.1039 241.524 10.062 239.791 10.062C237.522 10.062 235.739 11.839 235.739 15.0669C235.739 18.2694 237.522 19.8674 239.785 19.8674C241.466 19.8674 242.252 18.9661 242.61 18.2438H242.725V20.1039C242.725 21.5485 241.767 22.1429 240.45 22.1429C239.056 22.1429 238.443 21.4846 238.161 20.9093L236.078 21.4142C236.5 22.7885 237.912 23.8944 240.411 23.8944ZM240.431 18.052C238.903 18.052 238.098 16.8631 238.098 15.0542C238.098 13.2708 238.89 11.9604 240.431 11.9604C241.92 11.9604 242.738 13.1941 242.738 15.0542C242.738 16.927 241.907 18.052 240.431 18.052ZM251.738 20.1998C254.027 20.1998 255.599 19.0811 256.008 17.3745L253.848 17.1316C253.534 17.9625 252.767 18.3972 251.77 18.3972C250.274 18.3972 249.284 17.4128 249.264 15.7317H256.104V15.0222C256.104 11.5769 254.033 10.062 251.617 10.062C248.804 10.062 246.97 12.1266 246.97 15.1564C246.97 18.2374 248.779 20.1998 251.738 20.1998ZM249.271 14.1721C249.341 12.9192 250.268 11.8645 251.649 11.8645C252.978 11.8645 253.873 12.8361 253.886 14.1721H249.271Z" fill="black"/>
</g>
<g clip-path="url(#clip1)">
<path d="M48.4015 216.964C48.4015 216.964 64.4719 212.143 72.5071 211.12C80.5423 210.096 88.5775 209.975 96.6128 210.823C104.648 211.672 112.683 213.884 120.718 216.212C128.754 218.539 136.789 222.061 144.824 224.789C152.859 227.518 160.894 230.718 168.93 232.583C176.965 234.449 185 235.845 193.035 235.984C201.071 236.122 209.106 235.068 217.141 233.415C225.176 231.763 233.211 228.746 241.247 226.068C249.282 223.389 257.317 219.808 265.352 217.344C273.387 214.881 281.423 212.393 289.458 211.286C297.493 210.178 305.528 209.937 313.563 210.698C321.599 211.459 329.634 213.576 337.669 215.853C345.704 218.131 353.74 221.625 361.775 224.364C369.81 227.103 377.845 230.356 385.88 232.288C393.916 234.22 401.951 235.725 409.986 235.955C418.021 236.185 426.056 235.245 434.092 233.667C442.127 232.088 450.162 234.696 458.197 226.483C466.232 218.27 474.268 204.307 482.303 184.389C490.338 164.471 498.373 113.424 506.409 106.973C514.444 100.522 522.479 127.593 530.514 145.681C538.549 163.769 546.585 202.46 554.62 215.503C562.655 228.546 570.69 221.191 578.725 223.937C586.761 226.684 594.796 229.987 602.831 231.982C610.866 233.978 618.901 235.592 626.937 235.912C634.972 236.233 643.007 235.409 651.042 233.906C659.078 232.403 667.113 229.524 675.148 226.894C683.183 224.263 691.218 220.663 699.254 218.123C707.289 215.583 715.324 212.929 723.359 211.656C731.394 210.384 739.43 209.904 747.465 210.489C755.5 211.073 763.535 212.991 771.57 215.161C779.606 217.331 787.641 220.759 795.676 223.51C803.711 226.261 811.746 229.61 819.782 231.667C827.817 233.725 835.852 235.444 843.887 235.855C851.923 236.266 859.958 235.56 867.993 234.134C876.028 232.708 884.063 229.903 892.099 227.301C900.134 224.699 908.169 221.094 916.204 218.521C924.24 215.947 932.275 213.213 940.31 211.86C948.345 210.508 956.38 209.91 964.416 210.405C972.451 210.899 980.486 221.314 988.521 214.828C996.556 208.342 1004.59 180.861 1012.63 171.487C1020.66 162.112 1028.7 156.433 1036.73 158.584C1044.77 160.734 1052.8 171.762 1060.84 184.389C1068.87 197.017 1076.91 228.329 1084.94 234.35C1092.98 240.371 1101.01 223.088 1109.05 220.517C1117.08 217.946 1125.12 220.33 1133.16 218.924C1141.19 217.517 1149.23 213.508 1157.26 212.077C1165.3 210.645 1173.33 209.93 1181.37 210.335C1189.4 210.739 1197.44 212.451 1205.47 214.504C1213.51 216.557 1221.54 219.903 1229.58 222.653C1237.61 225.404 1245.65 228.834 1253.68 231.009C1261.72 233.183 1269.75 235.109 1277.79 235.699C1285.82 236.29 1293.86 235.82 1301.89 234.553C1309.93 233.287 1326 228.101 1326 228.101V236C1326 236 1309.93 236 1301.89 236C1293.86 236 1285.82 236 1277.79 236C1269.75 236 1261.72 236 1253.68 236C1245.65 236 1237.61 236 1229.58 236C1221.54 236 1213.51 236 1205.47 236C1197.44 236 1189.4 236 1181.37 236C1173.33 236 1165.3 236 1157.26 236C1149.23 236 1141.19 236 1133.16 236C1125.12 236 1117.08 236 1109.05 236C1101.01 236 1092.98 236 1084.94 236C1076.91 236 1068.87 236 1060.84 236C1052.8 236 1044.77 236 1036.73 236C1028.7 236 1020.66 236 1012.63 236C1004.59 236 996.556 236 988.521 236C980.486 236 972.451 236 964.416 236C956.38 236 948.345 236 940.31 236C932.275 236 924.24 236 916.204 236C908.169 236 900.134 236 892.099 236C884.063 236 876.028 236 867.993 236C859.958 236 851.923 236 843.887 236C835.852 236 827.817 236 819.782 236C811.746 236 803.711 236 795.676 236C787.641 236 779.606 236 771.57 236C763.535 236 755.5 236 747.465 236C739.43 236 731.394 236 723.359 236C715.324 236 707.289 236 699.254 236C691.218 236 683.183 236 675.148 236C667.113 236 659.078 236 651.042 236C643.007 236 634.972 236 626.937 236C618.901 236 610.866 236 602.831 236C594.796 236 586.761 236 578.725 236C570.69 236 562.655 236 554.62 236C546.585 236 538.549 236 530.514 236C522.479 236 514.444 236 506.409 236C498.373 236 490.338 236 482.303 236C474.268 236 466.232 236 458.197 236C450.162 236 442.127 236 434.092 236C426.056 236 418.021 236 409.986 236C401.951 236 393.916 236 385.88 236C377.845 236 369.81 236 361.775 236C353.74 236 345.704 236 337.669 236C329.634 236 321.599 236 313.563 236C305.528 236 297.493 236 289.458 236C281.423 236 273.387 236 265.352 236C257.317 236 249.282 236 241.247 236C233.211 236 225.176 236 217.141 236C209.106 236 201.071 236 193.035 236C185 236 176.965 236 168.93 236C160.894 236 152.859 236 144.824 236C136.789 236 128.754 236 120.718 236C112.683 236 104.648 236 96.6128 236C88.5775 236 80.5423 236 72.5071 236C64.4719 236 48.4015 236 48.4015 236V216.964Z" fill="url(#paint0_linear)"/>
<path d="M48.4015 202.538C48.4015 202.538 64.4719 211.739 72.5071 210.244C80.5423 208.749 88.5775 195.876 96.6128 193.567C104.648 191.257 112.683 191.437 120.718 196.389C128.754 201.341 136.789 221.487 144.824 223.28C152.859 225.072 160.894 207.446 168.93 207.145C176.965 206.844 185 221.229 193.035 221.473C201.071 221.717 209.106 225.018 217.141 208.608C225.176 192.198 233.211 123.857 241.247 123.013C249.282 122.168 257.317 191.169 265.352 203.54C273.387 215.911 281.423 200.266 289.458 197.239C297.493 194.211 305.528 182.682 313.563 185.373C321.599 188.063 329.634 210.74 337.669 213.382C345.704 216.023 353.74 199.196 361.775 201.222C369.81 203.248 377.845 222.628 385.88 225.536C393.916 228.443 401.951 217.973 409.986 218.669C418.021 219.364 426.056 230.121 434.092 229.708C442.127 229.296 450.162 224.053 458.197 216.193C466.232 208.333 474.268 204.641 482.303 182.547C490.338 160.452 498.373 93.062 506.409 83.6245C514.444 74.1871 522.479 108.186 530.514 125.922C538.549 143.659 546.585 174.376 554.62 190.044C562.655 205.712 570.69 214.497 578.725 219.931C586.761 225.365 594.796 223.485 602.831 222.65C610.866 221.815 618.901 214.127 626.937 214.922C634.972 215.717 643.007 229.704 651.042 227.421C659.078 225.137 667.113 205.594 675.148 201.221C683.183 196.849 691.218 203.735 699.254 201.186C707.289 198.637 715.324 192.959 723.359 185.927C731.394 178.895 739.43 175.588 747.465 158.993C755.5 142.397 763.535 82.039 771.57 86.3535C779.606 90.6679 787.641 164.585 795.676 184.879C803.711 205.174 811.746 203.705 819.782 208.12C827.817 212.535 835.852 211.213 843.887 211.367C851.923 211.521 859.958 208.532 867.993 209.044C876.028 209.555 884.063 214.197 892.099 214.433C900.134 214.67 908.169 217.325 916.204 210.461C924.24 203.596 932.275 174.459 940.31 173.247C948.345 172.034 956.38 199.825 964.416 203.186C972.451 206.547 980.486 199.825 988.521 193.415C996.556 187.005 1004.59 172.754 1012.63 164.726C1020.66 156.698 1028.7 142.276 1036.73 145.246C1044.77 148.216 1052.8 170.318 1060.84 182.547C1068.87 194.775 1076.91 215.679 1084.94 218.618C1092.98 221.557 1101.01 203.109 1109.05 200.178C1117.08 197.248 1125.12 201.07 1133.16 201.036C1141.19 201.002 1149.23 198.766 1157.26 199.975C1165.3 201.184 1173.33 207.802 1181.37 208.29C1189.4 208.778 1197.44 203.147 1205.47 202.903C1213.51 202.659 1221.54 206.078 1229.58 206.826C1237.61 207.573 1245.65 206.281 1253.68 207.39C1261.72 208.499 1269.75 211.098 1277.79 213.478C1285.82 215.859 1293.86 220.739 1301.89 221.675C1309.93 222.612 1326 219.097 1326 219.097V228.116C1326 228.116 1309.93 233.295 1301.89 234.559C1293.86 235.824 1285.82 236.294 1277.79 235.704C1269.75 235.114 1261.72 233.191 1253.68 231.02C1245.65 228.849 1237.61 225.424 1229.58 222.677C1221.54 219.93 1213.51 216.589 1205.47 214.539C1197.44 212.489 1189.4 210.78 1181.37 210.376C1173.33 209.972 1165.3 210.686 1157.26 212.115C1149.23 213.545 1141.19 217.548 1133.16 218.952C1125.12 220.357 1117.08 217.976 1109.05 220.543C1101.01 223.111 1092.98 240.369 1084.94 234.356C1076.91 228.344 1068.87 197.077 1060.84 184.467C1052.8 171.858 1044.77 160.846 1036.73 158.699C1028.7 156.552 1020.66 162.223 1012.63 171.583C1004.59 180.944 996.556 208.385 988.521 214.863C980.486 221.34 972.451 210.939 964.416 210.446C956.38 209.952 948.345 210.548 940.31 211.899C932.275 213.25 924.24 215.98 916.204 218.55C908.169 221.12 900.134 224.719 892.099 227.318C884.063 229.916 876.028 232.717 867.993 234.141C859.958 235.565 851.923 236.27 843.887 235.86C835.852 235.449 827.817 233.732 819.782 231.678C811.746 229.623 803.711 226.279 795.676 223.532C787.641 220.785 779.606 217.362 771.57 215.195C763.535 213.028 755.5 211.113 747.465 210.529C739.43 209.946 731.394 210.425 723.359 211.695C715.324 212.966 707.289 215.617 699.254 218.153C691.218 220.689 683.183 224.284 675.148 226.911C667.113 229.538 659.078 232.413 651.042 233.913C643.007 235.414 634.972 236.237 626.937 235.916C618.901 235.596 610.866 233.985 602.831 231.992C594.796 229.999 586.761 226.701 578.725 223.959C570.69 221.216 562.655 228.561 554.62 215.537C546.585 202.513 538.549 163.877 530.514 145.815C522.479 127.753 514.444 100.72 506.409 107.162C498.373 113.604 490.338 164.578 482.303 184.467C474.268 204.357 466.232 218.299 458.197 226.5C450.162 234.702 442.127 232.098 434.092 233.674C426.056 235.251 418.021 236.189 409.986 235.959C401.951 235.73 393.916 234.227 385.88 232.297C377.845 230.368 369.81 227.12 361.775 224.385C353.74 221.65 345.704 218.161 337.669 215.886C329.634 213.612 321.599 211.499 313.563 210.738C305.528 209.978 297.493 210.219 289.458 211.325C281.423 212.431 273.387 214.915 265.352 217.375C257.317 219.835 249.282 223.411 241.247 226.086C233.211 228.761 225.176 231.773 217.141 233.423C209.106 235.073 201.071 236.126 193.035 235.988C185 235.849 176.965 234.455 168.93 232.592C160.894 230.729 152.859 227.534 144.824 224.81C136.789 222.085 128.754 218.569 120.718 216.244C112.683 213.92 104.648 211.711 96.6128 210.864C88.5775 210.016 80.5423 210.138 72.5071 211.16C64.4719 212.182 48.4015 216.996 48.4015 216.996V202.538Z" fill="url(#paint1_linear)"/>
<path d="M48.4015 200.068C48.4015 200.068 64.4719 193.119 72.5071 188.388C80.5423 183.657 88.5775 172.054 96.6128 171.682C104.648 171.309 112.683 178.276 120.718 186.153C128.754 194.03 136.789 218.363 144.824 218.942C152.859 219.521 160.894 190.382 168.93 189.629C176.965 188.875 185 211.575 193.035 214.421C201.071 217.267 209.106 225.843 217.141 206.702C225.176 187.562 233.211 103.317 241.247 99.5801C249.282 95.8437 257.317 171.312 265.352 184.284C273.387 197.256 281.423 189.96 289.458 177.411C297.493 164.861 305.528 124.292 313.563 108.987C321.599 93.683 329.634 100.045 337.669 85.5837C345.704 71.1228 353.74 7.39075 361.775 22.2222C369.81 37.0535 377.845 145.57 385.88 174.572C393.916 203.575 401.951 187.87 409.986 196.237C418.021 204.604 426.056 221.817 434.092 224.775C442.127 227.732 450.162 224.599 458.197 213.981C466.232 203.363 474.268 185.731 482.303 161.065C490.338 136.4 498.373 72.8977 506.409 65.9885C514.444 59.0793 522.479 101.118 530.514 119.61C538.549 138.103 546.585 161.975 554.62 176.943C562.655 191.911 570.69 203.343 578.725 209.419C586.761 215.494 594.796 213.691 602.831 213.394C610.866 213.097 618.901 207.656 626.937 207.637C634.972 207.619 643.007 215.134 651.042 213.282C659.078 211.43 667.113 200.054 675.148 196.525C683.183 192.996 691.218 194.641 699.254 192.105C707.289 189.569 715.324 187.362 723.359 181.311C731.394 175.26 739.43 175.356 747.465 155.8C755.5 136.244 763.535 60.7498 771.57 63.9735C779.606 67.1972 787.641 154.443 795.676 175.142C803.711 195.841 811.746 186.336 819.782 188.165C827.817 189.995 835.852 184.74 843.887 186.118C851.923 187.497 859.958 193.366 867.993 196.437C876.028 199.507 884.063 204.172 892.099 204.541C900.134 204.91 908.169 205.267 916.204 198.653C924.24 192.038 932.275 167.017 940.31 164.852C948.345 162.687 956.38 206.457 964.416 185.663C972.451 164.869 980.486 46.0022 988.521 40.089C996.556 34.1758 1004.59 133.391 1012.63 150.183C1020.66 166.976 1028.7 139.03 1036.73 140.844C1044.77 142.657 1052.8 150.955 1060.84 161.065C1068.87 171.176 1076.91 198.828 1084.94 201.508C1092.98 204.188 1101.01 180.853 1109.05 177.143C1117.08 173.433 1125.12 177.468 1133.16 179.247C1141.19 181.026 1149.23 184.06 1157.26 187.815C1165.3 191.57 1173.33 202.855 1181.37 201.777C1189.4 200.699 1197.44 181.539 1205.47 181.345C1213.51 181.15 1221.54 200.323 1229.58 200.61C1237.61 200.897 1245.65 183.597 1253.68 183.066C1261.72 182.534 1269.75 191.984 1277.79 197.419C1285.82 202.853 1293.86 215.791 1301.89 215.671C1309.93 215.551 1326 196.698 1326 196.698V219.433C1326 219.433 1309.93 222.929 1301.89 221.998C1293.86 221.066 1285.82 216.212 1277.79 213.844C1269.75 211.476 1261.72 208.89 1253.68 207.787C1245.65 206.685 1237.61 207.97 1229.58 207.226C1221.54 206.483 1213.51 203.082 1205.47 203.325C1197.44 203.567 1189.4 209.169 1181.37 208.683C1173.33 208.197 1165.3 201.614 1157.26 200.411C1149.23 199.209 1141.19 201.434 1133.16 201.467C1125.12 201.501 1117.08 197.699 1109.05 200.614C1101.01 203.529 1092.98 221.88 1084.94 218.957C1076.91 216.033 1068.87 195.239 1060.84 183.075C1052.8 170.911 1044.77 148.925 1036.73 145.97C1028.7 143.016 1020.66 157.362 1012.63 165.348C1004.59 173.334 996.556 187.51 988.521 193.886C980.486 200.262 972.451 206.95 964.416 203.606C956.38 200.262 948.345 172.618 940.31 173.824C932.275 175.03 924.24 204.014 916.204 210.842C908.169 217.671 900.134 215.029 892.099 214.794C884.063 214.559 876.028 209.941 867.993 209.432C859.958 208.924 851.923 211.897 843.887 211.743C835.852 211.59 827.817 212.905 819.782 208.514C811.746 204.122 803.711 205.583 795.676 185.395C787.641 165.208 779.606 91.6793 771.57 87.3876C763.535 83.0958 755.5 143.136 747.465 159.645C739.43 176.153 731.394 179.442 723.359 186.437C715.324 193.433 707.289 199.081 699.254 201.616C691.218 204.152 683.183 197.302 675.148 201.652C667.113 206.001 659.078 225.442 651.042 227.713C643.007 229.985 634.972 216.071 626.937 215.28C618.901 214.489 610.866 222.137 602.831 222.967C594.796 223.798 586.761 225.668 578.725 220.263C570.69 214.857 562.655 206.119 554.62 190.533C546.585 174.947 538.549 144.391 530.514 126.748C522.479 109.105 514.444 75.2852 506.409 84.673C498.373 94.0608 490.338 161.096 482.303 183.075C474.268 205.054 466.232 208.726 458.197 216.545C450.162 224.363 442.127 229.578 434.092 229.989C426.056 230.399 418.021 219.699 409.986 219.007C401.951 218.315 393.916 228.73 385.88 225.838C377.845 222.945 369.81 203.667 361.775 201.652C353.74 199.637 345.704 216.376 337.669 213.748C329.634 211.12 321.599 188.562 313.563 185.886C305.528 183.21 297.493 194.678 289.458 197.69C281.423 200.702 273.387 216.264 265.352 203.958C257.317 191.652 249.282 123.014 241.247 123.854C233.211 124.694 225.176 192.676 217.141 208.999C209.106 225.323 201.071 222.039 193.035 221.796C185 221.554 176.965 207.244 168.93 207.544C160.894 207.843 152.859 225.377 144.824 223.594C136.789 221.81 128.754 201.771 120.718 196.845C112.683 191.918 104.648 191.74 96.6128 194.037C88.5775 196.334 80.5423 209.139 72.5071 210.627C64.4719 212.114 48.4015 202.961 48.4015 202.961V200.068Z" fill="url(#paint2_linear)"/>
<path d="M48.4015 194.546C48.4015 194.546 64.4719 188.069 72.5071 184.286C80.5423 180.502 88.5775 175.744 96.6128 171.846C104.648 167.949 112.683 153.054 120.718 160.903C128.754 168.751 136.789 218.386 144.824 218.935C152.859 219.484 160.894 168.848 168.93 164.196C176.965 159.545 185 184.341 193.035 191.028C201.071 197.715 209.106 223.328 217.141 204.316C225.176 185.303 233.211 83.2813 241.247 76.9541C249.282 70.6269 257.317 153.657 265.352 166.352C273.387 179.047 281.423 164.876 289.458 153.124C297.493 141.371 305.528 110.954 313.563 95.8365C321.599 80.7189 329.634 74.8558 337.669 62.4179C345.704 49.98 353.74 2.8029 361.775 21.2091C369.81 39.6153 377.845 147.896 385.88 172.855C393.916 197.815 401.951 164.758 409.986 170.966C418.021 177.174 426.056 206.99 434.092 210.104C442.127 213.218 450.162 201.786 458.197 189.65C466.232 177.513 474.268 162.031 482.303 137.286C490.338 112.541 498.373 44.615 506.409 41.1816C514.444 37.7482 522.479 94.6621 530.514 116.686C538.549 138.71 546.585 160.423 554.62 173.324C562.655 186.225 570.69 188.132 578.725 194.089C586.761 200.047 594.796 209.04 602.831 209.069C610.866 209.098 618.901 194.65 626.937 194.264C634.972 193.878 643.007 210.07 651.042 206.752C659.078 203.433 667.113 176.976 675.148 174.352C683.183 171.728 691.218 193.543 699.254 191.008C707.289 188.474 715.324 165.005 723.359 159.145C731.394 153.285 739.43 174.782 747.465 155.849C755.5 136.915 763.535 42.7249 771.57 45.5456C779.606 48.3662 787.641 153.227 795.676 172.773C803.711 192.319 811.746 161.633 819.782 162.821C827.817 164.009 835.852 191.347 843.887 179.9C851.923 168.453 859.958 91.2823 867.993 94.1377C876.028 96.9932 884.063 183.342 892.099 197.033C900.134 210.724 908.169 185.401 916.204 176.283C924.24 167.165 932.275 144.96 940.31 142.326C948.345 139.693 956.38 179.426 964.416 160.483C972.451 141.54 980.486 30.6249 988.521 28.6689C996.556 26.7129 1004.59 133.742 1012.63 148.747C1020.66 163.752 1028.7 120.608 1036.73 118.698C1044.77 116.788 1052.8 123.733 1060.84 137.286C1068.87 150.839 1076.91 197.176 1084.94 200.017C1092.98 202.858 1101.01 179.112 1109.05 154.332C1117.08 129.552 1125.12 71.3451 1133.16 51.3363C1141.19 31.3276 1149.23 10.3292 1157.26 34.2799C1165.3 58.2306 1173.33 174.684 1181.37 195.04C1189.4 215.397 1197.44 159.685 1205.47 156.42C1213.51 153.155 1221.54 171.833 1229.58 175.451C1237.61 179.069 1245.65 177.86 1253.68 178.13C1261.72 178.4 1269.75 171.244 1277.79 177.069C1285.82 182.895 1293.86 214.039 1301.89 213.084C1309.93 212.129 1326 171.339 1326 171.339V196.88C1326 196.88 1309.93 215.724 1301.89 215.844C1293.86 215.964 1285.82 203.032 1277.79 197.6C1269.75 192.169 1261.72 182.723 1253.68 183.254C1245.65 183.786 1237.61 201.076 1229.58 200.79C1221.54 200.503 1213.51 181.34 1205.47 181.534C1197.44 181.728 1189.4 200.878 1181.37 201.956C1173.33 203.034 1165.3 191.754 1157.26 188.001C1149.23 184.248 1141.19 181.215 1133.16 179.437C1125.12 177.66 1117.08 173.626 1109.05 177.334C1101.01 181.043 1092.98 204.366 1084.94 201.687C1076.91 199.009 1068.87 171.371 1060.84 161.265C1052.8 151.159 1044.77 142.866 1036.73 141.053C1028.7 139.24 1020.66 167.172 1012.63 150.388C1004.59 133.604 996.556 34.4378 988.521 40.3481C980.486 46.2585 972.451 165.066 964.416 185.85C956.38 206.634 948.345 162.886 940.31 165.05C932.275 167.214 924.24 192.222 916.204 198.833C908.169 205.445 900.134 205.088 892.099 204.719C884.063 204.35 876.028 199.688 867.993 196.619C859.958 193.55 851.923 187.683 843.887 186.305C835.852 184.927 827.817 190.18 819.782 188.351C811.746 186.523 803.711 196.023 795.676 175.335C787.641 154.646 779.606 67.443 771.57 64.2209C763.535 60.9987 755.5 136.455 747.465 156.002C739.43 175.548 731.394 175.452 723.359 181.5C715.324 187.548 707.289 189.755 699.254 192.289C691.218 194.824 683.183 193.179 675.148 196.707C667.113 200.235 659.078 211.604 651.042 213.456C643.007 215.307 634.972 207.795 626.937 207.814C618.901 207.833 610.866 213.271 602.831 213.568C594.796 213.865 586.761 215.666 578.725 209.594C570.69 203.522 562.655 192.095 554.62 177.135C546.585 162.174 538.549 138.313 530.514 119.83C522.479 101.347 514.444 59.3291 506.409 66.2349C498.373 73.1407 490.338 136.612 482.303 161.265C474.268 185.918 466.232 203.542 458.197 214.155C450.162 224.768 442.127 227.898 434.092 224.943C426.056 221.987 418.021 204.782 409.986 196.419C401.951 188.056 393.916 203.753 385.88 174.765C377.845 145.777 369.81 37.3142 361.775 22.4901C353.74 7.66603 345.704 71.3667 337.669 85.8204C329.634 100.274 321.599 93.9157 313.563 109.213C305.528 124.51 297.493 165.059 289.458 177.602C281.423 190.145 273.387 197.437 265.352 184.472C257.317 171.506 249.282 96.0753 241.247 99.8099C233.211 103.544 225.176 187.749 217.141 206.879C209.106 226.01 201.071 217.438 193.035 214.594C185 211.75 176.965 189.061 168.93 189.814C160.894 190.567 152.859 219.692 144.824 219.113C136.789 218.534 128.754 194.213 120.718 186.34C112.683 178.467 104.648 171.504 96.6128 171.876C88.5775 172.248 80.5423 183.845 72.5071 188.574C64.4719 193.303 48.4015 200.248 48.4015 200.248V194.546Z" fill="url(#paint3_linear)"/>
</g>
<defs>
<linearGradient id="paint0_linear" x1="687.201" y1="106" x2="687.201" y2="236" gradientUnits="userSpaceOnUse">
<stop stop-color="#D0EFD2"/>
<stop offset="1" stop-color="#A2E0A5"/>
</linearGradient>
<linearGradient id="paint1_linear" x1="687.201" y1="82" x2="687.201" y2="236" gradientUnits="userSpaceOnUse">
<stop stop-color="#D0EBEF"/>
<stop offset="1" stop-color="#A2D9E0"/>
</linearGradient>
<linearGradient id="paint2_linear" x1="687.201" y1="20" x2="687.201" y2="230" gradientUnits="userSpaceOnUse">
<stop stop-color="#D4D0EF"/>
<stop offset="1" stop-color="#ABA2E0"/>
</linearGradient>
<linearGradient id="paint3_linear" x1="687.201" y1="17" x2="687.201" y2="226" gradientUnits="userSpaceOnUse">
<stop stop-color="#EED0EF"/>
<stop offset="1" stop-color="#E0A2DE"/>
</linearGradient>
<clipPath id="clip0">
<rect width="1326" height="251" fill="white" transform="translate(0 6)"/>
</clipPath>
<clipPath id="clip1">
<rect width="1277.6" height="236" fill="white" transform="translate(48.4015)"/>
</clipPath>
</defs>
</svg>