<svg width="1326" height="390" viewBox="0 0 1326 390" fill="none" xmlns="http://www.w3.org/2000/svg">
<g clip-path="url(#clip0)">
<path d="M3.35778 64.9924H1.77255L-1.50018 67.1657V68.7765L1.69585 66.6544H1.77255V78.0833H3.35778V64.9924ZM11.4693 78.2623C14.1156 78.2943 15.8414 76.3 15.8414 73.8646C15.8414 71.3333 13.9686 69.518 11.725 69.518C10.3762 69.518 9.21928 70.1764 8.50337 71.2566H8.4011C8.40749 68.067 9.64755 66.2197 11.6738 66.2197C13.0545 66.2197 13.8855 67.089 14.1795 68.2652H15.7392C15.4196 66.2325 13.8727 64.8134 11.6738 64.8134C8.7271 64.8134 6.91815 67.4214 6.91815 72.0492C6.91815 76.888 9.32156 78.2367 11.4693 78.2623ZM11.4693 76.8561C9.82653 76.8561 8.62482 75.4562 8.63121 73.8902C8.63761 72.3241 9.89684 70.9242 11.5204 70.9242C13.1248 70.9242 14.3074 72.241 14.3074 73.8646C14.3074 75.5265 13.0737 76.8561 11.4693 76.8561Z" fill="black"/>
<path d="M3.69176 136.131H2.10653L-1.16619 138.305V139.915L2.02983 137.793H2.10653V149.222H3.69176V136.131ZM7.45668 149.222H15.7152V147.816H9.62997V147.714L12.5703 144.569C14.8203 142.159 15.4851 141.034 15.4851 139.583C15.4851 137.563 13.8487 135.952 11.5476 135.952C9.25284 135.952 7.50781 137.512 7.50781 139.813H9.01634C9.01634 138.324 9.98153 137.333 11.4964 137.333C12.9155 137.333 14.0021 138.202 14.0021 139.583C14.0021 140.791 13.2926 141.686 11.7777 143.342L7.45668 148.072V149.222Z" fill="black"/>
<path d="M11.4565 221.985C14.0708 221.985 15.8926 220.457 15.9054 218.328C15.8926 216.673 14.7868 215.266 13.3741 215.004V214.928C14.6014 214.608 15.4068 213.406 15.4196 212.013C15.4068 210.019 13.7321 208.536 11.4565 208.536C9.15536 208.536 7.48065 210.019 7.49343 212.013C7.48065 213.406 8.28604 214.608 9.53888 214.928V215.004C8.10067 215.266 6.99485 216.673 7.00763 218.328C6.99485 220.457 8.81658 221.985 11.4565 221.985ZM11.4565 220.578C9.66033 220.578 8.55451 219.658 8.56729 218.252C8.55451 216.775 9.77539 215.72 11.4565 215.72C13.112 215.72 14.3329 216.775 14.3457 218.252C14.3329 219.658 13.2271 220.578 11.4565 220.578ZM11.4565 214.365C10.0247 214.365 9.01474 213.47 9.02752 212.115C9.01474 210.786 9.98633 209.916 11.4565 209.916C12.9011 209.916 13.8727 210.786 13.8855 212.115C13.8727 213.47 12.8627 214.365 11.4565 214.365Z" fill="black"/>
<path d="M6.49947 290.26H12.6614V292.944H14.1699V290.26H15.9597V288.854H14.1699V279.854H12.2523L6.49947 288.956V290.26ZM12.6614 288.854H8.21254V288.751L12.5591 281.873H12.6614V288.854Z" fill="black"/>
<path d="M11.375 362.818C14.2642 362.818 15.9261 360.37 15.9261 356.093C15.9261 351.849 14.2386 349.369 11.375 349.369C8.51136 349.369 6.82386 351.849 6.82386 356.093C6.82386 360.37 8.4858 362.818 11.375 362.818ZM11.375 361.412C9.47017 361.412 8.35795 359.5 8.35795 356.093C8.35795 352.693 9.48295 350.75 11.375 350.75C13.267 350.75 14.392 352.693 14.392 356.093C14.392 359.5 13.2798 361.412 11.375 361.412Z" fill="black"/>
<line x1="23.7214" y1="74.0817" x2="1326" y2="74.0817" stroke="black" stroke-opacity="0.08"/>
<line x1="23.7214" y1="144.002" x2="1326" y2="144.002" stroke="black" stroke-opacity="0.08"/>
<line x1="23.7214" y1="215.476" x2="1326" y2="215.476" stroke="black" stroke-opacity="0.08"/>
<line x1="23.7214" y1="286.95" x2="1326" y2="286.95" stroke="black" stroke-opacity="0.08"/>
<line x1="23.7214" y1="358.424" x2="1326" y2="358.424" stroke="black" stroke-opacity="0.08"/>
<path d="M268.737 376.909H267.152L263.879 379.082V380.693L267.075 378.571H267.152V390H268.737V376.909ZM276.772 390.179C279.661 390.179 281.323 387.731 281.323 383.455C281.323 379.21 279.636 376.73 276.772 376.73C273.908 376.73 272.221 379.21 272.221 383.455C272.221 387.731 273.883 390.179 276.772 390.179ZM276.772 388.773C274.867 388.773 273.755 386.862 273.755 383.455C273.755 380.054 274.88 378.111 276.772 378.111C278.664 378.111 279.789 380.054 279.789 383.455C279.789 386.862 278.677 388.773 276.772 388.773ZM289.582 390L290.898 386.293H296.191L297.508 390H299.17L294.363 376.909H292.727L287.92 390H289.582ZM291.397 384.886L293.494 378.98H293.596L295.692 384.886H291.397ZM301.209 376.909V390H302.692V380.054H302.82L306.91 390H308.342L312.433 380.054H312.561V390H314.044V376.909H312.152L307.703 387.776H307.55L303.101 376.909H301.209Z" fill="black"/>
<path d="M539.194 376.909H537.609L534.336 379.082V380.693L537.533 378.571H537.609V390H539.194V376.909ZM542.959 390H551.218V388.594H545.133V388.491L548.073 385.347C550.323 382.937 550.988 381.812 550.988 380.361C550.988 378.341 549.351 376.73 547.05 376.73C544.756 376.73 543.01 378.29 543.01 380.591H544.519C544.519 379.102 545.484 378.111 546.999 378.111C548.418 378.111 549.505 378.98 549.505 380.361C549.505 381.569 548.795 382.464 547.28 384.119L542.959 388.849V390ZM559.15 390H560.736V385.219H563.599C566.648 385.219 568.023 383.365 568.023 381.051C568.023 378.737 566.648 376.909 563.574 376.909H559.15V390ZM560.736 383.812V378.315H563.523C565.651 378.315 566.463 379.479 566.463 381.051C566.463 382.624 565.651 383.812 563.548 383.812H560.736ZM570.576 376.909V390H572.059V380.054H572.187L576.278 390H577.71L581.801 380.054H581.928V390H583.411V376.909H581.519L577.071 387.776H576.917L572.468 376.909H570.576Z" fill="black"/>
<path d="M798.327 390H806.585V388.594H800.5V388.491L803.44 385.347C805.69 382.937 806.355 381.812 806.355 380.361C806.355 378.341 804.719 376.73 802.418 376.73C800.123 376.73 798.378 378.29 798.378 380.591H799.886C799.886 379.102 800.852 378.111 802.367 378.111C803.786 378.111 804.872 378.98 804.872 380.361C804.872 381.569 804.163 382.464 802.648 384.119L798.327 388.849V390ZM814.518 390H816.103V385.219H818.967C822.016 385.219 823.39 383.365 823.39 381.051C823.39 378.737 822.016 376.909 818.941 376.909H814.518V390ZM816.103 383.812V378.315H818.89C821.019 378.315 821.83 379.479 821.83 381.051C821.83 382.624 821.019 383.812 818.916 383.812H816.103ZM825.944 376.909V390H827.427V380.054H827.554L831.645 390H833.077L837.168 380.054H837.296V390H838.779V376.909H836.887L832.438 387.776H832.285L827.836 376.909H825.944Z" fill="black"/>
<path d="M1054.29 387.315H1060.45V390H1061.96V387.315H1063.75V385.909H1061.96V376.909H1060.04L1054.29 386.011V387.315ZM1060.45 385.909H1056V385.807L1060.35 378.929H1060.45V385.909ZM1071.44 390H1073.02V385.219H1075.89C1078.94 385.219 1080.31 383.365 1080.31 381.051C1080.31 378.737 1078.94 376.909 1075.86 376.909H1071.44V390ZM1073.02 383.812V378.315H1075.81C1077.94 378.315 1078.75 379.479 1078.75 381.051C1078.75 382.624 1077.94 383.812 1075.84 383.812H1073.02ZM1082.86 376.909V390H1084.35V380.054H1084.48L1088.57 390H1090L1094.09 380.054H1094.22V390H1095.7V376.909H1093.81L1089.36 387.776H1089.21L1084.76 376.909H1082.86Z" fill="black"/>
<path d="M34.2074 7.35264H37.25C37.1903 4.40378 34.6761 2.31571 30.9602 2.31571C27.2955 2.31571 24.5426 4.37821 24.5511 7.46344C24.5511 9.96912 26.3324 11.4095 29.2045 12.1509L31.1903 12.6623C33.0739 13.1396 34.3182 13.7276 34.3267 15.0828C34.3182 16.5742 32.9034 17.5714 30.8409 17.5714C28.8636 17.5714 27.3295 16.685 27.2017 14.8526H24.0909C24.2188 18.3214 26.8011 20.2731 30.8665 20.2731C35.0511 20.2731 37.4801 18.185 37.4886 15.1083C37.4801 12.0828 34.983 10.7021 32.358 10.0799L30.7216 9.67082C29.2898 9.32991 27.7386 8.7248 27.7557 7.26742C27.7642 5.95492 28.9403 4.99185 30.9176 4.99185C32.8011 4.99185 34.0455 5.86969 34.2074 7.35264ZM43.2564 12.3384C43.2564 10.4464 44.4325 9.35548 46.0859 9.35548C47.7053 9.35548 48.6598 10.3867 48.6598 12.1509V20.0089H51.745V11.6737C51.745 8.51173 49.9553 6.74753 47.2365 6.74753C45.2251 6.74753 43.9467 7.65946 43.3416 9.14241H43.1882V2.55435H40.1712V20.0089H43.2564V12.3384ZM58.657 20.2731C60.7109 20.2731 61.9382 19.31 62.5007 18.2106H62.603V20.0089H65.5689V11.2475C65.5689 7.7873 62.7479 6.74753 60.2507 6.74753C57.4979 6.74753 55.3842 7.9748 54.7024 10.3612L57.5831 10.7703C57.8899 9.87537 58.7592 9.10832 60.2678 9.10832C61.6996 9.10832 62.4837 9.84128 62.4837 11.1282V11.1793C62.4837 12.0657 61.5547 12.1083 59.245 12.3555C56.7053 12.6282 54.2763 13.3867 54.2763 16.3356C54.2763 18.9095 56.1598 20.2731 58.657 20.2731ZM59.4581 18.0061C58.1712 18.0061 57.2507 17.418 57.2507 16.2845C57.2507 15.0998 58.282 14.6055 59.6626 14.4095C60.4723 14.2987 62.0916 14.0941 62.4922 13.7703V15.3129C62.4922 16.7703 61.3161 18.0061 59.4581 18.0061ZM68.6712 20.0089H71.7564V12.3129C71.7564 10.6509 73.0092 9.4748 74.7053 9.4748C75.2251 9.4748 75.8729 9.56855 76.1371 9.65378V6.81571C75.8558 6.76457 75.37 6.73048 75.0291 6.73048C73.5291 6.73048 72.2763 7.58276 71.799 9.0998H71.6626V6.91798H68.6712V20.0089ZM83.4432 20.2646C86.4943 20.2646 88.5909 18.7731 89.1364 16.4975L86.2557 16.1737C85.8381 17.2816 84.8153 17.8612 83.4858 17.8612C81.4915 17.8612 80.1705 16.5487 80.1449 14.3072H89.2642V13.3612C89.2642 8.76741 86.5028 6.74753 83.2812 6.74753C79.5312 6.74753 77.0852 9.50037 77.0852 13.5401C77.0852 17.6481 79.4972 20.2646 83.4432 20.2646ZM80.1534 12.2276C80.2472 10.5572 81.483 9.15094 83.3239 9.15094C85.0966 9.15094 86.2898 10.4464 86.3068 12.2276H80.1534ZM96.7322 20.239C98.9822 20.239 99.9964 18.9009 100.482 17.9464H100.67V20.0089H103.704V2.55435H100.61V9.08276H100.482C100.013 8.13673 99.0504 6.74753 96.7408 6.74753C93.7152 6.74753 91.3374 9.11685 91.3374 13.4805C91.3374 17.793 93.647 20.239 96.7322 20.239ZM97.593 17.7078C95.5561 17.7078 94.4822 15.918 94.4822 13.4634C94.4822 11.0259 95.5391 9.27878 97.593 9.27878C99.5788 9.27878 100.67 10.9237 100.67 13.4634C100.67 16.0032 99.5618 17.7078 97.593 17.7078ZM128.021 8.44355C127.484 4.56571 124.501 2.31571 120.632 2.31571C116.072 2.31571 112.638 5.63957 112.638 11.2816C112.638 16.9151 116.03 20.2475 120.632 20.2475C124.783 20.2475 127.536 17.5629 128.021 14.2305L124.834 14.2134C124.433 16.2589 122.763 17.4095 120.675 17.4095C117.845 17.4095 115.817 15.2873 115.817 11.2816C115.817 7.34412 117.828 5.15378 120.683 5.15378C122.805 5.15378 124.467 6.35548 124.834 8.44355H128.021ZM130.917 20.0089H134.079V14.1112H137.42C141.451 14.1112 143.616 11.6907 143.616 8.33276C143.616 5.00037 141.477 2.55435 137.462 2.55435H130.917V20.0089ZM134.079 11.5117V5.19639H136.977C139.346 5.19639 140.394 6.4748 140.394 8.33276C140.394 10.1907 139.346 11.5117 136.994 11.5117H134.079ZM157.365 2.55435V13.6936C157.365 15.8839 155.839 17.4521 153.445 17.4521C151.041 17.4521 149.524 15.8839 149.524 13.6936V2.55435H146.362V13.9578C146.362 17.7078 149.175 20.2731 153.445 20.2731C157.697 20.2731 160.527 17.7078 160.527 13.9578V2.55435H157.365ZM184.857 8.44355C184.32 4.56571 181.337 2.31571 177.468 2.31571C172.908 2.31571 169.474 5.63957 169.474 11.2816C169.474 16.9151 172.866 20.2475 177.468 20.2475C181.619 20.2475 184.371 17.5629 184.857 14.2305L181.67 14.2134C181.269 16.2589 179.599 17.4095 177.511 17.4095C174.681 17.4095 172.653 15.2873 172.653 11.2816C172.653 7.34412 174.664 5.15378 177.519 5.15378C179.641 5.15378 181.303 6.35548 181.67 8.44355H184.857ZM193.327 20.2646C197.162 20.2646 199.599 17.5629 199.599 13.5146C199.599 9.45776 197.162 6.74753 193.327 6.74753C189.491 6.74753 187.054 9.45776 187.054 13.5146C187.054 17.5629 189.491 20.2646 193.327 20.2646ZM193.344 17.793C191.222 17.793 190.182 15.9009 190.182 13.5061C190.182 11.1112 191.222 9.19355 193.344 9.19355C195.432 9.19355 196.472 11.1112 196.472 13.5061C196.472 15.9009 195.432 17.793 193.344 17.793ZM202.218 20.0089H205.303V12.3129C205.303 10.6509 206.556 9.4748 208.252 9.4748C208.772 9.4748 209.42 9.56855 209.684 9.65378V6.81571C209.403 6.76457 208.917 6.73048 208.576 6.73048C207.076 6.73048 205.823 7.58276 205.346 9.0998H205.21V6.91798H202.218V20.0089ZM216.99 20.2646C220.041 20.2646 222.138 18.7731 222.683 16.4975L219.803 16.1737C219.385 17.2816 218.362 17.8612 217.033 17.8612C215.038 17.8612 213.717 16.5487 213.692 14.3072H222.811V13.3612C222.811 8.76741 220.05 6.74753 216.828 6.74753C213.078 6.74753 210.632 9.50037 210.632 13.5401C210.632 17.6481 213.044 20.2646 216.99 20.2646ZM213.7 12.2276C213.794 10.5572 215.03 9.15094 216.871 9.15094C218.643 9.15094 219.837 10.4464 219.854 12.2276H213.7ZM242.513 2.55435V13.6936C242.513 15.8839 240.988 17.4521 238.593 17.4521C236.19 17.4521 234.673 15.8839 234.673 13.6936V2.55435H231.511V13.9578C231.511 17.7078 234.323 20.2731 238.593 20.2731C242.846 20.2731 245.675 17.7078 245.675 13.9578V2.55435H242.513ZM259.322 10.3782C258.896 8.1623 257.124 6.74753 254.055 6.74753C250.902 6.74753 248.754 8.29866 248.763 10.7191C248.754 12.6282 249.93 13.8896 252.445 14.4095L254.678 14.8782C255.879 15.1424 256.442 15.6282 256.442 16.3697C256.442 17.2646 255.47 17.9379 254.004 17.9379C252.589 17.9379 251.669 17.3242 251.405 16.1481L248.396 16.4379C248.78 18.8413 250.8 20.2646 254.013 20.2646C257.286 20.2646 259.595 18.5686 259.604 16.0884C259.595 14.222 258.393 13.0799 255.922 12.543L253.689 12.0657C252.359 11.7674 251.831 11.3072 251.839 10.5487C251.831 9.6623 252.811 9.04866 254.098 9.04866C255.521 9.04866 256.271 9.82423 256.51 10.685L259.322 10.3782ZM265.915 20.2731C267.969 20.2731 269.196 19.31 269.759 18.2106H269.861V20.0089H272.827V11.2475C272.827 7.7873 270.006 6.74753 267.509 6.74753C264.756 6.74753 262.642 7.9748 261.96 10.3612L264.841 10.7703C265.148 9.87537 266.017 9.10832 267.526 9.10832C268.957 9.10832 269.741 9.84128 269.741 11.1282V11.1793C269.741 12.0657 268.812 12.1083 266.503 12.3555C263.963 12.6282 261.534 13.3867 261.534 16.3356C261.534 18.9095 263.418 20.2731 265.915 20.2731ZM266.716 18.0061C265.429 18.0061 264.509 17.418 264.509 16.2845C264.509 15.0998 265.54 14.6055 266.92 14.4095C267.73 14.2987 269.349 14.0941 269.75 13.7703V15.3129C269.75 16.7703 268.574 18.0061 266.716 18.0061ZM281.622 25.1907C285.159 25.1907 287.767 23.5714 287.767 20.222V6.91798H284.724V9.08276H284.554C284.085 8.13673 283.105 6.74753 280.795 6.74753C277.77 6.74753 275.392 9.11685 275.392 13.4208C275.392 17.6907 277.77 19.8214 280.787 19.8214C283.028 19.8214 284.077 18.6197 284.554 17.6566H284.707V20.1367C284.707 22.0629 283.429 22.8555 281.673 22.8555C279.815 22.8555 278.997 21.9776 278.622 21.2106L275.844 21.8839C276.406 23.7163 278.29 25.1907 281.622 25.1907ZM281.648 17.4009C279.611 17.4009 278.537 15.8157 278.537 13.4038C278.537 11.0259 279.594 9.27878 281.648 9.27878C283.634 9.27878 284.724 10.9237 284.724 13.4038C284.724 15.9009 283.616 17.4009 281.648 17.4009ZM296.724 20.2646C299.776 20.2646 301.872 18.7731 302.418 16.4975L299.537 16.1737C299.119 17.2816 298.097 17.8612 296.767 17.8612C294.773 17.8612 293.452 16.5487 293.426 14.3072H302.545V13.3612C302.545 8.76741 299.784 6.74753 296.562 6.74753C292.812 6.74753 290.366 9.50037 290.366 13.5401C290.366 17.6481 292.778 20.2646 296.724 20.2646ZM293.435 12.2276C293.528 10.5572 294.764 9.15094 296.605 9.15094C298.378 9.15094 299.571 10.4464 299.588 12.2276H293.435Z" fill="black"/>
</g>
<path d="M24 330.172C24 330.172 40.3774 323.125 48.566 321.629C56.7547 320.132 64.9434 319.954 73.1321 321.195C81.3207 322.435 89.5094 325.669 97.6981 329.072C105.887 332.475 114.075 337.623 122.264 341.612C130.453 345.6 138.641 350.278 146.83 353.005C155.019 355.733 163.208 357.773 171.396 357.976C179.585 358.179 187.774 356.637 195.962 354.221C204.151 351.805 212.34 347.396 220.528 343.48C228.717 339.565 236.906 334.33 245.094 330.728C253.283 327.126 261.472 323.49 269.66 321.871C277.849 320.252 286.038 319.899 294.226 321.012C302.415 322.125 310.604 325.219 318.792 328.548C326.981 331.878 335.17 336.986 343.358 340.99C351.547 344.994 359.736 349.749 367.925 352.574C376.113 355.398 384.302 357.598 392.491 357.934C400.679 358.27 408.868 356.897 417.057 354.589C425.245 352.281 433.434 356.093 441.623 344.087C449.811 332.081 458 311.67 466.189 282.552C474.377 253.434 482.566 178.811 490.755 169.38C498.943 159.949 507.132 199.523 515.321 225.966C523.509 252.409 531.698 308.97 539.887 328.036C548.075 347.103 556.264 336.351 564.453 340.366C572.641 344.381 580.83 349.209 589.019 352.127C597.208 355.044 605.396 357.403 613.585 357.872C621.774 358.34 629.962 357.137 638.151 354.939C646.34 352.742 654.528 348.534 662.717 344.688C670.906 340.843 679.094 335.579 687.283 331.866C695.472 328.154 703.66 324.273 711.849 322.413C720.038 320.552 728.226 319.852 736.415 320.706C744.604 321.56 752.792 324.364 760.981 327.536C769.17 330.709 777.358 335.719 785.547 339.741C793.736 343.762 801.924 348.658 810.113 351.666C818.302 354.674 826.49 357.187 834.679 357.788C842.868 358.389 851.057 357.357 859.245 355.272C867.434 353.188 875.623 349.087 883.811 345.283C892 341.479 900.189 336.21 908.377 332.448C916.566 328.686 924.755 324.688 932.943 322.711C941.132 320.734 949.321 319.86 957.509 320.583C965.698 321.306 973.887 336.532 982.076 327.049C990.264 317.567 998.453 277.394 1006.64 263.69C1014.83 249.986 1023.02 241.684 1031.21 244.828C1039.4 247.972 1047.58 264.092 1055.77 282.552C1063.96 301.012 1072.15 346.785 1080.34 355.588C1088.53 364.39 1096.72 339.124 1104.91 335.366C1113.09 331.607 1121.28 335.093 1129.47 333.037C1137.66 330.98 1145.85 325.12 1154.04 323.028C1162.23 320.935 1170.42 319.89 1178.6 320.481C1186.79 321.072 1194.98 323.574 1203.17 326.576C1211.36 329.577 1219.55 334.468 1227.74 338.489C1235.92 342.51 1244.11 347.525 1252.3 350.703C1260.49 353.882 1268.68 356.697 1276.87 357.56C1285.06 358.424 1293.25 357.736 1301.43 355.885C1309.62 354.033 1326 346.452 1326 346.452V358C1326 358 1309.62 358 1301.43 358C1293.25 358 1285.06 358 1276.87 358C1268.68 358 1260.49 358 1252.3 358C1244.11 358 1235.92 358 1227.74 358C1219.55 358 1211.36 358 1203.17 358C1194.98 358 1186.79 358 1178.6 358C1170.42 358 1162.23 358 1154.04 358C1145.85 358 1137.66 358 1129.47 358C1121.28 358 1113.09 358 1104.91 358C1096.72 358 1088.53 358 1080.34 358C1072.15 358 1063.96 358 1055.77 358C1047.58 358 1039.4 358 1031.21 358C1023.02 358 1014.83 358 1006.64 358C998.453 358 990.264 358 982.076 358C973.887 358 965.698 358 957.509 358C949.321 358 941.132 358 932.943 358C924.755 358 916.566 358 908.377 358C900.189 358 892 358 883.811 358C875.623 358 867.434 358 859.245 358C851.057 358 842.868 358 834.679 358C826.49 358 818.302 358 810.113 358C801.924 358 793.736 358 785.547 358C777.358 358 769.17 358 760.981 358C752.792 358 744.604 358 736.415 358C728.226 358 720.038 358 711.849 358C703.66 358 695.472 358 687.283 358C679.094 358 670.906 358 662.717 358C654.528 358 646.34 358 638.151 358C629.962 358 621.774 358 613.585 358C605.396 358 597.208 358 589.019 358C580.83 358 572.641 358 564.453 358C556.264 358 548.075 358 539.887 358C531.698 358 523.509 358 515.321 358C507.132 358 498.943 358 490.755 358C482.566 358 474.377 358 466.189 358C458 358 449.811 358 441.623 358C433.434 358 425.245 358 417.057 358C408.868 358 400.679 358 392.491 358C384.302 358 376.113 358 367.925 358C359.736 358 351.547 358 343.358 358C335.17 358 326.981 358 318.792 358C310.604 358 302.415 358 294.226 358C286.038 358 277.849 358 269.66 358C261.472 358 253.283 358 245.094 358C236.906 358 228.717 358 220.528 358C212.34 358 204.151 358 195.962 358C187.774 358 179.585 358 171.396 358C163.208 358 155.019 358 146.83 358C138.641 358 130.453 358 122.264 358C114.075 358 105.887 358 97.6981 358C89.5094 358 81.3207 358 73.1321 358C64.9434 358 56.7547 358 48.566 358C40.3774 358 24 358 24 358V330.172Z" fill="url(#paint0_linear)"/>
<path d="M24 309.083C24 309.083 40.3774 322.534 48.566 320.348C56.7547 318.162 64.9434 299.344 73.1321 295.968C81.3207 292.592 89.5094 292.855 97.6981 300.094C105.887 307.334 114.075 336.784 122.264 339.404C130.453 342.025 138.641 316.258 146.83 315.818C155.019 315.377 163.208 336.406 171.396 336.763C179.585 337.119 187.774 341.946 195.962 317.957C204.151 293.968 212.34 194.063 220.528 192.828C228.717 191.593 236.906 292.464 245.094 310.549C253.283 328.633 261.472 305.762 269.66 301.336C277.849 296.909 286.038 280.056 294.226 283.99C302.415 287.923 310.604 321.074 318.792 324.935C326.981 328.797 335.17 304.198 343.358 307.159C351.547 310.121 359.736 338.452 367.925 342.702C376.113 346.953 384.302 331.647 392.491 332.664C400.679 333.681 408.868 349.405 417.057 348.802C425.245 348.199 433.434 340.536 441.623 329.045C449.811 317.554 458 312.158 466.189 279.858C474.377 247.559 482.566 149.044 490.755 135.248C498.943 121.452 507.132 171.153 515.321 197.081C523.509 223.01 531.698 267.914 539.887 290.819C548.075 313.723 556.264 326.565 564.453 334.509C572.641 342.453 580.83 339.704 589.019 338.484C597.208 337.263 605.396 326.024 613.585 327.187C621.774 328.349 629.962 348.797 638.151 345.458C646.34 342.12 654.528 313.55 662.717 307.158C670.906 300.767 679.094 310.833 687.283 307.107C695.472 303.38 703.66 295.08 711.849 284.8C720.038 274.52 728.226 269.686 736.415 245.426C744.604 221.165 752.792 132.93 760.981 139.237C769.17 145.544 777.358 253.601 785.547 283.268C793.736 312.936 801.924 310.79 810.113 317.243C818.302 323.697 826.49 321.764 834.679 321.989C842.868 322.214 851.057 317.846 859.245 318.593C867.434 319.34 875.623 326.127 883.811 326.473C892 326.818 900.189 330.7 908.377 320.665C916.566 310.63 924.755 268.036 932.943 266.263C941.132 264.491 949.321 305.117 957.509 310.03C965.698 314.944 973.887 305.117 982.076 295.747C990.264 286.376 998.453 265.543 1006.64 253.807C1014.83 242.071 1023.02 220.988 1031.21 225.329C1039.4 229.671 1047.58 261.982 1055.77 279.858C1063.96 297.735 1072.15 328.294 1080.34 332.59C1088.53 336.886 1096.72 309.917 1104.91 305.634C1113.09 301.35 1121.28 306.937 1129.47 306.888C1137.66 306.838 1145.85 303.568 1154.04 305.336C1162.23 307.103 1170.42 316.778 1178.6 317.492C1186.79 318.205 1194.98 309.974 1203.17 309.617C1211.36 309.26 1219.55 314.258 1227.74 315.351C1235.92 316.444 1244.11 314.555 1252.3 316.176C1260.49 317.797 1268.68 321.596 1276.87 325.076C1285.06 328.557 1293.25 335.69 1301.43 337.059C1309.62 338.428 1326 333.291 1326 333.291V346.475C1326 346.475 1309.62 354.045 1301.43 355.894C1293.25 357.743 1285.06 358.43 1276.87 357.567C1268.68 356.705 1260.49 353.894 1252.3 350.72C1244.11 347.546 1235.92 342.539 1227.74 338.523C1219.55 334.508 1211.36 329.624 1203.17 326.627C1194.98 323.63 1186.79 321.131 1178.6 320.541C1170.42 319.95 1162.23 320.994 1154.04 323.084C1145.85 325.174 1137.66 331.025 1129.47 333.078C1121.28 335.132 1113.09 331.651 1104.91 335.404C1096.72 339.157 1088.53 364.387 1080.34 355.597C1072.15 346.808 1063.96 301.1 1055.77 282.666C1047.58 264.233 1039.4 248.136 1031.21 244.997C1023.02 241.857 1014.83 250.148 1006.64 263.831C998.453 277.515 990.264 317.631 982.076 327.1C973.887 336.568 965.698 321.365 957.509 320.643C949.321 319.921 941.132 320.793 932.943 322.768C924.755 324.742 916.566 328.734 908.377 332.49C900.189 336.247 892 341.509 883.811 345.308C875.623 349.106 867.434 353.201 859.245 355.282C851.057 357.364 842.868 358.395 834.679 357.795C826.49 357.195 818.302 354.685 810.113 351.681C801.924 348.678 793.736 343.789 785.547 339.773C777.358 335.757 769.17 330.754 760.981 327.586C752.792 324.418 744.604 321.618 736.415 320.765C728.226 319.913 720.038 320.612 711.849 322.47C703.66 324.327 695.472 328.203 687.283 331.91C679.094 335.617 670.906 340.873 662.717 344.713C654.528 348.553 646.34 352.756 638.151 354.95C629.962 357.144 621.774 358.346 613.585 357.878C605.396 357.41 597.208 355.055 589.019 352.141C580.83 349.228 572.641 344.407 564.453 340.397C556.264 336.388 548.075 347.125 539.887 328.085C531.698 309.046 523.509 252.566 515.321 226.162C507.132 199.757 498.943 160.239 490.755 169.657C482.566 179.074 474.377 253.59 466.189 282.666C458 311.742 449.811 332.124 441.623 344.113C433.434 356.102 425.245 352.295 417.057 354.6C408.868 356.904 400.679 358.276 392.491 357.94C384.302 357.605 376.113 355.407 367.925 352.587C359.736 349.767 351.547 345.019 343.358 341.02C335.17 337.022 326.981 331.922 318.792 328.597C310.604 325.272 302.415 322.182 294.226 321.071C286.038 319.96 277.849 320.312 269.66 321.929C261.472 323.546 253.283 327.177 245.094 330.773C236.906 334.37 228.717 339.597 220.528 343.507C212.34 347.417 204.151 351.82 195.962 354.233C187.774 356.645 179.585 358.185 171.396 357.982C163.208 357.78 155.019 355.742 146.83 353.019C138.641 350.295 130.453 345.624 122.264 341.641C114.075 337.658 105.887 332.518 97.6981 329.12C89.5094 325.722 81.3207 322.493 73.1321 321.254C64.9434 320.015 56.7547 320.193 48.566 321.687C40.3774 323.181 24 330.218 24 330.218V309.083Z" fill="url(#paint1_linear)"/>
<path d="M24 305.472C24 305.472 40.3774 295.314 48.566 288.398C56.7547 281.482 64.9434 264.52 73.1321 263.975C81.3207 263.431 89.5094 273.616 97.6981 285.13C105.887 296.645 114.075 332.217 122.264 333.063C130.453 333.91 138.641 291.313 146.83 290.212C155.019 289.11 163.208 322.295 171.396 326.455C179.585 330.614 187.774 343.151 195.962 315.171C204.151 287.191 212.34 164.035 220.528 158.573C228.717 153.11 236.906 263.435 245.094 282.398C253.283 301.361 261.472 290.696 269.66 272.351C277.849 254.005 286.038 194.698 294.226 172.325C302.415 149.952 310.604 159.252 318.792 138.112C326.981 116.972 335.17 23.8043 343.358 45.4858C351.547 67.1673 359.736 225.803 367.925 268.201C376.113 310.598 384.302 287.641 392.491 299.872C400.679 312.104 408.868 337.267 417.057 341.59C425.245 345.913 433.434 341.334 441.623 325.812C449.811 310.289 458 284.514 466.189 248.456C474.377 212.398 482.566 119.567 490.755 109.466C498.943 99.3659 507.132 160.821 515.321 187.854C523.509 214.887 531.698 249.785 539.887 271.667C548.075 293.548 556.264 310.261 564.453 319.142C572.641 328.023 580.83 325.388 589.019 324.954C597.208 324.52 605.396 316.565 613.585 316.538C621.774 316.51 629.962 327.497 638.151 324.789C646.34 322.082 654.528 305.452 662.717 300.293C670.906 295.133 679.094 297.538 687.283 293.832C695.472 290.125 703.66 286.897 711.849 278.052C720.038 269.206 728.226 269.347 736.415 240.758C744.604 212.17 752.792 101.808 760.981 106.521C769.17 111.233 777.358 238.775 785.547 269.034C793.736 299.293 801.924 285.398 810.113 288.072C818.302 290.746 826.49 283.064 834.679 285.079C842.868 287.095 851.057 295.675 859.245 300.164C867.434 304.652 875.623 311.471 883.811 312.011C892 312.551 900.189 313.073 908.377 303.403C916.566 293.733 924.755 257.157 932.943 253.992C941.132 250.827 949.321 314.812 957.509 284.414C965.698 254.016 973.887 80.249 982.076 71.6047C990.264 62.9603 998.453 208 1006.64 232.548C1014.83 257.096 1023.02 216.243 1031.21 218.894C1039.4 221.546 1047.58 233.675 1055.77 248.456C1063.96 263.236 1072.15 303.66 1080.34 307.577C1088.53 311.495 1096.72 277.383 1104.91 271.959C1113.09 266.535 1121.28 272.435 1129.47 275.035C1137.66 277.635 1145.85 282.071 1154.04 287.56C1162.23 293.049 1170.42 309.547 1178.6 307.971C1186.79 306.394 1194.98 278.385 1203.17 278.101C1211.36 277.817 1219.55 305.845 1227.74 306.264C1235.92 306.684 1244.11 281.395 1252.3 280.617C1260.49 279.84 1268.68 293.655 1276.87 301.599C1285.06 309.544 1293.25 328.457 1301.43 328.282C1309.62 328.106 1326 300.547 1326 300.547V333.782C1326 333.782 1309.62 338.892 1301.43 337.531C1293.25 336.169 1285.06 329.073 1276.87 325.611C1268.68 322.149 1260.49 318.369 1252.3 316.757C1244.11 315.145 1235.92 317.024 1227.74 315.937C1219.55 314.85 1211.36 309.878 1203.17 310.233C1194.98 310.588 1186.79 318.776 1178.6 318.066C1170.42 317.357 1162.23 307.732 1154.04 305.974C1145.85 304.216 1137.66 307.469 1129.47 307.518C1121.28 307.567 1113.09 302.009 1104.91 306.27C1096.72 310.531 1088.53 337.358 1080.34 333.085C1072.15 328.812 1063.96 298.414 1055.77 280.631C1047.58 262.848 1039.4 230.708 1031.21 226.389C1023.02 222.069 1014.83 243.042 1006.64 254.716C998.453 266.391 990.264 287.114 982.076 296.435C973.887 305.757 965.698 315.532 957.509 310.644C949.321 305.756 941.132 265.344 932.943 267.107C924.755 268.87 916.566 311.241 908.377 321.223C900.189 331.205 892 327.343 883.811 327C875.623 326.656 867.434 319.905 859.245 319.162C851.057 318.419 842.868 322.764 834.679 322.54C826.49 322.316 818.302 324.239 810.113 317.819C801.924 311.399 793.736 313.534 785.547 284.023C777.358 254.511 769.17 147.023 760.981 140.749C752.792 134.475 744.604 222.246 736.415 246.379C728.226 270.512 720.038 275.32 711.849 285.546C703.66 295.772 695.472 304.029 687.283 307.736C679.094 311.443 670.906 301.429 662.717 307.787C654.528 314.146 646.34 342.565 638.151 345.886C629.962 349.206 621.774 328.867 613.585 327.71C605.396 326.554 597.208 337.734 589.019 338.948C580.83 340.162 572.641 342.897 564.453 334.994C556.264 327.092 548.075 314.318 539.887 291.533C531.698 268.749 523.509 224.081 515.321 198.289C507.132 172.497 498.943 123.057 490.755 136.78C482.566 150.504 474.377 248.501 466.189 280.631C458 312.761 449.811 318.129 441.623 329.559C433.434 340.989 425.245 348.612 417.057 349.212C408.868 349.812 400.679 334.17 392.491 333.159C384.302 332.147 376.113 347.373 367.925 343.144C359.736 338.916 351.547 310.734 343.358 307.788C335.17 304.843 326.981 329.312 318.792 325.471C310.604 321.629 302.415 288.653 294.226 284.74C286.038 280.828 277.849 297.592 269.66 301.995C261.472 306.399 253.283 329.149 245.094 311.159C236.906 293.17 228.717 192.83 220.528 194.058C212.34 195.286 204.151 294.666 195.962 318.529C187.774 342.392 179.585 337.591 171.396 337.236C163.208 336.881 155.019 315.963 146.83 316.401C138.641 316.839 130.453 342.47 122.264 339.864C114.075 337.257 105.887 307.961 97.6981 300.76C89.5094 293.559 81.3207 293.298 73.1321 296.656C64.9434 300.014 56.7547 318.733 48.566 320.907C40.3774 323.082 24 309.702 24 309.702V305.472Z" fill="url(#paint2_linear)"/>
<path d="M24 297.4C24 297.4 40.3774 287.931 48.566 282.401C56.7547 276.87 64.9434 269.913 73.1321 264.216C81.3207 258.519 89.5094 236.745 97.6981 248.218C105.887 259.691 114.075 332.251 122.264 333.054C130.453 333.856 138.641 259.832 146.83 253.033C155.019 246.233 163.208 282.482 171.396 292.257C179.585 302.032 187.774 339.475 195.962 311.682C204.151 283.888 212.34 134.746 220.528 125.496C228.717 116.247 236.906 237.626 245.094 256.184C253.283 274.743 261.472 254.027 269.66 236.846C277.849 219.665 286.038 175.2 294.226 153.1C302.415 131 310.604 122.429 318.792 104.246C326.981 86.064 335.17 17.0975 343.358 44.0048C351.547 70.9122 359.736 229.203 367.925 265.691C376.113 302.178 384.302 253.854 392.491 262.93C400.679 272.005 408.868 315.591 417.057 320.143C425.245 324.695 433.434 307.984 441.623 290.242C449.811 272.5 458 249.867 466.189 213.694C474.377 177.52 482.566 78.2211 490.755 73.202C498.943 68.1828 507.132 151.383 515.321 183.579C523.509 215.775 531.698 247.517 539.887 266.376C548.075 285.235 556.264 288.023 564.453 296.732C572.641 305.441 580.83 318.588 589.019 318.63C597.208 318.673 605.396 297.552 613.585 296.988C621.774 296.423 629.962 320.095 638.151 315.243C646.34 310.392 654.528 271.715 662.717 267.879C670.906 264.043 679.094 295.933 687.283 292.228C695.472 288.523 703.66 254.215 711.849 245.649C720.038 237.082 728.226 268.507 736.415 240.83C744.604 213.152 752.792 75.458 760.981 79.5815C769.17 83.7049 777.358 236.997 785.547 265.57C793.736 294.144 801.924 249.286 810.113 251.023C818.302 252.759 826.49 292.724 834.679 275.99C842.868 259.255 851.057 146.442 859.245 150.617C867.434 154.791 875.623 281.021 883.811 301.035C892 321.05 900.189 284.031 908.377 270.702C916.566 257.373 924.755 224.911 932.943 221.062C941.132 217.212 949.321 275.296 957.509 247.604C965.698 219.913 973.887 57.7695 982.076 54.91C990.264 52.0506 998.453 208.513 1006.64 230.448C1014.83 252.383 1023.02 189.313 1031.21 186.52C1039.4 183.728 1047.58 193.881 1055.77 213.694C1063.96 233.507 1072.15 301.245 1080.34 305.398C1088.53 309.551 1096.72 274.838 1104.91 238.613C1113.09 202.388 1121.28 117.297 1129.47 88.0468C1137.66 58.7967 1145.85 28.0999 1154.04 63.1126C1162.23 98.1252 1170.42 268.364 1178.6 298.123C1186.79 327.881 1194.98 246.438 1203.17 241.665C1211.36 236.892 1219.55 264.196 1227.74 269.486C1235.92 274.775 1244.11 273.008 1252.3 273.402C1260.49 273.796 1268.68 263.335 1276.87 271.851C1285.06 280.368 1293.25 325.896 1301.43 324.5C1309.62 323.104 1326 263.474 1326 263.474V300.812C1326 300.812 1309.62 328.359 1301.43 328.534C1293.25 328.709 1285.06 309.805 1276.87 301.865C1268.68 293.925 1260.49 280.116 1252.3 280.893C1244.11 281.67 1235.92 306.946 1227.74 306.527C1219.55 306.108 1211.36 278.094 1203.17 278.378C1194.98 278.662 1186.79 306.657 1178.6 308.233C1170.42 309.808 1162.23 293.319 1154.04 287.832C1145.85 282.346 1137.66 277.912 1129.47 275.313C1121.28 272.714 1113.09 266.818 1104.91 272.239C1096.72 277.66 1088.53 311.755 1080.34 307.84C1072.15 303.925 1063.96 263.521 1055.77 248.748C1047.58 233.974 1039.4 221.85 1031.21 219.2C1023.02 216.55 1014.83 257.383 1006.64 232.847C998.453 208.311 990.264 63.3434 982.076 71.9835C973.887 80.6236 965.698 254.305 957.509 284.688C949.321 315.071 941.132 251.117 932.943 254.281C924.755 257.444 916.566 294.002 908.377 303.668C900.189 313.333 892 312.811 883.811 312.271C875.623 311.732 867.434 304.916 859.245 300.43C851.057 295.943 842.868 287.367 834.679 285.353C826.49 283.339 818.302 291.017 810.113 288.344C801.924 285.671 793.736 299.559 785.547 269.315C777.358 239.072 769.17 111.592 760.981 106.882C752.792 102.172 744.604 212.479 736.415 241.054C728.226 269.628 720.038 269.488 711.849 278.329C703.66 287.17 695.472 290.396 687.283 294.101C679.094 297.806 670.906 295.402 662.717 300.559C654.528 305.716 646.34 322.337 638.151 325.043C629.962 327.749 621.774 316.768 613.585 316.796C605.396 316.823 597.208 324.774 589.019 325.207C580.83 325.641 572.641 328.275 564.453 319.398C556.264 310.522 548.075 293.817 539.887 271.947C531.698 250.076 523.509 215.195 515.321 188.175C507.132 161.155 498.943 99.7311 490.755 109.826C482.566 119.922 474.377 212.708 466.189 248.748C458 284.787 449.811 310.55 441.623 326.065C433.434 341.58 425.245 346.157 417.057 341.836C408.868 337.514 400.679 312.364 392.491 300.138C384.302 287.913 376.113 310.859 367.925 268.483C359.736 226.106 351.547 67.5483 343.358 45.8775C335.17 24.2067 326.981 117.328 318.792 138.458C310.604 159.587 302.415 150.292 294.226 172.654C286.038 195.016 277.849 254.294 269.66 272.63C261.472 290.967 253.283 301.626 245.094 282.673C236.906 263.719 228.717 153.449 220.528 158.909C212.34 164.368 204.151 287.463 195.962 315.43C187.774 343.396 179.585 330.865 171.396 326.708C163.208 322.55 155.019 289.382 146.83 290.482C138.641 291.583 130.453 334.16 122.264 333.313C114.075 332.467 105.887 296.913 97.6981 285.404C89.5094 273.895 81.3207 263.715 73.1321 264.259C64.9434 264.804 56.7547 281.757 48.566 288.67C40.3774 295.582 24 305.735 24 305.735V297.4Z" fill="url(#paint3_linear)"/>
<defs>
<linearGradient id="paint0_linear" x1="675" y1="167.958" x2="675" y2="358" gradientUnits="userSpaceOnUse">
<stop stop-color="#D0EFD2"/>
<stop offset="1" stop-color="#A2E0A5"/>
</linearGradient>
<linearGradient id="paint1_linear" x1="675" y1="132.873" x2="675" y2="358" gradientUnits="userSpaceOnUse">
<stop stop-color="#D0EBEF"/>
<stop offset="1" stop-color="#A2D9E0"/>
</linearGradient>
<linearGradient id="paint2_linear" x1="675" y1="42.2373" x2="675" y2="349.229" gradientUnits="userSpaceOnUse">
<stop stop-color="#D4D0EF"/>
<stop offset="1" stop-color="#ABA2E0"/>
</linearGradient>
<linearGradient id="paint3_linear" x1="675" y1="37.8517" x2="675" y2="343.381" gradientUnits="userSpaceOnUse">
<stop stop-color="#EED0EF"/>
<stop offset="1" stop-color="#E0A2DE"/>
</linearGradient>
<clipPath id="clip0">
<rect width="1326" height="390" fill="white"/>
</clipPath>
</defs>
</svg>
